G04 #@! TF.GenerationSoftware,KiCad,Pcbnew,6.0.9-8da3e8f707~118~ubuntu22.10.1*
G04 #@! TF.CreationDate,2022-11-30T23:30:13+01:00*
G04 #@! TF.ProjectId,ilse,696c7365-2e6b-4696-9361-645f70636258,2*
G04 #@! TF.SameCoordinates,PX5702e0cPY22a4fe8*
G04 #@! TF.FileFunction,Soldermask,Top*
G04 #@! TF.FilePolarity,Negative*
%FSLAX46Y46*%
G04 Gerber Fmt 4.6, Leading zero omitted, Abs format (unit mm)*
G04 Created by KiCad (PCBNEW 6.0.9-8da3e8f707~118~ubuntu22.10.1) date 2022-11-30 23:30:13*
%MOMM*%
%LPD*%
G01*
G04 APERTURE LIST*
G04 Aperture macros list*
%AMRoundRect*
0 Rectangle with rounded corners*
0 $1 Rounding radius*
0 $2 $3 $4 $5 $6 $7 $8 $9 X,Y pos of 4 corners*
0 Add a 4 corners polygon primitive as box body*
4,1,4,$2,$3,$4,$5,$6,$7,$8,$9,$2,$3,0*
0 Add four circle primitives for the rounded corners*
1,1,$1+$1,$2,$3*
1,1,$1+$1,$4,$5*
1,1,$1+$1,$6,$7*
1,1,$1+$1,$8,$9*
0 Add four rect primitives between the rounded corners*
20,1,$1+$1,$2,$3,$4,$5,0*
20,1,$1+$1,$4,$5,$6,$7,0*
20,1,$1+$1,$6,$7,$8,$9,0*
20,1,$1+$1,$8,$9,$2,$3,0*%
G04 Aperture macros list end*
%ADD10C,0.010000*%
%ADD11C,3.000000*%
%ADD12R,1.930000X1.830000*%
%ADD13C,2.130000*%
%ADD14R,1.800000X1.800000*%
%ADD15C,1.800000*%
%ADD16RoundRect,0.750000X0.750000X-1.250000X0.750000X1.250000X-0.750000X1.250000X-0.750000X-1.250000X0*%
%ADD17O,3.260000X1.970000*%
%ADD18O,1.560000X1.310000*%
%ADD19R,1.600000X1.600000*%
%ADD20C,1.600000*%
%ADD21R,1.700000X1.700000*%
%ADD22O,1.700000X1.700000*%
%ADD23O,1.600000X1.600000*%
%ADD24C,1.440000*%
%ADD25R,1.500000X1.500000*%
%ADD26C,1.500000*%
G04 APERTURE END LIST*
G36*
X71833510Y-4557548D02*
G01*
X71912054Y-4557978D01*
X71968898Y-4559142D01*
X72007705Y-4561407D01*
X72032138Y-4565140D01*
X72045862Y-4570706D01*
X72052540Y-4578473D01*
X72055836Y-4588805D01*
X72056156Y-4590143D01*
X72061162Y-4614279D01*
X72070429Y-4661901D01*
X72082992Y-4727941D01*
X72097887Y-4807328D01*
X72114151Y-4894996D01*
X72114719Y-4898075D01*
X72131010Y-4983989D01*
X72146252Y-5059896D01*
X72159461Y-5121245D01*
X72169654Y-5163482D01*
X72175848Y-5182055D01*
X72176143Y-5182384D01*
X72194388Y-5191453D01*
X72232005Y-5206567D01*
X72280871Y-5224462D01*
X72281143Y-5224558D01*
X72342693Y-5247693D01*
X72415257Y-5277165D01*
X72483657Y-5306797D01*
X72486894Y-5308262D01*
X72598302Y-5358826D01*
X72844999Y-5190360D01*
X72920677Y-5139003D01*
X72989231Y-5093089D01*
X73046688Y-5055230D01*
X73089076Y-5028037D01*
X73112425Y-5014121D01*
X73114642Y-5013089D01*
X73131610Y-5017684D01*
X73163301Y-5039855D01*
X73210952Y-5080647D01*
X73275798Y-5141105D01*
X73341997Y-5205427D01*
X73405814Y-5268812D01*
X73462929Y-5326651D01*
X73509905Y-5375375D01*
X73543303Y-5411410D01*
X73559685Y-5431184D01*
X73560294Y-5432202D01*
X73562105Y-5445772D01*
X73555283Y-5467933D01*
X73538140Y-5501678D01*
X73508993Y-5550000D01*
X73466155Y-5615892D01*
X73409048Y-5700717D01*
X73358366Y-5775377D01*
X73313061Y-5842340D01*
X73275750Y-5897716D01*
X73249052Y-5937620D01*
X73235585Y-5958162D01*
X73234737Y-5959556D01*
X73236381Y-5979238D01*
X73248845Y-6017493D01*
X73269648Y-6067089D01*
X73277062Y-6082928D01*
X73309414Y-6153490D01*
X73343928Y-6233553D01*
X73371965Y-6302829D01*
X73392168Y-6354245D01*
X73408215Y-6393319D01*
X73417488Y-6413741D01*
X73418641Y-6415314D01*
X73435696Y-6417921D01*
X73475898Y-6425063D01*
X73533902Y-6435723D01*
X73604363Y-6448885D01*
X73681935Y-6463533D01*
X73761272Y-6478649D01*
X73837031Y-6493218D01*
X73903864Y-6506222D01*
X73956428Y-6516645D01*
X73989376Y-6523470D01*
X73997457Y-6525399D01*
X74005805Y-6530162D01*
X74012106Y-6540918D01*
X74016645Y-6561298D01*
X74019704Y-6594934D01*
X74021567Y-6645455D01*
X74022518Y-6716492D01*
X74022840Y-6811676D01*
X74022857Y-6850692D01*
X74022857Y-7167999D01*
X73946657Y-7183039D01*
X73904263Y-7191195D01*
X73841000Y-7203099D01*
X73764562Y-7217316D01*
X73682643Y-7232410D01*
X73660000Y-7236555D01*
X73584406Y-7251253D01*
X73518553Y-7265705D01*
X73467966Y-7278575D01*
X73438174Y-7288522D01*
X73433212Y-7291487D01*
X73421026Y-7312483D01*
X73403553Y-7353167D01*
X73384177Y-7405522D01*
X73380334Y-7416800D01*
X73354939Y-7486723D01*
X73323417Y-7565618D01*
X73292569Y-7636466D01*
X73292417Y-7636795D01*
X73241047Y-7747933D01*
X73409999Y-7996453D01*
X73578952Y-8244972D01*
X73362029Y-8462258D01*
X73296419Y-8526926D01*
X73236579Y-8583933D01*
X73185867Y-8630233D01*
X73147646Y-8662784D01*
X73125275Y-8678543D01*
X73122066Y-8679543D01*
X73103226Y-8671669D01*
X73064780Y-8649778D01*
X73010930Y-8616467D01*
X72945876Y-8574331D01*
X72875540Y-8527143D01*
X72804155Y-8479010D01*
X72740508Y-8437128D01*
X72688641Y-8404071D01*
X72652595Y-8382418D01*
X72636467Y-8374743D01*
X72616789Y-8381237D01*
X72579475Y-8398350D01*
X72532221Y-8422526D01*
X72527212Y-8425213D01*
X72463577Y-8457127D01*
X72419941Y-8472779D01*
X72392802Y-8472945D01*
X72378657Y-8458404D01*
X72378575Y-8458200D01*
X72371505Y-8440979D01*
X72354642Y-8400099D01*
X72329295Y-8338725D01*
X72296771Y-8260019D01*
X72258378Y-8167147D01*
X72215422Y-8063272D01*
X72173822Y-7962702D01*
X72128104Y-7851716D01*
X72086126Y-7748903D01*
X72049148Y-7657415D01*
X72018427Y-7580401D01*
X71995222Y-7521015D01*
X71980790Y-7482409D01*
X71976343Y-7468000D01*
X71987496Y-7451472D01*
X72016669Y-7425130D01*
X72055571Y-7396087D01*
X72166357Y-7304239D01*
X72252951Y-7198959D01*
X72314316Y-7082466D01*
X72349415Y-6956976D01*
X72357208Y-6824707D01*
X72351543Y-6763657D01*
X72320678Y-6636995D01*
X72267520Y-6525141D01*
X72195367Y-6429201D01*
X72107517Y-6350276D01*
X72007265Y-6289470D01*
X71897910Y-6247887D01*
X71782747Y-6226628D01*
X71665075Y-6226799D01*
X71548190Y-6249501D01*
X71435389Y-6295838D01*
X71329969Y-6366913D01*
X71285968Y-6407111D01*
X71201579Y-6510329D01*
X71142822Y-6623125D01*
X71109304Y-6742210D01*
X71100635Y-6864295D01*
X71116423Y-6986093D01*
X71156278Y-7104316D01*
X71219807Y-7215675D01*
X71306621Y-7316884D01*
X71403629Y-7396087D01*
X71444037Y-7426362D01*
X71472582Y-7452419D01*
X71482857Y-7468025D01*
X71477477Y-7485043D01*
X71462175Y-7525700D01*
X71438212Y-7586842D01*
X71406844Y-7665319D01*
X71369332Y-7757980D01*
X71326933Y-7861672D01*
X71285263Y-7962726D01*
X71239290Y-8073807D01*
X71196707Y-8176741D01*
X71158821Y-8268365D01*
X71126940Y-8345516D01*
X71102371Y-8405031D01*
X71086420Y-8443744D01*
X71080510Y-8458200D01*
X71066548Y-8472885D01*
X71039540Y-8472842D01*
X70996013Y-8457299D01*
X70932490Y-8425484D01*
X70931988Y-8425213D01*
X70884160Y-8400523D01*
X70845497Y-8382538D01*
X70823695Y-8374814D01*
X70822733Y-8374743D01*
X70806321Y-8382578D01*
X70770087Y-8404365D01*
X70718074Y-8437528D01*
X70654325Y-8479491D01*
X70583660Y-8527143D01*
X70511716Y-8575391D01*
X70446874Y-8617351D01*
X70393335Y-8650427D01*
X70355297Y-8672021D01*
X70337133Y-8679543D01*
X70320408Y-8669657D01*
X70286780Y-8642026D01*
X70239610Y-8599695D01*
X70182258Y-8545705D01*
X70118084Y-8483099D01*
X70097097Y-8462183D01*
X69880099Y-8244823D01*
X70045268Y-8002420D01*
X70095464Y-7927981D01*
X70139519Y-7861172D01*
X70174962Y-7805865D01*
X70199319Y-7765929D01*
X70210122Y-7745236D01*
X70210438Y-7743763D01*
X70204743Y-7724258D01*
X70189426Y-7685022D01*
X70167137Y-7632630D01*
X70151493Y-7597555D01*
X70122241Y-7530401D01*
X70094694Y-7462558D01*
X70073337Y-7405234D01*
X70067535Y-7387772D01*
X70051052Y-7341138D01*
X70034940Y-7305105D01*
X70026090Y-7291487D01*
X70006560Y-7283152D01*
X69963934Y-7271337D01*
X69903745Y-7257381D01*
X69831522Y-7242622D01*
X69799200Y-7236555D01*
X69717122Y-7221473D01*
X69638395Y-7206869D01*
X69570709Y-7194180D01*
X69521760Y-7184842D01*
X69512543Y-7183039D01*
X69436343Y-7167999D01*
X69436343Y-6850692D01*
X69436514Y-6746354D01*
X69437216Y-6667413D01*
X69438734Y-6610238D01*
X69441349Y-6571199D01*
X69445346Y-6546665D01*
X69451009Y-6533005D01*
X69458620Y-6526589D01*
X69461743Y-6525399D01*
X69480578Y-6521180D01*
X69522188Y-6512762D01*
X69581230Y-6501161D01*
X69652357Y-6487395D01*
X69730225Y-6472480D01*
X69809487Y-6457432D01*
X69884798Y-6443269D01*
X69950813Y-6431006D01*
X70002187Y-6421661D01*
X70033575Y-6416250D01*
X70040559Y-6415314D01*
X70046885Y-6402796D01*
X70060890Y-6369446D01*
X70079955Y-6321577D01*
X70087234Y-6302829D01*
X70116596Y-6230395D01*
X70151171Y-6150370D01*
X70182137Y-6082928D01*
X70204923Y-6031359D01*
X70220082Y-5988985D01*
X70225142Y-5963034D01*
X70224336Y-5959556D01*
X70213641Y-5943136D01*
X70189220Y-5906617D01*
X70153695Y-5853887D01*
X70109687Y-5788835D01*
X70059817Y-5715351D01*
X70049956Y-5700845D01*
X69992092Y-5614904D01*
X69949556Y-5549461D01*
X69920654Y-5501504D01*
X69903690Y-5468020D01*
X69896967Y-5445995D01*
X69898790Y-5432417D01*
X69898836Y-5432331D01*
X69913186Y-5414497D01*
X69944923Y-5380017D01*
X69990610Y-5332468D01*
X70046804Y-5275422D01*
X70110068Y-5212455D01*
X70117202Y-5205427D01*
X70196930Y-5128220D01*
X70258457Y-5071530D01*
X70303021Y-5034310D01*
X70331857Y-5015515D01*
X70344558Y-5013089D01*
X70363094Y-5023671D01*
X70401561Y-5048116D01*
X70455986Y-5083812D01*
X70522398Y-5128147D01*
X70596825Y-5178511D01*
X70614201Y-5190360D01*
X70860897Y-5358826D01*
X70972306Y-5308262D01*
X71040057Y-5278795D01*
X71112783Y-5249159D01*
X71175303Y-5225530D01*
X71178057Y-5224558D01*
X71226960Y-5206657D01*
X71264657Y-5191520D01*
X71283025Y-5182410D01*
X71283056Y-5182384D01*
X71288885Y-5165917D01*
X71298792Y-5125419D01*
X71311795Y-5065442D01*
X71326909Y-4990540D01*
X71343152Y-4905264D01*
X71344481Y-4898075D01*
X71360775Y-4810214D01*
X71375733Y-4730460D01*
X71388391Y-4663881D01*
X71397786Y-4615547D01*
X71402954Y-4590525D01*
X71403044Y-4590143D01*
X71406189Y-4579499D01*
X71412304Y-4571462D01*
X71425053Y-4565667D01*
X71448100Y-4561747D01*
X71485109Y-4559335D01*
X71539744Y-4558065D01*
X71615667Y-4557571D01*
X71716544Y-4557486D01*
X71729600Y-4557486D01*
X71833510Y-4557548D01*
G37*
D10*
X71833510Y-4557548D02*
X71912054Y-4557978D01*
X71968898Y-4559142D01*
X72007705Y-4561407D01*
X72032138Y-4565140D01*
X72045862Y-4570706D01*
X72052540Y-4578473D01*
X72055836Y-4588805D01*
X72056156Y-4590143D01*
X72061162Y-4614279D01*
X72070429Y-4661901D01*
X72082992Y-4727941D01*
X72097887Y-4807328D01*
X72114151Y-4894996D01*
X72114719Y-4898075D01*
X72131010Y-4983989D01*
X72146252Y-5059896D01*
X72159461Y-5121245D01*
X72169654Y-5163482D01*
X72175848Y-5182055D01*
X72176143Y-5182384D01*
X72194388Y-5191453D01*
X72232005Y-5206567D01*
X72280871Y-5224462D01*
X72281143Y-5224558D01*
X72342693Y-5247693D01*
X72415257Y-5277165D01*
X72483657Y-5306797D01*
X72486894Y-5308262D01*
X72598302Y-5358826D01*
X72844999Y-5190360D01*
X72920677Y-5139003D01*
X72989231Y-5093089D01*
X73046688Y-5055230D01*
X73089076Y-5028037D01*
X73112425Y-5014121D01*
X73114642Y-5013089D01*
X73131610Y-5017684D01*
X73163301Y-5039855D01*
X73210952Y-5080647D01*
X73275798Y-5141105D01*
X73341997Y-5205427D01*
X73405814Y-5268812D01*
X73462929Y-5326651D01*
X73509905Y-5375375D01*
X73543303Y-5411410D01*
X73559685Y-5431184D01*
X73560294Y-5432202D01*
X73562105Y-5445772D01*
X73555283Y-5467933D01*
X73538140Y-5501678D01*
X73508993Y-5550000D01*
X73466155Y-5615892D01*
X73409048Y-5700717D01*
X73358366Y-5775377D01*
X73313061Y-5842340D01*
X73275750Y-5897716D01*
X73249052Y-5937620D01*
X73235585Y-5958162D01*
X73234737Y-5959556D01*
X73236381Y-5979238D01*
X73248845Y-6017493D01*
X73269648Y-6067089D01*
X73277062Y-6082928D01*
X73309414Y-6153490D01*
X73343928Y-6233553D01*
X73371965Y-6302829D01*
X73392168Y-6354245D01*
X73408215Y-6393319D01*
X73417488Y-6413741D01*
X73418641Y-6415314D01*
X73435696Y-6417921D01*
X73475898Y-6425063D01*
X73533902Y-6435723D01*
X73604363Y-6448885D01*
X73681935Y-6463533D01*
X73761272Y-6478649D01*
X73837031Y-6493218D01*
X73903864Y-6506222D01*
X73956428Y-6516645D01*
X73989376Y-6523470D01*
X73997457Y-6525399D01*
X74005805Y-6530162D01*
X74012106Y-6540918D01*
X74016645Y-6561298D01*
X74019704Y-6594934D01*
X74021567Y-6645455D01*
X74022518Y-6716492D01*
X74022840Y-6811676D01*
X74022857Y-6850692D01*
X74022857Y-7167999D01*
X73946657Y-7183039D01*
X73904263Y-7191195D01*
X73841000Y-7203099D01*
X73764562Y-7217316D01*
X73682643Y-7232410D01*
X73660000Y-7236555D01*
X73584406Y-7251253D01*
X73518553Y-7265705D01*
X73467966Y-7278575D01*
X73438174Y-7288522D01*
X73433212Y-7291487D01*
X73421026Y-7312483D01*
X73403553Y-7353167D01*
X73384177Y-7405522D01*
X73380334Y-7416800D01*
X73354939Y-7486723D01*
X73323417Y-7565618D01*
X73292569Y-7636466D01*
X73292417Y-7636795D01*
X73241047Y-7747933D01*
X73409999Y-7996453D01*
X73578952Y-8244972D01*
X73362029Y-8462258D01*
X73296419Y-8526926D01*
X73236579Y-8583933D01*
X73185867Y-8630233D01*
X73147646Y-8662784D01*
X73125275Y-8678543D01*
X73122066Y-8679543D01*
X73103226Y-8671669D01*
X73064780Y-8649778D01*
X73010930Y-8616467D01*
X72945876Y-8574331D01*
X72875540Y-8527143D01*
X72804155Y-8479010D01*
X72740508Y-8437128D01*
X72688641Y-8404071D01*
X72652595Y-8382418D01*
X72636467Y-8374743D01*
X72616789Y-8381237D01*
X72579475Y-8398350D01*
X72532221Y-8422526D01*
X72527212Y-8425213D01*
X72463577Y-8457127D01*
X72419941Y-8472779D01*
X72392802Y-8472945D01*
X72378657Y-8458404D01*
X72378575Y-8458200D01*
X72371505Y-8440979D01*
X72354642Y-8400099D01*
X72329295Y-8338725D01*
X72296771Y-8260019D01*
X72258378Y-8167147D01*
X72215422Y-8063272D01*
X72173822Y-7962702D01*
X72128104Y-7851716D01*
X72086126Y-7748903D01*
X72049148Y-7657415D01*
X72018427Y-7580401D01*
X71995222Y-7521015D01*
X71980790Y-7482409D01*
X71976343Y-7468000D01*
X71987496Y-7451472D01*
X72016669Y-7425130D01*
X72055571Y-7396087D01*
X72166357Y-7304239D01*
X72252951Y-7198959D01*
X72314316Y-7082466D01*
X72349415Y-6956976D01*
X72357208Y-6824707D01*
X72351543Y-6763657D01*
X72320678Y-6636995D01*
X72267520Y-6525141D01*
X72195367Y-6429201D01*
X72107517Y-6350276D01*
X72007265Y-6289470D01*
X71897910Y-6247887D01*
X71782747Y-6226628D01*
X71665075Y-6226799D01*
X71548190Y-6249501D01*
X71435389Y-6295838D01*
X71329969Y-6366913D01*
X71285968Y-6407111D01*
X71201579Y-6510329D01*
X71142822Y-6623125D01*
X71109304Y-6742210D01*
X71100635Y-6864295D01*
X71116423Y-6986093D01*
X71156278Y-7104316D01*
X71219807Y-7215675D01*
X71306621Y-7316884D01*
X71403629Y-7396087D01*
X71444037Y-7426362D01*
X71472582Y-7452419D01*
X71482857Y-7468025D01*
X71477477Y-7485043D01*
X71462175Y-7525700D01*
X71438212Y-7586842D01*
X71406844Y-7665319D01*
X71369332Y-7757980D01*
X71326933Y-7861672D01*
X71285263Y-7962726D01*
X71239290Y-8073807D01*
X71196707Y-8176741D01*
X71158821Y-8268365D01*
X71126940Y-8345516D01*
X71102371Y-8405031D01*
X71086420Y-8443744D01*
X71080510Y-8458200D01*
X71066548Y-8472885D01*
X71039540Y-8472842D01*
X70996013Y-8457299D01*
X70932490Y-8425484D01*
X70931988Y-8425213D01*
X70884160Y-8400523D01*
X70845497Y-8382538D01*
X70823695Y-8374814D01*
X70822733Y-8374743D01*
X70806321Y-8382578D01*
X70770087Y-8404365D01*
X70718074Y-8437528D01*
X70654325Y-8479491D01*
X70583660Y-8527143D01*
X70511716Y-8575391D01*
X70446874Y-8617351D01*
X70393335Y-8650427D01*
X70355297Y-8672021D01*
X70337133Y-8679543D01*
X70320408Y-8669657D01*
X70286780Y-8642026D01*
X70239610Y-8599695D01*
X70182258Y-8545705D01*
X70118084Y-8483099D01*
X70097097Y-8462183D01*
X69880099Y-8244823D01*
X70045268Y-8002420D01*
X70095464Y-7927981D01*
X70139519Y-7861172D01*
X70174962Y-7805865D01*
X70199319Y-7765929D01*
X70210122Y-7745236D01*
X70210438Y-7743763D01*
X70204743Y-7724258D01*
X70189426Y-7685022D01*
X70167137Y-7632630D01*
X70151493Y-7597555D01*
X70122241Y-7530401D01*
X70094694Y-7462558D01*
X70073337Y-7405234D01*
X70067535Y-7387772D01*
X70051052Y-7341138D01*
X70034940Y-7305105D01*
X70026090Y-7291487D01*
X70006560Y-7283152D01*
X69963934Y-7271337D01*
X69903745Y-7257381D01*
X69831522Y-7242622D01*
X69799200Y-7236555D01*
X69717122Y-7221473D01*
X69638395Y-7206869D01*
X69570709Y-7194180D01*
X69521760Y-7184842D01*
X69512543Y-7183039D01*
X69436343Y-7167999D01*
X69436343Y-6850692D01*
X69436514Y-6746354D01*
X69437216Y-6667413D01*
X69438734Y-6610238D01*
X69441349Y-6571199D01*
X69445346Y-6546665D01*
X69451009Y-6533005D01*
X69458620Y-6526589D01*
X69461743Y-6525399D01*
X69480578Y-6521180D01*
X69522188Y-6512762D01*
X69581230Y-6501161D01*
X69652357Y-6487395D01*
X69730225Y-6472480D01*
X69809487Y-6457432D01*
X69884798Y-6443269D01*
X69950813Y-6431006D01*
X70002187Y-6421661D01*
X70033575Y-6416250D01*
X70040559Y-6415314D01*
X70046885Y-6402796D01*
X70060890Y-6369446D01*
X70079955Y-6321577D01*
X70087234Y-6302829D01*
X70116596Y-6230395D01*
X70151171Y-6150370D01*
X70182137Y-6082928D01*
X70204923Y-6031359D01*
X70220082Y-5988985D01*
X70225142Y-5963034D01*
X70224336Y-5959556D01*
X70213641Y-5943136D01*
X70189220Y-5906617D01*
X70153695Y-5853887D01*
X70109687Y-5788835D01*
X70059817Y-5715351D01*
X70049956Y-5700845D01*
X69992092Y-5614904D01*
X69949556Y-5549461D01*
X69920654Y-5501504D01*
X69903690Y-5468020D01*
X69896967Y-5445995D01*
X69898790Y-5432417D01*
X69898836Y-5432331D01*
X69913186Y-5414497D01*
X69944923Y-5380017D01*
X69990610Y-5332468D01*
X70046804Y-5275422D01*
X70110068Y-5212455D01*
X70117202Y-5205427D01*
X70196930Y-5128220D01*
X70258457Y-5071530D01*
X70303021Y-5034310D01*
X70331857Y-5015515D01*
X70344558Y-5013089D01*
X70363094Y-5023671D01*
X70401561Y-5048116D01*
X70455986Y-5083812D01*
X70522398Y-5128147D01*
X70596825Y-5178511D01*
X70614201Y-5190360D01*
X70860897Y-5358826D01*
X70972306Y-5308262D01*
X71040057Y-5278795D01*
X71112783Y-5249159D01*
X71175303Y-5225530D01*
X71178057Y-5224558D01*
X71226960Y-5206657D01*
X71264657Y-5191520D01*
X71283025Y-5182410D01*
X71283056Y-5182384D01*
X71288885Y-5165917D01*
X71298792Y-5125419D01*
X71311795Y-5065442D01*
X71326909Y-4990540D01*
X71343152Y-4905264D01*
X71344481Y-4898075D01*
X71360775Y-4810214D01*
X71375733Y-4730460D01*
X71388391Y-4663881D01*
X71397786Y-4615547D01*
X71402954Y-4590525D01*
X71403044Y-4590143D01*
X71406189Y-4579499D01*
X71412304Y-4571462D01*
X71425053Y-4565667D01*
X71448100Y-4561747D01*
X71485109Y-4559335D01*
X71539744Y-4558065D01*
X71615667Y-4557571D01*
X71716544Y-4557486D01*
X71729600Y-4557486D01*
X71833510Y-4557548D01*
D11*
X30992014Y-74031238D03*
D12*
X30992014Y-67531238D03*
D13*
X30992014Y-78931238D03*
X30992014Y-70631238D03*
D14*
X8382100Y-56082600D03*
D15*
X10882100Y-56082600D03*
X13382100Y-56082600D03*
D16*
X6482100Y-49082600D03*
X15282100Y-49082600D03*
D14*
X8557100Y-81107600D03*
D15*
X11057100Y-81107600D03*
X13557100Y-81107600D03*
D16*
X6657100Y-74107600D03*
X15457100Y-74107600D03*
D17*
X57439400Y-1904000D03*
D18*
X57589300Y-4088400D03*
D17*
X57439400Y-6604000D03*
X57439400Y-11304000D03*
D18*
X57589300Y-9168400D03*
D17*
X52609400Y-1904000D03*
D18*
X52504300Y-4088400D03*
D17*
X52609400Y-6604000D03*
X52609400Y-11304000D03*
D18*
X52504300Y-9168400D03*
D14*
X38532100Y-55982600D03*
D15*
X41032100Y-55982600D03*
X43532100Y-55982600D03*
D16*
X36632100Y-48982600D03*
X45432100Y-48982600D03*
D14*
X68557100Y-56032600D03*
D15*
X71057100Y-56032600D03*
X73557100Y-56032600D03*
D16*
X66657100Y-49032600D03*
X75457100Y-49032600D03*
D14*
X68532100Y-31207600D03*
D15*
X71032100Y-31207600D03*
X73532100Y-31207600D03*
D16*
X75432100Y-24207600D03*
X66632100Y-24207600D03*
D14*
X8557100Y-31207600D03*
D15*
X11057100Y-31207600D03*
X13557100Y-31207600D03*
D16*
X6657100Y-24207600D03*
X15457100Y-24207600D03*
D14*
X38544600Y-31207600D03*
D15*
X41044600Y-31207600D03*
X43544600Y-31207600D03*
D16*
X36644600Y-24207600D03*
X45444600Y-24207600D03*
D11*
X40992014Y-74031238D03*
D12*
X40992014Y-67531238D03*
D13*
X40992014Y-78931238D03*
X40992014Y-70631238D03*
D14*
X39725000Y-6500000D03*
D15*
X42265000Y-6500000D03*
D14*
X69855100Y-39370000D03*
D15*
X72395100Y-39370000D03*
D11*
X50992014Y-74031238D03*
D12*
X50992014Y-67531238D03*
D13*
X50992014Y-78931238D03*
X50992014Y-70631238D03*
D11*
X70992014Y-74031238D03*
D12*
X70992014Y-67531238D03*
D13*
X70992014Y-78931238D03*
X70992014Y-70631238D03*
D11*
X60992014Y-74031238D03*
D12*
X60992014Y-67531238D03*
D13*
X60992014Y-78931238D03*
X60992014Y-70631238D03*
D14*
X23550850Y-13543600D03*
D15*
X26050850Y-13543600D03*
X28550850Y-13543600D03*
D16*
X21650850Y-6543600D03*
X30450850Y-6543600D03*
D19*
X32014100Y-35558600D03*
D20*
X32014100Y-33058600D03*
D21*
X24790400Y-27482800D03*
D22*
X22250400Y-27482800D03*
D19*
X32014100Y-39622600D03*
D20*
X32014100Y-42122600D03*
X70114100Y-94486600D03*
D23*
X77734100Y-94486600D03*
D20*
X59446100Y-43178600D03*
D23*
X51826100Y-43178600D03*
D19*
X64770100Y-91433600D03*
D23*
X64770100Y-93973600D03*
X64770100Y-96513600D03*
X64770100Y-99053600D03*
X64770100Y-101593600D03*
X64770100Y-104133600D03*
X64770100Y-106673600D03*
X57150100Y-106673600D03*
X57150100Y-104133600D03*
X57150100Y-101593600D03*
X57150100Y-99053600D03*
X57150100Y-96513600D03*
X57150100Y-93973600D03*
X57150100Y-91433600D03*
D20*
X59446100Y-49528600D03*
D23*
X51826100Y-49528600D03*
D20*
X74940100Y-34034600D03*
D23*
X74940100Y-41654600D03*
D21*
X54858194Y-28702000D03*
D22*
X57398194Y-28702000D03*
X54858194Y-26162000D03*
X57398194Y-26162000D03*
X54858194Y-23622000D03*
X57398194Y-23622000D03*
X54858194Y-21082000D03*
X57398194Y-21082000D03*
D20*
X7122100Y-38098600D03*
D23*
X14742100Y-38098600D03*
D20*
X14742100Y-41146600D03*
D23*
X7122100Y-41146600D03*
D20*
X30490100Y-88136600D03*
D23*
X38110100Y-88136600D03*
D20*
X51826100Y-61466600D03*
D23*
X59446100Y-61466600D03*
D20*
X51826100Y-64514600D03*
D23*
X59446100Y-64514600D03*
D19*
X24638100Y-91433600D03*
D23*
X24638100Y-93973600D03*
X24638100Y-96513600D03*
X24638100Y-99053600D03*
X24638100Y-101593600D03*
X24638100Y-104133600D03*
X24638100Y-106673600D03*
X17018100Y-106673600D03*
X17018100Y-104133600D03*
X17018100Y-101593600D03*
X17018100Y-99053600D03*
X17018100Y-96513600D03*
X17018100Y-93973600D03*
X17018100Y-91433600D03*
D24*
X76454000Y-85090000D03*
X73914000Y-82550000D03*
X71374000Y-85090000D03*
D20*
X4836100Y-106678600D03*
D23*
X12456100Y-106678600D03*
D20*
X7376100Y-64514600D03*
D23*
X14996100Y-64514600D03*
D21*
X22923900Y-34508900D03*
D22*
X20383900Y-34508900D03*
X22923900Y-37048900D03*
X20383900Y-37048900D03*
X22923900Y-39588900D03*
X20383900Y-39588900D03*
X22923900Y-42128900D03*
X20383900Y-42128900D03*
X22923900Y-44668900D03*
X20383900Y-44668900D03*
D20*
X38047100Y-91183900D03*
D23*
X30427100Y-91183900D03*
D21*
X23368000Y-71511238D03*
D22*
X23368000Y-74051238D03*
D20*
X30490100Y-106678600D03*
D23*
X38110100Y-106678600D03*
D21*
X22220000Y-52451000D03*
D22*
X24760000Y-52451000D03*
D20*
X77734100Y-88390600D03*
D23*
X70114100Y-88390600D03*
D20*
X14996100Y-61466600D03*
D23*
X7376100Y-61466600D03*
D20*
X4836100Y-100582600D03*
D23*
X12456100Y-100582600D03*
D20*
X22616100Y-62990600D03*
D23*
X30236100Y-62990600D03*
D20*
X12456100Y-103630600D03*
D23*
X4836100Y-103630600D03*
D20*
X38110100Y-103630600D03*
D23*
X30490100Y-103630600D03*
D20*
X10932100Y-95970600D03*
X10932100Y-90970600D03*
X58136100Y-37114600D03*
X53136100Y-37114600D03*
X63470100Y-85342600D03*
X58470100Y-85342600D03*
X63470100Y-88342600D03*
X58470100Y-88342600D03*
X23378100Y-85342600D03*
X18378100Y-85342600D03*
X23378100Y-88342600D03*
X18378100Y-88342600D03*
X59446100Y-46480600D03*
D23*
X51826100Y-46480600D03*
D20*
X28712100Y-100074600D03*
X28712100Y-95074600D03*
X44714100Y-38098600D03*
D23*
X37094100Y-38098600D03*
D20*
X54366100Y-101638600D03*
X54366100Y-106638600D03*
X53136100Y-34082600D03*
X58136100Y-34082600D03*
X44714100Y-61466600D03*
D23*
X37094100Y-61466600D03*
D25*
X32268100Y-100074600D03*
D26*
X32268100Y-97534600D03*
X32268100Y-94994600D03*
D20*
X23114000Y-22987000D03*
X28114000Y-22987000D03*
X28408000Y-56769000D03*
X23408000Y-56769000D03*
D25*
X6614100Y-96010600D03*
D26*
X6614100Y-93470600D03*
X6614100Y-90930600D03*
D25*
X63510100Y-37336600D03*
D26*
X63510100Y-34796600D03*
X63510100Y-32256600D03*
D25*
X23378100Y-76960600D03*
D26*
X23378100Y-79500600D03*
X23378100Y-82040600D03*
D25*
X37348100Y-100074600D03*
D26*
X37348100Y-97534600D03*
X37348100Y-94994600D03*
D25*
X63510100Y-39368600D03*
D26*
X63510100Y-41908600D03*
X63510100Y-44448600D03*
D20*
X37094100Y-41146600D03*
D23*
X44714100Y-41146600D03*
D20*
X37094100Y-64514600D03*
D23*
X44714100Y-64514600D03*
D20*
X70114100Y-97534600D03*
D23*
X77734100Y-97534600D03*
D20*
X50810100Y-94994600D03*
D23*
X43190100Y-94994600D03*
D20*
X70114100Y-91438600D03*
D23*
X77734100Y-91438600D03*
D20*
X45500000Y-16000000D03*
D23*
X45500000Y-8380000D03*
D20*
X50810100Y-100582600D03*
D23*
X43190100Y-100582600D03*
D20*
X70114100Y-106678600D03*
D23*
X77734100Y-106678600D03*
D20*
X70114100Y-103630600D03*
D23*
X77734100Y-103630600D03*
D20*
X43190100Y-103630600D03*
D23*
X50810100Y-103630600D03*
D20*
X51826100Y-40146600D03*
D23*
X59446100Y-40146600D03*
D20*
X43190100Y-88898600D03*
D23*
X50810100Y-88898600D03*
D20*
X50810100Y-91946600D03*
D23*
X43190100Y-91946600D03*
D20*
X77988100Y-34034600D03*
D23*
X77988100Y-41654600D03*
D20*
X67320100Y-62990600D03*
D23*
X74940100Y-62990600D03*
D20*
X50810100Y-106678600D03*
D23*
X43190100Y-106678600D03*
D20*
X70114100Y-100582600D03*
D23*
X77734100Y-100582600D03*
D20*
X50810100Y-85850600D03*
D23*
X43190100Y-85850600D03*
D19*
X27950100Y-38098600D03*
D23*
X27950100Y-30478600D03*
D19*
X27950100Y-49528600D03*
D23*
X27950100Y-41908600D03*
D19*
X50810100Y-97788600D03*
D23*
X43190100Y-97788600D03*
M02*
