%TF.GenerationSoftware,KiCad,Pcbnew,6.0.9-8da3e8f707~118~ubuntu22.10.1*%
%TF.CreationDate,2022-11-30T23:30:03+01:00*%
%TF.ProjectId,ilse,696c7365-2e6b-4696-9361-645f70636258,2*%
%TF.SameCoordinates,PX5702e0cPY22a4fe8*%
%TF.FileFunction,Drillmap*%
%TF.FilePolarity,Positive*%
%FSLAX45Y45*%
G04 Gerber Fmt 4.5, Leading zero omitted, Abs format (unit mm)*
G04 Created by KiCad (PCBNEW 6.0.9-8da3e8f707~118~ubuntu22.10.1) date 2022-11-30 23:30:03*
%MOMM*%
%LPD*%
G01*
G04 APERTURE LIST*
%ADD10C,0.050000*%
%ADD11C,0.200000*%
%ADD12C,0.300000*%
G04 APERTURE END LIST*
D10*
X7975600Y-10896600D02*
X7975600Y-50800D01*
X177800Y-10947400D02*
X7924800Y-10947400D01*
X127000Y-10896600D02*
X127000Y-50800D01*
X7924800Y0D02*
X177800Y0D01*
X7924800Y-10947400D02*
G75*
G03*
X7975600Y-10896600I0J50800D01*
G01*
X177800Y0D02*
G75*
G03*
X127000Y-50800I0J-50800D01*
G01*
X7975600Y-50800D02*
G75*
G03*
X7924800Y0I-50800J0D01*
G01*
X127000Y-10896600D02*
G75*
G03*
X177800Y-10947400I50800J0D01*
G01*
D11*
D12*
X2949201Y-7253124D02*
X3249201Y-7553124D01*
X3249201Y-7253124D02*
X2949201Y-7553124D01*
X3949201Y-7253124D02*
X4249201Y-7553124D01*
X4249201Y-7253124D02*
X3949201Y-7553124D01*
X4949201Y-7253124D02*
X5249201Y-7553124D01*
X5249201Y-7253124D02*
X4949201Y-7553124D01*
X5949201Y-7253124D02*
X6249201Y-7553124D01*
X6249201Y-7253124D02*
X5949201Y-7553124D01*
X6949201Y-7253124D02*
X7249201Y-7553124D01*
X7249201Y-7253124D02*
X6949201Y-7553124D01*
D11*
X382119Y-11260376D02*
X382119Y-11060376D01*
X429738Y-11060376D01*
X458309Y-11069900D01*
X477357Y-11088948D01*
X486881Y-11107995D01*
X496405Y-11146090D01*
X496405Y-11174662D01*
X486881Y-11212757D01*
X477357Y-11231805D01*
X458309Y-11250852D01*
X429738Y-11260376D01*
X382119Y-11260376D01*
X582119Y-11260376D02*
X582119Y-11127043D01*
X582119Y-11165138D02*
X591643Y-11146090D01*
X601167Y-11136567D01*
X620214Y-11127043D01*
X639262Y-11127043D01*
X705928Y-11260376D02*
X705928Y-11127043D01*
X705928Y-11060376D02*
X696405Y-11069900D01*
X705928Y-11079424D01*
X715452Y-11069900D01*
X705928Y-11060376D01*
X705928Y-11079424D01*
X829738Y-11260376D02*
X810690Y-11250852D01*
X801167Y-11231805D01*
X801167Y-11060376D01*
X934500Y-11260376D02*
X915452Y-11250852D01*
X905928Y-11231805D01*
X905928Y-11060376D01*
X1163071Y-11260376D02*
X1163071Y-11060376D01*
X1229738Y-11203233D01*
X1296405Y-11060376D01*
X1296405Y-11260376D01*
X1477357Y-11260376D02*
X1477357Y-11155614D01*
X1467833Y-11136567D01*
X1448786Y-11127043D01*
X1410690Y-11127043D01*
X1391643Y-11136567D01*
X1477357Y-11250852D02*
X1458309Y-11260376D01*
X1410690Y-11260376D01*
X1391643Y-11250852D01*
X1382119Y-11231805D01*
X1382119Y-11212757D01*
X1391643Y-11193709D01*
X1410690Y-11184186D01*
X1458309Y-11184186D01*
X1477357Y-11174662D01*
X1572595Y-11127043D02*
X1572595Y-11327043D01*
X1572595Y-11136567D02*
X1591643Y-11127043D01*
X1629738Y-11127043D01*
X1648786Y-11136567D01*
X1658309Y-11146090D01*
X1667833Y-11165138D01*
X1667833Y-11222281D01*
X1658309Y-11241328D01*
X1648786Y-11250852D01*
X1629738Y-11260376D01*
X1591643Y-11260376D01*
X1572595Y-11250852D01*
X1753548Y-11241328D02*
X1763071Y-11250852D01*
X1753548Y-11260376D01*
X1744024Y-11250852D01*
X1753548Y-11241328D01*
X1753548Y-11260376D01*
X1753548Y-11136567D02*
X1763071Y-11146090D01*
X1753548Y-11155614D01*
X1744024Y-11146090D01*
X1753548Y-11136567D01*
X1753548Y-11155614D01*
X-75500Y-11489900D02*
X124500Y-11689900D01*
X124500Y-11489900D02*
X-75500Y-11689900D01*
X363071Y-11480376D02*
X486881Y-11480376D01*
X420214Y-11556567D01*
X448786Y-11556567D01*
X467833Y-11566090D01*
X477357Y-11575614D01*
X486881Y-11594662D01*
X486881Y-11642281D01*
X477357Y-11661328D01*
X467833Y-11670852D01*
X448786Y-11680376D01*
X391643Y-11680376D01*
X372595Y-11670852D01*
X363071Y-11661328D01*
X572595Y-11661328D02*
X582119Y-11670852D01*
X572595Y-11680376D01*
X563071Y-11670852D01*
X572595Y-11661328D01*
X572595Y-11680376D01*
X705928Y-11480376D02*
X724976Y-11480376D01*
X744024Y-11489900D01*
X753548Y-11499424D01*
X763071Y-11518471D01*
X772595Y-11556567D01*
X772595Y-11604186D01*
X763071Y-11642281D01*
X753548Y-11661328D01*
X744024Y-11670852D01*
X724976Y-11680376D01*
X705928Y-11680376D01*
X686881Y-11670852D01*
X677357Y-11661328D01*
X667833Y-11642281D01*
X658310Y-11604186D01*
X658310Y-11556567D01*
X667833Y-11518471D01*
X677357Y-11499424D01*
X686881Y-11489900D01*
X705928Y-11480376D01*
X896405Y-11480376D02*
X915452Y-11480376D01*
X934500Y-11489900D01*
X944024Y-11499424D01*
X953548Y-11518471D01*
X963071Y-11556567D01*
X963071Y-11604186D01*
X953548Y-11642281D01*
X944024Y-11661328D01*
X934500Y-11670852D01*
X915452Y-11680376D01*
X896405Y-11680376D01*
X877357Y-11670852D01*
X867833Y-11661328D01*
X858309Y-11642281D01*
X848786Y-11604186D01*
X848786Y-11556567D01*
X858309Y-11518471D01*
X867833Y-11499424D01*
X877357Y-11489900D01*
X896405Y-11480376D01*
X1086881Y-11480376D02*
X1105929Y-11480376D01*
X1124976Y-11489900D01*
X1134500Y-11499424D01*
X1144024Y-11518471D01*
X1153548Y-11556567D01*
X1153548Y-11604186D01*
X1144024Y-11642281D01*
X1134500Y-11661328D01*
X1124976Y-11670852D01*
X1105929Y-11680376D01*
X1086881Y-11680376D01*
X1067833Y-11670852D01*
X1058310Y-11661328D01*
X1048786Y-11642281D01*
X1039262Y-11604186D01*
X1039262Y-11556567D01*
X1048786Y-11518471D01*
X1058310Y-11499424D01*
X1067833Y-11489900D01*
X1086881Y-11480376D01*
X1239262Y-11680376D02*
X1239262Y-11547043D01*
X1239262Y-11566090D02*
X1248786Y-11556567D01*
X1267833Y-11547043D01*
X1296405Y-11547043D01*
X1315452Y-11556567D01*
X1324976Y-11575614D01*
X1324976Y-11680376D01*
X1324976Y-11575614D02*
X1334500Y-11556567D01*
X1353548Y-11547043D01*
X1382119Y-11547043D01*
X1401167Y-11556567D01*
X1410690Y-11575614D01*
X1410690Y-11680376D01*
X1505928Y-11680376D02*
X1505928Y-11547043D01*
X1505928Y-11566090D02*
X1515452Y-11556567D01*
X1534500Y-11547043D01*
X1563071Y-11547043D01*
X1582119Y-11556567D01*
X1591643Y-11575614D01*
X1591643Y-11680376D01*
X1591643Y-11575614D02*
X1601167Y-11556567D01*
X1620214Y-11547043D01*
X1648786Y-11547043D01*
X1667833Y-11556567D01*
X1677357Y-11575614D01*
X1677357Y-11680376D01*
X2067833Y-11470852D02*
X1896405Y-11727995D01*
X2324976Y-11480376D02*
X2344024Y-11480376D01*
X2363071Y-11489900D01*
X2372595Y-11499424D01*
X2382119Y-11518471D01*
X2391643Y-11556567D01*
X2391643Y-11604186D01*
X2382119Y-11642281D01*
X2372595Y-11661328D01*
X2363071Y-11670852D01*
X2344024Y-11680376D01*
X2324976Y-11680376D01*
X2305929Y-11670852D01*
X2296405Y-11661328D01*
X2286881Y-11642281D01*
X2277357Y-11604186D01*
X2277357Y-11556567D01*
X2286881Y-11518471D01*
X2296405Y-11499424D01*
X2305929Y-11489900D01*
X2324976Y-11480376D01*
X2477357Y-11661328D02*
X2486881Y-11670852D01*
X2477357Y-11680376D01*
X2467833Y-11670852D01*
X2477357Y-11661328D01*
X2477357Y-11680376D01*
X2677357Y-11680376D02*
X2563071Y-11680376D01*
X2620214Y-11680376D02*
X2620214Y-11480376D01*
X2601167Y-11508948D01*
X2582119Y-11527995D01*
X2563071Y-11537519D01*
X2867833Y-11680376D02*
X2753548Y-11680376D01*
X2810690Y-11680376D02*
X2810690Y-11480376D01*
X2791643Y-11508948D01*
X2772595Y-11527995D01*
X2753548Y-11537519D01*
X2982119Y-11566090D02*
X2963071Y-11556567D01*
X2953548Y-11547043D01*
X2944024Y-11527995D01*
X2944024Y-11518471D01*
X2953548Y-11499424D01*
X2963071Y-11489900D01*
X2982119Y-11480376D01*
X3020214Y-11480376D01*
X3039262Y-11489900D01*
X3048786Y-11499424D01*
X3058309Y-11518471D01*
X3058309Y-11527995D01*
X3048786Y-11547043D01*
X3039262Y-11556567D01*
X3020214Y-11566090D01*
X2982119Y-11566090D01*
X2963071Y-11575614D01*
X2953548Y-11585138D01*
X2944024Y-11604186D01*
X2944024Y-11642281D01*
X2953548Y-11661328D01*
X2963071Y-11670852D01*
X2982119Y-11680376D01*
X3020214Y-11680376D01*
X3039262Y-11670852D01*
X3048786Y-11661328D01*
X3058309Y-11642281D01*
X3058309Y-11604186D01*
X3048786Y-11585138D01*
X3039262Y-11575614D01*
X3020214Y-11566090D01*
X3248786Y-11680376D02*
X3134500Y-11680376D01*
X3191643Y-11680376D02*
X3191643Y-11480376D01*
X3172595Y-11508948D01*
X3153548Y-11527995D01*
X3134500Y-11537519D01*
X3324976Y-11480376D02*
X3324976Y-11518471D01*
X3401167Y-11480376D02*
X3401167Y-11518471D01*
X3696405Y-11756567D02*
X3686881Y-11747043D01*
X3667833Y-11718471D01*
X3658309Y-11699424D01*
X3648786Y-11670852D01*
X3639262Y-11623233D01*
X3639262Y-11585138D01*
X3648786Y-11537519D01*
X3658309Y-11508948D01*
X3667833Y-11489900D01*
X3686881Y-11461328D01*
X3696405Y-11451805D01*
X3867833Y-11480376D02*
X3772595Y-11480376D01*
X3763071Y-11575614D01*
X3772595Y-11566090D01*
X3791643Y-11556567D01*
X3839262Y-11556567D01*
X3858309Y-11566090D01*
X3867833Y-11575614D01*
X3877357Y-11594662D01*
X3877357Y-11642281D01*
X3867833Y-11661328D01*
X3858309Y-11670852D01*
X3839262Y-11680376D01*
X3791643Y-11680376D01*
X3772595Y-11670852D01*
X3763071Y-11661328D01*
X4115452Y-11680376D02*
X4115452Y-11480376D01*
X4201167Y-11680376D02*
X4201167Y-11575614D01*
X4191643Y-11556567D01*
X4172595Y-11547043D01*
X4144024Y-11547043D01*
X4124976Y-11556567D01*
X4115452Y-11566090D01*
X4324976Y-11680376D02*
X4305929Y-11670852D01*
X4296405Y-11661328D01*
X4286881Y-11642281D01*
X4286881Y-11585138D01*
X4296405Y-11566090D01*
X4305929Y-11556567D01*
X4324976Y-11547043D01*
X4353548Y-11547043D01*
X4372595Y-11556567D01*
X4382119Y-11566090D01*
X4391643Y-11585138D01*
X4391643Y-11642281D01*
X4382119Y-11661328D01*
X4372595Y-11670852D01*
X4353548Y-11680376D01*
X4324976Y-11680376D01*
X4505929Y-11680376D02*
X4486881Y-11670852D01*
X4477357Y-11651805D01*
X4477357Y-11480376D01*
X4658310Y-11670852D02*
X4639262Y-11680376D01*
X4601167Y-11680376D01*
X4582119Y-11670852D01*
X4572595Y-11651805D01*
X4572595Y-11575614D01*
X4582119Y-11556567D01*
X4601167Y-11547043D01*
X4639262Y-11547043D01*
X4658310Y-11556567D01*
X4667833Y-11575614D01*
X4667833Y-11594662D01*
X4572595Y-11613709D01*
X4744024Y-11670852D02*
X4763071Y-11680376D01*
X4801167Y-11680376D01*
X4820214Y-11670852D01*
X4829738Y-11651805D01*
X4829738Y-11642281D01*
X4820214Y-11623233D01*
X4801167Y-11613709D01*
X4772595Y-11613709D01*
X4753548Y-11604186D01*
X4744024Y-11585138D01*
X4744024Y-11575614D01*
X4753548Y-11556567D01*
X4772595Y-11547043D01*
X4801167Y-11547043D01*
X4820214Y-11556567D01*
X4896405Y-11756567D02*
X4905929Y-11747043D01*
X4924976Y-11718471D01*
X4934500Y-11699424D01*
X4944024Y-11670852D01*
X4953548Y-11623233D01*
X4953548Y-11585138D01*
X4944024Y-11537519D01*
X4934500Y-11508948D01*
X4924976Y-11489900D01*
X4905929Y-11461328D01*
X4896405Y-11451805D01*
X5258310Y-11756567D02*
X5248786Y-11747043D01*
X5229738Y-11718471D01*
X5220214Y-11699424D01*
X5210690Y-11670852D01*
X5201167Y-11623233D01*
X5201167Y-11585138D01*
X5210690Y-11537519D01*
X5220214Y-11508948D01*
X5229738Y-11489900D01*
X5248786Y-11461328D01*
X5258310Y-11451805D01*
X5334500Y-11547043D02*
X5334500Y-11680376D01*
X5334500Y-11566090D02*
X5344024Y-11556567D01*
X5363071Y-11547043D01*
X5391643Y-11547043D01*
X5410690Y-11556567D01*
X5420214Y-11575614D01*
X5420214Y-11680376D01*
X5544024Y-11680376D02*
X5524976Y-11670852D01*
X5515452Y-11661328D01*
X5505929Y-11642281D01*
X5505929Y-11585138D01*
X5515452Y-11566090D01*
X5524976Y-11556567D01*
X5544024Y-11547043D01*
X5572595Y-11547043D01*
X5591643Y-11556567D01*
X5601167Y-11566090D01*
X5610690Y-11585138D01*
X5610690Y-11642281D01*
X5601167Y-11661328D01*
X5591643Y-11670852D01*
X5572595Y-11680376D01*
X5544024Y-11680376D01*
X5667833Y-11547043D02*
X5744024Y-11547043D01*
X5696405Y-11480376D02*
X5696405Y-11651805D01*
X5705928Y-11670852D01*
X5724976Y-11680376D01*
X5744024Y-11680376D01*
X5963071Y-11547043D02*
X5963071Y-11747043D01*
X5963071Y-11556567D02*
X5982119Y-11547043D01*
X6020214Y-11547043D01*
X6039262Y-11556567D01*
X6048786Y-11566090D01*
X6058309Y-11585138D01*
X6058309Y-11642281D01*
X6048786Y-11661328D01*
X6039262Y-11670852D01*
X6020214Y-11680376D01*
X5982119Y-11680376D01*
X5963071Y-11670852D01*
X6172595Y-11680376D02*
X6153548Y-11670852D01*
X6144024Y-11651805D01*
X6144024Y-11480376D01*
X6334500Y-11680376D02*
X6334500Y-11575614D01*
X6324976Y-11556567D01*
X6305928Y-11547043D01*
X6267833Y-11547043D01*
X6248786Y-11556567D01*
X6334500Y-11670852D02*
X6315452Y-11680376D01*
X6267833Y-11680376D01*
X6248786Y-11670852D01*
X6239262Y-11651805D01*
X6239262Y-11632757D01*
X6248786Y-11613709D01*
X6267833Y-11604186D01*
X6315452Y-11604186D01*
X6334500Y-11594662D01*
X6401167Y-11547043D02*
X6477357Y-11547043D01*
X6429738Y-11480376D02*
X6429738Y-11651805D01*
X6439262Y-11670852D01*
X6458309Y-11680376D01*
X6477357Y-11680376D01*
X6620214Y-11670852D02*
X6601167Y-11680376D01*
X6563071Y-11680376D01*
X6544024Y-11670852D01*
X6534500Y-11651805D01*
X6534500Y-11575614D01*
X6544024Y-11556567D01*
X6563071Y-11547043D01*
X6601167Y-11547043D01*
X6620214Y-11556567D01*
X6629738Y-11575614D01*
X6629738Y-11594662D01*
X6534500Y-11613709D01*
X6801167Y-11680376D02*
X6801167Y-11480376D01*
X6801167Y-11670852D02*
X6782119Y-11680376D01*
X6744024Y-11680376D01*
X6724976Y-11670852D01*
X6715452Y-11661328D01*
X6705928Y-11642281D01*
X6705928Y-11585138D01*
X6715452Y-11566090D01*
X6724976Y-11556567D01*
X6744024Y-11547043D01*
X6782119Y-11547043D01*
X6801167Y-11556567D01*
X6877357Y-11756567D02*
X6886881Y-11747043D01*
X6905928Y-11718471D01*
X6915452Y-11699424D01*
X6924976Y-11670852D01*
X6934500Y-11623233D01*
X6934500Y-11585138D01*
X6924976Y-11537519D01*
X6915452Y-11508948D01*
X6905928Y-11489900D01*
X6886881Y-11461328D01*
X6877357Y-11451805D01*
M02*
