G04 #@! TF.GenerationSoftware,KiCad,Pcbnew,6.0.9-8da3e8f707~118~ubuntu22.10.1*
G04 #@! TF.CreationDate,2022-11-30T23:30:13+01:00*
G04 #@! TF.ProjectId,ilse,696c7365-2e6b-4696-9361-645f70636258,2*
G04 #@! TF.SameCoordinates,PX5702e0cPY22a4fe8*
G04 #@! TF.FileFunction,Legend,Top*
G04 #@! TF.FilePolarity,Positive*
%FSLAX46Y46*%
G04 Gerber Fmt 4.6, Leading zero omitted, Abs format (unit mm)*
G04 Created by KiCad (PCBNEW 6.0.9-8da3e8f707~118~ubuntu22.10.1) date 2022-11-30 23:30:13*
%MOMM*%
%LPD*%
G01*
G04 APERTURE LIST*
%ADD10C,0.647904*%
%ADD11C,0.000000*%
%ADD12C,0.520000*%
%ADD13C,0.150000*%
%ADD14C,0.151000*%
%ADD15C,0.120000*%
%ADD16C,0.010000*%
G04 APERTURE END LIST*
D10*
X17798342Y-47587281D02*
X17861135Y-47696488D01*
X17918726Y-50070123D02*
X17861135Y-50182567D01*
X15965214Y-51517294D02*
X15834703Y-51533878D01*
D11*
G36*
X9898232Y-48142604D02*
G01*
X8978464Y-47094633D01*
X8360409Y-46415867D01*
X7617597Y-45621946D01*
X7411009Y-46267423D01*
X7232842Y-46830814D01*
X7080443Y-47317759D01*
X6951161Y-47733895D01*
X6751343Y-48376289D01*
X6675503Y-48613824D01*
X6642440Y-48714141D01*
X6612173Y-48803099D01*
X6584371Y-48881402D01*
X6558702Y-48949754D01*
X6534835Y-49008860D01*
X6512439Y-49059426D01*
X6491181Y-49102155D01*
X6480875Y-49120801D01*
X6470730Y-49137752D01*
X6460704Y-49153096D01*
X6450756Y-49166922D01*
X6440844Y-49179318D01*
X6430926Y-49190370D01*
X6420962Y-49200169D01*
X6410909Y-49208801D01*
X6400727Y-49216355D01*
X6390374Y-49222919D01*
X6379808Y-49228581D01*
X6368989Y-49233429D01*
X6357874Y-49237551D01*
X6346422Y-49241035D01*
X6322343Y-49246443D01*
X6296420Y-49250357D01*
X6237714Y-49256521D01*
X6222442Y-49255152D01*
X6207385Y-49253111D01*
X6192561Y-49250414D01*
X6177988Y-49247077D01*
X6163685Y-49243114D01*
X6149670Y-49238541D01*
X6135962Y-49233373D01*
X6122578Y-49227626D01*
X6109538Y-49221315D01*
X6096860Y-49214455D01*
X6084562Y-49207061D01*
X6072663Y-49199150D01*
X6061180Y-49190736D01*
X6050133Y-49181834D01*
X6039539Y-49172460D01*
X6029418Y-49162629D01*
X6019787Y-49152357D01*
X6010665Y-49141659D01*
X6002070Y-49130550D01*
X5994021Y-49119046D01*
X5986536Y-49107161D01*
X5979634Y-49094912D01*
X5973332Y-49082313D01*
X5967650Y-49069379D01*
X5962605Y-49056128D01*
X5958216Y-49042572D01*
X5954502Y-49028729D01*
X5951481Y-49014612D01*
X5949171Y-49000238D01*
X5947591Y-48985622D01*
X5946758Y-48970779D01*
X5946692Y-48955724D01*
X5948226Y-48839624D01*
X5967607Y-48744369D01*
X6017384Y-48564599D01*
X6262080Y-47772379D01*
X6790225Y-46104695D01*
X7142087Y-44953460D01*
X7859859Y-44953460D01*
X11432971Y-48847350D01*
X12885383Y-44944550D01*
X7859859Y-44953460D01*
X7142087Y-44953460D01*
X7434756Y-43995892D01*
X7551145Y-43654104D01*
X7606688Y-43506773D01*
X7661446Y-43374121D01*
X7716158Y-43255375D01*
X7771563Y-43149761D01*
X7828397Y-43056509D01*
X7887400Y-42974845D01*
X7949309Y-42903997D01*
X8014862Y-42843192D01*
X8084798Y-42791658D01*
X8159854Y-42748622D01*
X8240768Y-42713311D01*
X8328280Y-42684954D01*
X8423126Y-42662776D01*
X8526044Y-42646007D01*
X8637774Y-42633873D01*
X8759052Y-42625602D01*
X9033208Y-42617557D01*
X9728580Y-42613830D01*
X9716024Y-43204012D01*
X9209784Y-43202214D01*
X9009872Y-43203730D01*
X8840953Y-43209506D01*
X8699665Y-43221527D01*
X8638333Y-43230501D01*
X8582650Y-43241781D01*
X8532194Y-43255616D01*
X8486546Y-43272254D01*
X8445287Y-43291944D01*
X8407995Y-43314933D01*
X8374252Y-43341470D01*
X8343636Y-43371804D01*
X8315728Y-43406182D01*
X8290109Y-43444853D01*
X8266357Y-43488065D01*
X8244054Y-43536068D01*
X8222779Y-43589108D01*
X8202111Y-43647434D01*
X8160920Y-43780939D01*
X8117122Y-43938568D01*
X8008261Y-44334149D01*
X13144104Y-44321591D01*
X13345017Y-43756523D01*
X13138868Y-43711519D01*
X12951791Y-43671698D01*
X12633188Y-43604269D01*
X12500828Y-43574993D01*
X12441201Y-43561101D01*
X12385873Y-43547566D01*
X12334792Y-43534284D01*
X12287905Y-43521152D01*
X12245162Y-43508064D01*
X12206509Y-43494918D01*
X12171895Y-43481607D01*
X12141267Y-43468029D01*
X12114574Y-43454079D01*
X12091762Y-43439653D01*
X12081796Y-43432229D01*
X12072781Y-43424647D01*
X12064711Y-43416893D01*
X12057578Y-43408956D01*
X12051377Y-43400821D01*
X12046100Y-43392475D01*
X12041743Y-43383907D01*
X12038297Y-43375102D01*
X12035756Y-43366048D01*
X12034115Y-43356731D01*
X12033365Y-43347140D01*
X12033502Y-43337259D01*
X12034518Y-43327077D01*
X12036407Y-43316581D01*
X12039162Y-43305757D01*
X12042777Y-43294593D01*
X12047245Y-43283075D01*
X12052560Y-43271190D01*
X12065704Y-43246269D01*
X12082157Y-43219726D01*
X12101867Y-43191455D01*
X14676068Y-43191455D01*
X14701181Y-43769080D01*
X14010542Y-43781637D01*
X13809628Y-44334149D01*
X14179559Y-45156723D01*
X14504878Y-45878832D01*
X15033158Y-47048831D01*
X15417425Y-47898493D01*
X15680633Y-48482168D01*
X15774014Y-48691244D01*
X15845739Y-48854204D01*
X15898677Y-48977841D01*
X15918998Y-49027037D01*
X15935698Y-49068949D01*
X15949137Y-49104428D01*
X15959672Y-49134322D01*
X15967662Y-49159481D01*
X15973467Y-49180753D01*
X15977445Y-49198988D01*
X15979954Y-49215036D01*
X15981354Y-49229745D01*
X15982002Y-49243964D01*
X15972082Y-49320692D01*
X15953389Y-49383759D01*
X15922124Y-49434417D01*
X15874483Y-49473915D01*
X15806666Y-49503505D01*
X15714871Y-49524438D01*
X15595297Y-49537964D01*
X15444142Y-49545334D01*
X12641822Y-49532776D01*
X11483475Y-49523533D01*
X11316465Y-49502623D01*
X11169521Y-49456322D01*
X11028161Y-49375652D01*
X10877902Y-49251637D01*
X10704262Y-49075302D01*
X10572752Y-48927545D01*
X12065616Y-48927545D01*
X15184292Y-48936454D01*
X13491297Y-45185133D01*
X12065616Y-48927545D01*
X10572752Y-48927545D01*
X10492758Y-48837668D01*
X9898232Y-48142604D01*
G37*
D10*
X14671416Y-46489955D02*
X14792585Y-46448955D01*
X13814634Y-47009176D02*
X13909258Y-46927211D01*
X3851567Y-47973041D02*
X3903791Y-47857524D01*
X4324095Y-50741556D02*
X4242130Y-50646932D01*
X13637718Y-47186092D02*
X13724066Y-47095524D01*
X14325030Y-46646462D02*
X14437474Y-46588872D01*
X13275004Y-47696488D02*
X13337797Y-47587281D01*
X8547512Y-47745081D02*
X8605102Y-47857524D01*
X8484719Y-47635873D02*
X8547512Y-47745081D01*
X8344181Y-47427823D02*
X8416888Y-47530066D01*
X15965214Y-46361761D02*
X16093635Y-46384695D01*
X12963649Y-48805329D02*
X12973719Y-48672893D01*
X6521080Y-46393769D02*
X6651591Y-46410353D01*
X8832213Y-49385264D02*
X8809280Y-49513685D01*
X7712501Y-46825679D02*
X7814744Y-46898386D01*
X17226882Y-50951844D02*
X17128367Y-51029262D01*
X3763874Y-49763604D02*
X3728733Y-49639853D01*
X18122903Y-49465093D02*
X18093784Y-49591261D01*
X16583148Y-51342407D02*
X16464723Y-51389101D01*
X15834703Y-51533878D02*
X15702267Y-51543949D01*
X18175885Y-48939527D02*
X18172492Y-49073725D01*
X14671416Y-51389101D02*
X14552991Y-51342407D01*
X8184798Y-50741556D02*
X8098450Y-50832123D01*
X13555753Y-47280715D02*
X13637718Y-47186092D01*
X13478336Y-47379231D02*
X13555753Y-47280715D01*
X8266763Y-47329308D02*
X8344181Y-47427823D01*
X18175885Y-48939527D02*
X18175885Y-48939527D01*
X17128367Y-51029262D02*
X17026123Y-51101968D01*
X8547512Y-50231159D02*
X8484719Y-50340366D01*
X15170925Y-46361761D02*
X15301436Y-46345177D01*
X4796393Y-46825679D02*
X4902200Y-46757848D01*
X8745019Y-48212636D02*
X8780160Y-48336386D01*
X13013237Y-48413962D02*
X13042356Y-48287794D01*
X3646632Y-48988120D02*
X3646632Y-48988120D01*
X12990303Y-49336672D02*
X12973719Y-49206161D01*
X13555753Y-50598340D02*
X13478336Y-50499824D01*
X15568069Y-46331713D02*
X15568069Y-46331713D01*
X8605102Y-47857524D02*
X8657326Y-47973041D01*
X17321505Y-47009176D02*
X17412073Y-47095524D01*
X3763874Y-48212636D02*
X3804874Y-48091466D01*
X8848797Y-49254753D02*
X8832213Y-49385264D01*
X8848797Y-48721486D02*
X8858868Y-48853922D01*
X6651591Y-51565887D02*
X6521080Y-51582471D01*
X4324095Y-47234684D02*
X4410443Y-47144117D01*
X8704020Y-48091466D02*
X8745019Y-48212636D01*
X12963649Y-49073725D02*
X12960255Y-48939527D01*
X17657804Y-47379231D02*
X17730511Y-47481474D01*
X18145837Y-49336672D02*
X18122903Y-49465093D01*
X18093784Y-49591261D02*
X18058643Y-49715012D01*
X8007882Y-47057768D02*
X8098450Y-47144117D01*
X4092006Y-47530066D02*
X4164713Y-47427823D01*
X14916336Y-51465241D02*
X14792585Y-51430100D01*
X16811109Y-46646462D02*
X16920316Y-46709255D01*
X8184798Y-47234684D02*
X8266763Y-47329308D01*
X14552991Y-46536648D02*
X14671416Y-46489955D01*
X7151101Y-51437694D02*
X7029931Y-51478693D01*
X8344181Y-50548417D02*
X8266763Y-50646932D01*
X4595634Y-51000437D02*
X4501011Y-50918472D01*
X16920316Y-46709255D02*
X17026123Y-46777087D01*
X8416888Y-50446174D02*
X8344181Y-50548417D01*
D12*
X45472186Y-24656719D02*
G75*
G03*
X36624804Y-24660546I-4423866J402569D01*
G01*
D10*
X15834703Y-46345177D02*
X15965214Y-46361761D01*
X6906180Y-46462406D02*
X7029931Y-46497548D01*
X3961381Y-47745081D02*
X4024174Y-47635873D01*
X16219803Y-51465241D02*
X16093635Y-51494361D01*
X3650026Y-49122317D02*
X3646632Y-48988120D01*
X4024174Y-50340366D02*
X3961381Y-50231159D01*
X16811109Y-51232593D02*
X16698665Y-51290183D01*
X5602713Y-46462406D02*
X5728881Y-46433287D01*
X7606694Y-46757848D02*
X7712501Y-46825679D01*
X18017643Y-49836181D02*
X17970950Y-49954607D01*
X6780012Y-51542954D02*
X6651591Y-51565887D01*
X4410443Y-50832123D02*
X4324095Y-50741556D01*
X14110016Y-46777087D02*
X14215823Y-46709255D01*
X7606694Y-51218393D02*
X7497486Y-51281186D01*
X18172492Y-48805329D02*
X18175885Y-48939527D01*
X4595634Y-46975804D02*
X4694150Y-46898386D01*
X5011407Y-51281186D02*
X4902200Y-51218393D01*
X8704020Y-49884774D02*
X8657326Y-50003199D01*
X4501011Y-47057768D02*
X4595634Y-46975804D01*
X4164713Y-50548417D02*
X4092006Y-50446174D01*
X17798342Y-50291774D02*
X17730511Y-50397581D01*
X14437474Y-51290183D02*
X14325030Y-51232593D01*
X5123851Y-51338776D02*
X5011407Y-51281186D01*
D11*
G36*
X38269986Y-25395162D02*
G01*
X38237932Y-25256279D01*
X38212687Y-25114916D01*
X38194431Y-24971253D01*
X38183346Y-24825471D01*
X38179611Y-24677749D01*
X38183347Y-24530025D01*
X38194434Y-24384240D01*
X38212691Y-24240575D01*
X38237937Y-24099210D01*
X38269993Y-23960325D01*
X38308677Y-23824101D01*
X38353810Y-23690718D01*
X38355036Y-23687609D01*
X39788351Y-23687609D01*
X39788749Y-23737656D01*
X39793030Y-23788738D01*
X39801332Y-23840566D01*
X39806964Y-23866362D01*
X39813483Y-23891628D01*
X39820860Y-23916338D01*
X39829064Y-23940464D01*
X39838066Y-23963979D01*
X39847837Y-23986857D01*
X39858346Y-24009071D01*
X39869563Y-24030593D01*
X39881460Y-24051397D01*
X39894007Y-24071456D01*
X39907173Y-24090742D01*
X39920929Y-24109229D01*
X39935245Y-24126889D01*
X39950092Y-24143697D01*
X39965440Y-24159624D01*
X39981258Y-24174645D01*
X39997519Y-24188731D01*
X40014191Y-24201857D01*
X40031245Y-24213994D01*
X40048651Y-24225116D01*
X40066380Y-24235197D01*
X40084402Y-24244209D01*
X40102687Y-24252125D01*
X40121206Y-24258918D01*
X40139928Y-24264561D01*
X40158824Y-24269028D01*
X40177865Y-24272291D01*
X40197020Y-24274324D01*
X40216260Y-24275099D01*
X40235555Y-24274590D01*
X40254876Y-24272769D01*
X40274193Y-24269610D01*
X40293249Y-24265141D01*
X40311797Y-24259434D01*
X40329820Y-24252525D01*
X40347301Y-24244450D01*
X40364223Y-24235246D01*
X40380567Y-24224949D01*
X40396319Y-24213595D01*
X40411459Y-24201220D01*
X40425972Y-24187861D01*
X40439839Y-24173553D01*
X40453044Y-24158334D01*
X40465570Y-24142239D01*
X40488515Y-24107569D01*
X40508536Y-24069831D01*
X40525497Y-24029316D01*
X40539261Y-23986315D01*
X40549690Y-23941117D01*
X40556647Y-23894013D01*
X40557166Y-23886471D01*
X41627226Y-23886471D01*
X41627519Y-23912125D01*
X41628747Y-23937397D01*
X41630894Y-23962247D01*
X41633947Y-23986636D01*
X41637891Y-24010525D01*
X41642711Y-24033875D01*
X41648394Y-24056646D01*
X41654924Y-24078799D01*
X41662287Y-24100296D01*
X41670470Y-24121096D01*
X41679457Y-24141162D01*
X41689234Y-24160453D01*
X41699787Y-24178930D01*
X41711101Y-24196554D01*
X41723163Y-24213287D01*
X41735956Y-24229088D01*
X41749468Y-24243920D01*
X41763684Y-24257742D01*
X41778589Y-24270515D01*
X41794169Y-24282200D01*
X41810410Y-24292759D01*
X41827296Y-24302151D01*
X41844815Y-24310338D01*
X41862951Y-24317280D01*
X41881690Y-24322939D01*
X41900789Y-24327227D01*
X41919994Y-24330101D01*
X41939274Y-24331587D01*
X41958596Y-24331714D01*
X41977929Y-24330507D01*
X41997242Y-24327994D01*
X42016501Y-24324202D01*
X42035676Y-24319158D01*
X42054735Y-24312889D01*
X42073645Y-24305422D01*
X42092376Y-24296784D01*
X42110894Y-24287002D01*
X42129170Y-24276103D01*
X42147169Y-24264114D01*
X42164862Y-24251062D01*
X42182216Y-24236975D01*
X42199199Y-24221878D01*
X42215779Y-24205800D01*
X42231925Y-24188768D01*
X42247605Y-24170807D01*
X42277439Y-24132211D01*
X42305026Y-24090228D01*
X42330113Y-24045076D01*
X42352445Y-23996969D01*
X42371767Y-23946124D01*
X42380220Y-23919743D01*
X42387825Y-23892758D01*
X42394474Y-23865522D01*
X42400087Y-23838394D01*
X42404680Y-23811414D01*
X42408267Y-23784620D01*
X42410862Y-23758053D01*
X42412480Y-23731750D01*
X42413135Y-23705752D01*
X42412841Y-23680098D01*
X42411614Y-23654826D01*
X42409466Y-23629975D01*
X42406413Y-23605586D01*
X42402470Y-23581697D01*
X42397649Y-23558348D01*
X42391967Y-23535577D01*
X42385437Y-23513423D01*
X42378073Y-23491927D01*
X42369891Y-23471126D01*
X42360904Y-23451061D01*
X42351127Y-23431770D01*
X42340574Y-23413293D01*
X42329260Y-23395668D01*
X42317199Y-23378935D01*
X42304405Y-23363134D01*
X42290893Y-23348302D01*
X42276678Y-23334480D01*
X42261773Y-23321707D01*
X42246193Y-23310021D01*
X42229952Y-23299463D01*
X42213066Y-23290070D01*
X42195548Y-23281883D01*
X42177412Y-23274941D01*
X42158673Y-23269282D01*
X42139574Y-23264994D01*
X42120368Y-23262120D01*
X42101089Y-23260634D01*
X42081766Y-23260508D01*
X42062433Y-23261715D01*
X42043120Y-23264228D01*
X42023860Y-23268020D01*
X42004685Y-23273064D01*
X41985627Y-23279333D01*
X41966716Y-23286800D01*
X41947985Y-23295438D01*
X41929467Y-23305221D01*
X41911191Y-23316120D01*
X41893191Y-23328109D01*
X41875499Y-23341160D01*
X41858145Y-23355248D01*
X41841162Y-23370344D01*
X41824582Y-23386422D01*
X41808436Y-23403455D01*
X41792756Y-23421416D01*
X41762922Y-23460012D01*
X41735334Y-23501995D01*
X41710247Y-23547147D01*
X41687916Y-23595254D01*
X41668594Y-23646099D01*
X41660141Y-23672480D01*
X41652535Y-23699465D01*
X41645887Y-23726701D01*
X41640273Y-23753829D01*
X41635680Y-23780809D01*
X41632093Y-23807603D01*
X41629498Y-23834170D01*
X41627880Y-23860473D01*
X41627226Y-23886471D01*
X40557166Y-23886471D01*
X40559996Y-23845293D01*
X40559598Y-23795247D01*
X40555317Y-23744165D01*
X40547015Y-23692338D01*
X40541383Y-23666541D01*
X40534864Y-23641275D01*
X40527487Y-23616565D01*
X40519283Y-23592438D01*
X40510280Y-23568922D01*
X40500510Y-23546044D01*
X40490001Y-23523830D01*
X40478783Y-23502308D01*
X40466885Y-23481504D01*
X40454339Y-23461446D01*
X40441173Y-23442159D01*
X40427417Y-23423672D01*
X40413100Y-23406011D01*
X40398253Y-23389204D01*
X40382905Y-23373276D01*
X40367086Y-23358256D01*
X40350826Y-23344170D01*
X40334154Y-23331044D01*
X40317100Y-23318907D01*
X40299693Y-23307784D01*
X40281964Y-23297704D01*
X40263942Y-23288692D01*
X40245657Y-23280776D01*
X40227139Y-23273983D01*
X40208417Y-23268340D01*
X40189520Y-23263873D01*
X40170480Y-23260610D01*
X40151325Y-23258577D01*
X40132085Y-23257802D01*
X40112790Y-23258312D01*
X40093469Y-23260132D01*
X40074152Y-23263292D01*
X40055096Y-23267760D01*
X40036548Y-23273467D01*
X40018525Y-23280376D01*
X40001044Y-23288450D01*
X39984122Y-23297654D01*
X39967777Y-23307952D01*
X39952026Y-23319306D01*
X39936885Y-23331681D01*
X39922373Y-23345040D01*
X39908505Y-23359347D01*
X39895300Y-23374566D01*
X39882775Y-23390661D01*
X39859830Y-23425332D01*
X39839809Y-23463070D01*
X39822848Y-23503585D01*
X39809084Y-23546587D01*
X39798656Y-23591785D01*
X39791699Y-23638889D01*
X39788351Y-23687609D01*
X38355036Y-23687609D01*
X38405210Y-23560357D01*
X38462699Y-23433197D01*
X38526094Y-23309420D01*
X38595217Y-23189205D01*
X38669886Y-23072733D01*
X38749922Y-22960185D01*
X38835143Y-22851740D01*
X38925370Y-22747579D01*
X39020421Y-22647882D01*
X39120118Y-22552830D01*
X39224279Y-22462604D01*
X39332724Y-22377383D01*
X39445273Y-22297347D01*
X39561744Y-22222678D01*
X39681959Y-22153556D01*
X39805737Y-22090160D01*
X39932896Y-22032672D01*
X40063258Y-21981271D01*
X40196640Y-21936139D01*
X40332864Y-21897454D01*
X40471749Y-21865399D01*
X40613114Y-21840153D01*
X40756779Y-21821896D01*
X40902564Y-21810809D01*
X41050288Y-21807072D01*
X41050317Y-21807072D01*
X41192671Y-21810595D01*
X41334058Y-21821110D01*
X41474244Y-21838519D01*
X41612994Y-21862724D01*
X41750071Y-21893629D01*
X41885241Y-21931135D01*
X42018269Y-21975146D01*
X42148919Y-22025563D01*
X42276955Y-22082289D01*
X42402143Y-22145228D01*
X42524247Y-22214281D01*
X42643032Y-22289350D01*
X42758263Y-22370340D01*
X42869704Y-22457151D01*
X42977120Y-22549686D01*
X43080275Y-22647849D01*
X43178441Y-22751001D01*
X43270980Y-22858414D01*
X43357795Y-22969851D01*
X43438787Y-23085079D01*
X43513861Y-23203861D01*
X43582918Y-23325962D01*
X43645860Y-23451147D01*
X43702591Y-23579180D01*
X43753013Y-23709827D01*
X43797028Y-23842851D01*
X43834539Y-23978018D01*
X43865449Y-24115091D01*
X43889659Y-24253837D01*
X43907073Y-24394018D01*
X43917592Y-24535401D01*
X43921121Y-24677749D01*
X43917591Y-24820103D01*
X43907070Y-24961490D01*
X43889655Y-25101675D01*
X43865443Y-25240423D01*
X43834533Y-25377499D01*
X43797021Y-25512668D01*
X43753004Y-25645694D01*
X43702581Y-25776342D01*
X43645849Y-25904376D01*
X43582905Y-26029561D01*
X43513848Y-26151662D01*
X43438773Y-26270444D01*
X43357779Y-26385671D01*
X43270963Y-26497108D01*
X43178423Y-26604520D01*
X43080257Y-26707670D01*
X42977100Y-26805832D01*
X42869684Y-26898366D01*
X42758242Y-26985176D01*
X42643010Y-27066164D01*
X42524223Y-27141232D01*
X42402118Y-27210284D01*
X42276928Y-27273221D01*
X42148889Y-27329946D01*
X42018237Y-27380362D01*
X41885207Y-27424372D01*
X41750033Y-27461876D01*
X41612952Y-27492780D01*
X41474199Y-27516984D01*
X41334009Y-27534391D01*
X41192617Y-27544905D01*
X41050258Y-27548427D01*
X40902534Y-27544688D01*
X40756750Y-27533600D01*
X40613085Y-27515342D01*
X40471720Y-27490094D01*
X40332836Y-27458037D01*
X40196612Y-27419352D01*
X40063230Y-27374218D01*
X39932869Y-27322816D01*
X39805710Y-27265326D01*
X39681933Y-27201930D01*
X39561719Y-27132806D01*
X39445248Y-27058136D01*
X39332700Y-26978100D01*
X39224256Y-26892878D01*
X39120096Y-26802651D01*
X39020401Y-26707599D01*
X38925350Y-26607902D01*
X38835124Y-26503741D01*
X38749904Y-26395296D01*
X38669870Y-26282747D01*
X38595202Y-26166276D01*
X38526080Y-26046061D01*
X38462686Y-25922285D01*
X38405199Y-25795126D01*
X38353800Y-25664766D01*
X38321925Y-25570563D01*
X39205750Y-25570563D01*
X39267296Y-25654123D01*
X39386202Y-25563897D01*
X39451569Y-25669089D01*
X39531663Y-25783053D01*
X39583092Y-25850265D01*
X39641929Y-25922350D01*
X39708041Y-25997847D01*
X39781292Y-26075296D01*
X39861548Y-26153236D01*
X39948675Y-26230207D01*
X40042538Y-26304749D01*
X40143003Y-26375400D01*
X40195668Y-26408810D01*
X40249934Y-26440700D01*
X40305783Y-26470887D01*
X40363198Y-26499189D01*
X40423659Y-26525678D01*
X40488359Y-26550435D01*
X40556856Y-26573286D01*
X40628707Y-26594060D01*
X40703468Y-26612582D01*
X40780696Y-26628682D01*
X40859948Y-26642186D01*
X40940782Y-26652920D01*
X41022753Y-26660714D01*
X41105419Y-26665393D01*
X41188336Y-26666786D01*
X41271062Y-26664720D01*
X41353153Y-26659021D01*
X41434166Y-26649518D01*
X41513658Y-26636037D01*
X41591186Y-26618406D01*
X41666754Y-26595675D01*
X41740856Y-26567055D01*
X41813784Y-26532618D01*
X41885828Y-26492437D01*
X41957280Y-26446583D01*
X42028430Y-26395129D01*
X42099570Y-26338146D01*
X42170990Y-26275706D01*
X42242983Y-26207882D01*
X42315838Y-26134745D01*
X42389847Y-26056368D01*
X42465302Y-25972821D01*
X42621710Y-25790511D01*
X42787391Y-25588390D01*
X42899323Y-25706679D01*
X42961334Y-25628543D01*
X42694994Y-25375070D01*
X42621200Y-25447935D01*
X42731425Y-25542969D01*
X42648303Y-25643075D01*
X42567320Y-25735020D01*
X42488270Y-25819206D01*
X42410949Y-25896037D01*
X42335152Y-25965915D01*
X42260674Y-26029243D01*
X42187312Y-26086425D01*
X42114859Y-26137863D01*
X42043112Y-26183961D01*
X41971865Y-26225122D01*
X41900914Y-26261749D01*
X41830055Y-26294244D01*
X41759082Y-26323012D01*
X41687792Y-26348455D01*
X41615978Y-26370976D01*
X41543437Y-26390978D01*
X41470420Y-26408158D01*
X41397417Y-26421993D01*
X41324577Y-26432558D01*
X41252047Y-26439927D01*
X41179979Y-26444175D01*
X41108519Y-26445375D01*
X41037819Y-26443603D01*
X40968026Y-26438933D01*
X40899290Y-26431440D01*
X40831759Y-26421197D01*
X40765584Y-26408280D01*
X40700912Y-26392762D01*
X40637894Y-26374718D01*
X40576677Y-26354223D01*
X40517412Y-26331352D01*
X40460246Y-26306177D01*
X40404900Y-26279497D01*
X40351005Y-26252123D01*
X40298582Y-26224158D01*
X40247650Y-26195702D01*
X40198231Y-26166857D01*
X40150343Y-26137722D01*
X40104007Y-26108399D01*
X40059243Y-26078990D01*
X39974510Y-26020314D01*
X39896306Y-25962502D01*
X39824789Y-25906362D01*
X39760120Y-25852702D01*
X39702460Y-25802329D01*
X39651968Y-25756052D01*
X39608804Y-25714678D01*
X39573130Y-25679015D01*
X39524887Y-25628054D01*
X39508521Y-25609630D01*
X39443874Y-25526224D01*
X39553325Y-25437703D01*
X39489609Y-25367320D01*
X39205750Y-25570563D01*
X38321925Y-25570563D01*
X38308668Y-25531384D01*
X38269986Y-25395162D01*
G37*
D10*
X17321505Y-50869879D02*
X17226882Y-50951844D01*
X5987813Y-51582471D02*
X5857302Y-51565887D01*
X8832213Y-48590975D02*
X8848797Y-48721486D01*
X6388644Y-46383699D02*
X6521080Y-46393769D01*
X3646632Y-48988120D02*
X3650026Y-48853922D01*
X13724066Y-47095524D02*
X13814634Y-47009176D01*
X12973719Y-49206161D02*
X12963649Y-49073725D01*
X13337797Y-47587281D02*
X13405629Y-47481474D01*
X18145837Y-48542383D02*
X18162421Y-48672893D01*
X7385042Y-46637464D02*
X7497486Y-46695055D01*
X3903791Y-47857524D02*
X3961381Y-47745081D01*
X14215823Y-51169800D02*
X14110016Y-51101968D01*
X13405629Y-47481474D02*
X13478336Y-47379231D01*
X18175885Y-48939527D02*
X18175885Y-48939527D01*
X15568069Y-51547342D02*
X15433872Y-51543949D01*
X18093784Y-48287794D02*
X18122903Y-48413962D01*
X5239367Y-46585241D02*
X5357792Y-46538547D01*
X15433872Y-46335106D02*
X15568069Y-46331713D01*
X3699614Y-49513685D02*
X3676680Y-49385264D01*
X6780012Y-46433287D02*
X6906180Y-46462406D01*
X13042356Y-48287794D02*
X13077498Y-48164043D01*
X6254446Y-51595935D02*
X6254446Y-51595935D01*
X8098450Y-50832123D02*
X8007882Y-50918472D01*
X13337797Y-50291774D02*
X13275004Y-50182567D01*
X6906180Y-51513834D02*
X6780012Y-51542954D01*
X5239367Y-51391000D02*
X5123851Y-51338776D01*
X14215823Y-46709255D02*
X14325030Y-46646462D01*
X3699614Y-48462554D02*
X3728733Y-48336386D01*
X3650026Y-48853922D02*
X3660096Y-48721486D01*
X4902200Y-51218393D02*
X4796393Y-51150561D01*
X8484719Y-50340366D02*
X8416888Y-50446174D01*
X7269526Y-51391000D02*
X7151101Y-51437694D01*
X14552991Y-51342407D02*
X14437474Y-51290183D01*
X14916336Y-46413814D02*
X15042504Y-46384695D01*
X12960255Y-48939527D02*
X12963649Y-48805329D01*
X4796393Y-51150561D02*
X4694150Y-51077854D01*
X6521080Y-51582471D02*
X6388644Y-51592542D01*
X16343554Y-46448955D02*
X16464723Y-46489955D01*
X7497486Y-46695055D02*
X7606694Y-46757848D01*
X18162421Y-48672893D02*
X18172492Y-48805329D01*
X13217414Y-50070123D02*
X13165190Y-49954607D01*
X16093635Y-46384695D02*
X16219803Y-46413814D01*
X13405629Y-50397581D02*
X13337797Y-50291774D01*
X14792585Y-51430100D02*
X14671416Y-51389101D01*
X15433872Y-51543949D02*
X15301436Y-51533878D01*
X3804874Y-48091466D02*
X3851567Y-47973041D01*
X5728881Y-51542954D02*
X5602713Y-51513834D01*
X6254446Y-51595935D02*
X6120249Y-51592542D01*
X18058643Y-49715012D02*
X18017643Y-49836181D01*
X14007773Y-51029262D02*
X13909258Y-50951844D01*
X15702267Y-46335106D02*
X15834703Y-46345177D01*
X3851567Y-50003199D02*
X3804874Y-49884774D01*
X5857302Y-51565887D02*
X5728881Y-51542954D01*
X8416888Y-47530066D02*
X8484719Y-47635873D01*
X12973719Y-48672893D02*
X12990303Y-48542383D01*
X12990303Y-48542383D02*
X13013237Y-48413962D01*
X3728733Y-49639853D02*
X3699614Y-49513685D01*
X13077498Y-48164043D02*
X13118497Y-48042873D01*
X13217414Y-47808932D02*
X13275004Y-47696488D01*
X13275004Y-50182567D02*
X13217414Y-50070123D01*
X18172492Y-49073725D02*
X18162421Y-49206161D01*
X14110016Y-51101968D02*
X14007773Y-51029262D01*
X15170925Y-51517294D02*
X15042504Y-51494361D01*
X13118497Y-48042873D02*
X13165190Y-47924448D01*
X4501011Y-50918472D02*
X4410443Y-50832123D01*
X13909258Y-50951844D02*
X13814634Y-50869879D01*
X8657326Y-47973041D02*
X8704020Y-48091466D01*
X18122903Y-48413962D02*
X18145837Y-48542383D01*
X8862261Y-48988120D02*
X8862261Y-48988120D01*
X17861135Y-50182567D02*
X17798342Y-50291774D01*
X16698665Y-46588872D02*
X16811109Y-46646462D01*
X14007773Y-46849794D02*
X14110016Y-46777087D01*
X7269526Y-46585241D02*
X7385042Y-46637464D01*
X6120249Y-46383699D02*
X6254446Y-46380306D01*
X8657326Y-50003199D02*
X8605102Y-50118715D01*
X13077498Y-49715012D02*
X13042356Y-49591261D01*
X18162421Y-49206161D02*
X18145837Y-49336672D01*
X7814744Y-51077854D02*
X7712501Y-51150561D01*
X7029931Y-51478693D02*
X6906180Y-51513834D01*
X8809280Y-48462554D02*
X8832213Y-48590975D01*
X17861135Y-47696488D02*
X17918726Y-47808932D01*
X8745019Y-49763604D02*
X8704020Y-49884774D01*
X8862261Y-48988120D02*
X8862261Y-48988120D01*
X15568069Y-46331713D02*
X15702267Y-46335106D01*
X3660096Y-48721486D02*
X3676680Y-48590975D01*
X17026123Y-51101968D02*
X16920316Y-51169800D01*
X16464723Y-46489955D02*
X16583148Y-46536648D01*
X4242130Y-50646932D02*
X4164713Y-50548417D01*
X17412073Y-50783531D02*
X17321505Y-50869879D01*
X17970950Y-47924448D02*
X18017643Y-48042873D01*
X8098450Y-47144117D02*
X8184798Y-47234684D01*
X13013237Y-49465093D02*
X12990303Y-49336672D01*
X4694150Y-51077854D02*
X4595634Y-51000437D01*
X8858868Y-48853922D02*
X8862261Y-48988120D01*
X5357792Y-46538547D02*
X5478962Y-46497548D01*
X15301436Y-46345177D02*
X15433872Y-46335106D01*
X5011407Y-46695055D02*
X5123851Y-46637464D01*
X16093635Y-51494361D02*
X15965214Y-51517294D01*
X8858868Y-49122317D02*
X8848797Y-49254753D01*
X16920316Y-51169800D02*
X16811109Y-51232593D01*
X4024174Y-47635873D02*
X4092006Y-47530066D01*
X7029931Y-46497548D02*
X7151101Y-46538547D01*
X13118497Y-49836181D02*
X13077498Y-49715012D01*
X4164713Y-47427823D02*
X4242130Y-47329308D01*
X5357792Y-51437694D02*
X5239367Y-51391000D01*
X17026123Y-46777087D02*
X17128367Y-46849794D01*
X5987813Y-46393769D02*
X6120249Y-46383699D01*
X6651591Y-46410353D02*
X6780012Y-46433287D01*
X17226882Y-46927211D02*
X17321505Y-47009176D01*
X13637718Y-50692963D02*
X13555753Y-50598340D01*
X12960255Y-48939527D02*
X12960255Y-48939527D01*
X5857302Y-46410353D02*
X5987813Y-46393769D01*
X7814744Y-46898386D02*
X7913259Y-46975804D01*
X5602713Y-51513834D02*
X5478962Y-51478693D01*
X8862261Y-48988120D02*
X8858868Y-49122317D01*
X13724066Y-50783531D02*
X13637718Y-50692963D01*
X17580386Y-50598340D02*
X17498421Y-50692963D01*
X8266763Y-50646932D02*
X8184798Y-50741556D01*
X3728733Y-48336386D02*
X3763874Y-48212636D01*
X13478336Y-50499824D02*
X13405629Y-50397581D01*
X4092006Y-50446174D02*
X4024174Y-50340366D01*
X5478962Y-51478693D02*
X5357792Y-51437694D01*
X8780160Y-49639853D02*
X8745019Y-49763604D01*
X16219803Y-46413814D02*
X16343554Y-46448955D01*
X17730511Y-47481474D02*
X17798342Y-47587281D01*
X17918726Y-47808932D02*
X17970950Y-47924448D01*
X7913259Y-51000437D02*
X7814744Y-51077854D01*
X8780160Y-48336386D02*
X8809280Y-48462554D01*
X16583148Y-46536648D02*
X16698665Y-46588872D01*
X13814634Y-50869879D02*
X13724066Y-50783531D01*
X18058643Y-48164043D02*
X18093784Y-48287794D01*
X15301436Y-51533878D02*
X15170925Y-51517294D01*
X8605102Y-50118715D02*
X8547512Y-50231159D01*
X17970950Y-49954607D02*
X17918726Y-50070123D01*
X17657804Y-50499824D02*
X17580386Y-50598340D01*
X17128367Y-46849794D02*
X17226882Y-46927211D01*
X8809280Y-49513685D02*
X8780160Y-49639853D01*
X6120249Y-51592542D02*
X5987813Y-51582471D01*
X3804874Y-49884774D02*
X3763874Y-49763604D01*
X8007882Y-50918472D02*
X7913259Y-51000437D01*
X3961381Y-50231159D02*
X3903791Y-50118715D01*
X17580386Y-47280715D02*
X17657804Y-47379231D01*
X15702267Y-51543949D02*
X15568069Y-51547342D01*
X3903791Y-50118715D02*
X3851567Y-50003199D01*
X3676680Y-48590975D02*
X3699614Y-48462554D01*
X7712501Y-51150561D02*
X7606694Y-51218393D01*
X5123851Y-46637464D02*
X5239367Y-46585241D01*
X4242130Y-47329308D02*
X4324095Y-47234684D01*
X14437474Y-46588872D02*
X14552991Y-46536648D01*
X17498421Y-47186092D02*
X17580386Y-47280715D01*
X7497486Y-51281186D02*
X7385042Y-51338776D01*
X3660096Y-49254753D02*
X3650026Y-49122317D01*
X4902200Y-46757848D02*
X5011407Y-46695055D01*
X16698665Y-51290183D02*
X16583148Y-51342407D01*
X15042504Y-46384695D02*
X15170925Y-46361761D01*
X14792585Y-46448955D02*
X14916336Y-46413814D01*
X5478962Y-46497548D02*
X5602713Y-46462406D01*
X6388644Y-51592542D02*
X6254446Y-51595935D01*
X13165190Y-47924448D02*
X13217414Y-47808932D01*
X18017643Y-48042873D02*
X18058643Y-48164043D01*
X13042356Y-49591261D02*
X13013237Y-49465093D01*
X13165190Y-49954607D02*
X13118497Y-49836181D01*
X15042504Y-51494361D02*
X14916336Y-51465241D01*
X4694150Y-46898386D02*
X4796393Y-46825679D01*
X4410443Y-47144117D02*
X4501011Y-47057768D01*
X5728881Y-46433287D02*
X5857302Y-46410353D01*
X6254446Y-46380306D02*
X6254446Y-46380306D01*
X17412073Y-47095524D02*
X17498421Y-47186092D01*
X17498421Y-50692963D02*
X17412073Y-50783531D01*
X14325030Y-51232593D02*
X14215823Y-51169800D01*
X13909258Y-46927211D02*
X14007773Y-46849794D01*
X7385042Y-51338776D02*
X7269526Y-51391000D01*
X6254446Y-46380306D02*
X6388644Y-46383699D01*
X16343554Y-51430100D02*
X16219803Y-51465241D01*
X3676680Y-49385264D02*
X3660096Y-49254753D01*
X15568069Y-51547342D02*
X15568069Y-51547342D01*
X7151101Y-46538547D02*
X7269526Y-46585241D01*
X17730511Y-50397581D02*
X17657804Y-50499824D01*
X7913259Y-46975804D02*
X8007882Y-47057768D01*
X16464723Y-51389101D02*
X16343554Y-51430100D01*
D13*
X2547619Y-1835595D02*
X3547619Y-1835595D01*
X3547619Y-2073690D01*
X3500000Y-2216547D01*
X3404761Y-2311785D01*
X3309523Y-2359404D01*
X3119047Y-2407023D01*
X2976190Y-2407023D01*
X2785714Y-2359404D01*
X2690476Y-2311785D01*
X2595238Y-2216547D01*
X2547619Y-2073690D01*
X2547619Y-1835595D01*
X2595238Y-3216547D02*
X2547619Y-3121309D01*
X2547619Y-2930833D01*
X2595238Y-2835595D01*
X2690476Y-2787976D01*
X3071428Y-2787976D01*
X3166666Y-2835595D01*
X3214285Y-2930833D01*
X3214285Y-3121309D01*
X3166666Y-3216547D01*
X3071428Y-3264166D01*
X2976190Y-3264166D01*
X2880952Y-2787976D01*
X2595238Y-3645119D02*
X2547619Y-3740357D01*
X2547619Y-3930833D01*
X2595238Y-4026071D01*
X2690476Y-4073690D01*
X2738095Y-4073690D01*
X2833333Y-4026071D01*
X2880952Y-3930833D01*
X2880952Y-3787976D01*
X2928571Y-3692738D01*
X3023809Y-3645119D01*
X3071428Y-3645119D01*
X3166666Y-3692738D01*
X3214285Y-3787976D01*
X3214285Y-3930833D01*
X3166666Y-4026071D01*
X2547619Y-4502261D02*
X3214285Y-4502261D01*
X3547619Y-4502261D02*
X3500000Y-4454642D01*
X3452380Y-4502261D01*
X3500000Y-4549880D01*
X3547619Y-4502261D01*
X3452380Y-4502261D01*
X3214285Y-5407023D02*
X2404761Y-5407023D01*
X2309523Y-5359404D01*
X2261904Y-5311785D01*
X2214285Y-5216547D01*
X2214285Y-5073690D01*
X2261904Y-4978452D01*
X2595238Y-5407023D02*
X2547619Y-5311785D01*
X2547619Y-5121309D01*
X2595238Y-5026071D01*
X2642857Y-4978452D01*
X2738095Y-4930833D01*
X3023809Y-4930833D01*
X3119047Y-4978452D01*
X3166666Y-5026071D01*
X3214285Y-5121309D01*
X3214285Y-5311785D01*
X3166666Y-5407023D01*
X3214285Y-5883214D02*
X2547619Y-5883214D01*
X3119047Y-5883214D02*
X3166666Y-5930833D01*
X3214285Y-6026071D01*
X3214285Y-6168928D01*
X3166666Y-6264166D01*
X3071428Y-6311785D01*
X2547619Y-6311785D01*
X2595238Y-7168928D02*
X2547619Y-7073690D01*
X2547619Y-6883214D01*
X2595238Y-6787976D01*
X2690476Y-6740357D01*
X3071428Y-6740357D01*
X3166666Y-6787976D01*
X3214285Y-6883214D01*
X3214285Y-7073690D01*
X3166666Y-7168928D01*
X3071428Y-7216547D01*
X2976190Y-7216547D01*
X2880952Y-6740357D01*
X2547619Y-8073690D02*
X3547619Y-8073690D01*
X2595238Y-8073690D02*
X2547619Y-7978452D01*
X2547619Y-7787976D01*
X2595238Y-7692738D01*
X2642857Y-7645119D01*
X2738095Y-7597500D01*
X3023809Y-7597500D01*
X3119047Y-7645119D01*
X3166666Y-7692738D01*
X3214285Y-7787976D01*
X3214285Y-7978452D01*
X3166666Y-8073690D01*
X2547619Y-9311785D02*
X3214285Y-9311785D01*
X3547619Y-9311785D02*
X3500000Y-9264166D01*
X3452380Y-9311785D01*
X3500000Y-9359404D01*
X3547619Y-9311785D01*
X3452380Y-9311785D01*
X3214285Y-9787976D02*
X2547619Y-9787976D01*
X3119047Y-9787976D02*
X3166666Y-9835595D01*
X3214285Y-9930833D01*
X3214285Y-10073690D01*
X3166666Y-10168928D01*
X3071428Y-10216547D01*
X2547619Y-10216547D01*
X3547619Y-11359404D02*
X2547619Y-11597500D01*
X3261904Y-11787976D01*
X2547619Y-11978452D01*
X3547619Y-12216547D01*
X2595238Y-12978452D02*
X2547619Y-12883214D01*
X2547619Y-12692738D01*
X2595238Y-12597500D01*
X2690476Y-12549880D01*
X3071428Y-12549880D01*
X3166666Y-12597500D01*
X3214285Y-12692738D01*
X3214285Y-12883214D01*
X3166666Y-12978452D01*
X3071428Y-13026071D01*
X2976190Y-13026071D01*
X2880952Y-12549880D01*
X2547619Y-13454642D02*
X3214285Y-13454642D01*
X3547619Y-13454642D02*
X3500000Y-13407023D01*
X3452380Y-13454642D01*
X3500000Y-13502261D01*
X3547619Y-13454642D01*
X3452380Y-13454642D01*
X2547619Y-13930833D02*
X3214285Y-13930833D01*
X3119047Y-13930833D02*
X3166666Y-13978452D01*
X3214285Y-14073690D01*
X3214285Y-14216547D01*
X3166666Y-14311785D01*
X3071428Y-14359404D01*
X2547619Y-14359404D01*
X3071428Y-14359404D02*
X3166666Y-14407023D01*
X3214285Y-14502261D01*
X3214285Y-14645119D01*
X3166666Y-14740357D01*
X3071428Y-14787976D01*
X2547619Y-14787976D01*
X2547619Y-15692738D02*
X3071428Y-15692738D01*
X3166666Y-15645119D01*
X3214285Y-15549880D01*
X3214285Y-15359404D01*
X3166666Y-15264166D01*
X2595238Y-15692738D02*
X2547619Y-15597500D01*
X2547619Y-15359404D01*
X2595238Y-15264166D01*
X2690476Y-15216547D01*
X2785714Y-15216547D01*
X2880952Y-15264166D01*
X2928571Y-15359404D01*
X2928571Y-15597500D01*
X2976190Y-15692738D01*
X2547619Y-16168928D02*
X3214285Y-16168928D01*
X3023809Y-16168928D02*
X3119047Y-16216547D01*
X3166666Y-16264166D01*
X3214285Y-16359404D01*
X3214285Y-16454642D01*
X3214285Y-17454642D02*
X2547619Y-17645119D01*
X3023809Y-17835595D01*
X2547619Y-18026071D01*
X3214285Y-18216547D01*
X2547619Y-18597500D02*
X3214285Y-18597500D01*
X3547619Y-18597500D02*
X3500000Y-18549880D01*
X3452380Y-18597500D01*
X3500000Y-18645119D01*
X3547619Y-18597500D01*
X3452380Y-18597500D01*
X3214285Y-18930833D02*
X3214285Y-19311785D01*
X3547619Y-19073690D02*
X2690476Y-19073690D01*
X2595238Y-19121309D01*
X2547619Y-19216547D01*
X2547619Y-19311785D01*
X2547619Y-19645119D02*
X3547619Y-19645119D01*
X2547619Y-20073690D02*
X3071428Y-20073690D01*
X3166666Y-20026071D01*
X3214285Y-19930833D01*
X3214285Y-19787976D01*
X3166666Y-19692738D01*
X3119047Y-19645119D01*
X2547619Y-21454642D02*
X2595238Y-21359404D01*
X2690476Y-21311785D01*
X3547619Y-21311785D01*
X2547619Y-21978452D02*
X2595238Y-21883214D01*
X2642857Y-21835595D01*
X2738095Y-21787976D01*
X3023809Y-21787976D01*
X3119047Y-21835595D01*
X3166666Y-21883214D01*
X3214285Y-21978452D01*
X3214285Y-22121309D01*
X3166666Y-22216547D01*
X3119047Y-22264166D01*
X3023809Y-22311785D01*
X2738095Y-22311785D01*
X2642857Y-22264166D01*
X2595238Y-22216547D01*
X2547619Y-22121309D01*
X2547619Y-21978452D01*
X3214285Y-22645119D02*
X2547619Y-22883214D01*
X3214285Y-23121309D01*
X2595238Y-23883214D02*
X2547619Y-23787976D01*
X2547619Y-23597499D01*
X2595238Y-23502261D01*
X2690476Y-23454642D01*
X3071428Y-23454642D01*
X3166666Y-23502261D01*
X3214285Y-23597499D01*
X3214285Y-23787976D01*
X3166666Y-23883214D01*
X3071428Y-23930833D01*
X2976190Y-23930833D01*
X2880952Y-23454642D01*
X2642857Y-24359404D02*
X2595238Y-24407023D01*
X2547619Y-24359404D01*
X2595238Y-24311785D01*
X2642857Y-24359404D01*
X2547619Y-24359404D01*
X8397994Y-5968542D02*
X8510494Y-5068542D01*
X8955137Y-5968542D02*
X8874780Y-5925685D01*
X8842637Y-5839971D01*
X8939066Y-5068542D01*
X9260494Y-5925685D02*
X9340851Y-5968542D01*
X9512280Y-5968542D01*
X9603351Y-5925685D01*
X9656923Y-5839971D01*
X9662280Y-5797114D01*
X9630137Y-5711400D01*
X9549780Y-5668542D01*
X9421208Y-5668542D01*
X9340851Y-5625685D01*
X9308708Y-5539971D01*
X9314066Y-5497114D01*
X9367637Y-5411400D01*
X9458708Y-5368542D01*
X9587280Y-5368542D01*
X9667637Y-5411400D01*
X10374780Y-5925685D02*
X10283708Y-5968542D01*
X10112280Y-5968542D01*
X10031923Y-5925685D01*
X9999780Y-5839971D01*
X10042637Y-5497114D01*
X10096208Y-5411400D01*
X10187280Y-5368542D01*
X10358708Y-5368542D01*
X10439066Y-5411400D01*
X10471208Y-5497114D01*
X10460494Y-5582828D01*
X10021208Y-5668542D01*
X11997994Y-5968542D02*
X11751566Y-5539971D01*
X11483708Y-5968542D02*
X11596208Y-5068542D01*
X11939066Y-5068542D01*
X12019423Y-5111400D01*
X12056923Y-5154257D01*
X12089066Y-5239971D01*
X12072994Y-5368542D01*
X12019423Y-5454257D01*
X11971208Y-5497114D01*
X11880137Y-5539971D01*
X11537280Y-5539971D01*
X12731923Y-5925685D02*
X12640851Y-5968542D01*
X12469423Y-5968542D01*
X12389066Y-5925685D01*
X12356923Y-5839971D01*
X12399780Y-5497114D01*
X12453351Y-5411400D01*
X12544423Y-5368542D01*
X12715851Y-5368542D01*
X12796208Y-5411400D01*
X12828351Y-5497114D01*
X12817637Y-5582828D01*
X12378351Y-5668542D01*
X13144423Y-5368542D02*
X13283708Y-5968542D01*
X13572994Y-5368542D01*
X13851566Y-5882828D02*
X13889066Y-5925685D01*
X13840851Y-5968542D01*
X13803351Y-5925685D01*
X13851566Y-5882828D01*
X13840851Y-5968542D01*
X14328351Y-5154257D02*
X14376566Y-5111400D01*
X14467637Y-5068542D01*
X14681923Y-5068542D01*
X14762280Y-5111400D01*
X14799780Y-5154257D01*
X14831923Y-5239971D01*
X14821208Y-5325685D01*
X14762280Y-5454257D01*
X14183708Y-5968542D01*
X14740851Y-5968542D01*
X6164066Y-6946114D02*
X6287280Y-6988971D01*
X6324780Y-7031828D01*
X6356923Y-7117542D01*
X6340851Y-7246114D01*
X6287280Y-7331828D01*
X6239066Y-7374685D01*
X6147994Y-7417542D01*
X5805137Y-7417542D01*
X5917637Y-6517542D01*
X6217637Y-6517542D01*
X6297994Y-6560400D01*
X6335494Y-6603257D01*
X6367637Y-6688971D01*
X6356923Y-6774685D01*
X6303351Y-6860400D01*
X6255137Y-6903257D01*
X6164066Y-6946114D01*
X5864066Y-6946114D01*
X7090851Y-7417542D02*
X7149780Y-6946114D01*
X7117637Y-6860400D01*
X7037280Y-6817542D01*
X6865851Y-6817542D01*
X6774780Y-6860400D01*
X7096208Y-7374685D02*
X7005137Y-7417542D01*
X6790851Y-7417542D01*
X6710494Y-7374685D01*
X6678351Y-7288971D01*
X6689066Y-7203257D01*
X6742637Y-7117542D01*
X6833708Y-7074685D01*
X7047994Y-7074685D01*
X7139066Y-7031828D01*
X7481923Y-7374685D02*
X7562280Y-7417542D01*
X7733708Y-7417542D01*
X7824780Y-7374685D01*
X7878351Y-7288971D01*
X7883708Y-7246114D01*
X7851566Y-7160400D01*
X7771208Y-7117542D01*
X7642637Y-7117542D01*
X7562280Y-7074685D01*
X7530137Y-6988971D01*
X7535494Y-6946114D01*
X7589066Y-6860400D01*
X7680137Y-6817542D01*
X7808708Y-6817542D01*
X7889066Y-6860400D01*
X8596208Y-7374685D02*
X8505137Y-7417542D01*
X8333708Y-7417542D01*
X8253351Y-7374685D01*
X8221208Y-7288971D01*
X8264066Y-6946114D01*
X8317637Y-6860400D01*
X8408708Y-6817542D01*
X8580137Y-6817542D01*
X8660494Y-6860400D01*
X8692637Y-6946114D01*
X8681923Y-7031828D01*
X8242637Y-7117542D01*
X9405137Y-7417542D02*
X9517637Y-6517542D01*
X9410494Y-7374685D02*
X9319423Y-7417542D01*
X9147994Y-7417542D01*
X9067637Y-7374685D01*
X9030137Y-7331828D01*
X8997994Y-7246114D01*
X9030137Y-6988971D01*
X9083708Y-6903257D01*
X9131923Y-6860400D01*
X9222994Y-6817542D01*
X9394423Y-6817542D01*
X9474780Y-6860400D01*
X10647994Y-7417542D02*
X10567637Y-7374685D01*
X10530137Y-7331828D01*
X10497994Y-7246114D01*
X10530137Y-6988971D01*
X10583708Y-6903257D01*
X10631923Y-6860400D01*
X10722994Y-6817542D01*
X10851566Y-6817542D01*
X10931923Y-6860400D01*
X10969423Y-6903257D01*
X11001566Y-6988971D01*
X10969423Y-7246114D01*
X10915851Y-7331828D01*
X10867637Y-7374685D01*
X10776566Y-7417542D01*
X10647994Y-7417542D01*
X11408708Y-6817542D02*
X11333708Y-7417542D01*
X11397994Y-6903257D02*
X11446208Y-6860400D01*
X11537280Y-6817542D01*
X11665851Y-6817542D01*
X11746208Y-6860400D01*
X11778351Y-6946114D01*
X11719423Y-7417542D01*
X12817637Y-6517542D02*
X13331923Y-6517542D01*
X12962280Y-7417542D02*
X13074780Y-6517542D01*
X13647994Y-7417542D02*
X13567637Y-7374685D01*
X13530137Y-7331828D01*
X13497994Y-7246114D01*
X13530137Y-6988971D01*
X13583708Y-6903257D01*
X13631923Y-6860400D01*
X13722994Y-6817542D01*
X13851566Y-6817542D01*
X13931923Y-6860400D01*
X13969423Y-6903257D01*
X14001566Y-6988971D01*
X13969423Y-7246114D01*
X13915851Y-7331828D01*
X13867637Y-7374685D01*
X13776566Y-7417542D01*
X13647994Y-7417542D01*
X14280137Y-6817542D02*
X14622994Y-6817542D01*
X14446208Y-6517542D02*
X14349780Y-7288971D01*
X14381923Y-7374685D01*
X14462280Y-7417542D01*
X14547994Y-7417542D01*
X14976566Y-7417542D02*
X14896208Y-7374685D01*
X14858708Y-7331828D01*
X14826566Y-7246114D01*
X14858708Y-6988971D01*
X14912280Y-6903257D01*
X14960494Y-6860400D01*
X15051566Y-6817542D01*
X15180137Y-6817542D01*
X15260494Y-6860400D01*
X15297994Y-6903257D01*
X15330137Y-6988971D01*
X15297994Y-7246114D01*
X15244423Y-7331828D01*
X15196208Y-7374685D01*
X15105137Y-7417542D01*
X14976566Y-7417542D01*
X15662280Y-7417542D02*
X15737280Y-6817542D01*
X15715851Y-6988971D02*
X15769423Y-6903257D01*
X15817637Y-6860400D01*
X15908708Y-6817542D01*
X15994423Y-6817542D01*
X16347994Y-7417542D02*
X16267637Y-7374685D01*
X16230137Y-7331828D01*
X16197994Y-7246114D01*
X16230137Y-6988971D01*
X16283708Y-6903257D01*
X16331923Y-6860400D01*
X16422994Y-6817542D01*
X16551566Y-6817542D01*
X16631923Y-6860400D01*
X16669423Y-6903257D01*
X16701566Y-6988971D01*
X16669423Y-7246114D01*
X16615851Y-7331828D01*
X16567637Y-7374685D01*
X16476566Y-7417542D01*
X16347994Y-7417542D01*
X6447994Y-8866542D02*
X6560494Y-7966542D01*
X6517637Y-8309400D02*
X6608708Y-8266542D01*
X6780137Y-8266542D01*
X6860494Y-8309400D01*
X6897994Y-8352257D01*
X6930137Y-8437971D01*
X6897994Y-8695114D01*
X6844423Y-8780828D01*
X6796208Y-8823685D01*
X6705137Y-8866542D01*
X6533708Y-8866542D01*
X6453351Y-8823685D01*
X7251566Y-8266542D02*
X7390851Y-8866542D01*
X7680137Y-8266542D02*
X7390851Y-8866542D01*
X7278351Y-9080828D01*
X7230137Y-9123685D01*
X7139066Y-9166542D01*
X8596208Y-8823685D02*
X8719423Y-8866542D01*
X8933708Y-8866542D01*
X9024780Y-8823685D01*
X9072994Y-8780828D01*
X9126566Y-8695114D01*
X9137280Y-8609400D01*
X9105137Y-8523685D01*
X9067637Y-8480828D01*
X8987280Y-8437971D01*
X8821208Y-8395114D01*
X8740851Y-8352257D01*
X8703351Y-8309400D01*
X8671208Y-8223685D01*
X8681923Y-8137971D01*
X8735494Y-8052257D01*
X8783708Y-8009400D01*
X8874780Y-7966542D01*
X9089066Y-7966542D01*
X9212280Y-8009400D01*
X9480137Y-8266542D02*
X9619423Y-8866542D01*
X9908708Y-8266542D02*
X9619423Y-8866542D01*
X9506923Y-9080828D01*
X9458708Y-9123685D01*
X9367637Y-9166542D01*
X10251566Y-8266542D02*
X10176566Y-8866542D01*
X10240851Y-8352257D02*
X10289066Y-8309400D01*
X10380137Y-8266542D01*
X10508708Y-8266542D01*
X10589066Y-8309400D01*
X10621208Y-8395114D01*
X10562280Y-8866542D01*
X10937280Y-8266542D02*
X11280137Y-8266542D01*
X11103351Y-7966542D02*
X11006923Y-8737971D01*
X11039066Y-8823685D01*
X11119423Y-8866542D01*
X11205137Y-8866542D01*
X11505137Y-8866542D02*
X11617637Y-7966542D01*
X11890851Y-8866542D02*
X11949780Y-8395114D01*
X11917637Y-8309400D01*
X11837280Y-8266542D01*
X11708708Y-8266542D01*
X11617637Y-8309400D01*
X11569423Y-8352257D01*
X12667637Y-8823685D02*
X12576566Y-8866542D01*
X12405137Y-8866542D01*
X12324780Y-8823685D01*
X12292637Y-8737971D01*
X12335494Y-8395114D01*
X12389066Y-8309400D01*
X12480137Y-8266542D01*
X12651566Y-8266542D01*
X12731923Y-8309400D01*
X12764066Y-8395114D01*
X12753351Y-8480828D01*
X12314066Y-8566542D01*
X13090851Y-8866542D02*
X13165851Y-8266542D01*
X13144423Y-8437971D02*
X13197994Y-8352257D01*
X13246208Y-8309400D01*
X13337280Y-8266542D01*
X13422994Y-8266542D01*
X14017637Y-7966542D02*
X13937280Y-8609400D01*
X13878351Y-8737971D01*
X13781923Y-8823685D01*
X13647994Y-8866542D01*
X13562280Y-8866542D01*
X14719423Y-8866542D02*
X14778351Y-8395114D01*
X14746208Y-8309400D01*
X14665851Y-8266542D01*
X14494423Y-8266542D01*
X14403351Y-8309400D01*
X14724780Y-8823685D02*
X14633708Y-8866542D01*
X14419423Y-8866542D01*
X14339066Y-8823685D01*
X14306923Y-8737971D01*
X14317637Y-8652257D01*
X14371208Y-8566542D01*
X14462280Y-8523685D01*
X14676566Y-8523685D01*
X14767637Y-8480828D01*
X15539066Y-8823685D02*
X15447994Y-8866542D01*
X15276566Y-8866542D01*
X15196208Y-8823685D01*
X15158708Y-8780828D01*
X15126566Y-8695114D01*
X15158708Y-8437971D01*
X15212280Y-8352257D01*
X15260494Y-8309400D01*
X15351566Y-8266542D01*
X15522994Y-8266542D01*
X15603351Y-8309400D01*
X15919423Y-8866542D02*
X16031923Y-7966542D01*
X16047994Y-8523685D02*
X16262280Y-8866542D01*
X16337280Y-8266542D02*
X15951566Y-8609400D01*
X16658708Y-8780828D02*
X16696208Y-8823685D01*
X16647994Y-8866542D01*
X16610494Y-8823685D01*
X16658708Y-8780828D01*
X16647994Y-8866542D01*
X28539633Y-81939809D02*
X28206299Y-81939809D01*
X28206299Y-82463618D02*
X28206299Y-81463618D01*
X28682490Y-81463618D01*
X29063442Y-82463618D02*
X29063442Y-81796952D01*
X29063442Y-81463618D02*
X29015823Y-81511238D01*
X29063442Y-81558857D01*
X29111061Y-81511238D01*
X29063442Y-81463618D01*
X29063442Y-81558857D01*
X29682490Y-82463618D02*
X29587252Y-82415999D01*
X29539633Y-82320761D01*
X29539633Y-81463618D01*
X29920585Y-81796952D02*
X30301537Y-81796952D01*
X30063442Y-81463618D02*
X30063442Y-82320761D01*
X30111061Y-82415999D01*
X30206299Y-82463618D01*
X30301537Y-82463618D01*
X31015823Y-82415999D02*
X30920585Y-82463618D01*
X30730109Y-82463618D01*
X30634871Y-82415999D01*
X30587252Y-82320761D01*
X30587252Y-81939809D01*
X30634871Y-81844571D01*
X30730109Y-81796952D01*
X30920585Y-81796952D01*
X31015823Y-81844571D01*
X31063442Y-81939809D01*
X31063442Y-82035047D01*
X30587252Y-82130285D01*
X31492014Y-82463618D02*
X31492014Y-81796952D01*
X31492014Y-81987428D02*
X31539633Y-81892190D01*
X31587252Y-81844571D01*
X31682490Y-81796952D01*
X31777728Y-81796952D01*
X32872966Y-82463618D02*
X32872966Y-81463618D01*
X33349156Y-81796952D02*
X33349156Y-82463618D01*
X33349156Y-81892190D02*
X33396775Y-81844571D01*
X33492014Y-81796952D01*
X33634871Y-81796952D01*
X33730109Y-81844571D01*
X33777728Y-81939809D01*
X33777728Y-82463618D01*
X22717523Y-17013180D02*
X22384190Y-16536990D01*
X22146095Y-17013180D02*
X22146095Y-16013180D01*
X22527047Y-16013180D01*
X22622285Y-16060800D01*
X22669904Y-16108419D01*
X22717523Y-16203657D01*
X22717523Y-16346514D01*
X22669904Y-16441752D01*
X22622285Y-16489371D01*
X22527047Y-16536990D01*
X22146095Y-16536990D01*
X23527047Y-16965561D02*
X23431809Y-17013180D01*
X23241333Y-17013180D01*
X23146095Y-16965561D01*
X23098476Y-16870323D01*
X23098476Y-16489371D01*
X23146095Y-16394133D01*
X23241333Y-16346514D01*
X23431809Y-16346514D01*
X23527047Y-16394133D01*
X23574666Y-16489371D01*
X23574666Y-16584609D01*
X23098476Y-16679847D01*
X23955619Y-16965561D02*
X24050857Y-17013180D01*
X24241333Y-17013180D01*
X24336571Y-16965561D01*
X24384190Y-16870323D01*
X24384190Y-16822704D01*
X24336571Y-16727466D01*
X24241333Y-16679847D01*
X24098476Y-16679847D01*
X24003238Y-16632228D01*
X23955619Y-16536990D01*
X23955619Y-16489371D01*
X24003238Y-16394133D01*
X24098476Y-16346514D01*
X24241333Y-16346514D01*
X24336571Y-16394133D01*
X24955619Y-17013180D02*
X24860380Y-16965561D01*
X24812761Y-16917942D01*
X24765142Y-16822704D01*
X24765142Y-16536990D01*
X24812761Y-16441752D01*
X24860380Y-16394133D01*
X24955619Y-16346514D01*
X25098476Y-16346514D01*
X25193714Y-16394133D01*
X25241333Y-16441752D01*
X25288952Y-16536990D01*
X25288952Y-16822704D01*
X25241333Y-16917942D01*
X25193714Y-16965561D01*
X25098476Y-17013180D01*
X24955619Y-17013180D01*
X25717523Y-16346514D02*
X25717523Y-17013180D01*
X25717523Y-16441752D02*
X25765142Y-16394133D01*
X25860380Y-16346514D01*
X26003238Y-16346514D01*
X26098476Y-16394133D01*
X26146095Y-16489371D01*
X26146095Y-17013180D01*
X27050857Y-17013180D02*
X27050857Y-16489371D01*
X27003238Y-16394133D01*
X26908000Y-16346514D01*
X26717523Y-16346514D01*
X26622285Y-16394133D01*
X27050857Y-16965561D02*
X26955619Y-17013180D01*
X26717523Y-17013180D01*
X26622285Y-16965561D01*
X26574666Y-16870323D01*
X26574666Y-16775085D01*
X26622285Y-16679847D01*
X26717523Y-16632228D01*
X26955619Y-16632228D01*
X27050857Y-16584609D01*
X27527047Y-16346514D02*
X27527047Y-17013180D01*
X27527047Y-16441752D02*
X27574666Y-16394133D01*
X27669904Y-16346514D01*
X27812761Y-16346514D01*
X27908000Y-16394133D01*
X27955619Y-16489371D01*
X27955619Y-17013180D01*
X28860380Y-16965561D02*
X28765142Y-17013180D01*
X28574666Y-17013180D01*
X28479428Y-16965561D01*
X28431809Y-16917942D01*
X28384190Y-16822704D01*
X28384190Y-16536990D01*
X28431809Y-16441752D01*
X28479428Y-16394133D01*
X28574666Y-16346514D01*
X28765142Y-16346514D01*
X28860380Y-16394133D01*
X29669904Y-16965561D02*
X29574666Y-17013180D01*
X29384190Y-17013180D01*
X29288952Y-16965561D01*
X29241333Y-16870323D01*
X29241333Y-16489371D01*
X29288952Y-16394133D01*
X29384190Y-16346514D01*
X29574666Y-16346514D01*
X29669904Y-16394133D01*
X29717523Y-16489371D01*
X29717523Y-16584609D01*
X29241333Y-16679847D01*
X69539633Y-33888380D02*
X69492014Y-33935999D01*
X69349156Y-33983618D01*
X69253918Y-33983618D01*
X69111061Y-33935999D01*
X69015823Y-33840761D01*
X68968204Y-33745523D01*
X68920585Y-33555047D01*
X68920585Y-33412190D01*
X68968204Y-33221714D01*
X69015823Y-33126476D01*
X69111061Y-33031238D01*
X69253918Y-32983618D01*
X69349156Y-32983618D01*
X69492014Y-33031238D01*
X69539633Y-33078857D01*
X70396775Y-33316952D02*
X70396775Y-33983618D01*
X69968204Y-33316952D02*
X69968204Y-33840761D01*
X70015823Y-33935999D01*
X70111061Y-33983618D01*
X70253918Y-33983618D01*
X70349156Y-33935999D01*
X70396775Y-33888380D01*
X70730109Y-33316952D02*
X71111061Y-33316952D01*
X70872966Y-32983618D02*
X70872966Y-33840761D01*
X70920585Y-33935999D01*
X71015823Y-33983618D01*
X71111061Y-33983618D01*
X71587252Y-33983618D02*
X71492014Y-33935999D01*
X71444394Y-33888380D01*
X71396775Y-33793142D01*
X71396775Y-33507428D01*
X71444394Y-33412190D01*
X71492014Y-33364571D01*
X71587252Y-33316952D01*
X71730109Y-33316952D01*
X71825347Y-33364571D01*
X71872966Y-33412190D01*
X71920585Y-33507428D01*
X71920585Y-33793142D01*
X71872966Y-33888380D01*
X71825347Y-33935999D01*
X71730109Y-33983618D01*
X71587252Y-33983618D01*
X72206299Y-33316952D02*
X72587252Y-33316952D01*
X72349156Y-33983618D02*
X72349156Y-33126476D01*
X72396775Y-33031238D01*
X72492014Y-32983618D01*
X72587252Y-32983618D01*
X72777728Y-33316952D02*
X73158680Y-33316952D01*
X72920585Y-33983618D02*
X72920585Y-33126476D01*
X72968204Y-33031238D01*
X73063442Y-32983618D01*
X73158680Y-32983618D01*
X67730109Y-58983618D02*
X67253918Y-58983618D01*
X67253918Y-57983618D01*
X68396775Y-58459809D02*
X68063442Y-58459809D01*
X68063442Y-58983618D02*
X68063442Y-57983618D01*
X68539633Y-57983618D01*
X69111061Y-57983618D02*
X69301537Y-57983618D01*
X69396775Y-58031238D01*
X69492014Y-58126476D01*
X69539633Y-58316952D01*
X69539633Y-58650285D01*
X69492014Y-58840761D01*
X69396775Y-58935999D01*
X69301537Y-58983618D01*
X69111061Y-58983618D01*
X69015823Y-58935999D01*
X68920585Y-58840761D01*
X68872966Y-58650285D01*
X68872966Y-58316952D01*
X68920585Y-58126476D01*
X69015823Y-58031238D01*
X69111061Y-57983618D01*
X70682490Y-58935999D02*
X70825347Y-58983618D01*
X71063442Y-58983618D01*
X71158680Y-58935999D01*
X71206299Y-58888380D01*
X71253918Y-58793142D01*
X71253918Y-58697904D01*
X71206299Y-58602666D01*
X71158680Y-58555047D01*
X71063442Y-58507428D01*
X70872966Y-58459809D01*
X70777728Y-58412190D01*
X70730109Y-58364571D01*
X70682490Y-58269333D01*
X70682490Y-58174095D01*
X70730109Y-58078857D01*
X70777728Y-58031238D01*
X70872966Y-57983618D01*
X71111061Y-57983618D01*
X71253918Y-58031238D01*
X71682490Y-58316952D02*
X71682490Y-59316952D01*
X71682490Y-58364571D02*
X71777728Y-58316952D01*
X71968204Y-58316952D01*
X72063442Y-58364571D01*
X72111061Y-58412190D01*
X72158680Y-58507428D01*
X72158680Y-58793142D01*
X72111061Y-58888380D01*
X72063442Y-58935999D01*
X71968204Y-58983618D01*
X71777728Y-58983618D01*
X71682490Y-58935999D01*
X72968204Y-58935999D02*
X72872966Y-58983618D01*
X72682490Y-58983618D01*
X72587252Y-58935999D01*
X72539633Y-58840761D01*
X72539633Y-58459809D01*
X72587252Y-58364571D01*
X72682490Y-58316952D01*
X72872966Y-58316952D01*
X72968204Y-58364571D01*
X73015823Y-58459809D01*
X73015823Y-58555047D01*
X72539633Y-58650285D01*
X73825347Y-58935999D02*
X73730109Y-58983618D01*
X73539633Y-58983618D01*
X73444394Y-58935999D01*
X73396775Y-58840761D01*
X73396775Y-58459809D01*
X73444394Y-58364571D01*
X73539633Y-58316952D01*
X73730109Y-58316952D01*
X73825347Y-58364571D01*
X73872966Y-58459809D01*
X73872966Y-58555047D01*
X73396775Y-58650285D01*
X74730109Y-58983618D02*
X74730109Y-57983618D01*
X74730109Y-58935999D02*
X74634871Y-58983618D01*
X74444394Y-58983618D01*
X74349156Y-58935999D01*
X74301537Y-58888380D01*
X74253918Y-58793142D01*
X74253918Y-58507428D01*
X74301537Y-58412190D01*
X74349156Y-58364571D01*
X74444394Y-58316952D01*
X74634871Y-58316952D01*
X74730109Y-58364571D01*
X50087252Y-81531238D02*
X49992014Y-81483618D01*
X49849156Y-81483618D01*
X49706299Y-81531238D01*
X49611061Y-81626476D01*
X49563442Y-81721714D01*
X49515823Y-81912190D01*
X49515823Y-82055047D01*
X49563442Y-82245523D01*
X49611061Y-82340761D01*
X49706299Y-82435999D01*
X49849156Y-82483618D01*
X49944394Y-82483618D01*
X50087252Y-82435999D01*
X50134871Y-82388380D01*
X50134871Y-82055047D01*
X49944394Y-82055047D01*
X50992014Y-82483618D02*
X50992014Y-81959809D01*
X50944394Y-81864571D01*
X50849156Y-81816952D01*
X50658680Y-81816952D01*
X50563442Y-81864571D01*
X50992014Y-82435999D02*
X50896775Y-82483618D01*
X50658680Y-82483618D01*
X50563442Y-82435999D01*
X50515823Y-82340761D01*
X50515823Y-82245523D01*
X50563442Y-82150285D01*
X50658680Y-82102666D01*
X50896775Y-82102666D01*
X50992014Y-82055047D01*
X51325347Y-81816952D02*
X51706299Y-81816952D01*
X51468204Y-81483618D02*
X51468204Y-82340761D01*
X51515823Y-82435999D01*
X51611061Y-82483618D01*
X51706299Y-82483618D01*
X52420585Y-82435999D02*
X52325347Y-82483618D01*
X52134871Y-82483618D01*
X52039633Y-82435999D01*
X51992014Y-82340761D01*
X51992014Y-81959809D01*
X52039633Y-81864571D01*
X52134871Y-81816952D01*
X52325347Y-81816952D01*
X52420585Y-81864571D01*
X52468204Y-81959809D01*
X52468204Y-82055047D01*
X51992014Y-82150285D01*
X59539633Y-82388380D02*
X59492014Y-82435999D01*
X59349156Y-82483618D01*
X59253918Y-82483618D01*
X59111061Y-82435999D01*
X59015823Y-82340761D01*
X58968204Y-82245523D01*
X58920585Y-82055047D01*
X58920585Y-81912190D01*
X58968204Y-81721714D01*
X59015823Y-81626476D01*
X59111061Y-81531238D01*
X59253918Y-81483618D01*
X59349156Y-81483618D01*
X59492014Y-81531238D01*
X59539633Y-81578857D01*
X60396775Y-81816952D02*
X60396775Y-82483618D01*
X59968204Y-81816952D02*
X59968204Y-82340761D01*
X60015823Y-82435999D01*
X60111061Y-82483618D01*
X60253918Y-82483618D01*
X60349156Y-82435999D01*
X60396775Y-82388380D01*
X60730109Y-81816952D02*
X61111061Y-81816952D01*
X60872966Y-81483618D02*
X60872966Y-82340761D01*
X60920585Y-82435999D01*
X61015823Y-82483618D01*
X61111061Y-82483618D01*
X61587252Y-82483618D02*
X61492014Y-82435999D01*
X61444394Y-82388380D01*
X61396775Y-82293142D01*
X61396775Y-82007428D01*
X61444394Y-81912190D01*
X61492014Y-81864571D01*
X61587252Y-81816952D01*
X61730109Y-81816952D01*
X61825347Y-81864571D01*
X61872966Y-81912190D01*
X61920585Y-82007428D01*
X61920585Y-82293142D01*
X61872966Y-82388380D01*
X61825347Y-82435999D01*
X61730109Y-82483618D01*
X61587252Y-82483618D01*
X62206299Y-81816952D02*
X62587252Y-81816952D01*
X62349156Y-82483618D02*
X62349156Y-81626476D01*
X62396775Y-81531238D01*
X62492014Y-81483618D01*
X62587252Y-81483618D01*
X62777728Y-81816952D02*
X63158680Y-81816952D01*
X62920585Y-82483618D02*
X62920585Y-81626476D01*
X62968204Y-81531238D01*
X63063442Y-81483618D01*
X63158680Y-81483618D01*
X8396775Y-32983618D02*
X8730109Y-33983618D01*
X9063442Y-32983618D01*
X9539633Y-33983618D02*
X9444394Y-33935999D01*
X9396775Y-33888380D01*
X9349156Y-33793142D01*
X9349156Y-33507428D01*
X9396775Y-33412190D01*
X9444394Y-33364571D01*
X9539633Y-33316952D01*
X9682490Y-33316952D01*
X9777728Y-33364571D01*
X9825347Y-33412190D01*
X9872966Y-33507428D01*
X9872966Y-33793142D01*
X9825347Y-33888380D01*
X9777728Y-33935999D01*
X9682490Y-33983618D01*
X9539633Y-33983618D01*
X10444394Y-33983618D02*
X10349156Y-33935999D01*
X10301537Y-33840761D01*
X10301537Y-32983618D01*
X11253918Y-33316952D02*
X11253918Y-33983618D01*
X10825347Y-33316952D02*
X10825347Y-33840761D01*
X10872966Y-33935999D01*
X10968204Y-33983618D01*
X11111061Y-33983618D01*
X11206299Y-33935999D01*
X11253918Y-33888380D01*
X11730109Y-33983618D02*
X11730109Y-33316952D01*
X11730109Y-33412190D02*
X11777728Y-33364571D01*
X11872966Y-33316952D01*
X12015823Y-33316952D01*
X12111061Y-33364571D01*
X12158680Y-33459809D01*
X12158680Y-33983618D01*
X12158680Y-33459809D02*
X12206299Y-33364571D01*
X12301537Y-33316952D01*
X12444394Y-33316952D01*
X12539633Y-33364571D01*
X12587252Y-33459809D01*
X12587252Y-33983618D01*
X13444394Y-33935999D02*
X13349156Y-33983618D01*
X13158680Y-33983618D01*
X13063442Y-33935999D01*
X13015823Y-33840761D01*
X13015823Y-33459809D01*
X13063442Y-33364571D01*
X13158680Y-33316952D01*
X13349156Y-33316952D01*
X13444394Y-33364571D01*
X13492014Y-33459809D01*
X13492014Y-33555047D01*
X13015823Y-33650285D01*
X53406895Y-15336780D02*
X52930704Y-15336780D01*
X52930704Y-14336780D01*
X54073561Y-14812971D02*
X53740228Y-14812971D01*
X53740228Y-15336780D02*
X53740228Y-14336780D01*
X54216419Y-14336780D01*
X54787847Y-14336780D02*
X54978323Y-14336780D01*
X55073561Y-14384400D01*
X55168800Y-14479638D01*
X55216419Y-14670114D01*
X55216419Y-15003447D01*
X55168800Y-15193923D01*
X55073561Y-15289161D01*
X54978323Y-15336780D01*
X54787847Y-15336780D01*
X54692609Y-15289161D01*
X54597371Y-15193923D01*
X54549752Y-15003447D01*
X54549752Y-14670114D01*
X54597371Y-14479638D01*
X54692609Y-14384400D01*
X54787847Y-14336780D01*
X56264038Y-14670114D02*
X56644990Y-14670114D01*
X56406895Y-14336780D02*
X56406895Y-15193923D01*
X56454514Y-15289161D01*
X56549752Y-15336780D01*
X56644990Y-15336780D01*
X57121180Y-15336780D02*
X57025942Y-15289161D01*
X56978323Y-15241542D01*
X56930704Y-15146304D01*
X56930704Y-14860590D01*
X56978323Y-14765352D01*
X57025942Y-14717733D01*
X57121180Y-14670114D01*
X57264038Y-14670114D01*
X57359276Y-14717733D01*
X57406895Y-14765352D01*
X57454514Y-14860590D01*
X57454514Y-15146304D01*
X57406895Y-15241542D01*
X57359276Y-15289161D01*
X57264038Y-15336780D01*
X57121180Y-15336780D01*
X3372966Y-57983618D02*
X3563442Y-57983618D01*
X3658680Y-58031238D01*
X3753918Y-58126476D01*
X3801537Y-58316952D01*
X3801537Y-58650285D01*
X3753918Y-58840761D01*
X3658680Y-58935999D01*
X3563442Y-58983618D01*
X3372966Y-58983618D01*
X3277728Y-58935999D01*
X3182490Y-58840761D01*
X3134871Y-58650285D01*
X3134871Y-58316952D01*
X3182490Y-58126476D01*
X3277728Y-58031238D01*
X3372966Y-57983618D01*
X4182490Y-58935999D02*
X4277728Y-58983618D01*
X4468204Y-58983618D01*
X4563442Y-58935999D01*
X4611061Y-58840761D01*
X4611061Y-58793142D01*
X4563442Y-58697904D01*
X4468204Y-58650285D01*
X4325347Y-58650285D01*
X4230109Y-58602666D01*
X4182490Y-58507428D01*
X4182490Y-58459809D01*
X4230109Y-58364571D01*
X4325347Y-58316952D01*
X4468204Y-58316952D01*
X4563442Y-58364571D01*
X5468204Y-58935999D02*
X5372966Y-58983618D01*
X5182490Y-58983618D01*
X5087252Y-58935999D01*
X5039633Y-58888380D01*
X4992014Y-58793142D01*
X4992014Y-58507428D01*
X5039633Y-58412190D01*
X5087252Y-58364571D01*
X5182490Y-58316952D01*
X5372966Y-58316952D01*
X5468204Y-58364571D01*
X6420585Y-58983618D02*
X5849156Y-58983618D01*
X6134871Y-58983618D02*
X6134871Y-57983618D01*
X6039633Y-58126476D01*
X5944394Y-58221714D01*
X5849156Y-58269333D01*
X8325347Y-57935999D02*
X7468204Y-59221714D01*
X9611061Y-57983618D02*
X9801537Y-57983618D01*
X9896775Y-58031238D01*
X9992014Y-58126476D01*
X10039633Y-58316952D01*
X10039633Y-58650285D01*
X9992014Y-58840761D01*
X9896775Y-58935999D01*
X9801537Y-58983618D01*
X9611061Y-58983618D01*
X9515823Y-58935999D01*
X9420585Y-58840761D01*
X9372966Y-58650285D01*
X9372966Y-58316952D01*
X9420585Y-58126476D01*
X9515823Y-58031238D01*
X9611061Y-57983618D01*
X10420585Y-58935999D02*
X10515823Y-58983618D01*
X10706299Y-58983618D01*
X10801537Y-58935999D01*
X10849156Y-58840761D01*
X10849156Y-58793142D01*
X10801537Y-58697904D01*
X10706299Y-58650285D01*
X10563442Y-58650285D01*
X10468204Y-58602666D01*
X10420585Y-58507428D01*
X10420585Y-58459809D01*
X10468204Y-58364571D01*
X10563442Y-58316952D01*
X10706299Y-58316952D01*
X10801537Y-58364571D01*
X11706299Y-58935999D02*
X11611061Y-58983618D01*
X11420585Y-58983618D01*
X11325347Y-58935999D01*
X11277728Y-58888380D01*
X11230109Y-58793142D01*
X11230109Y-58507428D01*
X11277728Y-58412190D01*
X11325347Y-58364571D01*
X11420585Y-58316952D01*
X11611061Y-58316952D01*
X11706299Y-58364571D01*
X12087252Y-58078857D02*
X12134871Y-58031238D01*
X12230109Y-57983618D01*
X12468204Y-57983618D01*
X12563442Y-58031238D01*
X12611061Y-58078857D01*
X12658680Y-58174095D01*
X12658680Y-58269333D01*
X12611061Y-58412190D01*
X12039633Y-58983618D01*
X12658680Y-58983618D01*
X14134871Y-59364571D02*
X14087252Y-59316952D01*
X13992014Y-59174095D01*
X13944394Y-59078857D01*
X13896775Y-58935999D01*
X13849156Y-58697904D01*
X13849156Y-58507428D01*
X13896775Y-58269333D01*
X13944394Y-58126476D01*
X13992014Y-58031238D01*
X14087252Y-57888380D01*
X14134871Y-57840761D01*
X14849156Y-58459809D02*
X14515823Y-58459809D01*
X14515823Y-58983618D02*
X14515823Y-57983618D01*
X14992014Y-57983618D01*
X15515823Y-58983618D02*
X15420585Y-58935999D01*
X15372966Y-58840761D01*
X15372966Y-57983618D01*
X15753918Y-58316952D02*
X16134871Y-58316952D01*
X15896775Y-57983618D02*
X15896775Y-58840761D01*
X15944394Y-58935999D01*
X16039633Y-58983618D01*
X16134871Y-58983618D01*
X17230109Y-58983618D02*
X17230109Y-57983618D01*
X17706299Y-58316952D02*
X17706299Y-58983618D01*
X17706299Y-58412190D02*
X17753918Y-58364571D01*
X17849156Y-58316952D01*
X17992014Y-58316952D01*
X18087252Y-58364571D01*
X18134871Y-58459809D01*
X18134871Y-58983618D01*
X18515823Y-59364571D02*
X18563442Y-59316952D01*
X18658680Y-59174095D01*
X18706299Y-59078857D01*
X18753918Y-58935999D01*
X18801537Y-58697904D01*
X18801537Y-58507428D01*
X18753918Y-58269333D01*
X18706299Y-58126476D01*
X18658680Y-58031238D01*
X18563442Y-57888380D01*
X18515823Y-57840761D01*
X38325347Y-82483618D02*
X37753918Y-82483618D01*
X38039633Y-82483618D02*
X38039633Y-81483618D01*
X37944394Y-81626476D01*
X37849156Y-81721714D01*
X37753918Y-81769333D01*
X38611061Y-81483618D02*
X38944394Y-82483618D01*
X39277728Y-81483618D01*
X41087252Y-81435999D02*
X40230109Y-82721714D01*
X42372966Y-81483618D02*
X42563442Y-81483618D01*
X42658680Y-81531238D01*
X42753918Y-81626476D01*
X42801537Y-81816952D01*
X42801537Y-82150285D01*
X42753918Y-82340761D01*
X42658680Y-82435999D01*
X42563442Y-82483618D01*
X42372966Y-82483618D01*
X42277728Y-82435999D01*
X42182490Y-82340761D01*
X42134871Y-82150285D01*
X42134871Y-81816952D01*
X42182490Y-81626476D01*
X42277728Y-81531238D01*
X42372966Y-81483618D01*
X43658680Y-82435999D02*
X43563442Y-82483618D01*
X43372966Y-82483618D01*
X43277728Y-82435999D01*
X43230109Y-82388380D01*
X43182490Y-82293142D01*
X43182490Y-82007428D01*
X43230109Y-81912190D01*
X43277728Y-81864571D01*
X43372966Y-81816952D01*
X43563442Y-81816952D01*
X43658680Y-81864571D01*
X43944394Y-81816952D02*
X44325347Y-81816952D01*
X44087252Y-81483618D02*
X44087252Y-82340761D01*
X44134871Y-82435999D01*
X44230109Y-82483618D01*
X44325347Y-82483618D01*
X36658680Y-57983618D02*
X36849156Y-57983618D01*
X36944394Y-58031238D01*
X37039633Y-58126476D01*
X37087252Y-58316952D01*
X37087252Y-58650285D01*
X37039633Y-58840761D01*
X36944394Y-58935999D01*
X36849156Y-58983618D01*
X36658680Y-58983618D01*
X36563442Y-58935999D01*
X36468204Y-58840761D01*
X36420585Y-58650285D01*
X36420585Y-58316952D01*
X36468204Y-58126476D01*
X36563442Y-58031238D01*
X36658680Y-57983618D01*
X37468204Y-58935999D02*
X37563442Y-58983618D01*
X37753918Y-58983618D01*
X37849156Y-58935999D01*
X37896775Y-58840761D01*
X37896775Y-58793142D01*
X37849156Y-58697904D01*
X37753918Y-58650285D01*
X37611061Y-58650285D01*
X37515823Y-58602666D01*
X37468204Y-58507428D01*
X37468204Y-58459809D01*
X37515823Y-58364571D01*
X37611061Y-58316952D01*
X37753918Y-58316952D01*
X37849156Y-58364571D01*
X38753918Y-58935999D02*
X38658680Y-58983618D01*
X38468204Y-58983618D01*
X38372966Y-58935999D01*
X38325347Y-58888380D01*
X38277728Y-58793142D01*
X38277728Y-58507428D01*
X38325347Y-58412190D01*
X38372966Y-58364571D01*
X38468204Y-58316952D01*
X38658680Y-58316952D01*
X38753918Y-58364571D01*
X39134871Y-58078857D02*
X39182490Y-58031238D01*
X39277728Y-57983618D01*
X39515823Y-57983618D01*
X39611061Y-58031238D01*
X39658680Y-58078857D01*
X39706299Y-58174095D01*
X39706299Y-58269333D01*
X39658680Y-58412190D01*
X39087252Y-58983618D01*
X39706299Y-58983618D01*
X40896775Y-58983618D02*
X40896775Y-57983618D01*
X41134871Y-57983618D01*
X41277728Y-58031238D01*
X41372966Y-58126476D01*
X41420585Y-58221714D01*
X41468204Y-58412190D01*
X41468204Y-58555047D01*
X41420585Y-58745523D01*
X41372966Y-58840761D01*
X41277728Y-58935999D01*
X41134871Y-58983618D01*
X40896775Y-58983618D01*
X42277728Y-58935999D02*
X42182490Y-58983618D01*
X41992014Y-58983618D01*
X41896775Y-58935999D01*
X41849156Y-58840761D01*
X41849156Y-58459809D01*
X41896775Y-58364571D01*
X41992014Y-58316952D01*
X42182490Y-58316952D01*
X42277728Y-58364571D01*
X42325347Y-58459809D01*
X42325347Y-58555047D01*
X41849156Y-58650285D01*
X42611061Y-58316952D02*
X42992014Y-58316952D01*
X42753918Y-57983618D02*
X42753918Y-58840761D01*
X42801537Y-58935999D01*
X42896775Y-58983618D01*
X42992014Y-58983618D01*
X43753918Y-58316952D02*
X43753918Y-58983618D01*
X43325347Y-58316952D02*
X43325347Y-58840761D01*
X43372966Y-58935999D01*
X43468204Y-58983618D01*
X43611061Y-58983618D01*
X43706299Y-58935999D01*
X43753918Y-58888380D01*
X44230109Y-58316952D02*
X44230109Y-58983618D01*
X44230109Y-58412190D02*
X44277728Y-58364571D01*
X44372966Y-58316952D01*
X44515823Y-58316952D01*
X44611061Y-58364571D01*
X44658680Y-58459809D01*
X44658680Y-58983618D01*
X45515823Y-58935999D02*
X45420585Y-58983618D01*
X45230109Y-58983618D01*
X45134871Y-58935999D01*
X45087252Y-58840761D01*
X45087252Y-58459809D01*
X45134871Y-58364571D01*
X45230109Y-58316952D01*
X45420585Y-58316952D01*
X45515823Y-58364571D01*
X45563442Y-58459809D01*
X45563442Y-58555047D01*
X45087252Y-58650285D01*
X38658680Y-32983618D02*
X39230109Y-32983618D01*
X38944394Y-33983618D02*
X38944394Y-32983618D01*
X39992014Y-33316952D02*
X39992014Y-33983618D01*
X39563442Y-33316952D02*
X39563442Y-33840761D01*
X39611061Y-33935999D01*
X39706299Y-33983618D01*
X39849156Y-33983618D01*
X39944394Y-33935999D01*
X39992014Y-33888380D01*
X40468204Y-33316952D02*
X40468204Y-33983618D01*
X40468204Y-33412190D02*
X40515823Y-33364571D01*
X40611061Y-33316952D01*
X40753918Y-33316952D01*
X40849156Y-33364571D01*
X40896775Y-33459809D01*
X40896775Y-33983618D01*
X41372966Y-33983618D02*
X41372966Y-33316952D01*
X41372966Y-32983618D02*
X41325347Y-33031238D01*
X41372966Y-33078857D01*
X41420585Y-33031238D01*
X41372966Y-32983618D01*
X41372966Y-33078857D01*
X41849156Y-33316952D02*
X41849156Y-33983618D01*
X41849156Y-33412190D02*
X41896775Y-33364571D01*
X41992014Y-33316952D01*
X42134871Y-33316952D01*
X42230109Y-33364571D01*
X42277728Y-33459809D01*
X42277728Y-33983618D01*
X43182490Y-33316952D02*
X43182490Y-34126476D01*
X43134871Y-34221714D01*
X43087252Y-34269333D01*
X42992014Y-34316952D01*
X42849156Y-34316952D01*
X42753918Y-34269333D01*
X43182490Y-33935999D02*
X43087252Y-33983618D01*
X42896775Y-33983618D01*
X42801537Y-33935999D01*
X42753918Y-33888380D01*
X42706299Y-33793142D01*
X42706299Y-33507428D01*
X42753918Y-33412190D01*
X42801537Y-33364571D01*
X42896775Y-33316952D01*
X43087252Y-33316952D01*
X43182490Y-33364571D01*
X70158680Y-81483618D02*
X70349156Y-81483618D01*
X70444394Y-81531238D01*
X70539633Y-81626476D01*
X70587252Y-81816952D01*
X70587252Y-82150285D01*
X70539633Y-82340761D01*
X70444394Y-82435999D01*
X70349156Y-82483618D01*
X70158680Y-82483618D01*
X70063442Y-82435999D01*
X69968204Y-82340761D01*
X69920585Y-82150285D01*
X69920585Y-81816952D01*
X69968204Y-81626476D01*
X70063442Y-81531238D01*
X70158680Y-81483618D01*
X71444394Y-81816952D02*
X71444394Y-82483618D01*
X71015823Y-81816952D02*
X71015823Y-82340761D01*
X71063442Y-82435999D01*
X71158680Y-82483618D01*
X71301537Y-82483618D01*
X71396775Y-82435999D01*
X71444394Y-82388380D01*
X71777728Y-81816952D02*
X72158680Y-81816952D01*
X71920585Y-81483618D02*
X71920585Y-82340761D01*
X71968204Y-82435999D01*
X72063442Y-82483618D01*
X72158680Y-82483618D01*
X8634871Y-83459809D02*
X8301537Y-83459809D01*
X8301537Y-83983618D02*
X8301537Y-82983618D01*
X8777728Y-82983618D01*
X9158680Y-83983618D02*
X9158680Y-83316952D01*
X9158680Y-83507428D02*
X9206299Y-83412190D01*
X9253918Y-83364571D01*
X9349156Y-83316952D01*
X9444394Y-83316952D01*
X10158680Y-83935999D02*
X10063442Y-83983618D01*
X9872966Y-83983618D01*
X9777728Y-83935999D01*
X9730109Y-83840761D01*
X9730109Y-83459809D01*
X9777728Y-83364571D01*
X9872966Y-83316952D01*
X10063442Y-83316952D01*
X10158680Y-83364571D01*
X10206299Y-83459809D01*
X10206299Y-83555047D01*
X9730109Y-83650285D01*
X11063442Y-83316952D02*
X11063442Y-84316952D01*
X11063442Y-83935999D02*
X10968204Y-83983618D01*
X10777728Y-83983618D01*
X10682490Y-83935999D01*
X10634871Y-83888380D01*
X10587252Y-83793142D01*
X10587252Y-83507428D01*
X10634871Y-83412190D01*
X10682490Y-83364571D01*
X10777728Y-83316952D01*
X10968204Y-83316952D01*
X11063442Y-83364571D01*
X12872966Y-83888380D02*
X12825347Y-83935999D01*
X12682490Y-83983618D01*
X12587252Y-83983618D01*
X12444394Y-83935999D01*
X12349156Y-83840761D01*
X12301537Y-83745523D01*
X12253918Y-83555047D01*
X12253918Y-83412190D01*
X12301537Y-83221714D01*
X12349156Y-83126476D01*
X12444394Y-83031238D01*
X12587252Y-82983618D01*
X12682490Y-82983618D01*
X12825347Y-83031238D01*
X12872966Y-83078857D01*
X13158680Y-82983618D02*
X13492014Y-83983618D01*
X13825347Y-82983618D01*
X62136928Y-3078171D02*
X61803595Y-3078171D01*
X61803595Y-3601980D02*
X61803595Y-2601980D01*
X62279785Y-2601980D01*
X62660738Y-3601980D02*
X62660738Y-2935314D01*
X62660738Y-3125790D02*
X62708357Y-3030552D01*
X62755976Y-2982933D01*
X62851214Y-2935314D01*
X62946452Y-2935314D01*
X63660738Y-3554361D02*
X63565500Y-3601980D01*
X63375023Y-3601980D01*
X63279785Y-3554361D01*
X63232166Y-3459123D01*
X63232166Y-3078171D01*
X63279785Y-2982933D01*
X63375023Y-2935314D01*
X63565500Y-2935314D01*
X63660738Y-2982933D01*
X63708357Y-3078171D01*
X63708357Y-3173409D01*
X63232166Y-3268647D01*
X64565500Y-2935314D02*
X64565500Y-3935314D01*
X64565500Y-3554361D02*
X64470261Y-3601980D01*
X64279785Y-3601980D01*
X64184547Y-3554361D01*
X64136928Y-3506742D01*
X64089309Y-3411504D01*
X64089309Y-3125790D01*
X64136928Y-3030552D01*
X64184547Y-2982933D01*
X64279785Y-2935314D01*
X64470261Y-2935314D01*
X64565500Y-2982933D01*
X62375023Y-10364742D02*
X62327404Y-10412361D01*
X62184547Y-10459980D01*
X62089309Y-10459980D01*
X61946452Y-10412361D01*
X61851214Y-10317123D01*
X61803595Y-10221885D01*
X61755976Y-10031409D01*
X61755976Y-9888552D01*
X61803595Y-9698076D01*
X61851214Y-9602838D01*
X61946452Y-9507600D01*
X62089309Y-9459980D01*
X62184547Y-9459980D01*
X62327404Y-9507600D01*
X62375023Y-9555219D01*
X63232166Y-9793314D02*
X63232166Y-10459980D01*
X62803595Y-9793314D02*
X62803595Y-10317123D01*
X62851214Y-10412361D01*
X62946452Y-10459980D01*
X63089309Y-10459980D01*
X63184547Y-10412361D01*
X63232166Y-10364742D01*
X63565500Y-9793314D02*
X63946452Y-9793314D01*
X63708357Y-9459980D02*
X63708357Y-10317123D01*
X63755976Y-10412361D01*
X63851214Y-10459980D01*
X63946452Y-10459980D01*
X64422642Y-10459980D02*
X64327404Y-10412361D01*
X64279785Y-10364742D01*
X64232166Y-10269504D01*
X64232166Y-9983790D01*
X64279785Y-9888552D01*
X64327404Y-9840933D01*
X64422642Y-9793314D01*
X64565500Y-9793314D01*
X64660738Y-9840933D01*
X64708357Y-9888552D01*
X64755976Y-9983790D01*
X64755976Y-10269504D01*
X64708357Y-10364742D01*
X64660738Y-10412361D01*
X64565500Y-10459980D01*
X64422642Y-10459980D01*
X65041690Y-9793314D02*
X65422642Y-9793314D01*
X65184547Y-10459980D02*
X65184547Y-9602838D01*
X65232166Y-9507600D01*
X65327404Y-9459980D01*
X65422642Y-9459980D01*
X65613119Y-9793314D02*
X65994071Y-9793314D01*
X65755976Y-10459980D02*
X65755976Y-9602838D01*
X65803595Y-9507600D01*
X65898833Y-9459980D01*
X65994071Y-9459980D01*
D14*
X8050091Y-76572747D02*
X8454152Y-76976808D01*
X8508027Y-77084558D01*
X8508027Y-77192308D01*
X8454152Y-77300057D01*
X8400278Y-77353932D01*
X9154525Y-76599685D02*
X8885151Y-76869059D01*
X8319465Y-76303373D01*
X9612461Y-76033999D02*
X9612461Y-76087874D01*
X9558586Y-76195624D01*
X9504711Y-76249498D01*
X9396962Y-76303373D01*
X9289212Y-76303373D01*
X9208400Y-76276436D01*
X9073713Y-76195624D01*
X8992901Y-76114811D01*
X8912088Y-75980124D01*
X8885151Y-75899312D01*
X8885151Y-75791563D01*
X8939026Y-75683813D01*
X8992901Y-75629938D01*
X9100650Y-75576063D01*
X9154525Y-75576063D01*
X9504711Y-75118128D02*
X9908772Y-75522189D01*
X9962647Y-75629938D01*
X9962647Y-75737688D01*
X9908772Y-75845437D01*
X9854897Y-75899312D01*
X10609145Y-75145065D02*
X10339771Y-75414439D01*
X9774085Y-74848754D01*
X11067080Y-74579380D02*
X11067080Y-74633254D01*
X11013206Y-74741004D01*
X10959331Y-74794879D01*
X10851581Y-74848754D01*
X10743832Y-74848754D01*
X10663019Y-74821816D01*
X10528332Y-74741004D01*
X10447520Y-74660192D01*
X10366708Y-74525505D01*
X10339771Y-74444693D01*
X10339771Y-74336943D01*
X10393645Y-74229193D01*
X10447520Y-74175319D01*
X10555270Y-74121444D01*
X10609145Y-74121444D01*
X10959331Y-73663508D02*
X11363392Y-74067569D01*
X11417267Y-74175319D01*
X11417267Y-74283068D01*
X11363392Y-74390818D01*
X11309517Y-74444693D01*
X12063764Y-73690445D02*
X11794390Y-73959819D01*
X11228705Y-73394134D01*
X12521700Y-73124760D02*
X12521700Y-73178635D01*
X12467825Y-73286384D01*
X12413950Y-73340259D01*
X12306201Y-73394134D01*
X12198451Y-73394134D01*
X12117639Y-73367197D01*
X11982952Y-73286384D01*
X11902140Y-73205572D01*
X11821328Y-73070885D01*
X11794390Y-72990073D01*
X11794390Y-72882323D01*
X11848265Y-72774574D01*
X11902140Y-72720699D01*
X12009889Y-72666824D01*
X12063764Y-72666824D01*
X12413950Y-72208888D02*
X12818011Y-72612949D01*
X12871886Y-72720699D01*
X12871886Y-72828449D01*
X12818011Y-72936198D01*
X12764137Y-72990073D01*
X13518384Y-72235826D02*
X13249010Y-72505200D01*
X12683324Y-71939514D01*
X13976320Y-71670140D02*
X13976320Y-71724015D01*
X13922445Y-71831765D01*
X13868570Y-71885639D01*
X13760821Y-71939514D01*
X13653071Y-71939514D01*
X13572259Y-71912577D01*
X13437572Y-71831765D01*
X13356760Y-71750952D01*
X13275947Y-71616265D01*
X13249010Y-71535453D01*
X13249010Y-71427704D01*
X13302885Y-71319954D01*
X13356760Y-71266079D01*
X13464509Y-71212204D01*
X13518384Y-71212204D01*
D13*
X40256904Y-3992380D02*
X40256904Y-2992380D01*
X40495000Y-2992380D01*
X40637857Y-3040000D01*
X40733095Y-3135238D01*
X40780714Y-3230476D01*
X40828333Y-3420952D01*
X40828333Y-3563809D01*
X40780714Y-3754285D01*
X40733095Y-3849523D01*
X40637857Y-3944761D01*
X40495000Y-3992380D01*
X40256904Y-3992380D01*
X41780714Y-3992380D02*
X41209285Y-3992380D01*
X41495000Y-3992380D02*
X41495000Y-2992380D01*
X41399761Y-3135238D01*
X41304523Y-3230476D01*
X41209285Y-3278095D01*
X70387004Y-36862380D02*
X70387004Y-35862380D01*
X70625100Y-35862380D01*
X70767957Y-35910000D01*
X70863195Y-36005238D01*
X70910814Y-36100476D01*
X70958433Y-36290952D01*
X70958433Y-36433809D01*
X70910814Y-36624285D01*
X70863195Y-36719523D01*
X70767957Y-36814761D01*
X70625100Y-36862380D01*
X70387004Y-36862380D01*
X71339385Y-35957619D02*
X71387004Y-35910000D01*
X71482242Y-35862380D01*
X71720338Y-35862380D01*
X71815576Y-35910000D01*
X71863195Y-35957619D01*
X71910814Y-36052857D01*
X71910814Y-36148095D01*
X71863195Y-36290952D01*
X71291766Y-36862380D01*
X71910814Y-36862380D01*
X21272947Y-44013428D02*
X22034852Y-44013428D01*
X21417395Y-41895480D02*
X21417395Y-40895480D01*
X21655490Y-40895480D01*
X21798347Y-40943100D01*
X21893585Y-41038338D01*
X21941204Y-41133576D01*
X21988823Y-41324052D01*
X21988823Y-41466909D01*
X21941204Y-41657385D01*
X21893585Y-41752623D01*
X21798347Y-41847861D01*
X21655490Y-41895480D01*
X21417395Y-41895480D01*
X21209047Y-35123428D02*
X21970952Y-35123428D01*
X21590000Y-35504380D02*
X21590000Y-34742476D01*
X19344376Y-33005480D02*
X19344376Y-32005480D01*
X19725328Y-32005480D01*
X19820566Y-32053100D01*
X19868185Y-32100719D01*
X19915804Y-32195957D01*
X19915804Y-32338814D01*
X19868185Y-32434052D01*
X19820566Y-32481671D01*
X19725328Y-32529290D01*
X19344376Y-32529290D01*
X20534852Y-32005480D02*
X20725328Y-32005480D01*
X20820566Y-32053100D01*
X20915804Y-32148338D01*
X20963423Y-32338814D01*
X20963423Y-32672147D01*
X20915804Y-32862623D01*
X20820566Y-32957861D01*
X20725328Y-33005480D01*
X20534852Y-33005480D01*
X20439614Y-32957861D01*
X20344376Y-32862623D01*
X20296757Y-32672147D01*
X20296757Y-32338814D01*
X20344376Y-32148338D01*
X20439614Y-32053100D01*
X20534852Y-32005480D01*
X21296757Y-32005480D02*
X21534852Y-33005480D01*
X21725328Y-32291195D01*
X21915804Y-33005480D01*
X22153900Y-32005480D01*
X22534852Y-32481671D02*
X22868185Y-32481671D01*
X23011042Y-33005480D02*
X22534852Y-33005480D01*
X22534852Y-32005480D01*
X23011042Y-32005480D01*
X24011042Y-33005480D02*
X23677709Y-32529290D01*
X23439614Y-33005480D02*
X23439614Y-32005480D01*
X23820566Y-32005480D01*
X23915804Y-32053100D01*
X23963423Y-32100719D01*
X24011042Y-32195957D01*
X24011042Y-32338814D01*
X23963423Y-32434052D01*
X23915804Y-32481671D01*
X23820566Y-32529290D01*
X23439614Y-32529290D01*
X21890404Y-37437900D02*
X21795166Y-37390280D01*
X21652309Y-37390280D01*
X21509452Y-37437900D01*
X21414214Y-37533138D01*
X21366595Y-37628376D01*
X21318976Y-37818852D01*
X21318976Y-37961709D01*
X21366595Y-38152185D01*
X21414214Y-38247423D01*
X21509452Y-38342661D01*
X21652309Y-38390280D01*
X21747547Y-38390280D01*
X21890404Y-38342661D01*
X21938023Y-38295042D01*
X21938023Y-37961709D01*
X21747547Y-37961709D01*
X21368185Y-40168280D02*
X21368185Y-39168280D01*
X21939614Y-40168280D01*
X21939614Y-39168280D01*
D15*
X30492014Y-80011238D02*
X26492014Y-80011238D01*
X29932014Y-66531238D02*
X30792014Y-66531238D01*
X35492014Y-69511238D02*
X31342014Y-69511238D01*
X30642014Y-69511238D02*
X26492014Y-69511238D01*
X26492014Y-69511238D02*
X26492014Y-80011238D01*
X35492014Y-80011238D02*
X31492014Y-80011238D01*
X35492014Y-69511238D02*
X35492014Y-80011238D01*
X29932014Y-66531238D02*
X29932014Y-67331238D01*
X32792014Y-74011238D02*
G75*
G03*
X32792014Y-74011238I-1800000J0D01*
G01*
X5861100Y-46898600D02*
X5861100Y-42962600D01*
X15902100Y-46898600D02*
X15902100Y-42962600D01*
X5861100Y-55202600D02*
X5861100Y-51265600D01*
X14252100Y-55202600D02*
X15902100Y-55202600D01*
X11753100Y-55202600D02*
X12512100Y-55202600D01*
X5861100Y-42962600D02*
X15902100Y-42962600D01*
X5861100Y-55202600D02*
X7182100Y-55202600D01*
X9632100Y-55202600D02*
X10012100Y-55202600D01*
X15902100Y-55202600D02*
X15902100Y-51265600D01*
X6036100Y-71923600D02*
X6036100Y-67987600D01*
X6036100Y-67987600D02*
X16077100Y-67987600D01*
X16077100Y-71923600D02*
X16077100Y-67987600D01*
X9807100Y-80227600D02*
X10187100Y-80227600D01*
X6036100Y-80227600D02*
X6036100Y-76290600D01*
X14427100Y-80227600D02*
X16077100Y-80227600D01*
X6036100Y-80227600D02*
X7357100Y-80227600D01*
X11928100Y-80227600D02*
X12687100Y-80227600D01*
X16077100Y-80227600D02*
X16077100Y-76290600D01*
D13*
X50476800Y-10688400D02*
X50476800Y-2568400D01*
X60724400Y-204000D02*
X49324400Y-204000D01*
X55709700Y-2568400D02*
X54439700Y-2568400D01*
X60724400Y-13004000D02*
X60724400Y-204000D01*
X49324400Y-13004000D02*
X49324400Y-204000D01*
X55709700Y-10688400D02*
X54388900Y-10692400D01*
X60724400Y-13004000D02*
X49324400Y-13004000D01*
X59616800Y-10688400D02*
X59616800Y-2568400D01*
D15*
X36011100Y-42862600D02*
X46052100Y-42862600D01*
X36011100Y-55102600D02*
X37332100Y-55102600D01*
X41903100Y-55102600D02*
X42662100Y-55102600D01*
X39782100Y-55102600D02*
X40162100Y-55102600D01*
X36011100Y-46798600D02*
X36011100Y-42862600D01*
X46052100Y-46798600D02*
X46052100Y-42862600D01*
X46052100Y-55102600D02*
X46052100Y-51165600D01*
X44402100Y-55102600D02*
X46052100Y-55102600D01*
X36011100Y-55102600D02*
X36011100Y-51165600D01*
X66036100Y-55152600D02*
X66036100Y-51215600D01*
X66036100Y-55152600D02*
X67357100Y-55152600D01*
X76077100Y-46848600D02*
X76077100Y-42912600D01*
X71928100Y-55152600D02*
X72687100Y-55152600D01*
X74427100Y-55152600D02*
X76077100Y-55152600D01*
X76077100Y-55152600D02*
X76077100Y-51215600D01*
X66036100Y-42912600D02*
X76077100Y-42912600D01*
X66036100Y-46848600D02*
X66036100Y-42912600D01*
X69807100Y-55152600D02*
X70187100Y-55152600D01*
X76052100Y-30327600D02*
X76052100Y-26390600D01*
X66011100Y-18087600D02*
X76052100Y-18087600D01*
X69782100Y-30327600D02*
X70162100Y-30327600D01*
X66011100Y-22023600D02*
X66011100Y-18087600D01*
X71903100Y-30327600D02*
X72662100Y-30327600D01*
X66011100Y-30327600D02*
X66011100Y-26390600D01*
X66011100Y-30327600D02*
X67332100Y-30327600D01*
X76052100Y-22023600D02*
X76052100Y-18087600D01*
X74402100Y-30327600D02*
X76052100Y-30327600D01*
X16077100Y-22023600D02*
X16077100Y-18087600D01*
X6036100Y-30327600D02*
X6036100Y-26390600D01*
X11928100Y-30327600D02*
X12687100Y-30327600D01*
X6036100Y-18087600D02*
X16077100Y-18087600D01*
X6036100Y-30327600D02*
X7357100Y-30327600D01*
X16077100Y-30327600D02*
X16077100Y-26390600D01*
X14427100Y-30327600D02*
X16077100Y-30327600D01*
X9807100Y-30327600D02*
X10187100Y-30327600D01*
X6036100Y-22023600D02*
X6036100Y-18087600D01*
X46064600Y-22023600D02*
X46064600Y-18087600D01*
X36023600Y-30327600D02*
X37344600Y-30327600D01*
X36023600Y-30327600D02*
X36023600Y-26390600D01*
X41915600Y-30327600D02*
X42674600Y-30327600D01*
X36023600Y-18087600D02*
X46064600Y-18087600D01*
X39794600Y-30327600D02*
X40174600Y-30327600D01*
X36023600Y-22023600D02*
X36023600Y-18087600D01*
X44414600Y-30327600D02*
X46064600Y-30327600D01*
X46064600Y-30327600D02*
X46064600Y-26390600D01*
X40642014Y-69511238D02*
X36492014Y-69511238D01*
X39932014Y-66531238D02*
X39932014Y-67331238D01*
X45492014Y-69511238D02*
X45492014Y-80011238D01*
X45492014Y-69511238D02*
X41342014Y-69511238D01*
X40492014Y-80011238D02*
X36492014Y-80011238D01*
X36492014Y-69511238D02*
X36492014Y-80011238D01*
X39932014Y-66531238D02*
X40792014Y-66531238D01*
X45492014Y-80011238D02*
X41492014Y-80011238D01*
X42792014Y-74011238D02*
G75*
G03*
X42792014Y-74011238I-1800000J0D01*
G01*
X39435000Y-5264000D02*
X39435000Y-5420000D01*
X39435000Y-7580000D02*
X39435000Y-7736000D01*
X42667335Y-5421392D02*
G75*
G03*
X39435000Y-5264484I-1672335J-1078608D01*
G01*
X39954039Y-7580000D02*
G75*
G03*
X42036130Y-7579837I1040961J1080000D01*
G01*
X42036130Y-5420163D02*
G75*
G03*
X39954039Y-5420000I-1041130J-1079837D01*
G01*
X39435000Y-7735516D02*
G75*
G03*
X42667335Y-7578608I1560000J1235516D01*
G01*
X69565100Y-40450000D02*
X69565100Y-40606000D01*
X69565100Y-38134000D02*
X69565100Y-38290000D01*
X72166230Y-38290163D02*
G75*
G03*
X70084139Y-38290000I-1041130J-1079837D01*
G01*
X69565100Y-40605516D02*
G75*
G03*
X72797435Y-40448608I1560000J1235516D01*
G01*
X72797435Y-38291392D02*
G75*
G03*
X69565100Y-38134484I-1672335J-1078608D01*
G01*
X70084139Y-40450000D02*
G75*
G03*
X72166230Y-40449837I1040961J1080000D01*
G01*
X50642014Y-69511238D02*
X46492014Y-69511238D01*
X46492014Y-69511238D02*
X46492014Y-80011238D01*
X55492014Y-69511238D02*
X51342014Y-69511238D01*
X50492014Y-80011238D02*
X46492014Y-80011238D01*
X55492014Y-69511238D02*
X55492014Y-80011238D01*
X55492014Y-80011238D02*
X51492014Y-80011238D01*
X49932014Y-66531238D02*
X50792014Y-66531238D01*
X49932014Y-66531238D02*
X49932014Y-67331238D01*
X52792014Y-74011238D02*
G75*
G03*
X52792014Y-74011238I-1800000J0D01*
G01*
X75492014Y-80011238D02*
X71492014Y-80011238D01*
X75492014Y-69511238D02*
X71342014Y-69511238D01*
X70492014Y-80011238D02*
X66492014Y-80011238D01*
X69932014Y-66531238D02*
X70792014Y-66531238D01*
X70642014Y-69511238D02*
X66492014Y-69511238D01*
X69932014Y-66531238D02*
X69932014Y-67331238D01*
X66492014Y-69511238D02*
X66492014Y-80011238D01*
X75492014Y-69511238D02*
X75492014Y-80011238D01*
X72792014Y-74011238D02*
G75*
G03*
X72792014Y-74011238I-1800000J0D01*
G01*
X60492014Y-80011238D02*
X56492014Y-80011238D01*
X59932014Y-66531238D02*
X59932014Y-67331238D01*
X56492014Y-69511238D02*
X56492014Y-80011238D01*
X59932014Y-66531238D02*
X60792014Y-66531238D01*
X65492014Y-69511238D02*
X61342014Y-69511238D01*
X65492014Y-69511238D02*
X65492014Y-80011238D01*
X65492014Y-80011238D02*
X61492014Y-80011238D01*
X60642014Y-69511238D02*
X56492014Y-69511238D01*
X62792014Y-74011238D02*
G75*
G03*
X62792014Y-74011238I-1800000J0D01*
G01*
G36*
X71769344Y-9266168D02*
G01*
X71826216Y-9287287D01*
X71826867Y-9287693D01*
X71862040Y-9313580D01*
X71888007Y-9343833D01*
X71906270Y-9383258D01*
X71918332Y-9436662D01*
X71925696Y-9508851D01*
X71929864Y-9604632D01*
X71930229Y-9618278D01*
X71935476Y-9824042D01*
X71891316Y-9846878D01*
X71859363Y-9862310D01*
X71840070Y-9869623D01*
X71839178Y-9869714D01*
X71835839Y-9856222D01*
X71833187Y-9819826D01*
X71831556Y-9766652D01*
X71831200Y-9723593D01*
X71831192Y-9653841D01*
X71828003Y-9610037D01*
X71816888Y-9589144D01*
X71793101Y-9588125D01*
X71751896Y-9603941D01*
X71689686Y-9633015D01*
X71643941Y-9657163D01*
X71620413Y-9678113D01*
X71613496Y-9700947D01*
X71613486Y-9702077D01*
X71624899Y-9741412D01*
X71658692Y-9762662D01*
X71710409Y-9765739D01*
X71747661Y-9765206D01*
X71767303Y-9775935D01*
X71779552Y-9801705D01*
X71786602Y-9834537D01*
X71776442Y-9853166D01*
X71772617Y-9855832D01*
X71736601Y-9866540D01*
X71686166Y-9868056D01*
X71634226Y-9860959D01*
X71597422Y-9847988D01*
X71546538Y-9804785D01*
X71517614Y-9744646D01*
X71511886Y-9697662D01*
X71516257Y-9655282D01*
X71532075Y-9620688D01*
X71563397Y-9589963D01*
X71614278Y-9559190D01*
X71688776Y-9524452D01*
X71693314Y-9522488D01*
X71760421Y-9491487D01*
X71801832Y-9466062D01*
X71819581Y-9443214D01*
X71815707Y-9419945D01*
X71792243Y-9393256D01*
X71785227Y-9387114D01*
X71738230Y-9363300D01*
X71689533Y-9364303D01*
X71647122Y-9387651D01*
X71618984Y-9430875D01*
X71616369Y-9439360D01*
X71590908Y-9480508D01*
X71558601Y-9500328D01*
X71511886Y-9519970D01*
X71511886Y-9469150D01*
X71526096Y-9395282D01*
X71568275Y-9327527D01*
X71590224Y-9304861D01*
X71640117Y-9275769D01*
X71703567Y-9262600D01*
X71769344Y-9266168D01*
G37*
D16*
X71769344Y-9266168D02*
X71826216Y-9287287D01*
X71826867Y-9287693D01*
X71862040Y-9313580D01*
X71888007Y-9343833D01*
X71906270Y-9383258D01*
X71918332Y-9436662D01*
X71925696Y-9508851D01*
X71929864Y-9604632D01*
X71930229Y-9618278D01*
X71935476Y-9824042D01*
X71891316Y-9846878D01*
X71859363Y-9862310D01*
X71840070Y-9869623D01*
X71839178Y-9869714D01*
X71835839Y-9856222D01*
X71833187Y-9819826D01*
X71831556Y-9766652D01*
X71831200Y-9723593D01*
X71831192Y-9653841D01*
X71828003Y-9610037D01*
X71816888Y-9589144D01*
X71793101Y-9588125D01*
X71751896Y-9603941D01*
X71689686Y-9633015D01*
X71643941Y-9657163D01*
X71620413Y-9678113D01*
X71613496Y-9700947D01*
X71613486Y-9702077D01*
X71624899Y-9741412D01*
X71658692Y-9762662D01*
X71710409Y-9765739D01*
X71747661Y-9765206D01*
X71767303Y-9775935D01*
X71779552Y-9801705D01*
X71786602Y-9834537D01*
X71776442Y-9853166D01*
X71772617Y-9855832D01*
X71736601Y-9866540D01*
X71686166Y-9868056D01*
X71634226Y-9860959D01*
X71597422Y-9847988D01*
X71546538Y-9804785D01*
X71517614Y-9744646D01*
X71511886Y-9697662D01*
X71516257Y-9655282D01*
X71532075Y-9620688D01*
X71563397Y-9589963D01*
X71614278Y-9559190D01*
X71688776Y-9524452D01*
X71693314Y-9522488D01*
X71760421Y-9491487D01*
X71801832Y-9466062D01*
X71819581Y-9443214D01*
X71815707Y-9419945D01*
X71792243Y-9393256D01*
X71785227Y-9387114D01*
X71738230Y-9363300D01*
X71689533Y-9364303D01*
X71647122Y-9387651D01*
X71618984Y-9430875D01*
X71616369Y-9439360D01*
X71590908Y-9480508D01*
X71558601Y-9500328D01*
X71511886Y-9519970D01*
X71511886Y-9469150D01*
X71526096Y-9395282D01*
X71568275Y-9327527D01*
X71590224Y-9304861D01*
X71640117Y-9275769D01*
X71703567Y-9262600D01*
X71769344Y-9266168D01*
G36*
X73509433Y-9273863D02*
G01*
X73511648Y-9312050D01*
X73513384Y-9370086D01*
X73514499Y-9443380D01*
X73514857Y-9520255D01*
X73514857Y-9780396D01*
X73468926Y-9826327D01*
X73437275Y-9854629D01*
X73409490Y-9866093D01*
X73371515Y-9865368D01*
X73356440Y-9863521D01*
X73309326Y-9858148D01*
X73270356Y-9855069D01*
X73260857Y-9854785D01*
X73228833Y-9856645D01*
X73183032Y-9861314D01*
X73165274Y-9863521D01*
X73121657Y-9866935D01*
X73092345Y-9859520D01*
X73063280Y-9836627D01*
X73052788Y-9826327D01*
X73006857Y-9780396D01*
X73006857Y-9293802D01*
X73043826Y-9276958D01*
X73075659Y-9264482D01*
X73094283Y-9260114D01*
X73099058Y-9273918D01*
X73103521Y-9312486D01*
X73107375Y-9371556D01*
X73110322Y-9446863D01*
X73111743Y-9510486D01*
X73115714Y-9760857D01*
X73150359Y-9765756D01*
X73181868Y-9762331D01*
X73197308Y-9751241D01*
X73201623Y-9730508D01*
X73205308Y-9686345D01*
X73208069Y-9624346D01*
X73209612Y-9550109D01*
X73209835Y-9511906D01*
X73210057Y-9291983D01*
X73255766Y-9276049D01*
X73288118Y-9265215D01*
X73305715Y-9260162D01*
X73306223Y-9260114D01*
X73307988Y-9273848D01*
X73309929Y-9311930D01*
X73311882Y-9369682D01*
X73313684Y-9442427D01*
X73314943Y-9510486D01*
X73318914Y-9760857D01*
X73406000Y-9760857D01*
X73409996Y-9532440D01*
X73413992Y-9304022D01*
X73456447Y-9282068D01*
X73487792Y-9266993D01*
X73506344Y-9260151D01*
X73506879Y-9260114D01*
X73509433Y-9273863D01*
G37*
X73509433Y-9273863D02*
X73511648Y-9312050D01*
X73513384Y-9370086D01*
X73514499Y-9443380D01*
X73514857Y-9520255D01*
X73514857Y-9780396D01*
X73468926Y-9826327D01*
X73437275Y-9854629D01*
X73409490Y-9866093D01*
X73371515Y-9865368D01*
X73356440Y-9863521D01*
X73309326Y-9858148D01*
X73270356Y-9855069D01*
X73260857Y-9854785D01*
X73228833Y-9856645D01*
X73183032Y-9861314D01*
X73165274Y-9863521D01*
X73121657Y-9866935D01*
X73092345Y-9859520D01*
X73063280Y-9836627D01*
X73052788Y-9826327D01*
X73006857Y-9780396D01*
X73006857Y-9293802D01*
X73043826Y-9276958D01*
X73075659Y-9264482D01*
X73094283Y-9260114D01*
X73099058Y-9273918D01*
X73103521Y-9312486D01*
X73107375Y-9371556D01*
X73110322Y-9446863D01*
X73111743Y-9510486D01*
X73115714Y-9760857D01*
X73150359Y-9765756D01*
X73181868Y-9762331D01*
X73197308Y-9751241D01*
X73201623Y-9730508D01*
X73205308Y-9686345D01*
X73208069Y-9624346D01*
X73209612Y-9550109D01*
X73209835Y-9511906D01*
X73210057Y-9291983D01*
X73255766Y-9276049D01*
X73288118Y-9265215D01*
X73305715Y-9260162D01*
X73306223Y-9260114D01*
X73307988Y-9273848D01*
X73309929Y-9311930D01*
X73311882Y-9369682D01*
X73313684Y-9442427D01*
X73314943Y-9510486D01*
X73318914Y-9760857D01*
X73406000Y-9760857D01*
X73409996Y-9532440D01*
X73413992Y-9304022D01*
X73456447Y-9282068D01*
X73487792Y-9266993D01*
X73506344Y-9260151D01*
X73506879Y-9260114D01*
X73509433Y-9273863D01*
G36*
X69023277Y-9465533D02*
G01*
X69026050Y-9418158D01*
X69029988Y-9384490D01*
X69035449Y-9360698D01*
X69042792Y-9342953D01*
X69052377Y-9327424D01*
X69056487Y-9321581D01*
X69111005Y-9266385D01*
X69179936Y-9235090D01*
X69259672Y-9226365D01*
X69329344Y-9235118D01*
X69384801Y-9262768D01*
X69433748Y-9313680D01*
X69447229Y-9332538D01*
X69461914Y-9357215D01*
X69471442Y-9384016D01*
X69476893Y-9419787D01*
X69479347Y-9471369D01*
X69479886Y-9539467D01*
X69477452Y-9632788D01*
X69468994Y-9702857D01*
X69452774Y-9755131D01*
X69427054Y-9795069D01*
X69390097Y-9828129D01*
X69387382Y-9830086D01*
X69350960Y-9850108D01*
X69307102Y-9860015D01*
X69251324Y-9862457D01*
X69160648Y-9862457D01*
X69160610Y-9950483D01*
X69159766Y-9999508D01*
X69154624Y-10028265D01*
X69141187Y-10045511D01*
X69115458Y-10060008D01*
X69109279Y-10062969D01*
X69080364Y-10076848D01*
X69057976Y-10085614D01*
X69041329Y-10086371D01*
X69029636Y-10076223D01*
X69022110Y-10052273D01*
X69017966Y-10011626D01*
X69016415Y-9951386D01*
X69016671Y-9868655D01*
X69017949Y-9760539D01*
X69018348Y-9728200D01*
X69019785Y-9616724D01*
X69021072Y-9543803D01*
X69160571Y-9543803D01*
X69161355Y-9605699D01*
X69164840Y-9646197D01*
X69172724Y-9672908D01*
X69186705Y-9693444D01*
X69196197Y-9703460D01*
X69235004Y-9732767D01*
X69269363Y-9735152D01*
X69304816Y-9710950D01*
X69305714Y-9710057D01*
X69320139Y-9691353D01*
X69328913Y-9665932D01*
X69333339Y-9626784D01*
X69334718Y-9566897D01*
X69334743Y-9553630D01*
X69331412Y-9471101D01*
X69320569Y-9413891D01*
X69300940Y-9378966D01*
X69271250Y-9363294D01*
X69254091Y-9361714D01*
X69213366Y-9369126D01*
X69185432Y-9393530D01*
X69168617Y-9438180D01*
X69161250Y-9506330D01*
X69160571Y-9543803D01*
X69021072Y-9543803D01*
X69021308Y-9530445D01*
X69023277Y-9465533D01*
G37*
X69023277Y-9465533D02*
X69026050Y-9418158D01*
X69029988Y-9384490D01*
X69035449Y-9360698D01*
X69042792Y-9342953D01*
X69052377Y-9327424D01*
X69056487Y-9321581D01*
X69111005Y-9266385D01*
X69179936Y-9235090D01*
X69259672Y-9226365D01*
X69329344Y-9235118D01*
X69384801Y-9262768D01*
X69433748Y-9313680D01*
X69447229Y-9332538D01*
X69461914Y-9357215D01*
X69471442Y-9384016D01*
X69476893Y-9419787D01*
X69479347Y-9471369D01*
X69479886Y-9539467D01*
X69477452Y-9632788D01*
X69468994Y-9702857D01*
X69452774Y-9755131D01*
X69427054Y-9795069D01*
X69390097Y-9828129D01*
X69387382Y-9830086D01*
X69350960Y-9850108D01*
X69307102Y-9860015D01*
X69251324Y-9862457D01*
X69160648Y-9862457D01*
X69160610Y-9950483D01*
X69159766Y-9999508D01*
X69154624Y-10028265D01*
X69141187Y-10045511D01*
X69115458Y-10060008D01*
X69109279Y-10062969D01*
X69080364Y-10076848D01*
X69057976Y-10085614D01*
X69041329Y-10086371D01*
X69029636Y-10076223D01*
X69022110Y-10052273D01*
X69017966Y-10011626D01*
X69016415Y-9951386D01*
X69016671Y-9868655D01*
X69017949Y-9760539D01*
X69018348Y-9728200D01*
X69019785Y-9616724D01*
X69021072Y-9543803D01*
X69160571Y-9543803D01*
X69161355Y-9605699D01*
X69164840Y-9646197D01*
X69172724Y-9672908D01*
X69186705Y-9693444D01*
X69196197Y-9703460D01*
X69235004Y-9732767D01*
X69269363Y-9735152D01*
X69304816Y-9710950D01*
X69305714Y-9710057D01*
X69320139Y-9691353D01*
X69328913Y-9665932D01*
X69333339Y-9626784D01*
X69334718Y-9566897D01*
X69334743Y-9553630D01*
X69331412Y-9471101D01*
X69320569Y-9413891D01*
X69300940Y-9378966D01*
X69271250Y-9363294D01*
X69254091Y-9361714D01*
X69213366Y-9369126D01*
X69185432Y-9393530D01*
X69168617Y-9438180D01*
X69161250Y-9506330D01*
X69160571Y-9543803D01*
X69021072Y-9543803D01*
X69021308Y-9530445D01*
X69023277Y-9465533D01*
G36*
X74597796Y-9410584D02*
G01*
X74611484Y-9361895D01*
X74633696Y-9326049D01*
X74666174Y-9297713D01*
X74680333Y-9288555D01*
X74744653Y-9264707D01*
X74815073Y-9263206D01*
X74883195Y-9282166D01*
X74940621Y-9319697D01*
X74968319Y-9353296D01*
X74990262Y-9414264D01*
X74992005Y-9462508D01*
X74988057Y-9527016D01*
X74839286Y-9592134D01*
X74766949Y-9625402D01*
X74719684Y-9652164D01*
X74695107Y-9675344D01*
X74690837Y-9697867D01*
X74704489Y-9722655D01*
X74719543Y-9739086D01*
X74763346Y-9765435D01*
X74810989Y-9767281D01*
X74854745Y-9746746D01*
X74886889Y-9705952D01*
X74892638Y-9691547D01*
X74920176Y-9646556D01*
X74951858Y-9627382D01*
X74995314Y-9610979D01*
X74995314Y-9673166D01*
X74991472Y-9715483D01*
X74976423Y-9751169D01*
X74944880Y-9792143D01*
X74940192Y-9797467D01*
X74905106Y-9833920D01*
X74874947Y-9853483D01*
X74837215Y-9862483D01*
X74805935Y-9865430D01*
X74749985Y-9866165D01*
X74710155Y-9856860D01*
X74685308Y-9843046D01*
X74646256Y-9812667D01*
X74619225Y-9779813D01*
X74602117Y-9738494D01*
X74592838Y-9682721D01*
X74589293Y-9606505D01*
X74589010Y-9567822D01*
X74589972Y-9521447D01*
X74677607Y-9521447D01*
X74678623Y-9546326D01*
X74681156Y-9550400D01*
X74697874Y-9544865D01*
X74733849Y-9530217D01*
X74781931Y-9509390D01*
X74791986Y-9504914D01*
X74852752Y-9474014D01*
X74886232Y-9446857D01*
X74893590Y-9421420D01*
X74875991Y-9395681D01*
X74861456Y-9384309D01*
X74809010Y-9361564D01*
X74759922Y-9365322D01*
X74718827Y-9393084D01*
X74690358Y-9442352D01*
X74681231Y-9481457D01*
X74677607Y-9521447D01*
X74589972Y-9521447D01*
X74590885Y-9477449D01*
X74597796Y-9410584D01*
G37*
X74597796Y-9410584D02*
X74611484Y-9361895D01*
X74633696Y-9326049D01*
X74666174Y-9297713D01*
X74680333Y-9288555D01*
X74744653Y-9264707D01*
X74815073Y-9263206D01*
X74883195Y-9282166D01*
X74940621Y-9319697D01*
X74968319Y-9353296D01*
X74990262Y-9414264D01*
X74992005Y-9462508D01*
X74988057Y-9527016D01*
X74839286Y-9592134D01*
X74766949Y-9625402D01*
X74719684Y-9652164D01*
X74695107Y-9675344D01*
X74690837Y-9697867D01*
X74704489Y-9722655D01*
X74719543Y-9739086D01*
X74763346Y-9765435D01*
X74810989Y-9767281D01*
X74854745Y-9746746D01*
X74886889Y-9705952D01*
X74892638Y-9691547D01*
X74920176Y-9646556D01*
X74951858Y-9627382D01*
X74995314Y-9610979D01*
X74995314Y-9673166D01*
X74991472Y-9715483D01*
X74976423Y-9751169D01*
X74944880Y-9792143D01*
X74940192Y-9797467D01*
X74905106Y-9833920D01*
X74874947Y-9853483D01*
X74837215Y-9862483D01*
X74805935Y-9865430D01*
X74749985Y-9866165D01*
X74710155Y-9856860D01*
X74685308Y-9843046D01*
X74646256Y-9812667D01*
X74619225Y-9779813D01*
X74602117Y-9738494D01*
X74592838Y-9682721D01*
X74589293Y-9606505D01*
X74589010Y-9567822D01*
X74589972Y-9521447D01*
X74677607Y-9521447D01*
X74678623Y-9546326D01*
X74681156Y-9550400D01*
X74697874Y-9544865D01*
X74733849Y-9530217D01*
X74781931Y-9509390D01*
X74791986Y-9504914D01*
X74852752Y-9474014D01*
X74886232Y-9446857D01*
X74893590Y-9421420D01*
X74875991Y-9395681D01*
X74861456Y-9384309D01*
X74809010Y-9361564D01*
X74759922Y-9365322D01*
X74718827Y-9393084D01*
X74690358Y-9442352D01*
X74681231Y-9481457D01*
X74677607Y-9521447D01*
X74589972Y-9521447D01*
X74590885Y-9477449D01*
X74597796Y-9410584D01*
G36*
X68466696Y-9423359D02*
G01*
X68471668Y-9387149D01*
X68480313Y-9360499D01*
X68493605Y-9336922D01*
X68496543Y-9332538D01*
X68545913Y-9273449D01*
X68599709Y-9239147D01*
X68665202Y-9225531D01*
X68687442Y-9224865D01*
X68770715Y-9237162D01*
X68838745Y-9272933D01*
X68888951Y-9330501D01*
X68906785Y-9367512D01*
X68920663Y-9423082D01*
X68927767Y-9493296D01*
X68928440Y-9569927D01*
X68923027Y-9644752D01*
X68911870Y-9709542D01*
X68895314Y-9756073D01*
X68890226Y-9764087D01*
X68829955Y-9823907D01*
X68758369Y-9859735D01*
X68680692Y-9870220D01*
X68602148Y-9854010D01*
X68580289Y-9844292D01*
X68537722Y-9814343D01*
X68500363Y-9774633D01*
X68496832Y-9769597D01*
X68482481Y-9745324D01*
X68472994Y-9719378D01*
X68467390Y-9685222D01*
X68464686Y-9636319D01*
X68463899Y-9566135D01*
X68463886Y-9550400D01*
X68463922Y-9545392D01*
X68609029Y-9545392D01*
X68609873Y-9611630D01*
X68613196Y-9655586D01*
X68620183Y-9683979D01*
X68632016Y-9703525D01*
X68638057Y-9710057D01*
X68672786Y-9734880D01*
X68706503Y-9733748D01*
X68740595Y-9712216D01*
X68760929Y-9689229D01*
X68772971Y-9655678D01*
X68779734Y-9602769D01*
X68780198Y-9596599D01*
X68781352Y-9500713D01*
X68769288Y-9429499D01*
X68744170Y-9383394D01*
X68706160Y-9362835D01*
X68692592Y-9361714D01*
X68656964Y-9367352D01*
X68632594Y-9386886D01*
X68617693Y-9424242D01*
X68610475Y-9483350D01*
X68609029Y-9545392D01*
X68463922Y-9545392D01*
X68464426Y-9475613D01*
X68466696Y-9423359D01*
G37*
X68466696Y-9423359D02*
X68471668Y-9387149D01*
X68480313Y-9360499D01*
X68493605Y-9336922D01*
X68496543Y-9332538D01*
X68545913Y-9273449D01*
X68599709Y-9239147D01*
X68665202Y-9225531D01*
X68687442Y-9224865D01*
X68770715Y-9237162D01*
X68838745Y-9272933D01*
X68888951Y-9330501D01*
X68906785Y-9367512D01*
X68920663Y-9423082D01*
X68927767Y-9493296D01*
X68928440Y-9569927D01*
X68923027Y-9644752D01*
X68911870Y-9709542D01*
X68895314Y-9756073D01*
X68890226Y-9764087D01*
X68829955Y-9823907D01*
X68758369Y-9859735D01*
X68680692Y-9870220D01*
X68602148Y-9854010D01*
X68580289Y-9844292D01*
X68537722Y-9814343D01*
X68500363Y-9774633D01*
X68496832Y-9769597D01*
X68482481Y-9745324D01*
X68472994Y-9719378D01*
X68467390Y-9685222D01*
X68464686Y-9636319D01*
X68463899Y-9566135D01*
X68463886Y-9550400D01*
X68463922Y-9545392D01*
X68609029Y-9545392D01*
X68609873Y-9611630D01*
X68613196Y-9655586D01*
X68620183Y-9683979D01*
X68632016Y-9703525D01*
X68638057Y-9710057D01*
X68672786Y-9734880D01*
X68706503Y-9733748D01*
X68740595Y-9712216D01*
X68760929Y-9689229D01*
X68772971Y-9655678D01*
X68779734Y-9602769D01*
X68780198Y-9596599D01*
X68781352Y-9500713D01*
X68769288Y-9429499D01*
X68744170Y-9383394D01*
X68706160Y-9362835D01*
X68692592Y-9361714D01*
X68656964Y-9367352D01*
X68632594Y-9386886D01*
X68617693Y-9424242D01*
X68610475Y-9483350D01*
X68609029Y-9545392D01*
X68463922Y-9545392D01*
X68464426Y-9475613D01*
X68466696Y-9423359D01*
G36*
X72514326Y-9405286D02*
G01*
X72536735Y-9353800D01*
X72571724Y-9313643D01*
X72598975Y-9293061D01*
X72648507Y-9270825D01*
X72705916Y-9260504D01*
X72759282Y-9263267D01*
X72789143Y-9274412D01*
X72800861Y-9277583D01*
X72808637Y-9265757D01*
X72814065Y-9234066D01*
X72818171Y-9185793D01*
X72822667Y-9132029D01*
X72828913Y-9099682D01*
X72840276Y-9081185D01*
X72860128Y-9068970D01*
X72872600Y-9063562D01*
X72919771Y-9043801D01*
X72919717Y-9380558D01*
X72919533Y-9489037D01*
X72918819Y-9572487D01*
X72917275Y-9634904D01*
X72914601Y-9680285D01*
X72910494Y-9712629D01*
X72904655Y-9735933D01*
X72896782Y-9754195D01*
X72890821Y-9764618D01*
X72841455Y-9821145D01*
X72778864Y-9856577D01*
X72709613Y-9869290D01*
X72640268Y-9857663D01*
X72598975Y-9836768D01*
X72555625Y-9800622D01*
X72526081Y-9756476D01*
X72508255Y-9698662D01*
X72500063Y-9621513D01*
X72498902Y-9564914D01*
X72499058Y-9560847D01*
X72600457Y-9560847D01*
X72601076Y-9625750D01*
X72603914Y-9668714D01*
X72610440Y-9696822D01*
X72622123Y-9717153D01*
X72636083Y-9732488D01*
X72682965Y-9762090D01*
X72733301Y-9764619D01*
X72780876Y-9739905D01*
X72784579Y-9736556D01*
X72800383Y-9719135D01*
X72810293Y-9698409D01*
X72815658Y-9667562D01*
X72817828Y-9619777D01*
X72818171Y-9566948D01*
X72817427Y-9500581D01*
X72814348Y-9456306D01*
X72807661Y-9427209D01*
X72796096Y-9406373D01*
X72786613Y-9395307D01*
X72742560Y-9367398D01*
X72691824Y-9364043D01*
X72643396Y-9385359D01*
X72634050Y-9393273D01*
X72618140Y-9410847D01*
X72608210Y-9431787D01*
X72602878Y-9462982D01*
X72600763Y-9511322D01*
X72600457Y-9560847D01*
X72499058Y-9560847D01*
X72502410Y-9473768D01*
X72514326Y-9405286D01*
G37*
X72514326Y-9405286D02*
X72536735Y-9353800D01*
X72571724Y-9313643D01*
X72598975Y-9293061D01*
X72648507Y-9270825D01*
X72705916Y-9260504D01*
X72759282Y-9263267D01*
X72789143Y-9274412D01*
X72800861Y-9277583D01*
X72808637Y-9265757D01*
X72814065Y-9234066D01*
X72818171Y-9185793D01*
X72822667Y-9132029D01*
X72828913Y-9099682D01*
X72840276Y-9081185D01*
X72860128Y-9068970D01*
X72872600Y-9063562D01*
X72919771Y-9043801D01*
X72919717Y-9380558D01*
X72919533Y-9489037D01*
X72918819Y-9572487D01*
X72917275Y-9634904D01*
X72914601Y-9680285D01*
X72910494Y-9712629D01*
X72904655Y-9735933D01*
X72896782Y-9754195D01*
X72890821Y-9764618D01*
X72841455Y-9821145D01*
X72778864Y-9856577D01*
X72709613Y-9869290D01*
X72640268Y-9857663D01*
X72598975Y-9836768D01*
X72555625Y-9800622D01*
X72526081Y-9756476D01*
X72508255Y-9698662D01*
X72500063Y-9621513D01*
X72498902Y-9564914D01*
X72499058Y-9560847D01*
X72600457Y-9560847D01*
X72601076Y-9625750D01*
X72603914Y-9668714D01*
X72610440Y-9696822D01*
X72622123Y-9717153D01*
X72636083Y-9732488D01*
X72682965Y-9762090D01*
X72733301Y-9764619D01*
X72780876Y-9739905D01*
X72784579Y-9736556D01*
X72800383Y-9719135D01*
X72810293Y-9698409D01*
X72815658Y-9667562D01*
X72817828Y-9619777D01*
X72818171Y-9566948D01*
X72817427Y-9500581D01*
X72814348Y-9456306D01*
X72807661Y-9427209D01*
X72796096Y-9406373D01*
X72786613Y-9395307D01*
X72742560Y-9367398D01*
X72691824Y-9364043D01*
X72643396Y-9385359D01*
X72634050Y-9393273D01*
X72618140Y-9410847D01*
X72608210Y-9431787D01*
X72602878Y-9462982D01*
X72600763Y-9511322D01*
X72600457Y-9560847D01*
X72499058Y-9560847D01*
X72502410Y-9473768D01*
X72514326Y-9405286D01*
G36*
X69601150Y-9351412D02*
G01*
X69635056Y-9302502D01*
X69696253Y-9253078D01*
X69763663Y-9228559D01*
X69832480Y-9226997D01*
X69897903Y-9246439D01*
X69955127Y-9284935D01*
X69999349Y-9340535D01*
X70025767Y-9411286D01*
X70031110Y-9463362D01*
X70030503Y-9485093D01*
X70025422Y-9501731D01*
X70011455Y-9516637D01*
X69984189Y-9533173D01*
X69939212Y-9554698D01*
X69872111Y-9584574D01*
X69871771Y-9584724D01*
X69810007Y-9613013D01*
X69759359Y-9638133D01*
X69725004Y-9657379D01*
X69712118Y-9668048D01*
X69712114Y-9668134D01*
X69723472Y-9691366D01*
X69750031Y-9716974D01*
X69780523Y-9735421D01*
X69795970Y-9739086D01*
X69838115Y-9726412D01*
X69874408Y-9694671D01*
X69892117Y-9659772D01*
X69909152Y-9634045D01*
X69942522Y-9604746D01*
X69981749Y-9579435D01*
X70016356Y-9565671D01*
X70023593Y-9564914D01*
X70031739Y-9577360D01*
X70032230Y-9609172D01*
X70026243Y-9652066D01*
X70014957Y-9697758D01*
X69999550Y-9737961D01*
X69998771Y-9739522D01*
X69952404Y-9804262D01*
X69892311Y-9848297D01*
X69824065Y-9869911D01*
X69753238Y-9867385D01*
X69685404Y-9839004D01*
X69682388Y-9837008D01*
X69629027Y-9788648D01*
X69593940Y-9725552D01*
X69574522Y-9642587D01*
X69571916Y-9619278D01*
X69567301Y-9509255D01*
X69572833Y-9457948D01*
X69712114Y-9457948D01*
X69713924Y-9489953D01*
X69723822Y-9499293D01*
X69748498Y-9492305D01*
X69787395Y-9475787D01*
X69830875Y-9455081D01*
X69831956Y-9454533D01*
X69868809Y-9435149D01*
X69883600Y-9422213D01*
X69879953Y-9408651D01*
X69864595Y-9390832D01*
X69825523Y-9365045D01*
X69783446Y-9363150D01*
X69745703Y-9381917D01*
X69719634Y-9418115D01*
X69712114Y-9457948D01*
X69572833Y-9457948D01*
X69576794Y-9421227D01*
X69601150Y-9351412D01*
G37*
X69601150Y-9351412D02*
X69635056Y-9302502D01*
X69696253Y-9253078D01*
X69763663Y-9228559D01*
X69832480Y-9226997D01*
X69897903Y-9246439D01*
X69955127Y-9284935D01*
X69999349Y-9340535D01*
X70025767Y-9411286D01*
X70031110Y-9463362D01*
X70030503Y-9485093D01*
X70025422Y-9501731D01*
X70011455Y-9516637D01*
X69984189Y-9533173D01*
X69939212Y-9554698D01*
X69872111Y-9584574D01*
X69871771Y-9584724D01*
X69810007Y-9613013D01*
X69759359Y-9638133D01*
X69725004Y-9657379D01*
X69712118Y-9668048D01*
X69712114Y-9668134D01*
X69723472Y-9691366D01*
X69750031Y-9716974D01*
X69780523Y-9735421D01*
X69795970Y-9739086D01*
X69838115Y-9726412D01*
X69874408Y-9694671D01*
X69892117Y-9659772D01*
X69909152Y-9634045D01*
X69942522Y-9604746D01*
X69981749Y-9579435D01*
X70016356Y-9565671D01*
X70023593Y-9564914D01*
X70031739Y-9577360D01*
X70032230Y-9609172D01*
X70026243Y-9652066D01*
X70014957Y-9697758D01*
X69999550Y-9737961D01*
X69998771Y-9739522D01*
X69952404Y-9804262D01*
X69892311Y-9848297D01*
X69824065Y-9869911D01*
X69753238Y-9867385D01*
X69685404Y-9839004D01*
X69682388Y-9837008D01*
X69629027Y-9788648D01*
X69593940Y-9725552D01*
X69574522Y-9642587D01*
X69571916Y-9619278D01*
X69567301Y-9509255D01*
X69572833Y-9457948D01*
X69712114Y-9457948D01*
X69713924Y-9489953D01*
X69723822Y-9499293D01*
X69748498Y-9492305D01*
X69787395Y-9475787D01*
X69830875Y-9455081D01*
X69831956Y-9454533D01*
X69868809Y-9435149D01*
X69883600Y-9422213D01*
X69879953Y-9408651D01*
X69864595Y-9390832D01*
X69825523Y-9365045D01*
X69783446Y-9363150D01*
X69745703Y-9381917D01*
X69719634Y-9418115D01*
X69712114Y-9457948D01*
X69572833Y-9457948D01*
X69576794Y-9421227D01*
X69601150Y-9351412D01*
G36*
X71105486Y-9166489D02*
G01*
X71109739Y-9225813D01*
X71114625Y-9260772D01*
X71121395Y-9276020D01*
X71131302Y-9276215D01*
X71134514Y-9274395D01*
X71177244Y-9261215D01*
X71232827Y-9261985D01*
X71289337Y-9275533D01*
X71324682Y-9293061D01*
X71360921Y-9321061D01*
X71387413Y-9352749D01*
X71405599Y-9393013D01*
X71416922Y-9446743D01*
X71422822Y-9518826D01*
X71424743Y-9614151D01*
X71424777Y-9632437D01*
X71424800Y-9837846D01*
X71379091Y-9853780D01*
X71346627Y-9864620D01*
X71328815Y-9869668D01*
X71328291Y-9869714D01*
X71326537Y-9856028D01*
X71325044Y-9818276D01*
X71323926Y-9761424D01*
X71323297Y-9690434D01*
X71323200Y-9647273D01*
X71322998Y-9562173D01*
X71321958Y-9501181D01*
X71319431Y-9459377D01*
X71314764Y-9431842D01*
X71307307Y-9413656D01*
X71296411Y-9399898D01*
X71289607Y-9393273D01*
X71242872Y-9366575D01*
X71191872Y-9364575D01*
X71145601Y-9387155D01*
X71137044Y-9395307D01*
X71124493Y-9410636D01*
X71115788Y-9428818D01*
X71110231Y-9455109D01*
X71107126Y-9494762D01*
X71105776Y-9553032D01*
X71105486Y-9633373D01*
X71105486Y-9837846D01*
X71059777Y-9853780D01*
X71027313Y-9864620D01*
X71009501Y-9869668D01*
X71008977Y-9869714D01*
X71007637Y-9855823D01*
X71006428Y-9816639D01*
X71005401Y-9755900D01*
X71004602Y-9677341D01*
X71004081Y-9584698D01*
X71003886Y-9481709D01*
X71003886Y-9084542D01*
X71051057Y-9064644D01*
X71098229Y-9044747D01*
X71105486Y-9166489D01*
G37*
X71105486Y-9166489D02*
X71109739Y-9225813D01*
X71114625Y-9260772D01*
X71121395Y-9276020D01*
X71131302Y-9276215D01*
X71134514Y-9274395D01*
X71177244Y-9261215D01*
X71232827Y-9261985D01*
X71289337Y-9275533D01*
X71324682Y-9293061D01*
X71360921Y-9321061D01*
X71387413Y-9352749D01*
X71405599Y-9393013D01*
X71416922Y-9446743D01*
X71422822Y-9518826D01*
X71424743Y-9614151D01*
X71424777Y-9632437D01*
X71424800Y-9837846D01*
X71379091Y-9853780D01*
X71346627Y-9864620D01*
X71328815Y-9869668D01*
X71328291Y-9869714D01*
X71326537Y-9856028D01*
X71325044Y-9818276D01*
X71323926Y-9761424D01*
X71323297Y-9690434D01*
X71323200Y-9647273D01*
X71322998Y-9562173D01*
X71321958Y-9501181D01*
X71319431Y-9459377D01*
X71314764Y-9431842D01*
X71307307Y-9413656D01*
X71296411Y-9399898D01*
X71289607Y-9393273D01*
X71242872Y-9366575D01*
X71191872Y-9364575D01*
X71145601Y-9387155D01*
X71137044Y-9395307D01*
X71124493Y-9410636D01*
X71115788Y-9428818D01*
X71110231Y-9455109D01*
X71107126Y-9494762D01*
X71105776Y-9553032D01*
X71105486Y-9633373D01*
X71105486Y-9837846D01*
X71059777Y-9853780D01*
X71027313Y-9864620D01*
X71009501Y-9869668D01*
X71008977Y-9869714D01*
X71007637Y-9855823D01*
X71006428Y-9816639D01*
X71005401Y-9755900D01*
X71004602Y-9677341D01*
X71004081Y-9584698D01*
X71003886Y-9481709D01*
X71003886Y-9084542D01*
X71051057Y-9064644D01*
X71098229Y-9044747D01*
X71105486Y-9166489D01*
G36*
X73874476Y-9271535D02*
G01*
X73916267Y-9290544D01*
X73949069Y-9313578D01*
X73973103Y-9339333D01*
X73989697Y-9372558D01*
X74000177Y-9418000D01*
X74005871Y-9480407D01*
X74008107Y-9564527D01*
X74008343Y-9619921D01*
X74008343Y-9836026D01*
X73971374Y-9852870D01*
X73942256Y-9865181D01*
X73927831Y-9869714D01*
X73925072Y-9856225D01*
X73922882Y-9819853D01*
X73921542Y-9766742D01*
X73921257Y-9724572D01*
X73920034Y-9663647D01*
X73916736Y-9615315D01*
X73911921Y-9585718D01*
X73908096Y-9579429D01*
X73882383Y-9585852D01*
X73842018Y-9602325D01*
X73795279Y-9624658D01*
X73750445Y-9648657D01*
X73715793Y-9670130D01*
X73699602Y-9684885D01*
X73699538Y-9685045D01*
X73700930Y-9712352D01*
X73713418Y-9738419D01*
X73735343Y-9759592D01*
X73767343Y-9766674D01*
X73794692Y-9765849D01*
X73833426Y-9765242D01*
X73853758Y-9774316D01*
X73865969Y-9798292D01*
X73867509Y-9802813D01*
X73872803Y-9837006D01*
X73858647Y-9857768D01*
X73821748Y-9867662D01*
X73781889Y-9869492D01*
X73710162Y-9855927D01*
X73673032Y-9836555D01*
X73627176Y-9791045D01*
X73602856Y-9735183D01*
X73600673Y-9676157D01*
X73621229Y-9621153D01*
X73652149Y-9586686D01*
X73683020Y-9567389D01*
X73731542Y-9542959D01*
X73788085Y-9518185D01*
X73797510Y-9514399D01*
X73859619Y-9486991D01*
X73895422Y-9462834D01*
X73906937Y-9438819D01*
X73896180Y-9411835D01*
X73877714Y-9390743D01*
X73834069Y-9364772D01*
X73786046Y-9362824D01*
X73742006Y-9382837D01*
X73710309Y-9422751D01*
X73706149Y-9433048D01*
X73681927Y-9470924D01*
X73646565Y-9499042D01*
X73601943Y-9522117D01*
X73601943Y-9456685D01*
X73604569Y-9416706D01*
X73615830Y-9385197D01*
X73640799Y-9351578D01*
X73664769Y-9325684D01*
X73702041Y-9289017D01*
X73731001Y-9269321D01*
X73762105Y-9261420D01*
X73797313Y-9260114D01*
X73874476Y-9271535D01*
G37*
X73874476Y-9271535D02*
X73916267Y-9290544D01*
X73949069Y-9313578D01*
X73973103Y-9339333D01*
X73989697Y-9372558D01*
X74000177Y-9418000D01*
X74005871Y-9480407D01*
X74008107Y-9564527D01*
X74008343Y-9619921D01*
X74008343Y-9836026D01*
X73971374Y-9852870D01*
X73942256Y-9865181D01*
X73927831Y-9869714D01*
X73925072Y-9856225D01*
X73922882Y-9819853D01*
X73921542Y-9766742D01*
X73921257Y-9724572D01*
X73920034Y-9663647D01*
X73916736Y-9615315D01*
X73911921Y-9585718D01*
X73908096Y-9579429D01*
X73882383Y-9585852D01*
X73842018Y-9602325D01*
X73795279Y-9624658D01*
X73750445Y-9648657D01*
X73715793Y-9670130D01*
X73699602Y-9684885D01*
X73699538Y-9685045D01*
X73700930Y-9712352D01*
X73713418Y-9738419D01*
X73735343Y-9759592D01*
X73767343Y-9766674D01*
X73794692Y-9765849D01*
X73833426Y-9765242D01*
X73853758Y-9774316D01*
X73865969Y-9798292D01*
X73867509Y-9802813D01*
X73872803Y-9837006D01*
X73858647Y-9857768D01*
X73821748Y-9867662D01*
X73781889Y-9869492D01*
X73710162Y-9855927D01*
X73673032Y-9836555D01*
X73627176Y-9791045D01*
X73602856Y-9735183D01*
X73600673Y-9676157D01*
X73621229Y-9621153D01*
X73652149Y-9586686D01*
X73683020Y-9567389D01*
X73731542Y-9542959D01*
X73788085Y-9518185D01*
X73797510Y-9514399D01*
X73859619Y-9486991D01*
X73895422Y-9462834D01*
X73906937Y-9438819D01*
X73896180Y-9411835D01*
X73877714Y-9390743D01*
X73834069Y-9364772D01*
X73786046Y-9362824D01*
X73742006Y-9382837D01*
X73710309Y-9422751D01*
X73706149Y-9433048D01*
X73681927Y-9470924D01*
X73646565Y-9499042D01*
X73601943Y-9522117D01*
X73601943Y-9456685D01*
X73604569Y-9416706D01*
X73615830Y-9385197D01*
X73640799Y-9351578D01*
X73664769Y-9325684D01*
X73702041Y-9289017D01*
X73731001Y-9269321D01*
X73762105Y-9261420D01*
X73797313Y-9260114D01*
X73874476Y-9271535D01*
G36*
X72259526Y-9264955D02*
G01*
X72325458Y-9289284D01*
X72378873Y-9332317D01*
X72399764Y-9362609D01*
X72422539Y-9418194D01*
X72422066Y-9458386D01*
X72398162Y-9485417D01*
X72389317Y-9490013D01*
X72351130Y-9504344D01*
X72331628Y-9500672D01*
X72325022Y-9476607D01*
X72324686Y-9463314D01*
X72312592Y-9414410D01*
X72281071Y-9380199D01*
X72237259Y-9363676D01*
X72188295Y-9367834D01*
X72148494Y-9389427D01*
X72135050Y-9401744D01*
X72125521Y-9416687D01*
X72119085Y-9439275D01*
X72114917Y-9474528D01*
X72112197Y-9527466D01*
X72110102Y-9603107D01*
X72109560Y-9627057D01*
X72107581Y-9708990D01*
X72105331Y-9766655D01*
X72101957Y-9804808D01*
X72096606Y-9828204D01*
X72088424Y-9841598D01*
X72076559Y-9849745D01*
X72068962Y-9853344D01*
X72036702Y-9865652D01*
X72017711Y-9869714D01*
X72011436Y-9856148D01*
X72007606Y-9815134D01*
X72006200Y-9746199D01*
X72007198Y-9648869D01*
X72007508Y-9633857D01*
X72009701Y-9545059D01*
X72012293Y-9480219D01*
X72015982Y-9434267D01*
X72021464Y-9402135D01*
X72029435Y-9378753D01*
X72040593Y-9359052D01*
X72046430Y-9350610D01*
X72079896Y-9313257D01*
X72117327Y-9284203D01*
X72121909Y-9281667D01*
X72189026Y-9261643D01*
X72259526Y-9264955D01*
G37*
X72259526Y-9264955D02*
X72325458Y-9289284D01*
X72378873Y-9332317D01*
X72399764Y-9362609D01*
X72422539Y-9418194D01*
X72422066Y-9458386D01*
X72398162Y-9485417D01*
X72389317Y-9490013D01*
X72351130Y-9504344D01*
X72331628Y-9500672D01*
X72325022Y-9476607D01*
X72324686Y-9463314D01*
X72312592Y-9414410D01*
X72281071Y-9380199D01*
X72237259Y-9363676D01*
X72188295Y-9367834D01*
X72148494Y-9389427D01*
X72135050Y-9401744D01*
X72125521Y-9416687D01*
X72119085Y-9439275D01*
X72114917Y-9474528D01*
X72112197Y-9527466D01*
X72110102Y-9603107D01*
X72109560Y-9627057D01*
X72107581Y-9708990D01*
X72105331Y-9766655D01*
X72101957Y-9804808D01*
X72096606Y-9828204D01*
X72088424Y-9841598D01*
X72076559Y-9849745D01*
X72068962Y-9853344D01*
X72036702Y-9865652D01*
X72017711Y-9869714D01*
X72011436Y-9856148D01*
X72007606Y-9815134D01*
X72006200Y-9746199D01*
X72007198Y-9648869D01*
X72007508Y-9633857D01*
X72009701Y-9545059D01*
X72012293Y-9480219D01*
X72015982Y-9434267D01*
X72021464Y-9402135D01*
X72029435Y-9378753D01*
X72040593Y-9359052D01*
X72046430Y-9350610D01*
X72079896Y-9313257D01*
X72117327Y-9284203D01*
X72121909Y-9281667D01*
X72189026Y-9261643D01*
X72259526Y-9264955D01*
G36*
X70445693Y-9242980D02*
G01*
X70492272Y-9269923D01*
X70524657Y-9296666D01*
X70548342Y-9324684D01*
X70564659Y-9358948D01*
X70574939Y-9404427D01*
X70580514Y-9466092D01*
X70582716Y-9548911D01*
X70582971Y-9608446D01*
X70582971Y-9827591D01*
X70521286Y-9855244D01*
X70459600Y-9882897D01*
X70452343Y-9642870D01*
X70449344Y-9553228D01*
X70446198Y-9488162D01*
X70442301Y-9443226D01*
X70437047Y-9413970D01*
X70429831Y-9395948D01*
X70420050Y-9384711D01*
X70416912Y-9382279D01*
X70369361Y-9363283D01*
X70321297Y-9370800D01*
X70292686Y-9390743D01*
X70281047Y-9404875D01*
X70272991Y-9423420D01*
X70267871Y-9451534D01*
X70265041Y-9494373D01*
X70263856Y-9557095D01*
X70263657Y-9622461D01*
X70263618Y-9704468D01*
X70262214Y-9762516D01*
X70257514Y-9801665D01*
X70247587Y-9826980D01*
X70230503Y-9843523D01*
X70204332Y-9856356D01*
X70169375Y-9869691D01*
X70131196Y-9884207D01*
X70135741Y-9626589D01*
X70137571Y-9533719D01*
X70139712Y-9465089D01*
X70142781Y-9415911D01*
X70147394Y-9381398D01*
X70154168Y-9356762D01*
X70163719Y-9337216D01*
X70175234Y-9319970D01*
X70230790Y-9264880D01*
X70298580Y-9233022D01*
X70372313Y-9225391D01*
X70445693Y-9242980D01*
G37*
X70445693Y-9242980D02*
X70492272Y-9269923D01*
X70524657Y-9296666D01*
X70548342Y-9324684D01*
X70564659Y-9358948D01*
X70574939Y-9404427D01*
X70580514Y-9466092D01*
X70582716Y-9548911D01*
X70582971Y-9608446D01*
X70582971Y-9827591D01*
X70521286Y-9855244D01*
X70459600Y-9882897D01*
X70452343Y-9642870D01*
X70449344Y-9553228D01*
X70446198Y-9488162D01*
X70442301Y-9443226D01*
X70437047Y-9413970D01*
X70429831Y-9395948D01*
X70420050Y-9384711D01*
X70416912Y-9382279D01*
X70369361Y-9363283D01*
X70321297Y-9370800D01*
X70292686Y-9390743D01*
X70281047Y-9404875D01*
X70272991Y-9423420D01*
X70267871Y-9451534D01*
X70265041Y-9494373D01*
X70263856Y-9557095D01*
X70263657Y-9622461D01*
X70263618Y-9704468D01*
X70262214Y-9762516D01*
X70257514Y-9801665D01*
X70247587Y-9826980D01*
X70230503Y-9843523D01*
X70204332Y-9856356D01*
X70169375Y-9869691D01*
X70131196Y-9884207D01*
X70135741Y-9626589D01*
X70137571Y-9533719D01*
X70139712Y-9465089D01*
X70142781Y-9415911D01*
X70147394Y-9381398D01*
X70154168Y-9356762D01*
X70163719Y-9337216D01*
X70175234Y-9319970D01*
X70230790Y-9264880D01*
X70298580Y-9233022D01*
X70372313Y-9225391D01*
X70445693Y-9242980D01*
G36*
X74382200Y-9273952D02*
G01*
X74399548Y-9281534D01*
X74440956Y-9314328D01*
X74476365Y-9361747D01*
X74498264Y-9412351D01*
X74501829Y-9437298D01*
X74489879Y-9472127D01*
X74463667Y-9490557D01*
X74435564Y-9501716D01*
X74422695Y-9503772D01*
X74416429Y-9488849D01*
X74404056Y-9456375D01*
X74398628Y-9441702D01*
X74368190Y-9390944D01*
X74324120Y-9365627D01*
X74267610Y-9366406D01*
X74263425Y-9367403D01*
X74233255Y-9381707D01*
X74211076Y-9409593D01*
X74195927Y-9454487D01*
X74186850Y-9519815D01*
X74182886Y-9609004D01*
X74182514Y-9656461D01*
X74182330Y-9731271D01*
X74181122Y-9782269D01*
X74177909Y-9814671D01*
X74171709Y-9833695D01*
X74161540Y-9844556D01*
X74146419Y-9852472D01*
X74145546Y-9852870D01*
X74116428Y-9865181D01*
X74102003Y-9869714D01*
X74099786Y-9856009D01*
X74097889Y-9818125D01*
X74096447Y-9760915D01*
X74095598Y-9689227D01*
X74095429Y-9636765D01*
X74096292Y-9535247D01*
X74099670Y-9458232D01*
X74106742Y-9401223D01*
X74118688Y-9359726D01*
X74136690Y-9329243D01*
X74161927Y-9305280D01*
X74186847Y-9288555D01*
X74246771Y-9266297D01*
X74316511Y-9261276D01*
X74382200Y-9273952D01*
G37*
X74382200Y-9273952D02*
X74399548Y-9281534D01*
X74440956Y-9314328D01*
X74476365Y-9361747D01*
X74498264Y-9412351D01*
X74501829Y-9437298D01*
X74489879Y-9472127D01*
X74463667Y-9490557D01*
X74435564Y-9501716D01*
X74422695Y-9503772D01*
X74416429Y-9488849D01*
X74404056Y-9456375D01*
X74398628Y-9441702D01*
X74368190Y-9390944D01*
X74324120Y-9365627D01*
X74267610Y-9366406D01*
X74263425Y-9367403D01*
X74233255Y-9381707D01*
X74211076Y-9409593D01*
X74195927Y-9454487D01*
X74186850Y-9519815D01*
X74182886Y-9609004D01*
X74182514Y-9656461D01*
X74182330Y-9731271D01*
X74181122Y-9782269D01*
X74177909Y-9814671D01*
X74171709Y-9833695D01*
X74161540Y-9844556D01*
X74146419Y-9852472D01*
X74145546Y-9852870D01*
X74116428Y-9865181D01*
X74102003Y-9869714D01*
X74099786Y-9856009D01*
X74097889Y-9818125D01*
X74096447Y-9760915D01*
X74095598Y-9689227D01*
X74095429Y-9636765D01*
X74096292Y-9535247D01*
X74099670Y-9458232D01*
X74106742Y-9401223D01*
X74118688Y-9359726D01*
X74136690Y-9329243D01*
X74161927Y-9305280D01*
X74186847Y-9288555D01*
X74246771Y-9266297D01*
X74316511Y-9261276D01*
X74382200Y-9273952D01*
D15*
X21029850Y-12663600D02*
X22350850Y-12663600D01*
X21029850Y-423600D02*
X31070850Y-423600D01*
X31070850Y-12663600D02*
X31070850Y-8726600D01*
X26921850Y-12663600D02*
X27680850Y-12663600D01*
X21029850Y-12663600D02*
X21029850Y-8726600D01*
X31070850Y-4359600D02*
X31070850Y-423600D01*
X24800850Y-12663600D02*
X25180850Y-12663600D01*
X29420850Y-12663600D02*
X31070850Y-12663600D01*
X21029850Y-4359600D02*
X21029850Y-423600D01*
M02*
