%TF.GenerationSoftware,KiCad,Pcbnew,6.0.9-8da3e8f707~118~ubuntu22.10.1*%
%TF.CreationDate,2022-11-30T23:30:03+01:00*%
%TF.ProjectId,ilse,696c7365-2e6b-4696-9361-645f70636258,2*%
%TF.SameCoordinates,PX5702e0cPY22a4fe8*%
%TF.FileFunction,Drillmap*%
%TF.FilePolarity,Positive*%
%FSLAX45Y45*%
G04 Gerber Fmt 4.5, Leading zero omitted, Abs format (unit mm)*
G04 Created by KiCad (PCBNEW 6.0.9-8da3e8f707~118~ubuntu22.10.1) date 2022-11-30 23:30:03*
%MOMM*%
%LPD*%
G01*
G04 APERTURE LIST*
%ADD10C,0.050000*%
%ADD11C,0.200000*%
%ADD12C,0.040000*%
%ADD13C,0.071000*%
%ADD14C,0.080000*%
%ADD15C,0.090000*%
%ADD16C,0.095000*%
%ADD17C,0.100000*%
%ADD18C,0.122000*%
%ADD19C,0.142000*%
%ADD20C,0.143000*%
%ADD21C,0.180000*%
G04 APERTURE END LIST*
D10*
X7975600Y-10896600D02*
X7975600Y-50800D01*
X177800Y-10947400D02*
X7924800Y-10947400D01*
X127000Y-10896600D02*
X127000Y-50800D01*
X7924800Y0D02*
X177800Y0D01*
X7924800Y-10947400D02*
G75*
G03*
X7975600Y-10896600I0J50800D01*
G01*
X177800Y0D02*
G75*
G03*
X127000Y-50800I0J-50800D01*
G01*
X7975600Y-50800D02*
G75*
G03*
X7924800Y0I-50800J0D01*
G01*
X127000Y-10896600D02*
G75*
G03*
X177800Y-10947400I50800J0D01*
G01*
D11*
D12*
X208600Y-9352600D02*
X248600Y-9392600D01*
X248600Y-9352600D02*
X208600Y-9392600D01*
X234000Y-6380800D02*
X274000Y-6420800D01*
X274000Y-6380800D02*
X234000Y-6420800D01*
X280000Y-10830000D02*
X320000Y-10870000D01*
X320000Y-10830000D02*
X280000Y-10870000D01*
X361000Y-6558600D02*
X401000Y-6598600D01*
X401000Y-6558600D02*
X361000Y-6598600D01*
X411800Y-3078800D02*
X451800Y-3118800D01*
X451800Y-3078800D02*
X411800Y-3118800D01*
X437200Y-7828600D02*
X477200Y-7868600D01*
X477200Y-7828600D02*
X437200Y-7868600D01*
X615000Y-9835200D02*
X655000Y-9875200D01*
X655000Y-9835200D02*
X615000Y-9875200D01*
X640400Y-157800D02*
X680400Y-197800D01*
X680400Y-157800D02*
X640400Y-197800D01*
X894400Y-6609400D02*
X934400Y-6649400D01*
X934400Y-6609400D02*
X894400Y-6649400D01*
X970600Y-9809800D02*
X1010600Y-9849800D01*
X1010600Y-9809800D02*
X970600Y-9849800D01*
X1280000Y-6580000D02*
X1320000Y-6620000D01*
X1320000Y-6580000D02*
X1280000Y-6620000D01*
X1280000Y-8280000D02*
X1320000Y-8320000D01*
X1320000Y-8280000D02*
X1280000Y-8320000D01*
X1326200Y-9505000D02*
X1366200Y-9545000D01*
X1366200Y-9505000D02*
X1326200Y-9545000D01*
X1427800Y-10648000D02*
X1467800Y-10688000D01*
X1467800Y-10648000D02*
X1427800Y-10688000D01*
X1529400Y-9225600D02*
X1569400Y-9265600D01*
X1569400Y-9225600D02*
X1529400Y-9265600D01*
X1529400Y-10317800D02*
X1569400Y-10357800D01*
X1569400Y-10317800D02*
X1529400Y-10357800D01*
X1580200Y-8031800D02*
X1620200Y-8071800D01*
X1620200Y-8031800D02*
X1580200Y-8071800D01*
X1758000Y-8108000D02*
X1798000Y-8148000D01*
X1798000Y-8108000D02*
X1758000Y-8148000D01*
X1864680Y-1239840D02*
X1904680Y-1279840D01*
X1904680Y-1239840D02*
X1864680Y-1279840D01*
X1872300Y-6952300D02*
X1912300Y-6992300D01*
X1912300Y-6952300D02*
X1872300Y-6992300D01*
X1930720Y-152720D02*
X1970720Y-192720D01*
X1970720Y-152720D02*
X1930720Y-192720D01*
X1986600Y-8108000D02*
X2026600Y-8148000D01*
X2026600Y-8108000D02*
X1986600Y-8148000D01*
X2080000Y-9680000D02*
X2120000Y-9720000D01*
X2120000Y-9680000D02*
X2080000Y-9720000D01*
X2189800Y-10673400D02*
X2229800Y-10713400D01*
X2229800Y-10673400D02*
X2189800Y-10713400D01*
X2266000Y-9174800D02*
X2306000Y-9214800D01*
X2306000Y-9174800D02*
X2266000Y-9214800D01*
X2393000Y-8362000D02*
X2433000Y-8402000D01*
X2433000Y-8362000D02*
X2393000Y-8402000D01*
X2480000Y-4330000D02*
X2520000Y-4370000D01*
X2520000Y-4330000D02*
X2480000Y-4370000D01*
X2494600Y-8743000D02*
X2534600Y-8783000D01*
X2534600Y-8743000D02*
X2494600Y-8783000D01*
X2530000Y-4930000D02*
X2570000Y-4970000D01*
X2570000Y-4930000D02*
X2530000Y-4970000D01*
X2570800Y-6533200D02*
X2610800Y-6573200D01*
X2610800Y-6533200D02*
X2570800Y-6573200D01*
X2575880Y-533720D02*
X2615880Y-573720D01*
X2615880Y-533720D02*
X2575880Y-573720D01*
X2596200Y-8870000D02*
X2636200Y-8910000D01*
X2636200Y-8870000D02*
X2596200Y-8910000D01*
X2630000Y-9430000D02*
X2670000Y-9470000D01*
X2670000Y-9430000D02*
X2630000Y-9470000D01*
X2647140Y-6126660D02*
X2687140Y-6166660D01*
X2687140Y-6126660D02*
X2647140Y-6166660D01*
X2672400Y-8108000D02*
X2712400Y-8148000D01*
X2712400Y-8108000D02*
X2672400Y-8148000D01*
X2672400Y-8412800D02*
X2712400Y-8452800D01*
X2712400Y-8412800D02*
X2672400Y-8452800D01*
X2680000Y-10530000D02*
X2720000Y-10570000D01*
X2720000Y-10530000D02*
X2680000Y-10570000D01*
X2697800Y-9327200D02*
X2737800Y-9367200D01*
X2737800Y-9327200D02*
X2697800Y-9367200D01*
X2730000Y-6430000D02*
X2770000Y-6470000D01*
X2770000Y-6430000D02*
X2730000Y-6470000D01*
X2748600Y-7269800D02*
X2788600Y-7309800D01*
X2788600Y-7269800D02*
X2748600Y-7309800D01*
X2980000Y-1930000D02*
X3020000Y-1970000D01*
X3020000Y-1930000D02*
X2980000Y-1970000D01*
X3078800Y-1097600D02*
X3118800Y-1137600D01*
X3118800Y-1097600D02*
X3078800Y-1137600D01*
X3104200Y-8412800D02*
X3144200Y-8452800D01*
X3144200Y-8412800D02*
X3104200Y-8452800D01*
X3180400Y-2951800D02*
X3220400Y-2991800D01*
X3220400Y-2951800D02*
X3180400Y-2991800D01*
X3205800Y-5745800D02*
X3245800Y-5785800D01*
X3245800Y-5745800D02*
X3205800Y-5785800D01*
X3221040Y-152720D02*
X3261040Y-192720D01*
X3261040Y-152720D02*
X3221040Y-192720D01*
X3308410Y-6431460D02*
X3348410Y-6471460D01*
X3348410Y-6431460D02*
X3308410Y-6471460D01*
X3308410Y-7676200D02*
X3348410Y-7716200D01*
X3348410Y-7676200D02*
X3308410Y-7716200D01*
X3434400Y-8641400D02*
X3474400Y-8681400D01*
X3474400Y-8641400D02*
X3434400Y-8681400D01*
X3435410Y-5313860D02*
X3475410Y-5353860D01*
X3475410Y-5313860D02*
X3435410Y-5353860D01*
X3435410Y-6126660D02*
X3475410Y-6166660D01*
X3475410Y-6126660D02*
X3435410Y-6166660D01*
X3435410Y-8260260D02*
X3475410Y-8300260D01*
X3475410Y-8260260D02*
X3435410Y-8300260D01*
X3435410Y-8438060D02*
X3475410Y-8478060D01*
X3475410Y-8438060D02*
X3435410Y-8478060D01*
X3561400Y-6660200D02*
X3601400Y-6700200D01*
X3601400Y-6660200D02*
X3561400Y-6700200D01*
X3561400Y-8108000D02*
X3601400Y-8148000D01*
X3601400Y-8108000D02*
X3561400Y-8148000D01*
X3637600Y-7320600D02*
X3677600Y-7360600D01*
X3677600Y-7320600D02*
X3637600Y-7360600D01*
X3678240Y-1483680D02*
X3718240Y-1523680D01*
X3718240Y-1483680D02*
X3678240Y-1523680D01*
X3764600Y-3536000D02*
X3804600Y-3576000D01*
X3804600Y-3536000D02*
X3764600Y-3576000D01*
X3840800Y-8946200D02*
X3880800Y-8986200D01*
X3880800Y-8946200D02*
X3840800Y-8986200D01*
X3967800Y-3942400D02*
X4007800Y-3982400D01*
X4007800Y-3942400D02*
X3967800Y-3982400D01*
X4018600Y-8717600D02*
X4058600Y-8757600D01*
X4058600Y-8717600D02*
X4018600Y-8757600D01*
X4030000Y-10680000D02*
X4070000Y-10720000D01*
X4070000Y-10680000D02*
X4030000Y-10720000D01*
X4130000Y-5180000D02*
X4170000Y-5220000D01*
X4170000Y-5180000D02*
X4130000Y-5220000D01*
X4196400Y-3637600D02*
X4236400Y-3677600D01*
X4236400Y-3637600D02*
X4196400Y-3677600D01*
X4221800Y-5720400D02*
X4261800Y-5760400D01*
X4261800Y-5720400D02*
X4221800Y-5760400D01*
X4221800Y-6558600D02*
X4261800Y-6598600D01*
X4261800Y-6558600D02*
X4221800Y-6598600D01*
X4272600Y-3917000D02*
X4312600Y-3957000D01*
X4312600Y-3917000D02*
X4272600Y-3957000D01*
X4298000Y-6838000D02*
X4338000Y-6878000D01*
X4338000Y-6838000D02*
X4298000Y-6878000D01*
X4374200Y-3409000D02*
X4414200Y-3449000D01*
X4414200Y-3409000D02*
X4374200Y-3449000D01*
X4399600Y-7777800D02*
X4439600Y-7817800D01*
X4439600Y-7777800D02*
X4399600Y-7817800D01*
X4450400Y-8793800D02*
X4490400Y-8833800D01*
X4490400Y-8793800D02*
X4450400Y-8833800D01*
X4450400Y-8946200D02*
X4490400Y-8986200D01*
X4490400Y-8946200D02*
X4450400Y-8986200D01*
X4475800Y-5212400D02*
X4515800Y-5252400D01*
X4515800Y-5212400D02*
X4475800Y-5252400D01*
X4475800Y-6685600D02*
X4515800Y-6725600D01*
X4515800Y-6685600D02*
X4475800Y-6725600D01*
X4480000Y-5430000D02*
X4520000Y-5470000D01*
X4520000Y-5430000D02*
X4480000Y-5470000D01*
X4536760Y-3063560D02*
X4576760Y-3103560D01*
X4576760Y-3063560D02*
X4536760Y-3103560D01*
X4554338Y-6891138D02*
X4594338Y-6931138D01*
X4594338Y-6891138D02*
X4554338Y-6931138D01*
X4628200Y-6965000D02*
X4668200Y-7005000D01*
X4668200Y-6965000D02*
X4628200Y-7005000D01*
X4679000Y-3510600D02*
X4719000Y-3550600D01*
X4719000Y-3510600D02*
X4679000Y-3550600D01*
X4679000Y-3688400D02*
X4719000Y-3728400D01*
X4719000Y-3688400D02*
X4679000Y-3728400D01*
X4689160Y-228920D02*
X4729160Y-268920D01*
X4729160Y-228920D02*
X4689160Y-268920D01*
X4704400Y-5999800D02*
X4744400Y-6039800D01*
X4744400Y-5999800D02*
X4704400Y-6039800D01*
X4717100Y-1783400D02*
X4757100Y-1823400D01*
X4757100Y-1783400D02*
X4717100Y-1823400D01*
X4729800Y-1986600D02*
X4769800Y-2026600D01*
X4769800Y-1986600D02*
X4729800Y-2026600D01*
X4780000Y-9630000D02*
X4820000Y-9670000D01*
X4820000Y-9630000D02*
X4780000Y-9670000D01*
X4780600Y-5212400D02*
X4820600Y-5252400D01*
X4820600Y-5212400D02*
X4780600Y-5252400D01*
X4780600Y-5441000D02*
X4820600Y-5481000D01*
X4820600Y-5441000D02*
X4780600Y-5481000D01*
X4795840Y-645480D02*
X4835840Y-685480D01*
X4835840Y-645480D02*
X4795840Y-685480D01*
X4795840Y-1001080D02*
X4835840Y-1041080D01*
X4835840Y-1001080D02*
X4795840Y-1041080D01*
X4806000Y-6761800D02*
X4846000Y-6801800D01*
X4846000Y-6761800D02*
X4806000Y-6801800D01*
X4806000Y-6965000D02*
X4846000Y-7005000D01*
X4846000Y-6965000D02*
X4806000Y-7005000D01*
X4806000Y-8133400D02*
X4846000Y-8173400D01*
X4846000Y-8133400D02*
X4806000Y-8173400D01*
X4807010Y-4628060D02*
X4847010Y-4668060D01*
X4847010Y-4628060D02*
X4807010Y-4668060D01*
X4807570Y-3359210D02*
X4847570Y-3399210D01*
X4847570Y-3359210D02*
X4807570Y-3399210D01*
X4818700Y-2481900D02*
X4858700Y-2521900D01*
X4858700Y-2481900D02*
X4818700Y-2521900D01*
X4830000Y-5980000D02*
X4870000Y-6020000D01*
X4870000Y-5980000D02*
X4830000Y-6020000D01*
X4835735Y-6410535D02*
X4875735Y-6450535D01*
X4875735Y-6410535D02*
X4835735Y-6450535D01*
X4908610Y-2850060D02*
X4948610Y-2890060D01*
X4948610Y-2850060D02*
X4908610Y-2890060D01*
X4908610Y-3688260D02*
X4948610Y-3728260D01*
X4948610Y-3688260D02*
X4908610Y-3728260D01*
X4971100Y-2062800D02*
X5011100Y-2102800D01*
X5011100Y-2062800D02*
X4971100Y-2102800D01*
X5034600Y-2748600D02*
X5074600Y-2788600D01*
X5074600Y-2748600D02*
X5034600Y-2788600D01*
X5130000Y-1780000D02*
X5170000Y-1820000D01*
X5170000Y-1780000D02*
X5130000Y-1820000D01*
X5130000Y-3830000D02*
X5170000Y-3870000D01*
X5170000Y-3830000D02*
X5130000Y-3870000D01*
X5136200Y-3561400D02*
X5176200Y-3601400D01*
X5176200Y-3561400D02*
X5136200Y-3601400D01*
X5136200Y-5212400D02*
X5176200Y-5252400D01*
X5176200Y-5212400D02*
X5136200Y-5252400D01*
X5136200Y-5949000D02*
X5176200Y-5989000D01*
X5176200Y-5949000D02*
X5136200Y-5989000D01*
X5161600Y-5415600D02*
X5201600Y-5455600D01*
X5201600Y-5415600D02*
X5161600Y-5455600D01*
X5180000Y-1880000D02*
X5220000Y-1920000D01*
X5220000Y-1880000D02*
X5180000Y-1920000D01*
X5230000Y-10080000D02*
X5270000Y-10120000D01*
X5270000Y-10080000D02*
X5230000Y-10120000D01*
X5237800Y-8793800D02*
X5277800Y-8833800D01*
X5277800Y-8793800D02*
X5237800Y-8833800D01*
X5237800Y-9225600D02*
X5277800Y-9265600D01*
X5277800Y-9225600D02*
X5237800Y-9265600D01*
X5263200Y-1605600D02*
X5303200Y-1645600D01*
X5303200Y-1605600D02*
X5263200Y-1645600D01*
X5280000Y-3880000D02*
X5320000Y-3920000D01*
X5320000Y-3880000D02*
X5280000Y-3920000D01*
X5280000Y-4130000D02*
X5320000Y-4170000D01*
X5320000Y-4130000D02*
X5280000Y-4170000D01*
X5280000Y-4480000D02*
X5320000Y-4520000D01*
X5320000Y-4480000D02*
X5280000Y-4520000D01*
X5288600Y-3155000D02*
X5328600Y-3195000D01*
X5328600Y-3155000D02*
X5288600Y-3195000D01*
X5314000Y-7117400D02*
X5354000Y-7157400D01*
X5354000Y-7117400D02*
X5314000Y-7157400D01*
X5330000Y-4780000D02*
X5370000Y-4820000D01*
X5370000Y-4780000D02*
X5330000Y-4820000D01*
X5330000Y-9630000D02*
X5370000Y-9670000D01*
X5370000Y-9630000D02*
X5330000Y-9670000D01*
X5364800Y-6558600D02*
X5404800Y-6598600D01*
X5404800Y-6558600D02*
X5364800Y-6598600D01*
X5380000Y-3530000D02*
X5420000Y-3570000D01*
X5420000Y-3530000D02*
X5380000Y-3570000D01*
X5415600Y-8895400D02*
X5455600Y-8935400D01*
X5455600Y-8895400D02*
X5415600Y-8935400D01*
X5441000Y-6761800D02*
X5481000Y-6801800D01*
X5481000Y-6761800D02*
X5441000Y-6801800D01*
X5441000Y-6965000D02*
X5481000Y-7005000D01*
X5481000Y-6965000D02*
X5441000Y-7005000D01*
X5441000Y-7346000D02*
X5481000Y-7386000D01*
X5481000Y-7346000D02*
X5441000Y-7386000D01*
X5441000Y-8539800D02*
X5481000Y-8579800D01*
X5481000Y-8539800D02*
X5441000Y-8579800D01*
X5461160Y-7117400D02*
X5501160Y-7157400D01*
X5501160Y-7117400D02*
X5461160Y-7157400D01*
X5471480Y-350840D02*
X5511480Y-390840D01*
X5511480Y-350840D02*
X5471480Y-390840D01*
X5517200Y-9378000D02*
X5557200Y-9418000D01*
X5557200Y-9378000D02*
X5517200Y-9418000D01*
X5518210Y-5161460D02*
X5558210Y-5201460D01*
X5558210Y-5161460D02*
X5518210Y-5201460D01*
X5629162Y-6899162D02*
X5669162Y-6939162D01*
X5669162Y-6899162D02*
X5629162Y-6939162D01*
X5644200Y-1910400D02*
X5684200Y-1950400D01*
X5684200Y-1910400D02*
X5644200Y-1950400D01*
X5669600Y-6558600D02*
X5709600Y-6598600D01*
X5709600Y-6558600D02*
X5669600Y-6598600D01*
X5680000Y-3530000D02*
X5720000Y-3570000D01*
X5720000Y-3530000D02*
X5680000Y-3570000D01*
X5780000Y-4130000D02*
X5820000Y-4170000D01*
X5820000Y-4130000D02*
X5780000Y-4170000D01*
X5780000Y-4480000D02*
X5820000Y-4520000D01*
X5820000Y-4480000D02*
X5780000Y-4520000D01*
X5780000Y-4780000D02*
X5820000Y-4820000D01*
X5820000Y-4780000D02*
X5780000Y-4820000D01*
X5796600Y-6990400D02*
X5836600Y-7030400D01*
X5836600Y-6990400D02*
X5796600Y-7030400D01*
X5872800Y-9591310D02*
X5912800Y-9631310D01*
X5912800Y-9591310D02*
X5872800Y-9631310D01*
X5872800Y-9936800D02*
X5912800Y-9976800D01*
X5912800Y-9936800D02*
X5872800Y-9976800D01*
X5923600Y-5847400D02*
X5963600Y-5887400D01*
X5963600Y-5847400D02*
X5923600Y-5887400D01*
X5980000Y-3180000D02*
X6020000Y-3220000D01*
X6020000Y-3180000D02*
X5980000Y-3220000D01*
X5999800Y-5517200D02*
X6039800Y-5557200D01*
X6039800Y-5517200D02*
X5999800Y-5557200D01*
X6015040Y-1580200D02*
X6055040Y-1620200D01*
X6055040Y-1580200D02*
X6015040Y-1620200D01*
X6050600Y-1097600D02*
X6090600Y-1137600D01*
X6090600Y-1097600D02*
X6050600Y-1137600D01*
X6080000Y-2830000D02*
X6120000Y-2870000D01*
X6120000Y-2830000D02*
X6080000Y-2870000D01*
X6080000Y-9680000D02*
X6120000Y-9720000D01*
X6120000Y-9680000D02*
X6080000Y-9720000D01*
X6136960Y-137480D02*
X6176960Y-177480D01*
X6176960Y-137480D02*
X6136960Y-177480D01*
X6153210Y-5161460D02*
X6193210Y-5201460D01*
X6193210Y-5161460D02*
X6153210Y-5201460D01*
X6228400Y-6330000D02*
X6268400Y-6370000D01*
X6268400Y-6330000D02*
X6228400Y-6370000D01*
X6230000Y-3030000D02*
X6270000Y-3070000D01*
X6270000Y-3030000D02*
X6230000Y-3070000D01*
X6253800Y-10673400D02*
X6293800Y-10713400D01*
X6293800Y-10673400D02*
X6253800Y-10713400D01*
X6279200Y-9098600D02*
X6319200Y-9138600D01*
X6319200Y-9098600D02*
X6279200Y-9138600D01*
X6279200Y-9428800D02*
X6319200Y-9468800D01*
X6319200Y-9428800D02*
X6279200Y-9468800D01*
X6280000Y-6680000D02*
X6320000Y-6720000D01*
X6320000Y-6680000D02*
X6280000Y-6720000D01*
X6280000Y-7080000D02*
X6320000Y-7120000D01*
X6320000Y-7080000D02*
X6280000Y-7120000D01*
X6350320Y-1244920D02*
X6390320Y-1284920D01*
X6390320Y-1244920D02*
X6350320Y-1284920D01*
X6380800Y-482920D02*
X6420800Y-522920D01*
X6420800Y-482920D02*
X6380800Y-522920D01*
X6480000Y-6480000D02*
X6520000Y-6520000D01*
X6520000Y-6480000D02*
X6480000Y-6520000D01*
X6507800Y-8895400D02*
X6547800Y-8935400D01*
X6547800Y-8895400D02*
X6507800Y-8935400D01*
X6584000Y-7650800D02*
X6624000Y-7690800D01*
X6624000Y-7650800D02*
X6584000Y-7690800D01*
X6584000Y-8133400D02*
X6624000Y-8173400D01*
X6624000Y-8133400D02*
X6584000Y-8173400D01*
X6634800Y-8031800D02*
X6674800Y-8071800D01*
X6674800Y-8031800D02*
X6634800Y-8071800D01*
X6711000Y-8260400D02*
X6751000Y-8300400D01*
X6751000Y-8260400D02*
X6711000Y-8300400D01*
X6712010Y-10800260D02*
X6752010Y-10840260D01*
X6752010Y-10800260D02*
X6712010Y-10840260D01*
X6712650Y-9123360D02*
X6752650Y-9163360D01*
X6752650Y-9123360D02*
X6712650Y-9163360D01*
X6730000Y-3480000D02*
X6770000Y-3520000D01*
X6770000Y-3480000D02*
X6730000Y-3520000D01*
X6730000Y-4030000D02*
X6770000Y-4070000D01*
X6770000Y-4030000D02*
X6730000Y-4070000D01*
X6761800Y-5161600D02*
X6801800Y-5201600D01*
X6801800Y-5161600D02*
X6761800Y-5201600D01*
X6914200Y-4704400D02*
X6954200Y-4744400D01*
X6954200Y-4704400D02*
X6914200Y-4744400D01*
X6930000Y-6180000D02*
X6970000Y-6220000D01*
X6970000Y-6180000D02*
X6930000Y-6220000D01*
X6930000Y-6380000D02*
X6970000Y-6420000D01*
X6970000Y-6380000D02*
X6930000Y-6420000D01*
X7066600Y-6025200D02*
X7106600Y-6065200D01*
X7106600Y-6025200D02*
X7066600Y-6065200D01*
X7080000Y-5180000D02*
X7120000Y-5220000D01*
X7120000Y-5180000D02*
X7080000Y-5220000D01*
X7142800Y-9276400D02*
X7182800Y-9316400D01*
X7182800Y-9276400D02*
X7142800Y-9316400D01*
X7142800Y-10495600D02*
X7182800Y-10535600D01*
X7182800Y-10495600D02*
X7142800Y-10535600D01*
X7142800Y-10825800D02*
X7182800Y-10865800D01*
X7182800Y-10825800D02*
X7142800Y-10865800D01*
X7180000Y-5430000D02*
X7220000Y-5470000D01*
X7220000Y-5430000D02*
X7180000Y-5470000D01*
X7244400Y-6406200D02*
X7284400Y-6446200D01*
X7284400Y-6406200D02*
X7244400Y-6446200D01*
X7280000Y-6130000D02*
X7320000Y-6170000D01*
X7320000Y-6130000D02*
X7280000Y-6170000D01*
X7302720Y-9581200D02*
X7342720Y-9621200D01*
X7342720Y-9581200D02*
X7302720Y-9621200D01*
X7321610Y-5313860D02*
X7361610Y-5353860D01*
X7361610Y-5313860D02*
X7321610Y-5353860D01*
X7498400Y-7574600D02*
X7538400Y-7614600D01*
X7538400Y-7574600D02*
X7498400Y-7614600D01*
X7574600Y-7041200D02*
X7614600Y-7081200D01*
X7614600Y-7041200D02*
X7574600Y-7081200D01*
X7600000Y-9886000D02*
X7640000Y-9926000D01*
X7640000Y-9886000D02*
X7600000Y-9926000D01*
X7600000Y-10190800D02*
X7640000Y-10230800D01*
X7640000Y-10190800D02*
X7600000Y-10230800D01*
X7650800Y-8971600D02*
X7690800Y-9011600D01*
X7690800Y-8971600D02*
X7650800Y-9011600D01*
X7777800Y-6787200D02*
X7817800Y-6827200D01*
X7817800Y-6787200D02*
X7777800Y-6827200D01*
X7828600Y-234000D02*
X7868600Y-274000D01*
X7868600Y-234000D02*
X7828600Y-274000D01*
X7828600Y-3053400D02*
X7868600Y-3093400D01*
X7868600Y-3053400D02*
X7828600Y-3093400D01*
X7828600Y-4602800D02*
X7868600Y-4642800D01*
X7868600Y-4602800D02*
X7828600Y-4642800D01*
X7854000Y-8387400D02*
X7894000Y-8427400D01*
X7894000Y-8387400D02*
X7854000Y-8427400D01*
X7854000Y-10825800D02*
X7894000Y-10865800D01*
X7894000Y-10825800D02*
X7854000Y-10865800D01*
D13*
X5285930Y-408840D02*
G75*
G03*
X5285930Y-408840I-35500J0D01*
G01*
D11*
X5262930Y-373340D02*
X5237930Y-373340D01*
X5262930Y-444340D02*
X5237930Y-444340D01*
X5237930Y-373340D02*
G75*
G03*
X5237930Y-444340I0J-35500D01*
G01*
X5262930Y-444340D02*
G75*
G03*
X5262930Y-373340I0J35500D01*
G01*
D13*
X5285930Y-916840D02*
G75*
G03*
X5285930Y-916840I-35500J0D01*
G01*
D11*
X5262930Y-881340D02*
X5237930Y-881340D01*
X5262930Y-952340D02*
X5237930Y-952340D01*
X5237930Y-881340D02*
G75*
G03*
X5237930Y-952340I0J-35500D01*
G01*
X5262930Y-952340D02*
G75*
G03*
X5262930Y-881340I0J35500D01*
G01*
D13*
X5794430Y-408840D02*
G75*
G03*
X5794430Y-408840I-35500J0D01*
G01*
D11*
X5771430Y-373340D02*
X5746430Y-373340D01*
X5771430Y-444340D02*
X5746430Y-444340D01*
X5746430Y-373340D02*
G75*
G03*
X5746430Y-444340I0J-35500D01*
G01*
X5771430Y-444340D02*
G75*
G03*
X5771430Y-373340I0J35500D01*
G01*
D13*
X5794430Y-916840D02*
G75*
G03*
X5794430Y-916840I-35500J0D01*
G01*
D11*
X5771430Y-881340D02*
X5746430Y-881340D01*
X5771430Y-952340D02*
X5746430Y-952340D01*
X5746430Y-881340D02*
G75*
G03*
X5746430Y-952340I0J-35500D01*
G01*
X5771430Y-952340D02*
G75*
G03*
X5771430Y-881340I0J35500D01*
G01*
D14*
X483610Y-10018260D02*
X483610Y-10098260D01*
X443610Y-10058260D02*
X523610Y-10058260D01*
X483610Y-10323060D02*
X483610Y-10403060D01*
X443610Y-10363060D02*
X523610Y-10363060D01*
X483610Y-10627860D02*
X483610Y-10707860D01*
X443610Y-10667860D02*
X523610Y-10667860D01*
X661410Y-9053060D02*
X661410Y-9133060D01*
X621410Y-9093060D02*
X701410Y-9093060D01*
X661410Y-9307060D02*
X661410Y-9387060D01*
X621410Y-9347060D02*
X701410Y-9347060D01*
X661410Y-9561060D02*
X661410Y-9641060D01*
X621410Y-9601060D02*
X701410Y-9601060D01*
X712210Y-3769860D02*
X712210Y-3849860D01*
X672210Y-3809860D02*
X752210Y-3809860D01*
X712210Y-4074660D02*
X712210Y-4154660D01*
X672210Y-4114660D02*
X752210Y-4114660D01*
X737610Y-6106660D02*
X737610Y-6186660D01*
X697610Y-6146660D02*
X777610Y-6146660D01*
X737610Y-6411460D02*
X737610Y-6491460D01*
X697610Y-6451460D02*
X777610Y-6451460D01*
X1093210Y-9057060D02*
X1093210Y-9137060D01*
X1053210Y-9097060D02*
X1133210Y-9097060D01*
X1093210Y-9557060D02*
X1093210Y-9637060D01*
X1053210Y-9597060D02*
X1133210Y-9597060D01*
X1245610Y-10018260D02*
X1245610Y-10098260D01*
X1205610Y-10058260D02*
X1285610Y-10058260D01*
X1245610Y-10323060D02*
X1245610Y-10403060D01*
X1205610Y-10363060D02*
X1285610Y-10363060D01*
X1245610Y-10627860D02*
X1245610Y-10707860D01*
X1205610Y-10667860D02*
X1285610Y-10667860D01*
X1474210Y-3769860D02*
X1474210Y-3849860D01*
X1434210Y-3809860D02*
X1514210Y-3809860D01*
X1474210Y-4074660D02*
X1474210Y-4154660D01*
X1434210Y-4114660D02*
X1514210Y-4114660D01*
X1499610Y-6106660D02*
X1499610Y-6186660D01*
X1459610Y-6146660D02*
X1539610Y-6146660D01*
X1499610Y-6411460D02*
X1499610Y-6491460D01*
X1459610Y-6451460D02*
X1539610Y-6451460D01*
X1701810Y-9103360D02*
X1701810Y-9183360D01*
X1661810Y-9143360D02*
X1741810Y-9143360D01*
X1701810Y-9357360D02*
X1701810Y-9437360D01*
X1661810Y-9397360D02*
X1741810Y-9397360D01*
X1701810Y-9611360D02*
X1701810Y-9691360D01*
X1661810Y-9651360D02*
X1741810Y-9651360D01*
X1701810Y-9865360D02*
X1701810Y-9945360D01*
X1661810Y-9905360D02*
X1741810Y-9905360D01*
X1701810Y-10119360D02*
X1701810Y-10199360D01*
X1661810Y-10159360D02*
X1741810Y-10159360D01*
X1701810Y-10373360D02*
X1701810Y-10453360D01*
X1661810Y-10413360D02*
X1741810Y-10413360D01*
X1701810Y-10627360D02*
X1701810Y-10707360D01*
X1661810Y-10667360D02*
X1741810Y-10667360D01*
X1837810Y-8494260D02*
X1837810Y-8574260D01*
X1797810Y-8534260D02*
X1877810Y-8534260D01*
X1837810Y-8794260D02*
X1837810Y-8874260D01*
X1797810Y-8834260D02*
X1877810Y-8834260D01*
X2261610Y-6259060D02*
X2261610Y-6339060D01*
X2221610Y-6299060D02*
X2301610Y-6299060D01*
X2311400Y-2258700D02*
X2311400Y-2338700D01*
X2271400Y-2298700D02*
X2351400Y-2298700D01*
X2337810Y-7656060D02*
X2337810Y-7736060D01*
X2297810Y-7696060D02*
X2377810Y-7696060D01*
X2337810Y-7910060D02*
X2337810Y-7990060D01*
X2297810Y-7950060D02*
X2377810Y-7950060D01*
X2337810Y-8164060D02*
X2337810Y-8244060D01*
X2297810Y-8204060D02*
X2377810Y-8204060D01*
X2337810Y-8494260D02*
X2337810Y-8574260D01*
X2297810Y-8534260D02*
X2377810Y-8534260D01*
X2337810Y-8794260D02*
X2337810Y-8874260D01*
X2297810Y-8834260D02*
X2377810Y-8834260D01*
X2340800Y-5636900D02*
X2340800Y-5716900D01*
X2300800Y-5676900D02*
X2380800Y-5676900D01*
X2463810Y-9103360D02*
X2463810Y-9183360D01*
X2423810Y-9143360D02*
X2503810Y-9143360D01*
X2463810Y-9357360D02*
X2463810Y-9437360D01*
X2423810Y-9397360D02*
X2503810Y-9397360D01*
X2463810Y-9611360D02*
X2463810Y-9691360D01*
X2423810Y-9651360D02*
X2503810Y-9651360D01*
X2463810Y-9865360D02*
X2463810Y-9945360D01*
X2423810Y-9905360D02*
X2503810Y-9905360D01*
X2463810Y-10119360D02*
X2463810Y-10199360D01*
X2423810Y-10159360D02*
X2503810Y-10159360D01*
X2463810Y-10373360D02*
X2463810Y-10453360D01*
X2423810Y-10413360D02*
X2503810Y-10413360D01*
X2463810Y-10627360D02*
X2463810Y-10707360D01*
X2423810Y-10667360D02*
X2503810Y-10667360D01*
X2795010Y-3007860D02*
X2795010Y-3087860D01*
X2755010Y-3047860D02*
X2835010Y-3047860D01*
X2795010Y-3769860D02*
X2795010Y-3849860D01*
X2755010Y-3809860D02*
X2835010Y-3809860D01*
X2795010Y-4150860D02*
X2795010Y-4230860D01*
X2755010Y-4190860D02*
X2835010Y-4190860D01*
X2795010Y-4912860D02*
X2795010Y-4992860D01*
X2755010Y-4952860D02*
X2835010Y-4952860D01*
X2811400Y-2258700D02*
X2811400Y-2338700D01*
X2771400Y-2298700D02*
X2851400Y-2298700D01*
X2840800Y-5636900D02*
X2840800Y-5716900D01*
X2800800Y-5676900D02*
X2880800Y-5676900D01*
X2871210Y-9467460D02*
X2871210Y-9547460D01*
X2831210Y-9507460D02*
X2911210Y-9507460D01*
X2871210Y-9967460D02*
X2871210Y-10047460D01*
X2831210Y-10007460D02*
X2911210Y-10007460D01*
X3023610Y-6259060D02*
X3023610Y-6339060D01*
X2983610Y-6299060D02*
X3063610Y-6299060D01*
X3042710Y-9078390D02*
X3042710Y-9158390D01*
X3002710Y-9118390D02*
X3082710Y-9118390D01*
X3049010Y-8773660D02*
X3049010Y-8853660D01*
X3009010Y-8813660D02*
X3089010Y-8813660D01*
X3049010Y-10323060D02*
X3049010Y-10403060D01*
X3009010Y-10363060D02*
X3089010Y-10363060D01*
X3049010Y-10627860D02*
X3049010Y-10707860D01*
X3009010Y-10667860D02*
X3089010Y-10667860D01*
X3201410Y-3265860D02*
X3201410Y-3345860D01*
X3161410Y-3305860D02*
X3241410Y-3305860D01*
X3201410Y-3515860D02*
X3201410Y-3595860D01*
X3161410Y-3555860D02*
X3241410Y-3555860D01*
X3201410Y-3922260D02*
X3201410Y-4002260D01*
X3161410Y-3962260D02*
X3241410Y-3962260D01*
X3201410Y-4172260D02*
X3201410Y-4252260D01*
X3161410Y-4212260D02*
X3241410Y-4212260D01*
X3226810Y-9459460D02*
X3226810Y-9539460D01*
X3186810Y-9499460D02*
X3266810Y-9499460D01*
X3226810Y-9713460D02*
X3226810Y-9793460D01*
X3186810Y-9753460D02*
X3266810Y-9753460D01*
X3226810Y-9967460D02*
X3226810Y-10047460D01*
X3186810Y-10007460D02*
X3266810Y-10007460D01*
X3709410Y-3769860D02*
X3709410Y-3849860D01*
X3669410Y-3809860D02*
X3749410Y-3809860D01*
X3709410Y-4074660D02*
X3709410Y-4154660D01*
X3669410Y-4114660D02*
X3749410Y-4114660D01*
X3709410Y-6106660D02*
X3709410Y-6186660D01*
X3669410Y-6146660D02*
X3749410Y-6146660D01*
X3709410Y-6411460D02*
X3709410Y-6491460D01*
X3669410Y-6451460D02*
X3749410Y-6451460D01*
X3734810Y-9459460D02*
X3734810Y-9539460D01*
X3694810Y-9499460D02*
X3774810Y-9499460D01*
X3734810Y-9713460D02*
X3734810Y-9793460D01*
X3694810Y-9753460D02*
X3774810Y-9753460D01*
X3734810Y-9967460D02*
X3734810Y-10047460D01*
X3694810Y-10007460D02*
X3774810Y-10007460D01*
X3804710Y-9078390D02*
X3804710Y-9158390D01*
X3764710Y-9118390D02*
X3844710Y-9118390D01*
X3811010Y-8773660D02*
X3811010Y-8853660D01*
X3771010Y-8813660D02*
X3851010Y-8813660D01*
X3811010Y-10323060D02*
X3811010Y-10403060D01*
X3771010Y-10363060D02*
X3851010Y-10363060D01*
X3811010Y-10627860D02*
X3811010Y-10707860D01*
X3771010Y-10667860D02*
X3851010Y-10667860D01*
X4319010Y-8545060D02*
X4319010Y-8625060D01*
X4279010Y-8585060D02*
X4359010Y-8585060D01*
X4319010Y-8849860D02*
X4319010Y-8929860D01*
X4279010Y-8889860D02*
X4359010Y-8889860D01*
X4319010Y-9154660D02*
X4319010Y-9234660D01*
X4279010Y-9194660D02*
X4359010Y-9194660D01*
X4319010Y-9459460D02*
X4319010Y-9539460D01*
X4279010Y-9499460D02*
X4359010Y-9499460D01*
X4319010Y-9738860D02*
X4319010Y-9818860D01*
X4279010Y-9778860D02*
X4359010Y-9778860D01*
X4319010Y-10018260D02*
X4319010Y-10098260D01*
X4279010Y-10058260D02*
X4359010Y-10058260D01*
X4319010Y-10323060D02*
X4319010Y-10403060D01*
X4279010Y-10363060D02*
X4359010Y-10363060D01*
X4319010Y-10627860D02*
X4319010Y-10707860D01*
X4279010Y-10667860D02*
X4359010Y-10667860D01*
X4471410Y-3769860D02*
X4471410Y-3849860D01*
X4431410Y-3809860D02*
X4511410Y-3809860D01*
X4471410Y-4074660D02*
X4471410Y-4154660D01*
X4431410Y-4114660D02*
X4511410Y-4114660D01*
X4471410Y-6106660D02*
X4471410Y-6186660D01*
X4431410Y-6146660D02*
X4511410Y-6146660D01*
X4471410Y-6411460D02*
X4471410Y-6491460D01*
X4431410Y-6451460D02*
X4511410Y-6451460D01*
X4550000Y-798000D02*
X4550000Y-878000D01*
X4510000Y-838000D02*
X4590000Y-838000D01*
X4550000Y-1560000D02*
X4550000Y-1640000D01*
X4510000Y-1600000D02*
X4590000Y-1600000D01*
X5081010Y-8545060D02*
X5081010Y-8625060D01*
X5041010Y-8585060D02*
X5121010Y-8585060D01*
X5081010Y-8849860D02*
X5081010Y-8929860D01*
X5041010Y-8889860D02*
X5121010Y-8889860D01*
X5081010Y-9154660D02*
X5081010Y-9234660D01*
X5041010Y-9194660D02*
X5121010Y-9194660D01*
X5081010Y-9459460D02*
X5081010Y-9539460D01*
X5041010Y-9499460D02*
X5121010Y-9499460D01*
X5081010Y-9738860D02*
X5081010Y-9818860D01*
X5041010Y-9778860D02*
X5121010Y-9778860D01*
X5081010Y-10018260D02*
X5081010Y-10098260D01*
X5041010Y-10058260D02*
X5121010Y-10058260D01*
X5081010Y-10323060D02*
X5081010Y-10403060D01*
X5041010Y-10363060D02*
X5121010Y-10363060D01*
X5081010Y-10627860D02*
X5081010Y-10707860D01*
X5041010Y-10667860D02*
X5121010Y-10667860D01*
X5182610Y-3974660D02*
X5182610Y-4054660D01*
X5142610Y-4014660D02*
X5222610Y-4014660D01*
X5182610Y-4277860D02*
X5182610Y-4357860D01*
X5142610Y-4317860D02*
X5222610Y-4317860D01*
X5182610Y-4608060D02*
X5182610Y-4688060D01*
X5142610Y-4648060D02*
X5222610Y-4648060D01*
X5182610Y-4912860D02*
X5182610Y-4992860D01*
X5142610Y-4952860D02*
X5222610Y-4952860D01*
X5182610Y-6106660D02*
X5182610Y-6186660D01*
X5142610Y-6146660D02*
X5222610Y-6146660D01*
X5182610Y-6411460D02*
X5182610Y-6491460D01*
X5142610Y-6451460D02*
X5222610Y-6451460D01*
X5313610Y-3368260D02*
X5313610Y-3448260D01*
X5273610Y-3408260D02*
X5353610Y-3408260D01*
X5313610Y-3671460D02*
X5313610Y-3751460D01*
X5273610Y-3711460D02*
X5353610Y-3711460D01*
X5436610Y-10123860D02*
X5436610Y-10203860D01*
X5396610Y-10163860D02*
X5476610Y-10163860D01*
X5436610Y-10623860D02*
X5436610Y-10703860D01*
X5396610Y-10663860D02*
X5476610Y-10663860D01*
X5715010Y-9103360D02*
X5715010Y-9183360D01*
X5675010Y-9143360D02*
X5755010Y-9143360D01*
X5715010Y-9357360D02*
X5715010Y-9437360D01*
X5675010Y-9397360D02*
X5755010Y-9397360D01*
X5715010Y-9611360D02*
X5715010Y-9691360D01*
X5675010Y-9651360D02*
X5755010Y-9651360D01*
X5715010Y-9865360D02*
X5715010Y-9945360D01*
X5675010Y-9905360D02*
X5755010Y-9905360D01*
X5715010Y-10119360D02*
X5715010Y-10199360D01*
X5675010Y-10159360D02*
X5755010Y-10159360D01*
X5715010Y-10373360D02*
X5715010Y-10453360D01*
X5675010Y-10413360D02*
X5755010Y-10413360D01*
X5715010Y-10627360D02*
X5715010Y-10707360D01*
X5675010Y-10667360D02*
X5755010Y-10667360D01*
X5813610Y-3368260D02*
X5813610Y-3448260D01*
X5773610Y-3408260D02*
X5853610Y-3408260D01*
X5813610Y-3671460D02*
X5813610Y-3751460D01*
X5773610Y-3711460D02*
X5853610Y-3711460D01*
X5847010Y-8494260D02*
X5847010Y-8574260D01*
X5807010Y-8534260D02*
X5887010Y-8534260D01*
X5847010Y-8794260D02*
X5847010Y-8874260D01*
X5807010Y-8834260D02*
X5887010Y-8834260D01*
X5944610Y-3974660D02*
X5944610Y-4054660D01*
X5904610Y-4014660D02*
X5984610Y-4014660D01*
X5944610Y-4277860D02*
X5944610Y-4357860D01*
X5904610Y-4317860D02*
X5984610Y-4317860D01*
X5944610Y-4608060D02*
X5944610Y-4688060D01*
X5904610Y-4648060D02*
X5984610Y-4648060D01*
X5944610Y-4912860D02*
X5944610Y-4992860D01*
X5904610Y-4952860D02*
X5984610Y-4952860D01*
X5944610Y-6106660D02*
X5944610Y-6186660D01*
X5904610Y-6146660D02*
X5984610Y-6146660D01*
X5944610Y-6411460D02*
X5944610Y-6491460D01*
X5904610Y-6451460D02*
X5984610Y-6451460D01*
X6347010Y-8494260D02*
X6347010Y-8574260D01*
X6307010Y-8534260D02*
X6387010Y-8534260D01*
X6347010Y-8794260D02*
X6347010Y-8874260D01*
X6307010Y-8834260D02*
X6387010Y-8834260D01*
X6351010Y-3185660D02*
X6351010Y-3265660D01*
X6311010Y-3225660D02*
X6391010Y-3225660D01*
X6351010Y-3439660D02*
X6351010Y-3519660D01*
X6311010Y-3479660D02*
X6391010Y-3479660D01*
X6351010Y-3693660D02*
X6351010Y-3773660D01*
X6311010Y-3733660D02*
X6391010Y-3733660D01*
X6351010Y-3896860D02*
X6351010Y-3976860D01*
X6311010Y-3936860D02*
X6391010Y-3936860D01*
X6351010Y-4150860D02*
X6351010Y-4230860D01*
X6311010Y-4190860D02*
X6391010Y-4190860D01*
X6351010Y-4404860D02*
X6351010Y-4484860D01*
X6311010Y-4444860D02*
X6391010Y-4444860D01*
X6477010Y-9103360D02*
X6477010Y-9183360D01*
X6437010Y-9143360D02*
X6517010Y-9143360D01*
X6477010Y-9357360D02*
X6477010Y-9437360D01*
X6437010Y-9397360D02*
X6517010Y-9397360D01*
X6477010Y-9611360D02*
X6477010Y-9691360D01*
X6437010Y-9651360D02*
X6517010Y-9651360D01*
X6477010Y-9865360D02*
X6477010Y-9945360D01*
X6437010Y-9905360D02*
X6517010Y-9905360D01*
X6477010Y-10119360D02*
X6477010Y-10199360D01*
X6437010Y-10159360D02*
X6517010Y-10159360D01*
X6477010Y-10373360D02*
X6477010Y-10453360D01*
X6437010Y-10413360D02*
X6517010Y-10413360D01*
X6477010Y-10627360D02*
X6477010Y-10707360D01*
X6437010Y-10667360D02*
X6517010Y-10667360D01*
X6732010Y-6259060D02*
X6732010Y-6339060D01*
X6692010Y-6299060D02*
X6772010Y-6299060D01*
X7011410Y-8799060D02*
X7011410Y-8879060D01*
X6971410Y-8839060D02*
X7051410Y-8839060D01*
X7011410Y-9103860D02*
X7011410Y-9183860D01*
X6971410Y-9143860D02*
X7051410Y-9143860D01*
X7011410Y-9408660D02*
X7011410Y-9488660D01*
X6971410Y-9448660D02*
X7051410Y-9448660D01*
X7011410Y-9713460D02*
X7011410Y-9793460D01*
X6971410Y-9753460D02*
X7051410Y-9753460D01*
X7011410Y-10018260D02*
X7011410Y-10098260D01*
X6971410Y-10058260D02*
X7051410Y-10058260D01*
X7011410Y-10323060D02*
X7011410Y-10403060D01*
X6971410Y-10363060D02*
X7051410Y-10363060D01*
X7011410Y-10627860D02*
X7011410Y-10707860D01*
X6971410Y-10667860D02*
X7051410Y-10667860D01*
X7137400Y-8469000D02*
X7137400Y-8549000D01*
X7097400Y-8509000D02*
X7177400Y-8509000D01*
X7391400Y-8215000D02*
X7391400Y-8295000D01*
X7351400Y-8255000D02*
X7431400Y-8255000D01*
X7494010Y-3363460D02*
X7494010Y-3443460D01*
X7454010Y-3403460D02*
X7534010Y-3403460D01*
X7494010Y-4125460D02*
X7494010Y-4205460D01*
X7454010Y-4165460D02*
X7534010Y-4165460D01*
X7494010Y-6259060D02*
X7494010Y-6339060D01*
X7454010Y-6299060D02*
X7534010Y-6299060D01*
X7645400Y-8469000D02*
X7645400Y-8549000D01*
X7605400Y-8509000D02*
X7685400Y-8509000D01*
X7773410Y-8799060D02*
X7773410Y-8879060D01*
X7733410Y-8839060D02*
X7813410Y-8839060D01*
X7773410Y-9103860D02*
X7773410Y-9183860D01*
X7733410Y-9143860D02*
X7813410Y-9143860D01*
X7773410Y-9408660D02*
X7773410Y-9488660D01*
X7733410Y-9448660D02*
X7813410Y-9448660D01*
X7773410Y-9713460D02*
X7773410Y-9793460D01*
X7733410Y-9753460D02*
X7813410Y-9753460D01*
X7773410Y-10018260D02*
X7773410Y-10098260D01*
X7733410Y-10058260D02*
X7813410Y-10058260D01*
X7773410Y-10323060D02*
X7773410Y-10403060D01*
X7733410Y-10363060D02*
X7813410Y-10363060D01*
X7773410Y-10627860D02*
X7773410Y-10707860D01*
X7733410Y-10667860D02*
X7813410Y-10667860D01*
X7798810Y-3363460D02*
X7798810Y-3443460D01*
X7758810Y-3403460D02*
X7838810Y-3403460D01*
X7798810Y-4125460D02*
X7798810Y-4205460D01*
X7758810Y-4165460D02*
X7838810Y-4165460D01*
D15*
X4004320Y-681820D02*
X4004320Y-618180D01*
X3940680Y-618180D01*
X3940680Y-681820D01*
X4004320Y-681820D01*
X4258320Y-681820D02*
X4258320Y-618180D01*
X4194680Y-618180D01*
X4194680Y-681820D01*
X4258320Y-681820D01*
X7017330Y-3968820D02*
X7017330Y-3905180D01*
X6953690Y-3905180D01*
X6953690Y-3968820D01*
X7017330Y-3968820D01*
X7271330Y-3968820D02*
X7271330Y-3905180D01*
X7207690Y-3905180D01*
X7207690Y-3968820D01*
X7271330Y-3968820D01*
D16*
X5260940Y-237900D02*
X5308440Y-190400D01*
X5260940Y-142900D01*
X5213440Y-190400D01*
X5260940Y-237900D01*
D11*
X5325940Y-142900D02*
X5195940Y-142900D01*
X5325940Y-237900D02*
X5195940Y-237900D01*
X5195940Y-142900D02*
G75*
G03*
X5195940Y-237900I0J-47500D01*
G01*
X5325940Y-237900D02*
G75*
G03*
X5325940Y-142900I0J47500D01*
G01*
D16*
X5260940Y-707900D02*
X5308440Y-660400D01*
X5260940Y-612900D01*
X5213440Y-660400D01*
X5260940Y-707900D01*
D11*
X5325940Y-612900D02*
X5195940Y-612900D01*
X5325940Y-707900D02*
X5195940Y-707900D01*
X5195940Y-612900D02*
G75*
G03*
X5195940Y-707900I0J-47500D01*
G01*
X5325940Y-707900D02*
G75*
G03*
X5325940Y-612900I0J47500D01*
G01*
D16*
X5260940Y-1177900D02*
X5308440Y-1130400D01*
X5260940Y-1082900D01*
X5213440Y-1130400D01*
X5260940Y-1177900D01*
D11*
X5325940Y-1082900D02*
X5195940Y-1082900D01*
X5325940Y-1177900D02*
X5195940Y-1177900D01*
X5195940Y-1082900D02*
G75*
G03*
X5195940Y-1177900I0J-47500D01*
G01*
X5325940Y-1177900D02*
G75*
G03*
X5325940Y-1082900I0J47500D01*
G01*
D16*
X5743940Y-237900D02*
X5791440Y-190400D01*
X5743940Y-142900D01*
X5696440Y-190400D01*
X5743940Y-237900D01*
D11*
X5808940Y-142900D02*
X5678940Y-142900D01*
X5808940Y-237900D02*
X5678940Y-237900D01*
X5678940Y-142900D02*
G75*
G03*
X5678940Y-237900I0J-47500D01*
G01*
X5808940Y-237900D02*
G75*
G03*
X5808940Y-142900I0J47500D01*
G01*
D16*
X5743940Y-707900D02*
X5791440Y-660400D01*
X5743940Y-612900D01*
X5696440Y-660400D01*
X5743940Y-707900D01*
D11*
X5808940Y-612900D02*
X5678940Y-612900D01*
X5808940Y-707900D02*
X5678940Y-707900D01*
X5678940Y-612900D02*
G75*
G03*
X5678940Y-707900I0J-47500D01*
G01*
X5808940Y-707900D02*
G75*
G03*
X5808940Y-612900I0J47500D01*
G01*
D16*
X5743940Y-1177900D02*
X5791440Y-1130400D01*
X5743940Y-1082900D01*
X5696440Y-1130400D01*
X5743940Y-1177900D01*
D11*
X5808940Y-1082900D02*
X5678940Y-1082900D01*
X5808940Y-1177900D02*
X5678940Y-1177900D01*
X5678940Y-1082900D02*
G75*
G03*
X5678940Y-1177900I0J-47500D01*
G01*
X5808940Y-1177900D02*
G75*
G03*
X5808940Y-1082900I0J47500D01*
G01*
D17*
X788210Y-5558260D02*
X888210Y-5658260D01*
X888210Y-5558260D02*
X788210Y-5658260D01*
X888210Y-5608260D02*
G75*
G03*
X888210Y-5608260I-50000J0D01*
G01*
X805710Y-3070760D02*
X905710Y-3170760D01*
X905710Y-3070760D02*
X805710Y-3170760D01*
X905710Y-3120760D02*
G75*
G03*
X905710Y-3120760I-50000J0D01*
G01*
X805710Y-8060760D02*
X905710Y-8160760D01*
X905710Y-8060760D02*
X805710Y-8160760D01*
X905710Y-8110760D02*
G75*
G03*
X905710Y-8110760I-50000J0D01*
G01*
X1038210Y-5558260D02*
X1138210Y-5658260D01*
X1138210Y-5558260D02*
X1038210Y-5658260D01*
X1138210Y-5608260D02*
G75*
G03*
X1138210Y-5608260I-50000J0D01*
G01*
X1055710Y-3070760D02*
X1155710Y-3170760D01*
X1155710Y-3070760D02*
X1055710Y-3170760D01*
X1155710Y-3120760D02*
G75*
G03*
X1155710Y-3120760I-50000J0D01*
G01*
X1055710Y-8060760D02*
X1155710Y-8160760D01*
X1155710Y-8060760D02*
X1055710Y-8160760D01*
X1155710Y-8110760D02*
G75*
G03*
X1155710Y-8110760I-50000J0D01*
G01*
X1288210Y-5558260D02*
X1388210Y-5658260D01*
X1388210Y-5558260D02*
X1288210Y-5658260D01*
X1388210Y-5608260D02*
G75*
G03*
X1388210Y-5608260I-50000J0D01*
G01*
X1305710Y-3070760D02*
X1405710Y-3170760D01*
X1405710Y-3070760D02*
X1305710Y-3170760D01*
X1405710Y-3120760D02*
G75*
G03*
X1405710Y-3120760I-50000J0D01*
G01*
X1305710Y-8060760D02*
X1405710Y-8160760D01*
X1405710Y-8060760D02*
X1305710Y-8160760D01*
X1405710Y-8110760D02*
G75*
G03*
X1405710Y-8110760I-50000J0D01*
G01*
X1988390Y-3400890D02*
X2088390Y-3500890D01*
X2088390Y-3400890D02*
X1988390Y-3500890D01*
X2088390Y-3450890D02*
G75*
G03*
X2088390Y-3450890I-50000J0D01*
G01*
X1988390Y-3654890D02*
X2088390Y-3754890D01*
X2088390Y-3654890D02*
X1988390Y-3754890D01*
X2088390Y-3704890D02*
G75*
G03*
X2088390Y-3704890I-50000J0D01*
G01*
X1988390Y-3908890D02*
X2088390Y-4008890D01*
X2088390Y-3908890D02*
X1988390Y-4008890D01*
X2088390Y-3958890D02*
G75*
G03*
X2088390Y-3958890I-50000J0D01*
G01*
X1988390Y-4162890D02*
X2088390Y-4262890D01*
X2088390Y-4162890D02*
X1988390Y-4262890D01*
X2088390Y-4212890D02*
G75*
G03*
X2088390Y-4212890I-50000J0D01*
G01*
X1988390Y-4416890D02*
X2088390Y-4516890D01*
X2088390Y-4416890D02*
X1988390Y-4516890D01*
X2088390Y-4466890D02*
G75*
G03*
X2088390Y-4466890I-50000J0D01*
G01*
X2172000Y-5195100D02*
X2272000Y-5295100D01*
X2272000Y-5195100D02*
X2172000Y-5295100D01*
X2272000Y-5245100D02*
G75*
G03*
X2272000Y-5245100I-50000J0D01*
G01*
X2175040Y-2698280D02*
X2275040Y-2798280D01*
X2275040Y-2698280D02*
X2175040Y-2798280D01*
X2275040Y-2748280D02*
G75*
G03*
X2275040Y-2748280I-50000J0D01*
G01*
X2242390Y-3400890D02*
X2342390Y-3500890D01*
X2342390Y-3400890D02*
X2242390Y-3500890D01*
X2342390Y-3450890D02*
G75*
G03*
X2342390Y-3450890I-50000J0D01*
G01*
X2242390Y-3654890D02*
X2342390Y-3754890D01*
X2342390Y-3654890D02*
X2242390Y-3754890D01*
X2342390Y-3704890D02*
G75*
G03*
X2342390Y-3704890I-50000J0D01*
G01*
X2242390Y-3908890D02*
X2342390Y-4008890D01*
X2342390Y-3908890D02*
X2242390Y-4008890D01*
X2342390Y-3958890D02*
G75*
G03*
X2342390Y-3958890I-50000J0D01*
G01*
X2242390Y-4162890D02*
X2342390Y-4262890D01*
X2342390Y-4162890D02*
X2242390Y-4262890D01*
X2342390Y-4212890D02*
G75*
G03*
X2342390Y-4212890I-50000J0D01*
G01*
X2242390Y-4416890D02*
X2342390Y-4516890D01*
X2342390Y-4416890D02*
X2242390Y-4516890D01*
X2342390Y-4466890D02*
G75*
G03*
X2342390Y-4466890I-50000J0D01*
G01*
X2286800Y-7101124D02*
X2386800Y-7201124D01*
X2386800Y-7101124D02*
X2286800Y-7201124D01*
X2386800Y-7151124D02*
G75*
G03*
X2386800Y-7151124I-50000J0D01*
G01*
X2286800Y-7355124D02*
X2386800Y-7455124D01*
X2386800Y-7355124D02*
X2286800Y-7455124D01*
X2386800Y-7405124D02*
G75*
G03*
X2386800Y-7405124I-50000J0D01*
G01*
X2305085Y-1304360D02*
X2405085Y-1404360D01*
X2405085Y-1304360D02*
X2305085Y-1404360D01*
X2405085Y-1354360D02*
G75*
G03*
X2405085Y-1354360I-50000J0D01*
G01*
X2426000Y-5195100D02*
X2526000Y-5295100D01*
X2526000Y-5195100D02*
X2426000Y-5295100D01*
X2526000Y-5245100D02*
G75*
G03*
X2526000Y-5245100I-50000J0D01*
G01*
X2429040Y-2698280D02*
X2529040Y-2798280D01*
X2529040Y-2698280D02*
X2429040Y-2798280D01*
X2529040Y-2748280D02*
G75*
G03*
X2529040Y-2748280I-50000J0D01*
G01*
X2555085Y-1304360D02*
X2655085Y-1404360D01*
X2655085Y-1304360D02*
X2555085Y-1404360D01*
X2655085Y-1354360D02*
G75*
G03*
X2655085Y-1354360I-50000J0D01*
G01*
X2805085Y-1304360D02*
X2905085Y-1404360D01*
X2905085Y-1304360D02*
X2805085Y-1404360D01*
X2905085Y-1354360D02*
G75*
G03*
X2905085Y-1354360I-50000J0D01*
G01*
X3803210Y-5548260D02*
X3903210Y-5648260D01*
X3903210Y-5548260D02*
X3803210Y-5648260D01*
X3903210Y-5598260D02*
G75*
G03*
X3903210Y-5598260I-50000J0D01*
G01*
X3804460Y-3070760D02*
X3904460Y-3170760D01*
X3904460Y-3070760D02*
X3804460Y-3170760D01*
X3904460Y-3120760D02*
G75*
G03*
X3904460Y-3120760I-50000J0D01*
G01*
X4053210Y-5548260D02*
X4153210Y-5648260D01*
X4153210Y-5548260D02*
X4053210Y-5648260D01*
X4153210Y-5598260D02*
G75*
G03*
X4153210Y-5598260I-50000J0D01*
G01*
X4054460Y-3070760D02*
X4154460Y-3170760D01*
X4154460Y-3070760D02*
X4054460Y-3170760D01*
X4154460Y-3120760D02*
G75*
G03*
X4154460Y-3120760I-50000J0D01*
G01*
X4303210Y-5548260D02*
X4403210Y-5648260D01*
X4403210Y-5548260D02*
X4303210Y-5648260D01*
X4403210Y-5598260D02*
G75*
G03*
X4403210Y-5598260I-50000J0D01*
G01*
X4304460Y-3070760D02*
X4404460Y-3170760D01*
X4404460Y-3070760D02*
X4304460Y-3170760D01*
X4404460Y-3120760D02*
G75*
G03*
X4404460Y-3120760I-50000J0D01*
G01*
X5435819Y-2058200D02*
X5535819Y-2158200D01*
X5535819Y-2058200D02*
X5435819Y-2158200D01*
X5535819Y-2108200D02*
G75*
G03*
X5535819Y-2108200I-50000J0D01*
G01*
X5435819Y-2312200D02*
X5535819Y-2412200D01*
X5535819Y-2312200D02*
X5435819Y-2412200D01*
X5535819Y-2362200D02*
G75*
G03*
X5535819Y-2362200I-50000J0D01*
G01*
X5435819Y-2566200D02*
X5535819Y-2666200D01*
X5535819Y-2566200D02*
X5435819Y-2666200D01*
X5535819Y-2616200D02*
G75*
G03*
X5535819Y-2616200I-50000J0D01*
G01*
X5435819Y-2820200D02*
X5535819Y-2920200D01*
X5535819Y-2820200D02*
X5435819Y-2920200D01*
X5535819Y-2870200D02*
G75*
G03*
X5535819Y-2870200I-50000J0D01*
G01*
X5689819Y-2058200D02*
X5789819Y-2158200D01*
X5789819Y-2058200D02*
X5689819Y-2158200D01*
X5789819Y-2108200D02*
G75*
G03*
X5789819Y-2108200I-50000J0D01*
G01*
X5689819Y-2312200D02*
X5789819Y-2412200D01*
X5789819Y-2312200D02*
X5689819Y-2412200D01*
X5789819Y-2362200D02*
G75*
G03*
X5789819Y-2362200I-50000J0D01*
G01*
X5689819Y-2566200D02*
X5789819Y-2666200D01*
X5789819Y-2566200D02*
X5689819Y-2666200D01*
X5789819Y-2616200D02*
G75*
G03*
X5789819Y-2616200I-50000J0D01*
G01*
X5689819Y-2820200D02*
X5789819Y-2920200D01*
X5789819Y-2820200D02*
X5689819Y-2920200D01*
X5789819Y-2870200D02*
G75*
G03*
X5789819Y-2870200I-50000J0D01*
G01*
X6803210Y-3070760D02*
X6903210Y-3170760D01*
X6903210Y-3070760D02*
X6803210Y-3170760D01*
X6903210Y-3120760D02*
G75*
G03*
X6903210Y-3120760I-50000J0D01*
G01*
X6805710Y-5553260D02*
X6905710Y-5653260D01*
X6905710Y-5553260D02*
X6805710Y-5653260D01*
X6905710Y-5603260D02*
G75*
G03*
X6905710Y-5603260I-50000J0D01*
G01*
X7053210Y-3070760D02*
X7153210Y-3170760D01*
X7153210Y-3070760D02*
X7053210Y-3170760D01*
X7153210Y-3120760D02*
G75*
G03*
X7153210Y-3120760I-50000J0D01*
G01*
X7055710Y-5553260D02*
X7155710Y-5653260D01*
X7155710Y-5553260D02*
X7055710Y-5653260D01*
X7155710Y-5603260D02*
G75*
G03*
X7155710Y-5603260I-50000J0D01*
G01*
X7303210Y-3070760D02*
X7403210Y-3170760D01*
X7403210Y-3070760D02*
X7303210Y-3170760D01*
X7403210Y-3120760D02*
G75*
G03*
X7403210Y-3120760I-50000J0D01*
G01*
X7305710Y-5553260D02*
X7405710Y-5653260D01*
X7405710Y-5553260D02*
X7305710Y-5653260D01*
X7405710Y-5603260D02*
G75*
G03*
X7405710Y-5603260I-50000J0D01*
G01*
D18*
X3038201Y-6692124D02*
X3160201Y-6814124D01*
X3160201Y-6692124D02*
X3038201Y-6814124D01*
X3099201Y-6692124D02*
X3099201Y-6814124D01*
X3038201Y-6753124D02*
X3160201Y-6753124D01*
X4038201Y-6692124D02*
X4160201Y-6814124D01*
X4160201Y-6692124D02*
X4038201Y-6814124D01*
X4099201Y-6692124D02*
X4099201Y-6814124D01*
X4038201Y-6753124D02*
X4160201Y-6753124D01*
X5038201Y-6692124D02*
X5160201Y-6814124D01*
X5160201Y-6692124D02*
X5038201Y-6814124D01*
X5099201Y-6692124D02*
X5099201Y-6814124D01*
X5038201Y-6753124D02*
X5160201Y-6753124D01*
X6038201Y-6692124D02*
X6160201Y-6814124D01*
X6160201Y-6692124D02*
X6038201Y-6814124D01*
X6099201Y-6692124D02*
X6099201Y-6814124D01*
X6038201Y-6753124D02*
X6160201Y-6753124D01*
X7038201Y-6692124D02*
X7160201Y-6814124D01*
X7160201Y-6692124D02*
X7038201Y-6814124D01*
X7099201Y-6692124D02*
X7099201Y-6814124D01*
X7038201Y-6753124D02*
X7160201Y-6753124D01*
D19*
X3028201Y-6992124D02*
X3170201Y-7134124D01*
X3170201Y-6992124D02*
X3028201Y-7134124D01*
X3149406Y-7113329D02*
X3149406Y-7012919D01*
X3048996Y-7012919D01*
X3048996Y-7113329D01*
X3149406Y-7113329D01*
X4028201Y-6992124D02*
X4170201Y-7134124D01*
X4170201Y-6992124D02*
X4028201Y-7134124D01*
X4149406Y-7113329D02*
X4149406Y-7012919D01*
X4048996Y-7012919D01*
X4048996Y-7113329D01*
X4149406Y-7113329D01*
X5028201Y-6992124D02*
X5170201Y-7134124D01*
X5170201Y-6992124D02*
X5028201Y-7134124D01*
X5149407Y-7113329D02*
X5149407Y-7012919D01*
X5048996Y-7012919D01*
X5048996Y-7113329D01*
X5149407Y-7113329D01*
X6028201Y-6992124D02*
X6170201Y-7134124D01*
X6170201Y-6992124D02*
X6028201Y-7134124D01*
X6149406Y-7113329D02*
X6149406Y-7012919D01*
X6048996Y-7012919D01*
X6048996Y-7113329D01*
X6149406Y-7113329D01*
X7028201Y-6992124D02*
X7170201Y-7134124D01*
X7170201Y-6992124D02*
X7028201Y-7134124D01*
X7149406Y-7113329D02*
X7149406Y-7012919D01*
X7048996Y-7012919D01*
X7048996Y-7113329D01*
X7149406Y-7113329D01*
D20*
X3027701Y-7821624D02*
X3170701Y-7964624D01*
X3170701Y-7821624D02*
X3027701Y-7964624D01*
X3099201Y-7964624D02*
X3170701Y-7893124D01*
X3099201Y-7821624D01*
X3027701Y-7893124D01*
X3099201Y-7964624D01*
X4027701Y-7821624D02*
X4170701Y-7964624D01*
X4170701Y-7821624D02*
X4027701Y-7964624D01*
X4099201Y-7964624D02*
X4170701Y-7893124D01*
X4099201Y-7821624D01*
X4027701Y-7893124D01*
X4099201Y-7964624D01*
X5027701Y-7821624D02*
X5170701Y-7964624D01*
X5170701Y-7821624D02*
X5027701Y-7964624D01*
X5099201Y-7964624D02*
X5170701Y-7893124D01*
X5099201Y-7821624D01*
X5027701Y-7893124D01*
X5099201Y-7964624D01*
X6027701Y-7821624D02*
X6170701Y-7964624D01*
X6170701Y-7821624D02*
X6027701Y-7964624D01*
X6099201Y-7964624D02*
X6170701Y-7893124D01*
X6099201Y-7821624D01*
X6027701Y-7893124D01*
X6099201Y-7964624D01*
X7027701Y-7821624D02*
X7170701Y-7964624D01*
X7170701Y-7821624D02*
X7027701Y-7964624D01*
X7099201Y-7964624D02*
X7170701Y-7893124D01*
X7099201Y-7821624D01*
X7027701Y-7893124D01*
X7099201Y-7964624D01*
D21*
X648210Y-4818260D02*
X648210Y-4998260D01*
X558210Y-4908260D02*
X738210Y-4908260D01*
X738210Y-4908260D02*
G75*
G03*
X738210Y-4908260I-90000J0D01*
G01*
D11*
X738210Y-4923260D02*
X738210Y-4893260D01*
X558210Y-4923260D02*
X558210Y-4893260D01*
X738210Y-4893260D02*
G75*
G03*
X558210Y-4893260I-90000J0D01*
G01*
X558210Y-4923260D02*
G75*
G03*
X738210Y-4923260I90000J0D01*
G01*
D21*
X665710Y-2330760D02*
X665710Y-2510760D01*
X575710Y-2420760D02*
X755710Y-2420760D01*
X755710Y-2420760D02*
G75*
G03*
X755710Y-2420760I-90000J0D01*
G01*
D11*
X755710Y-2435760D02*
X755710Y-2405760D01*
X575710Y-2435760D02*
X575710Y-2405760D01*
X755710Y-2405760D02*
G75*
G03*
X575710Y-2405760I-90000J0D01*
G01*
X575710Y-2435760D02*
G75*
G03*
X755710Y-2435760I90000J0D01*
G01*
D21*
X665710Y-7320760D02*
X665710Y-7500760D01*
X575710Y-7410760D02*
X755710Y-7410760D01*
X755710Y-7410760D02*
G75*
G03*
X755710Y-7410760I-90000J0D01*
G01*
D11*
X755710Y-7425760D02*
X755710Y-7395760D01*
X575710Y-7425760D02*
X575710Y-7395760D01*
X755710Y-7395760D02*
G75*
G03*
X575710Y-7395760I-90000J0D01*
G01*
X575710Y-7425760D02*
G75*
G03*
X755710Y-7425760I90000J0D01*
G01*
D21*
X1528210Y-4818260D02*
X1528210Y-4998260D01*
X1438210Y-4908260D02*
X1618210Y-4908260D01*
X1618210Y-4908260D02*
G75*
G03*
X1618210Y-4908260I-90000J0D01*
G01*
D11*
X1618210Y-4923260D02*
X1618210Y-4893260D01*
X1438210Y-4923260D02*
X1438210Y-4893260D01*
X1618210Y-4893260D02*
G75*
G03*
X1438210Y-4893260I-90000J0D01*
G01*
X1438210Y-4923260D02*
G75*
G03*
X1618210Y-4923260I90000J0D01*
G01*
D21*
X1545710Y-2330760D02*
X1545710Y-2510760D01*
X1455710Y-2420760D02*
X1635710Y-2420760D01*
X1635710Y-2420760D02*
G75*
G03*
X1635710Y-2420760I-90000J0D01*
G01*
D11*
X1635710Y-2435760D02*
X1635710Y-2405760D01*
X1455710Y-2435760D02*
X1455710Y-2405760D01*
X1635710Y-2405760D02*
G75*
G03*
X1455710Y-2405760I-90000J0D01*
G01*
X1455710Y-2435760D02*
G75*
G03*
X1635710Y-2435760I90000J0D01*
G01*
D21*
X1545710Y-7320760D02*
X1545710Y-7500760D01*
X1455710Y-7410760D02*
X1635710Y-7410760D01*
X1635710Y-7410760D02*
G75*
G03*
X1635710Y-7410760I-90000J0D01*
G01*
D11*
X1635710Y-7425760D02*
X1635710Y-7395760D01*
X1455710Y-7425760D02*
X1455710Y-7395760D01*
X1635710Y-7395760D02*
G75*
G03*
X1455710Y-7395760I-90000J0D01*
G01*
X1455710Y-7425760D02*
G75*
G03*
X1635710Y-7425760I90000J0D01*
G01*
D21*
X2165085Y-564360D02*
X2165085Y-744360D01*
X2075085Y-654360D02*
X2255085Y-654360D01*
X2255085Y-654360D02*
G75*
G03*
X2255085Y-654360I-90000J0D01*
G01*
D11*
X2255085Y-669360D02*
X2255085Y-639360D01*
X2075085Y-669360D02*
X2075085Y-639360D01*
X2255085Y-639360D02*
G75*
G03*
X2075085Y-639360I-90000J0D01*
G01*
X2075085Y-669360D02*
G75*
G03*
X2255085Y-669360I90000J0D01*
G01*
D21*
X3045085Y-564360D02*
X3045085Y-744360D01*
X2955085Y-654360D02*
X3135085Y-654360D01*
X3135085Y-654360D02*
G75*
G03*
X3135085Y-654360I-90000J0D01*
G01*
D11*
X3135085Y-669360D02*
X3135085Y-639360D01*
X2955085Y-669360D02*
X2955085Y-639360D01*
X3135085Y-639360D02*
G75*
G03*
X2955085Y-639360I-90000J0D01*
G01*
X2955085Y-669360D02*
G75*
G03*
X3135085Y-669360I90000J0D01*
G01*
D21*
X3663210Y-4808260D02*
X3663210Y-4988260D01*
X3573210Y-4898260D02*
X3753210Y-4898260D01*
X3753210Y-4898260D02*
G75*
G03*
X3753210Y-4898260I-90000J0D01*
G01*
D11*
X3753210Y-4913260D02*
X3753210Y-4883260D01*
X3573210Y-4913260D02*
X3573210Y-4883260D01*
X3753210Y-4883260D02*
G75*
G03*
X3573210Y-4883260I-90000J0D01*
G01*
X3573210Y-4913260D02*
G75*
G03*
X3753210Y-4913260I90000J0D01*
G01*
D21*
X3664460Y-2330760D02*
X3664460Y-2510760D01*
X3574460Y-2420760D02*
X3754460Y-2420760D01*
X3754460Y-2420760D02*
G75*
G03*
X3754460Y-2420760I-90000J0D01*
G01*
D11*
X3754460Y-2435760D02*
X3754460Y-2405760D01*
X3574460Y-2435760D02*
X3574460Y-2405760D01*
X3754460Y-2405760D02*
G75*
G03*
X3574460Y-2405760I-90000J0D01*
G01*
X3574460Y-2435760D02*
G75*
G03*
X3754460Y-2435760I90000J0D01*
G01*
D21*
X4543210Y-4808260D02*
X4543210Y-4988260D01*
X4453210Y-4898260D02*
X4633210Y-4898260D01*
X4633210Y-4898260D02*
G75*
G03*
X4633210Y-4898260I-90000J0D01*
G01*
D11*
X4633210Y-4913260D02*
X4633210Y-4883260D01*
X4453210Y-4913260D02*
X4453210Y-4883260D01*
X4633210Y-4883260D02*
G75*
G03*
X4453210Y-4883260I-90000J0D01*
G01*
X4453210Y-4913260D02*
G75*
G03*
X4633210Y-4913260I90000J0D01*
G01*
D21*
X4544460Y-2330760D02*
X4544460Y-2510760D01*
X4454460Y-2420760D02*
X4634460Y-2420760D01*
X4634460Y-2420760D02*
G75*
G03*
X4634460Y-2420760I-90000J0D01*
G01*
D11*
X4634460Y-2435760D02*
X4634460Y-2405760D01*
X4454460Y-2435760D02*
X4454460Y-2405760D01*
X4634460Y-2405760D02*
G75*
G03*
X4454460Y-2405760I-90000J0D01*
G01*
X4454460Y-2435760D02*
G75*
G03*
X4634460Y-2435760I90000J0D01*
G01*
D21*
X6663210Y-2330760D02*
X6663210Y-2510760D01*
X6573210Y-2420760D02*
X6753210Y-2420760D01*
X6753210Y-2420760D02*
G75*
G03*
X6753210Y-2420760I-90000J0D01*
G01*
D11*
X6753210Y-2435760D02*
X6753210Y-2405760D01*
X6573210Y-2435760D02*
X6573210Y-2405760D01*
X6753210Y-2405760D02*
G75*
G03*
X6573210Y-2405760I-90000J0D01*
G01*
X6573210Y-2435760D02*
G75*
G03*
X6753210Y-2435760I90000J0D01*
G01*
D21*
X6665710Y-4813260D02*
X6665710Y-4993260D01*
X6575710Y-4903260D02*
X6755710Y-4903260D01*
X6755710Y-4903260D02*
G75*
G03*
X6755710Y-4903260I-90000J0D01*
G01*
D11*
X6755710Y-4918260D02*
X6755710Y-4888260D01*
X6575710Y-4918260D02*
X6575710Y-4888260D01*
X6755710Y-4888260D02*
G75*
G03*
X6575710Y-4888260I-90000J0D01*
G01*
X6575710Y-4918260D02*
G75*
G03*
X6755710Y-4918260I90000J0D01*
G01*
D21*
X7543210Y-2330760D02*
X7543210Y-2510760D01*
X7453210Y-2420760D02*
X7633210Y-2420760D01*
X7633210Y-2420760D02*
G75*
G03*
X7633210Y-2420760I-90000J0D01*
G01*
D11*
X7633210Y-2435760D02*
X7633210Y-2405760D01*
X7453210Y-2435760D02*
X7453210Y-2405760D01*
X7633210Y-2405760D02*
G75*
G03*
X7453210Y-2405760I-90000J0D01*
G01*
X7453210Y-2435760D02*
G75*
G03*
X7633210Y-2435760I90000J0D01*
G01*
D21*
X7545710Y-4813260D02*
X7545710Y-4993260D01*
X7455710Y-4903260D02*
X7635710Y-4903260D01*
X7635710Y-4903260D02*
G75*
G03*
X7635710Y-4903260I-90000J0D01*
G01*
D11*
X7635710Y-4918260D02*
X7635710Y-4888260D01*
X7455710Y-4918260D02*
X7455710Y-4888260D01*
X7635710Y-4888260D02*
G75*
G03*
X7455710Y-4888260I-90000J0D01*
G01*
X7455710Y-4918260D02*
G75*
G03*
X7635710Y-4918260I90000J0D01*
G01*
X382119Y-11260376D02*
X382119Y-11060376D01*
X429738Y-11060376D01*
X458309Y-11069900D01*
X477357Y-11088948D01*
X486881Y-11107995D01*
X496405Y-11146090D01*
X496405Y-11174662D01*
X486881Y-11212757D01*
X477357Y-11231805D01*
X458309Y-11250852D01*
X429738Y-11260376D01*
X382119Y-11260376D01*
X582119Y-11260376D02*
X582119Y-11127043D01*
X582119Y-11165138D02*
X591643Y-11146090D01*
X601167Y-11136567D01*
X620214Y-11127043D01*
X639262Y-11127043D01*
X705928Y-11260376D02*
X705928Y-11127043D01*
X705928Y-11060376D02*
X696405Y-11069900D01*
X705928Y-11079424D01*
X715452Y-11069900D01*
X705928Y-11060376D01*
X705928Y-11079424D01*
X829738Y-11260376D02*
X810690Y-11250852D01*
X801167Y-11231805D01*
X801167Y-11060376D01*
X934500Y-11260376D02*
X915452Y-11250852D01*
X905928Y-11231805D01*
X905928Y-11060376D01*
X1163071Y-11260376D02*
X1163071Y-11060376D01*
X1229738Y-11203233D01*
X1296405Y-11060376D01*
X1296405Y-11260376D01*
X1477357Y-11260376D02*
X1477357Y-11155614D01*
X1467833Y-11136567D01*
X1448786Y-11127043D01*
X1410690Y-11127043D01*
X1391643Y-11136567D01*
X1477357Y-11250852D02*
X1458309Y-11260376D01*
X1410690Y-11260376D01*
X1391643Y-11250852D01*
X1382119Y-11231805D01*
X1382119Y-11212757D01*
X1391643Y-11193709D01*
X1410690Y-11184186D01*
X1458309Y-11184186D01*
X1477357Y-11174662D01*
X1572595Y-11127043D02*
X1572595Y-11327043D01*
X1572595Y-11136567D02*
X1591643Y-11127043D01*
X1629738Y-11127043D01*
X1648786Y-11136567D01*
X1658309Y-11146090D01*
X1667833Y-11165138D01*
X1667833Y-11222281D01*
X1658309Y-11241328D01*
X1648786Y-11250852D01*
X1629738Y-11260376D01*
X1591643Y-11260376D01*
X1572595Y-11250852D01*
X1753548Y-11241328D02*
X1763071Y-11250852D01*
X1753548Y-11260376D01*
X1744024Y-11250852D01*
X1753548Y-11241328D01*
X1753548Y-11260376D01*
X1753548Y-11136567D02*
X1763071Y-11146090D01*
X1753548Y-11155614D01*
X1744024Y-11146090D01*
X1753548Y-11136567D01*
X1753548Y-11155614D01*
D12*
X84500Y-11569900D02*
X124500Y-11609900D01*
X124500Y-11569900D02*
X84500Y-11609900D01*
D11*
X420214Y-11480376D02*
X439262Y-11480376D01*
X458309Y-11489900D01*
X467833Y-11499424D01*
X477357Y-11518471D01*
X486881Y-11556567D01*
X486881Y-11604186D01*
X477357Y-11642281D01*
X467833Y-11661328D01*
X458309Y-11670852D01*
X439262Y-11680376D01*
X420214Y-11680376D01*
X401167Y-11670852D01*
X391643Y-11661328D01*
X382119Y-11642281D01*
X372595Y-11604186D01*
X372595Y-11556567D01*
X382119Y-11518471D01*
X391643Y-11499424D01*
X401167Y-11489900D01*
X420214Y-11480376D01*
X572595Y-11661328D02*
X582119Y-11670852D01*
X572595Y-11680376D01*
X563071Y-11670852D01*
X572595Y-11661328D01*
X572595Y-11680376D01*
X753548Y-11547043D02*
X753548Y-11680376D01*
X705928Y-11470852D02*
X658310Y-11613709D01*
X782119Y-11613709D01*
X896405Y-11480376D02*
X915452Y-11480376D01*
X934500Y-11489900D01*
X944024Y-11499424D01*
X953548Y-11518471D01*
X963071Y-11556567D01*
X963071Y-11604186D01*
X953548Y-11642281D01*
X944024Y-11661328D01*
X934500Y-11670852D01*
X915452Y-11680376D01*
X896405Y-11680376D01*
X877357Y-11670852D01*
X867833Y-11661328D01*
X858309Y-11642281D01*
X848786Y-11604186D01*
X848786Y-11556567D01*
X858309Y-11518471D01*
X867833Y-11499424D01*
X877357Y-11489900D01*
X896405Y-11480376D01*
X1086881Y-11480376D02*
X1105929Y-11480376D01*
X1124976Y-11489900D01*
X1134500Y-11499424D01*
X1144024Y-11518471D01*
X1153548Y-11556567D01*
X1153548Y-11604186D01*
X1144024Y-11642281D01*
X1134500Y-11661328D01*
X1124976Y-11670852D01*
X1105929Y-11680376D01*
X1086881Y-11680376D01*
X1067833Y-11670852D01*
X1058310Y-11661328D01*
X1048786Y-11642281D01*
X1039262Y-11604186D01*
X1039262Y-11556567D01*
X1048786Y-11518471D01*
X1058310Y-11499424D01*
X1067833Y-11489900D01*
X1086881Y-11480376D01*
X1239262Y-11680376D02*
X1239262Y-11547043D01*
X1239262Y-11566090D02*
X1248786Y-11556567D01*
X1267833Y-11547043D01*
X1296405Y-11547043D01*
X1315452Y-11556567D01*
X1324976Y-11575614D01*
X1324976Y-11680376D01*
X1324976Y-11575614D02*
X1334500Y-11556567D01*
X1353548Y-11547043D01*
X1382119Y-11547043D01*
X1401167Y-11556567D01*
X1410690Y-11575614D01*
X1410690Y-11680376D01*
X1505928Y-11680376D02*
X1505928Y-11547043D01*
X1505928Y-11566090D02*
X1515452Y-11556567D01*
X1534500Y-11547043D01*
X1563071Y-11547043D01*
X1582119Y-11556567D01*
X1591643Y-11575614D01*
X1591643Y-11680376D01*
X1591643Y-11575614D02*
X1601167Y-11556567D01*
X1620214Y-11547043D01*
X1648786Y-11547043D01*
X1667833Y-11556567D01*
X1677357Y-11575614D01*
X1677357Y-11680376D01*
X2067833Y-11470852D02*
X1896405Y-11727995D01*
X2324976Y-11480376D02*
X2344024Y-11480376D01*
X2363071Y-11489900D01*
X2372595Y-11499424D01*
X2382119Y-11518471D01*
X2391643Y-11556567D01*
X2391643Y-11604186D01*
X2382119Y-11642281D01*
X2372595Y-11661328D01*
X2363071Y-11670852D01*
X2344024Y-11680376D01*
X2324976Y-11680376D01*
X2305929Y-11670852D01*
X2296405Y-11661328D01*
X2286881Y-11642281D01*
X2277357Y-11604186D01*
X2277357Y-11556567D01*
X2286881Y-11518471D01*
X2296405Y-11499424D01*
X2305929Y-11489900D01*
X2324976Y-11480376D01*
X2477357Y-11661328D02*
X2486881Y-11670852D01*
X2477357Y-11680376D01*
X2467833Y-11670852D01*
X2477357Y-11661328D01*
X2477357Y-11680376D01*
X2610690Y-11480376D02*
X2629738Y-11480376D01*
X2648786Y-11489900D01*
X2658310Y-11499424D01*
X2667833Y-11518471D01*
X2677357Y-11556567D01*
X2677357Y-11604186D01*
X2667833Y-11642281D01*
X2658310Y-11661328D01*
X2648786Y-11670852D01*
X2629738Y-11680376D01*
X2610690Y-11680376D01*
X2591643Y-11670852D01*
X2582119Y-11661328D01*
X2572595Y-11642281D01*
X2563071Y-11604186D01*
X2563071Y-11556567D01*
X2572595Y-11518471D01*
X2582119Y-11499424D01*
X2591643Y-11489900D01*
X2610690Y-11480376D01*
X2867833Y-11680376D02*
X2753548Y-11680376D01*
X2810690Y-11680376D02*
X2810690Y-11480376D01*
X2791643Y-11508948D01*
X2772595Y-11527995D01*
X2753548Y-11537519D01*
X3048786Y-11480376D02*
X2953548Y-11480376D01*
X2944024Y-11575614D01*
X2953548Y-11566090D01*
X2972595Y-11556567D01*
X3020214Y-11556567D01*
X3039262Y-11566090D01*
X3048786Y-11575614D01*
X3058309Y-11594662D01*
X3058309Y-11642281D01*
X3048786Y-11661328D01*
X3039262Y-11670852D01*
X3020214Y-11680376D01*
X2972595Y-11680376D01*
X2953548Y-11670852D01*
X2944024Y-11661328D01*
X3124976Y-11480376D02*
X3258309Y-11480376D01*
X3172595Y-11680376D01*
X3324976Y-11480376D02*
X3324976Y-11518471D01*
X3401167Y-11480376D02*
X3401167Y-11518471D01*
X3696405Y-11756567D02*
X3686881Y-11747043D01*
X3667833Y-11718471D01*
X3658309Y-11699424D01*
X3648786Y-11670852D01*
X3639262Y-11623233D01*
X3639262Y-11585138D01*
X3648786Y-11537519D01*
X3658309Y-11508948D01*
X3667833Y-11489900D01*
X3686881Y-11461328D01*
X3696405Y-11451805D01*
X3877357Y-11680376D02*
X3763071Y-11680376D01*
X3820214Y-11680376D02*
X3820214Y-11480376D01*
X3801167Y-11508948D01*
X3782119Y-11527995D01*
X3763071Y-11537519D01*
X3972595Y-11680376D02*
X4010690Y-11680376D01*
X4029738Y-11670852D01*
X4039262Y-11661328D01*
X4058309Y-11632757D01*
X4067833Y-11594662D01*
X4067833Y-11518471D01*
X4058309Y-11499424D01*
X4048786Y-11489900D01*
X4029738Y-11480376D01*
X3991643Y-11480376D01*
X3972595Y-11489900D01*
X3963071Y-11499424D01*
X3953548Y-11518471D01*
X3953548Y-11566090D01*
X3963071Y-11585138D01*
X3972595Y-11594662D01*
X3991643Y-11604186D01*
X4029738Y-11604186D01*
X4048786Y-11594662D01*
X4058309Y-11585138D01*
X4067833Y-11566090D01*
X4134500Y-11480376D02*
X4258310Y-11480376D01*
X4191643Y-11556567D01*
X4220214Y-11556567D01*
X4239262Y-11566090D01*
X4248786Y-11575614D01*
X4258310Y-11594662D01*
X4258310Y-11642281D01*
X4248786Y-11661328D01*
X4239262Y-11670852D01*
X4220214Y-11680376D01*
X4163071Y-11680376D01*
X4144024Y-11670852D01*
X4134500Y-11661328D01*
X4496405Y-11680376D02*
X4496405Y-11480376D01*
X4582119Y-11680376D02*
X4582119Y-11575614D01*
X4572595Y-11556567D01*
X4553548Y-11547043D01*
X4524976Y-11547043D01*
X4505929Y-11556567D01*
X4496405Y-11566090D01*
X4705929Y-11680376D02*
X4686881Y-11670852D01*
X4677357Y-11661328D01*
X4667833Y-11642281D01*
X4667833Y-11585138D01*
X4677357Y-11566090D01*
X4686881Y-11556567D01*
X4705929Y-11547043D01*
X4734500Y-11547043D01*
X4753548Y-11556567D01*
X4763071Y-11566090D01*
X4772595Y-11585138D01*
X4772595Y-11642281D01*
X4763071Y-11661328D01*
X4753548Y-11670852D01*
X4734500Y-11680376D01*
X4705929Y-11680376D01*
X4886881Y-11680376D02*
X4867833Y-11670852D01*
X4858310Y-11651805D01*
X4858310Y-11480376D01*
X5039262Y-11670852D02*
X5020214Y-11680376D01*
X4982119Y-11680376D01*
X4963071Y-11670852D01*
X4953548Y-11651805D01*
X4953548Y-11575614D01*
X4963071Y-11556567D01*
X4982119Y-11547043D01*
X5020214Y-11547043D01*
X5039262Y-11556567D01*
X5048786Y-11575614D01*
X5048786Y-11594662D01*
X4953548Y-11613709D01*
X5124976Y-11670852D02*
X5144024Y-11680376D01*
X5182119Y-11680376D01*
X5201167Y-11670852D01*
X5210690Y-11651805D01*
X5210690Y-11642281D01*
X5201167Y-11623233D01*
X5182119Y-11613709D01*
X5153548Y-11613709D01*
X5134500Y-11604186D01*
X5124976Y-11585138D01*
X5124976Y-11575614D01*
X5134500Y-11556567D01*
X5153548Y-11547043D01*
X5182119Y-11547043D01*
X5201167Y-11556567D01*
X5277357Y-11756567D02*
X5286881Y-11747043D01*
X5305929Y-11718471D01*
X5315452Y-11699424D01*
X5324976Y-11670852D01*
X5334500Y-11623233D01*
X5334500Y-11585138D01*
X5324976Y-11537519D01*
X5315452Y-11508948D01*
X5305929Y-11489900D01*
X5286881Y-11461328D01*
X5277357Y-11451805D01*
D13*
X124500Y-11853900D02*
G75*
G03*
X124500Y-11853900I-35500J0D01*
G01*
D11*
X420214Y-11744376D02*
X439262Y-11744376D01*
X458309Y-11753900D01*
X467833Y-11763424D01*
X477357Y-11782471D01*
X486881Y-11820567D01*
X486881Y-11868186D01*
X477357Y-11906281D01*
X467833Y-11925328D01*
X458309Y-11934852D01*
X439262Y-11944376D01*
X420214Y-11944376D01*
X401167Y-11934852D01*
X391643Y-11925328D01*
X382119Y-11906281D01*
X372595Y-11868186D01*
X372595Y-11820567D01*
X382119Y-11782471D01*
X391643Y-11763424D01*
X401167Y-11753900D01*
X420214Y-11744376D01*
X572595Y-11925328D02*
X582119Y-11934852D01*
X572595Y-11944376D01*
X563071Y-11934852D01*
X572595Y-11925328D01*
X572595Y-11944376D01*
X648786Y-11744376D02*
X782119Y-11744376D01*
X696405Y-11944376D01*
X963071Y-11944376D02*
X848786Y-11944376D01*
X905928Y-11944376D02*
X905928Y-11744376D01*
X886881Y-11772948D01*
X867833Y-11791995D01*
X848786Y-11801519D01*
X1086881Y-11744376D02*
X1105929Y-11744376D01*
X1124976Y-11753900D01*
X1134500Y-11763424D01*
X1144024Y-11782471D01*
X1153548Y-11820567D01*
X1153548Y-11868186D01*
X1144024Y-11906281D01*
X1134500Y-11925328D01*
X1124976Y-11934852D01*
X1105929Y-11944376D01*
X1086881Y-11944376D01*
X1067833Y-11934852D01*
X1058310Y-11925328D01*
X1048786Y-11906281D01*
X1039262Y-11868186D01*
X1039262Y-11820567D01*
X1048786Y-11782471D01*
X1058310Y-11763424D01*
X1067833Y-11753900D01*
X1086881Y-11744376D01*
X1239262Y-11944376D02*
X1239262Y-11811043D01*
X1239262Y-11830090D02*
X1248786Y-11820567D01*
X1267833Y-11811043D01*
X1296405Y-11811043D01*
X1315452Y-11820567D01*
X1324976Y-11839614D01*
X1324976Y-11944376D01*
X1324976Y-11839614D02*
X1334500Y-11820567D01*
X1353548Y-11811043D01*
X1382119Y-11811043D01*
X1401167Y-11820567D01*
X1410690Y-11839614D01*
X1410690Y-11944376D01*
X1505928Y-11944376D02*
X1505928Y-11811043D01*
X1505928Y-11830090D02*
X1515452Y-11820567D01*
X1534500Y-11811043D01*
X1563071Y-11811043D01*
X1582119Y-11820567D01*
X1591643Y-11839614D01*
X1591643Y-11944376D01*
X1591643Y-11839614D02*
X1601167Y-11820567D01*
X1620214Y-11811043D01*
X1648786Y-11811043D01*
X1667833Y-11820567D01*
X1677357Y-11839614D01*
X1677357Y-11944376D01*
X2067833Y-11734852D02*
X1896405Y-11991995D01*
X2324976Y-11744376D02*
X2344024Y-11744376D01*
X2363071Y-11753900D01*
X2372595Y-11763424D01*
X2382119Y-11782471D01*
X2391643Y-11820567D01*
X2391643Y-11868186D01*
X2382119Y-11906281D01*
X2372595Y-11925328D01*
X2363071Y-11934852D01*
X2344024Y-11944376D01*
X2324976Y-11944376D01*
X2305929Y-11934852D01*
X2296405Y-11925328D01*
X2286881Y-11906281D01*
X2277357Y-11868186D01*
X2277357Y-11820567D01*
X2286881Y-11782471D01*
X2296405Y-11763424D01*
X2305929Y-11753900D01*
X2324976Y-11744376D01*
X2477357Y-11925328D02*
X2486881Y-11934852D01*
X2477357Y-11944376D01*
X2467833Y-11934852D01*
X2477357Y-11925328D01*
X2477357Y-11944376D01*
X2610690Y-11744376D02*
X2629738Y-11744376D01*
X2648786Y-11753900D01*
X2658310Y-11763424D01*
X2667833Y-11782471D01*
X2677357Y-11820567D01*
X2677357Y-11868186D01*
X2667833Y-11906281D01*
X2658310Y-11925328D01*
X2648786Y-11934852D01*
X2629738Y-11944376D01*
X2610690Y-11944376D01*
X2591643Y-11934852D01*
X2582119Y-11925328D01*
X2572595Y-11906281D01*
X2563071Y-11868186D01*
X2563071Y-11820567D01*
X2572595Y-11782471D01*
X2582119Y-11763424D01*
X2591643Y-11753900D01*
X2610690Y-11744376D01*
X2753548Y-11763424D02*
X2763071Y-11753900D01*
X2782119Y-11744376D01*
X2829738Y-11744376D01*
X2848786Y-11753900D01*
X2858309Y-11763424D01*
X2867833Y-11782471D01*
X2867833Y-11801519D01*
X2858309Y-11830090D01*
X2744024Y-11944376D01*
X2867833Y-11944376D01*
X2982119Y-11830090D02*
X2963071Y-11820567D01*
X2953548Y-11811043D01*
X2944024Y-11791995D01*
X2944024Y-11782471D01*
X2953548Y-11763424D01*
X2963071Y-11753900D01*
X2982119Y-11744376D01*
X3020214Y-11744376D01*
X3039262Y-11753900D01*
X3048786Y-11763424D01*
X3058309Y-11782471D01*
X3058309Y-11791995D01*
X3048786Y-11811043D01*
X3039262Y-11820567D01*
X3020214Y-11830090D01*
X2982119Y-11830090D01*
X2963071Y-11839614D01*
X2953548Y-11849138D01*
X2944024Y-11868186D01*
X2944024Y-11906281D01*
X2953548Y-11925328D01*
X2963071Y-11934852D01*
X2982119Y-11944376D01*
X3020214Y-11944376D01*
X3039262Y-11934852D01*
X3048786Y-11925328D01*
X3058309Y-11906281D01*
X3058309Y-11868186D01*
X3048786Y-11849138D01*
X3039262Y-11839614D01*
X3020214Y-11830090D01*
X3182119Y-11744376D02*
X3201167Y-11744376D01*
X3220214Y-11753900D01*
X3229738Y-11763424D01*
X3239262Y-11782471D01*
X3248786Y-11820567D01*
X3248786Y-11868186D01*
X3239262Y-11906281D01*
X3229738Y-11925328D01*
X3220214Y-11934852D01*
X3201167Y-11944376D01*
X3182119Y-11944376D01*
X3163071Y-11934852D01*
X3153548Y-11925328D01*
X3144024Y-11906281D01*
X3134500Y-11868186D01*
X3134500Y-11820567D01*
X3144024Y-11782471D01*
X3153548Y-11763424D01*
X3163071Y-11753900D01*
X3182119Y-11744376D01*
X3324976Y-11744376D02*
X3324976Y-11782471D01*
X3401167Y-11744376D02*
X3401167Y-11782471D01*
X3696405Y-12020567D02*
X3686881Y-12011043D01*
X3667833Y-11982471D01*
X3658309Y-11963424D01*
X3648786Y-11934852D01*
X3639262Y-11887233D01*
X3639262Y-11849138D01*
X3648786Y-11801519D01*
X3658309Y-11772948D01*
X3667833Y-11753900D01*
X3686881Y-11725328D01*
X3696405Y-11715805D01*
X3810690Y-11744376D02*
X3829738Y-11744376D01*
X3848786Y-11753900D01*
X3858309Y-11763424D01*
X3867833Y-11782471D01*
X3877357Y-11820567D01*
X3877357Y-11868186D01*
X3867833Y-11906281D01*
X3858309Y-11925328D01*
X3848786Y-11934852D01*
X3829738Y-11944376D01*
X3810690Y-11944376D01*
X3791643Y-11934852D01*
X3782119Y-11925328D01*
X3772595Y-11906281D01*
X3763071Y-11868186D01*
X3763071Y-11820567D01*
X3772595Y-11782471D01*
X3782119Y-11763424D01*
X3791643Y-11753900D01*
X3810690Y-11744376D01*
X4115452Y-11944376D02*
X4115452Y-11744376D01*
X4201167Y-11944376D02*
X4201167Y-11839614D01*
X4191643Y-11820567D01*
X4172595Y-11811043D01*
X4144024Y-11811043D01*
X4124976Y-11820567D01*
X4115452Y-11830090D01*
X4324976Y-11944376D02*
X4305929Y-11934852D01*
X4296405Y-11925328D01*
X4286881Y-11906281D01*
X4286881Y-11849138D01*
X4296405Y-11830090D01*
X4305929Y-11820567D01*
X4324976Y-11811043D01*
X4353548Y-11811043D01*
X4372595Y-11820567D01*
X4382119Y-11830090D01*
X4391643Y-11849138D01*
X4391643Y-11906281D01*
X4382119Y-11925328D01*
X4372595Y-11934852D01*
X4353548Y-11944376D01*
X4324976Y-11944376D01*
X4505929Y-11944376D02*
X4486881Y-11934852D01*
X4477357Y-11915805D01*
X4477357Y-11744376D01*
X4658310Y-11934852D02*
X4639262Y-11944376D01*
X4601167Y-11944376D01*
X4582119Y-11934852D01*
X4572595Y-11915805D01*
X4572595Y-11839614D01*
X4582119Y-11820567D01*
X4601167Y-11811043D01*
X4639262Y-11811043D01*
X4658310Y-11820567D01*
X4667833Y-11839614D01*
X4667833Y-11858662D01*
X4572595Y-11877709D01*
X4744024Y-11934852D02*
X4763071Y-11944376D01*
X4801167Y-11944376D01*
X4820214Y-11934852D01*
X4829738Y-11915805D01*
X4829738Y-11906281D01*
X4820214Y-11887233D01*
X4801167Y-11877709D01*
X4772595Y-11877709D01*
X4753548Y-11868186D01*
X4744024Y-11849138D01*
X4744024Y-11839614D01*
X4753548Y-11820567D01*
X4772595Y-11811043D01*
X4801167Y-11811043D01*
X4820214Y-11820567D01*
X5067833Y-11868186D02*
X5220214Y-11868186D01*
X5144024Y-11944376D02*
X5144024Y-11791995D01*
X5553548Y-11811043D02*
X5553548Y-11944376D01*
X5505929Y-11734852D02*
X5458310Y-11877709D01*
X5582119Y-11877709D01*
X5801167Y-11934852D02*
X5820214Y-11944376D01*
X5858309Y-11944376D01*
X5877357Y-11934852D01*
X5886881Y-11915805D01*
X5886881Y-11906281D01*
X5877357Y-11887233D01*
X5858309Y-11877709D01*
X5829738Y-11877709D01*
X5810690Y-11868186D01*
X5801167Y-11849138D01*
X5801167Y-11839614D01*
X5810690Y-11820567D01*
X5829738Y-11811043D01*
X5858309Y-11811043D01*
X5877357Y-11820567D01*
X6001167Y-11944376D02*
X5982119Y-11934852D01*
X5972595Y-11915805D01*
X5972595Y-11744376D01*
X6105928Y-11944376D02*
X6086881Y-11934852D01*
X6077357Y-11925328D01*
X6067833Y-11906281D01*
X6067833Y-11849138D01*
X6077357Y-11830090D01*
X6086881Y-11820567D01*
X6105928Y-11811043D01*
X6134500Y-11811043D01*
X6153548Y-11820567D01*
X6163071Y-11830090D01*
X6172595Y-11849138D01*
X6172595Y-11906281D01*
X6163071Y-11925328D01*
X6153548Y-11934852D01*
X6134500Y-11944376D01*
X6105928Y-11944376D01*
X6229738Y-11811043D02*
X6305928Y-11811043D01*
X6258309Y-11744376D02*
X6258309Y-11915805D01*
X6267833Y-11934852D01*
X6286881Y-11944376D01*
X6305928Y-11944376D01*
X6363071Y-11934852D02*
X6382119Y-11944376D01*
X6420214Y-11944376D01*
X6439262Y-11934852D01*
X6448786Y-11915805D01*
X6448786Y-11906281D01*
X6439262Y-11887233D01*
X6420214Y-11877709D01*
X6391643Y-11877709D01*
X6372595Y-11868186D01*
X6363071Y-11849138D01*
X6363071Y-11839614D01*
X6372595Y-11820567D01*
X6391643Y-11811043D01*
X6420214Y-11811043D01*
X6439262Y-11820567D01*
X6515452Y-12020567D02*
X6524976Y-12011043D01*
X6544024Y-11982471D01*
X6553548Y-11963424D01*
X6563071Y-11934852D01*
X6572595Y-11887233D01*
X6572595Y-11849138D01*
X6563071Y-11801519D01*
X6553548Y-11772948D01*
X6544024Y-11753900D01*
X6524976Y-11725328D01*
X6515452Y-11715805D01*
D14*
X84500Y-12077900D02*
X84500Y-12157900D01*
X44500Y-12117900D02*
X124500Y-12117900D01*
D11*
X420214Y-12008376D02*
X439262Y-12008376D01*
X458309Y-12017900D01*
X467833Y-12027424D01*
X477357Y-12046471D01*
X486881Y-12084567D01*
X486881Y-12132186D01*
X477357Y-12170281D01*
X467833Y-12189328D01*
X458309Y-12198852D01*
X439262Y-12208376D01*
X420214Y-12208376D01*
X401167Y-12198852D01*
X391643Y-12189328D01*
X382119Y-12170281D01*
X372595Y-12132186D01*
X372595Y-12084567D01*
X382119Y-12046471D01*
X391643Y-12027424D01*
X401167Y-12017900D01*
X420214Y-12008376D01*
X572595Y-12189328D02*
X582119Y-12198852D01*
X572595Y-12208376D01*
X563071Y-12198852D01*
X572595Y-12189328D01*
X572595Y-12208376D01*
X696405Y-12094090D02*
X677357Y-12084567D01*
X667833Y-12075043D01*
X658310Y-12055995D01*
X658310Y-12046471D01*
X667833Y-12027424D01*
X677357Y-12017900D01*
X696405Y-12008376D01*
X734500Y-12008376D01*
X753548Y-12017900D01*
X763071Y-12027424D01*
X772595Y-12046471D01*
X772595Y-12055995D01*
X763071Y-12075043D01*
X753548Y-12084567D01*
X734500Y-12094090D01*
X696405Y-12094090D01*
X677357Y-12103614D01*
X667833Y-12113138D01*
X658310Y-12132186D01*
X658310Y-12170281D01*
X667833Y-12189328D01*
X677357Y-12198852D01*
X696405Y-12208376D01*
X734500Y-12208376D01*
X753548Y-12198852D01*
X763071Y-12189328D01*
X772595Y-12170281D01*
X772595Y-12132186D01*
X763071Y-12113138D01*
X753548Y-12103614D01*
X734500Y-12094090D01*
X896405Y-12008376D02*
X915452Y-12008376D01*
X934500Y-12017900D01*
X944024Y-12027424D01*
X953548Y-12046471D01*
X963071Y-12084567D01*
X963071Y-12132186D01*
X953548Y-12170281D01*
X944024Y-12189328D01*
X934500Y-12198852D01*
X915452Y-12208376D01*
X896405Y-12208376D01*
X877357Y-12198852D01*
X867833Y-12189328D01*
X858309Y-12170281D01*
X848786Y-12132186D01*
X848786Y-12084567D01*
X858309Y-12046471D01*
X867833Y-12027424D01*
X877357Y-12017900D01*
X896405Y-12008376D01*
X1086881Y-12008376D02*
X1105929Y-12008376D01*
X1124976Y-12017900D01*
X1134500Y-12027424D01*
X1144024Y-12046471D01*
X1153548Y-12084567D01*
X1153548Y-12132186D01*
X1144024Y-12170281D01*
X1134500Y-12189328D01*
X1124976Y-12198852D01*
X1105929Y-12208376D01*
X1086881Y-12208376D01*
X1067833Y-12198852D01*
X1058310Y-12189328D01*
X1048786Y-12170281D01*
X1039262Y-12132186D01*
X1039262Y-12084567D01*
X1048786Y-12046471D01*
X1058310Y-12027424D01*
X1067833Y-12017900D01*
X1086881Y-12008376D01*
X1239262Y-12208376D02*
X1239262Y-12075043D01*
X1239262Y-12094090D02*
X1248786Y-12084567D01*
X1267833Y-12075043D01*
X1296405Y-12075043D01*
X1315452Y-12084567D01*
X1324976Y-12103614D01*
X1324976Y-12208376D01*
X1324976Y-12103614D02*
X1334500Y-12084567D01*
X1353548Y-12075043D01*
X1382119Y-12075043D01*
X1401167Y-12084567D01*
X1410690Y-12103614D01*
X1410690Y-12208376D01*
X1505928Y-12208376D02*
X1505928Y-12075043D01*
X1505928Y-12094090D02*
X1515452Y-12084567D01*
X1534500Y-12075043D01*
X1563071Y-12075043D01*
X1582119Y-12084567D01*
X1591643Y-12103614D01*
X1591643Y-12208376D01*
X1591643Y-12103614D02*
X1601167Y-12084567D01*
X1620214Y-12075043D01*
X1648786Y-12075043D01*
X1667833Y-12084567D01*
X1677357Y-12103614D01*
X1677357Y-12208376D01*
X2067833Y-11998852D02*
X1896405Y-12255995D01*
X2324976Y-12008376D02*
X2344024Y-12008376D01*
X2363071Y-12017900D01*
X2372595Y-12027424D01*
X2382119Y-12046471D01*
X2391643Y-12084567D01*
X2391643Y-12132186D01*
X2382119Y-12170281D01*
X2372595Y-12189328D01*
X2363071Y-12198852D01*
X2344024Y-12208376D01*
X2324976Y-12208376D01*
X2305929Y-12198852D01*
X2296405Y-12189328D01*
X2286881Y-12170281D01*
X2277357Y-12132186D01*
X2277357Y-12084567D01*
X2286881Y-12046471D01*
X2296405Y-12027424D01*
X2305929Y-12017900D01*
X2324976Y-12008376D01*
X2477357Y-12189328D02*
X2486881Y-12198852D01*
X2477357Y-12208376D01*
X2467833Y-12198852D01*
X2477357Y-12189328D01*
X2477357Y-12208376D01*
X2610690Y-12008376D02*
X2629738Y-12008376D01*
X2648786Y-12017900D01*
X2658310Y-12027424D01*
X2667833Y-12046471D01*
X2677357Y-12084567D01*
X2677357Y-12132186D01*
X2667833Y-12170281D01*
X2658310Y-12189328D01*
X2648786Y-12198852D01*
X2629738Y-12208376D01*
X2610690Y-12208376D01*
X2591643Y-12198852D01*
X2582119Y-12189328D01*
X2572595Y-12170281D01*
X2563071Y-12132186D01*
X2563071Y-12084567D01*
X2572595Y-12046471D01*
X2582119Y-12027424D01*
X2591643Y-12017900D01*
X2610690Y-12008376D01*
X2744024Y-12008376D02*
X2867833Y-12008376D01*
X2801167Y-12084567D01*
X2829738Y-12084567D01*
X2848786Y-12094090D01*
X2858309Y-12103614D01*
X2867833Y-12122662D01*
X2867833Y-12170281D01*
X2858309Y-12189328D01*
X2848786Y-12198852D01*
X2829738Y-12208376D01*
X2772595Y-12208376D01*
X2753548Y-12198852D01*
X2744024Y-12189328D01*
X3058309Y-12208376D02*
X2944024Y-12208376D01*
X3001167Y-12208376D02*
X3001167Y-12008376D01*
X2982119Y-12036948D01*
X2963071Y-12055995D01*
X2944024Y-12065519D01*
X3239262Y-12008376D02*
X3144024Y-12008376D01*
X3134500Y-12103614D01*
X3144024Y-12094090D01*
X3163071Y-12084567D01*
X3210690Y-12084567D01*
X3229738Y-12094090D01*
X3239262Y-12103614D01*
X3248786Y-12122662D01*
X3248786Y-12170281D01*
X3239262Y-12189328D01*
X3229738Y-12198852D01*
X3210690Y-12208376D01*
X3163071Y-12208376D01*
X3144024Y-12198852D01*
X3134500Y-12189328D01*
X3324976Y-12008376D02*
X3324976Y-12046471D01*
X3401167Y-12008376D02*
X3401167Y-12046471D01*
X3696405Y-12284567D02*
X3686881Y-12275043D01*
X3667833Y-12246471D01*
X3658309Y-12227424D01*
X3648786Y-12198852D01*
X3639262Y-12151233D01*
X3639262Y-12113138D01*
X3648786Y-12065519D01*
X3658309Y-12036948D01*
X3667833Y-12017900D01*
X3686881Y-11989328D01*
X3696405Y-11979805D01*
X3877357Y-12208376D02*
X3763071Y-12208376D01*
X3820214Y-12208376D02*
X3820214Y-12008376D01*
X3801167Y-12036948D01*
X3782119Y-12055995D01*
X3763071Y-12065519D01*
X4048786Y-12008376D02*
X4010690Y-12008376D01*
X3991643Y-12017900D01*
X3982119Y-12027424D01*
X3963071Y-12055995D01*
X3953548Y-12094090D01*
X3953548Y-12170281D01*
X3963071Y-12189328D01*
X3972595Y-12198852D01*
X3991643Y-12208376D01*
X4029738Y-12208376D01*
X4048786Y-12198852D01*
X4058309Y-12189328D01*
X4067833Y-12170281D01*
X4067833Y-12122662D01*
X4058309Y-12103614D01*
X4048786Y-12094090D01*
X4029738Y-12084567D01*
X3991643Y-12084567D01*
X3972595Y-12094090D01*
X3963071Y-12103614D01*
X3953548Y-12122662D01*
X4258310Y-12208376D02*
X4144024Y-12208376D01*
X4201167Y-12208376D02*
X4201167Y-12008376D01*
X4182119Y-12036948D01*
X4163071Y-12055995D01*
X4144024Y-12065519D01*
X4496405Y-12208376D02*
X4496405Y-12008376D01*
X4582119Y-12208376D02*
X4582119Y-12103614D01*
X4572595Y-12084567D01*
X4553548Y-12075043D01*
X4524976Y-12075043D01*
X4505929Y-12084567D01*
X4496405Y-12094090D01*
X4705929Y-12208376D02*
X4686881Y-12198852D01*
X4677357Y-12189328D01*
X4667833Y-12170281D01*
X4667833Y-12113138D01*
X4677357Y-12094090D01*
X4686881Y-12084567D01*
X4705929Y-12075043D01*
X4734500Y-12075043D01*
X4753548Y-12084567D01*
X4763071Y-12094090D01*
X4772595Y-12113138D01*
X4772595Y-12170281D01*
X4763071Y-12189328D01*
X4753548Y-12198852D01*
X4734500Y-12208376D01*
X4705929Y-12208376D01*
X4886881Y-12208376D02*
X4867833Y-12198852D01*
X4858310Y-12179805D01*
X4858310Y-12008376D01*
X5039262Y-12198852D02*
X5020214Y-12208376D01*
X4982119Y-12208376D01*
X4963071Y-12198852D01*
X4953548Y-12179805D01*
X4953548Y-12103614D01*
X4963071Y-12084567D01*
X4982119Y-12075043D01*
X5020214Y-12075043D01*
X5039262Y-12084567D01*
X5048786Y-12103614D01*
X5048786Y-12122662D01*
X4953548Y-12141709D01*
X5124976Y-12198852D02*
X5144024Y-12208376D01*
X5182119Y-12208376D01*
X5201167Y-12198852D01*
X5210690Y-12179805D01*
X5210690Y-12170281D01*
X5201167Y-12151233D01*
X5182119Y-12141709D01*
X5153548Y-12141709D01*
X5134500Y-12132186D01*
X5124976Y-12113138D01*
X5124976Y-12103614D01*
X5134500Y-12084567D01*
X5153548Y-12075043D01*
X5182119Y-12075043D01*
X5201167Y-12084567D01*
X5277357Y-12284567D02*
X5286881Y-12275043D01*
X5305929Y-12246471D01*
X5315452Y-12227424D01*
X5324976Y-12198852D01*
X5334500Y-12151233D01*
X5334500Y-12113138D01*
X5324976Y-12065519D01*
X5315452Y-12036948D01*
X5305929Y-12017900D01*
X5286881Y-11989328D01*
X5277357Y-11979805D01*
D15*
X111320Y-12413720D02*
X111320Y-12350080D01*
X47680Y-12350080D01*
X47680Y-12413720D01*
X111320Y-12413720D01*
D11*
X420214Y-12272376D02*
X439262Y-12272376D01*
X458309Y-12281900D01*
X467833Y-12291424D01*
X477357Y-12310471D01*
X486881Y-12348567D01*
X486881Y-12396186D01*
X477357Y-12434281D01*
X467833Y-12453328D01*
X458309Y-12462852D01*
X439262Y-12472376D01*
X420214Y-12472376D01*
X401167Y-12462852D01*
X391643Y-12453328D01*
X382119Y-12434281D01*
X372595Y-12396186D01*
X372595Y-12348567D01*
X382119Y-12310471D01*
X391643Y-12291424D01*
X401167Y-12281900D01*
X420214Y-12272376D01*
X572595Y-12453328D02*
X582119Y-12462852D01*
X572595Y-12472376D01*
X563071Y-12462852D01*
X572595Y-12453328D01*
X572595Y-12472376D01*
X677357Y-12472376D02*
X715452Y-12472376D01*
X734500Y-12462852D01*
X744024Y-12453328D01*
X763071Y-12424757D01*
X772595Y-12386662D01*
X772595Y-12310471D01*
X763071Y-12291424D01*
X753548Y-12281900D01*
X734500Y-12272376D01*
X696405Y-12272376D01*
X677357Y-12281900D01*
X667833Y-12291424D01*
X658310Y-12310471D01*
X658310Y-12358090D01*
X667833Y-12377138D01*
X677357Y-12386662D01*
X696405Y-12396186D01*
X734500Y-12396186D01*
X753548Y-12386662D01*
X763071Y-12377138D01*
X772595Y-12358090D01*
X896405Y-12272376D02*
X915452Y-12272376D01*
X934500Y-12281900D01*
X944024Y-12291424D01*
X953548Y-12310471D01*
X963071Y-12348567D01*
X963071Y-12396186D01*
X953548Y-12434281D01*
X944024Y-12453328D01*
X934500Y-12462852D01*
X915452Y-12472376D01*
X896405Y-12472376D01*
X877357Y-12462852D01*
X867833Y-12453328D01*
X858309Y-12434281D01*
X848786Y-12396186D01*
X848786Y-12348567D01*
X858309Y-12310471D01*
X867833Y-12291424D01*
X877357Y-12281900D01*
X896405Y-12272376D01*
X1086881Y-12272376D02*
X1105929Y-12272376D01*
X1124976Y-12281900D01*
X1134500Y-12291424D01*
X1144024Y-12310471D01*
X1153548Y-12348567D01*
X1153548Y-12396186D01*
X1144024Y-12434281D01*
X1134500Y-12453328D01*
X1124976Y-12462852D01*
X1105929Y-12472376D01*
X1086881Y-12472376D01*
X1067833Y-12462852D01*
X1058310Y-12453328D01*
X1048786Y-12434281D01*
X1039262Y-12396186D01*
X1039262Y-12348567D01*
X1048786Y-12310471D01*
X1058310Y-12291424D01*
X1067833Y-12281900D01*
X1086881Y-12272376D01*
X1239262Y-12472376D02*
X1239262Y-12339043D01*
X1239262Y-12358090D02*
X1248786Y-12348567D01*
X1267833Y-12339043D01*
X1296405Y-12339043D01*
X1315452Y-12348567D01*
X1324976Y-12367614D01*
X1324976Y-12472376D01*
X1324976Y-12367614D02*
X1334500Y-12348567D01*
X1353548Y-12339043D01*
X1382119Y-12339043D01*
X1401167Y-12348567D01*
X1410690Y-12367614D01*
X1410690Y-12472376D01*
X1505928Y-12472376D02*
X1505928Y-12339043D01*
X1505928Y-12358090D02*
X1515452Y-12348567D01*
X1534500Y-12339043D01*
X1563071Y-12339043D01*
X1582119Y-12348567D01*
X1591643Y-12367614D01*
X1591643Y-12472376D01*
X1591643Y-12367614D02*
X1601167Y-12348567D01*
X1620214Y-12339043D01*
X1648786Y-12339043D01*
X1667833Y-12348567D01*
X1677357Y-12367614D01*
X1677357Y-12472376D01*
X2067833Y-12262852D02*
X1896405Y-12519995D01*
X2324976Y-12272376D02*
X2344024Y-12272376D01*
X2363071Y-12281900D01*
X2372595Y-12291424D01*
X2382119Y-12310471D01*
X2391643Y-12348567D01*
X2391643Y-12396186D01*
X2382119Y-12434281D01*
X2372595Y-12453328D01*
X2363071Y-12462852D01*
X2344024Y-12472376D01*
X2324976Y-12472376D01*
X2305929Y-12462852D01*
X2296405Y-12453328D01*
X2286881Y-12434281D01*
X2277357Y-12396186D01*
X2277357Y-12348567D01*
X2286881Y-12310471D01*
X2296405Y-12291424D01*
X2305929Y-12281900D01*
X2324976Y-12272376D01*
X2477357Y-12453328D02*
X2486881Y-12462852D01*
X2477357Y-12472376D01*
X2467833Y-12462852D01*
X2477357Y-12453328D01*
X2477357Y-12472376D01*
X2610690Y-12272376D02*
X2629738Y-12272376D01*
X2648786Y-12281900D01*
X2658310Y-12291424D01*
X2667833Y-12310471D01*
X2677357Y-12348567D01*
X2677357Y-12396186D01*
X2667833Y-12434281D01*
X2658310Y-12453328D01*
X2648786Y-12462852D01*
X2629738Y-12472376D01*
X2610690Y-12472376D01*
X2591643Y-12462852D01*
X2582119Y-12453328D01*
X2572595Y-12434281D01*
X2563071Y-12396186D01*
X2563071Y-12348567D01*
X2572595Y-12310471D01*
X2582119Y-12291424D01*
X2591643Y-12281900D01*
X2610690Y-12272376D01*
X2744024Y-12272376D02*
X2867833Y-12272376D01*
X2801167Y-12348567D01*
X2829738Y-12348567D01*
X2848786Y-12358090D01*
X2858309Y-12367614D01*
X2867833Y-12386662D01*
X2867833Y-12434281D01*
X2858309Y-12453328D01*
X2848786Y-12462852D01*
X2829738Y-12472376D01*
X2772595Y-12472376D01*
X2753548Y-12462852D01*
X2744024Y-12453328D01*
X3048786Y-12272376D02*
X2953548Y-12272376D01*
X2944024Y-12367614D01*
X2953548Y-12358090D01*
X2972595Y-12348567D01*
X3020214Y-12348567D01*
X3039262Y-12358090D01*
X3048786Y-12367614D01*
X3058309Y-12386662D01*
X3058309Y-12434281D01*
X3048786Y-12453328D01*
X3039262Y-12462852D01*
X3020214Y-12472376D01*
X2972595Y-12472376D01*
X2953548Y-12462852D01*
X2944024Y-12453328D01*
X3229738Y-12339043D02*
X3229738Y-12472376D01*
X3182119Y-12262852D02*
X3134500Y-12405709D01*
X3258309Y-12405709D01*
X3324976Y-12272376D02*
X3324976Y-12310471D01*
X3401167Y-12272376D02*
X3401167Y-12310471D01*
X3696405Y-12548567D02*
X3686881Y-12539043D01*
X3667833Y-12510471D01*
X3658309Y-12491424D01*
X3648786Y-12462852D01*
X3639262Y-12415233D01*
X3639262Y-12377138D01*
X3648786Y-12329519D01*
X3658309Y-12300948D01*
X3667833Y-12281900D01*
X3686881Y-12253328D01*
X3696405Y-12243805D01*
X3858309Y-12339043D02*
X3858309Y-12472376D01*
X3810690Y-12262852D02*
X3763071Y-12405709D01*
X3886881Y-12405709D01*
X4115452Y-12472376D02*
X4115452Y-12272376D01*
X4201167Y-12472376D02*
X4201167Y-12367614D01*
X4191643Y-12348567D01*
X4172595Y-12339043D01*
X4144024Y-12339043D01*
X4124976Y-12348567D01*
X4115452Y-12358090D01*
X4324976Y-12472376D02*
X4305929Y-12462852D01*
X4296405Y-12453328D01*
X4286881Y-12434281D01*
X4286881Y-12377138D01*
X4296405Y-12358090D01*
X4305929Y-12348567D01*
X4324976Y-12339043D01*
X4353548Y-12339043D01*
X4372595Y-12348567D01*
X4382119Y-12358090D01*
X4391643Y-12377138D01*
X4391643Y-12434281D01*
X4382119Y-12453328D01*
X4372595Y-12462852D01*
X4353548Y-12472376D01*
X4324976Y-12472376D01*
X4505929Y-12472376D02*
X4486881Y-12462852D01*
X4477357Y-12443805D01*
X4477357Y-12272376D01*
X4658310Y-12462852D02*
X4639262Y-12472376D01*
X4601167Y-12472376D01*
X4582119Y-12462852D01*
X4572595Y-12443805D01*
X4572595Y-12367614D01*
X4582119Y-12348567D01*
X4601167Y-12339043D01*
X4639262Y-12339043D01*
X4658310Y-12348567D01*
X4667833Y-12367614D01*
X4667833Y-12386662D01*
X4572595Y-12405709D01*
X4744024Y-12462852D02*
X4763071Y-12472376D01*
X4801167Y-12472376D01*
X4820214Y-12462852D01*
X4829738Y-12443805D01*
X4829738Y-12434281D01*
X4820214Y-12415233D01*
X4801167Y-12405709D01*
X4772595Y-12405709D01*
X4753548Y-12396186D01*
X4744024Y-12377138D01*
X4744024Y-12367614D01*
X4753548Y-12348567D01*
X4772595Y-12339043D01*
X4801167Y-12339043D01*
X4820214Y-12348567D01*
X4896405Y-12548567D02*
X4905929Y-12539043D01*
X4924976Y-12510471D01*
X4934500Y-12491424D01*
X4944024Y-12462852D01*
X4953548Y-12415233D01*
X4953548Y-12377138D01*
X4944024Y-12329519D01*
X4934500Y-12300948D01*
X4924976Y-12281900D01*
X4905929Y-12253328D01*
X4896405Y-12243805D01*
D16*
X77000Y-12693400D02*
X124500Y-12645900D01*
X77000Y-12598400D01*
X29500Y-12645900D01*
X77000Y-12693400D01*
D11*
X420214Y-12536376D02*
X439262Y-12536376D01*
X458309Y-12545900D01*
X467833Y-12555424D01*
X477357Y-12574471D01*
X486881Y-12612567D01*
X486881Y-12660186D01*
X477357Y-12698281D01*
X467833Y-12717328D01*
X458309Y-12726852D01*
X439262Y-12736376D01*
X420214Y-12736376D01*
X401167Y-12726852D01*
X391643Y-12717328D01*
X382119Y-12698281D01*
X372595Y-12660186D01*
X372595Y-12612567D01*
X382119Y-12574471D01*
X391643Y-12555424D01*
X401167Y-12545900D01*
X420214Y-12536376D01*
X572595Y-12717328D02*
X582119Y-12726852D01*
X572595Y-12736376D01*
X563071Y-12726852D01*
X572595Y-12717328D01*
X572595Y-12736376D01*
X677357Y-12736376D02*
X715452Y-12736376D01*
X734500Y-12726852D01*
X744024Y-12717328D01*
X763071Y-12688757D01*
X772595Y-12650662D01*
X772595Y-12574471D01*
X763071Y-12555424D01*
X753548Y-12545900D01*
X734500Y-12536376D01*
X696405Y-12536376D01*
X677357Y-12545900D01*
X667833Y-12555424D01*
X658310Y-12574471D01*
X658310Y-12622090D01*
X667833Y-12641138D01*
X677357Y-12650662D01*
X696405Y-12660186D01*
X734500Y-12660186D01*
X753548Y-12650662D01*
X763071Y-12641138D01*
X772595Y-12622090D01*
X953548Y-12536376D02*
X858309Y-12536376D01*
X848786Y-12631614D01*
X858309Y-12622090D01*
X877357Y-12612567D01*
X924976Y-12612567D01*
X944024Y-12622090D01*
X953548Y-12631614D01*
X963071Y-12650662D01*
X963071Y-12698281D01*
X953548Y-12717328D01*
X944024Y-12726852D01*
X924976Y-12736376D01*
X877357Y-12736376D01*
X858309Y-12726852D01*
X848786Y-12717328D01*
X1086881Y-12536376D02*
X1105929Y-12536376D01*
X1124976Y-12545900D01*
X1134500Y-12555424D01*
X1144024Y-12574471D01*
X1153548Y-12612567D01*
X1153548Y-12660186D01*
X1144024Y-12698281D01*
X1134500Y-12717328D01*
X1124976Y-12726852D01*
X1105929Y-12736376D01*
X1086881Y-12736376D01*
X1067833Y-12726852D01*
X1058310Y-12717328D01*
X1048786Y-12698281D01*
X1039262Y-12660186D01*
X1039262Y-12612567D01*
X1048786Y-12574471D01*
X1058310Y-12555424D01*
X1067833Y-12545900D01*
X1086881Y-12536376D01*
X1239262Y-12736376D02*
X1239262Y-12603043D01*
X1239262Y-12622090D02*
X1248786Y-12612567D01*
X1267833Y-12603043D01*
X1296405Y-12603043D01*
X1315452Y-12612567D01*
X1324976Y-12631614D01*
X1324976Y-12736376D01*
X1324976Y-12631614D02*
X1334500Y-12612567D01*
X1353548Y-12603043D01*
X1382119Y-12603043D01*
X1401167Y-12612567D01*
X1410690Y-12631614D01*
X1410690Y-12736376D01*
X1505928Y-12736376D02*
X1505928Y-12603043D01*
X1505928Y-12622090D02*
X1515452Y-12612567D01*
X1534500Y-12603043D01*
X1563071Y-12603043D01*
X1582119Y-12612567D01*
X1591643Y-12631614D01*
X1591643Y-12736376D01*
X1591643Y-12631614D02*
X1601167Y-12612567D01*
X1620214Y-12603043D01*
X1648786Y-12603043D01*
X1667833Y-12612567D01*
X1677357Y-12631614D01*
X1677357Y-12736376D01*
X2067833Y-12526852D02*
X1896405Y-12783995D01*
X2324976Y-12536376D02*
X2344024Y-12536376D01*
X2363071Y-12545900D01*
X2372595Y-12555424D01*
X2382119Y-12574471D01*
X2391643Y-12612567D01*
X2391643Y-12660186D01*
X2382119Y-12698281D01*
X2372595Y-12717328D01*
X2363071Y-12726852D01*
X2344024Y-12736376D01*
X2324976Y-12736376D01*
X2305929Y-12726852D01*
X2296405Y-12717328D01*
X2286881Y-12698281D01*
X2277357Y-12660186D01*
X2277357Y-12612567D01*
X2286881Y-12574471D01*
X2296405Y-12555424D01*
X2305929Y-12545900D01*
X2324976Y-12536376D01*
X2477357Y-12717328D02*
X2486881Y-12726852D01*
X2477357Y-12736376D01*
X2467833Y-12726852D01*
X2477357Y-12717328D01*
X2477357Y-12736376D01*
X2610690Y-12536376D02*
X2629738Y-12536376D01*
X2648786Y-12545900D01*
X2658310Y-12555424D01*
X2667833Y-12574471D01*
X2677357Y-12612567D01*
X2677357Y-12660186D01*
X2667833Y-12698281D01*
X2658310Y-12717328D01*
X2648786Y-12726852D01*
X2629738Y-12736376D01*
X2610690Y-12736376D01*
X2591643Y-12726852D01*
X2582119Y-12717328D01*
X2572595Y-12698281D01*
X2563071Y-12660186D01*
X2563071Y-12612567D01*
X2572595Y-12574471D01*
X2582119Y-12555424D01*
X2591643Y-12545900D01*
X2610690Y-12536376D01*
X2744024Y-12536376D02*
X2867833Y-12536376D01*
X2801167Y-12612567D01*
X2829738Y-12612567D01*
X2848786Y-12622090D01*
X2858309Y-12631614D01*
X2867833Y-12650662D01*
X2867833Y-12698281D01*
X2858309Y-12717328D01*
X2848786Y-12726852D01*
X2829738Y-12736376D01*
X2772595Y-12736376D01*
X2753548Y-12726852D01*
X2744024Y-12717328D01*
X2934500Y-12536376D02*
X3067833Y-12536376D01*
X2982119Y-12736376D01*
X3229738Y-12603043D02*
X3229738Y-12736376D01*
X3182119Y-12526852D02*
X3134500Y-12669709D01*
X3258309Y-12669709D01*
X3324976Y-12536376D02*
X3324976Y-12574471D01*
X3401167Y-12536376D02*
X3401167Y-12574471D01*
X3696405Y-12812567D02*
X3686881Y-12803043D01*
X3667833Y-12774471D01*
X3658309Y-12755424D01*
X3648786Y-12726852D01*
X3639262Y-12679233D01*
X3639262Y-12641138D01*
X3648786Y-12593519D01*
X3658309Y-12564948D01*
X3667833Y-12545900D01*
X3686881Y-12517328D01*
X3696405Y-12507805D01*
X3810690Y-12536376D02*
X3829738Y-12536376D01*
X3848786Y-12545900D01*
X3858309Y-12555424D01*
X3867833Y-12574471D01*
X3877357Y-12612567D01*
X3877357Y-12660186D01*
X3867833Y-12698281D01*
X3858309Y-12717328D01*
X3848786Y-12726852D01*
X3829738Y-12736376D01*
X3810690Y-12736376D01*
X3791643Y-12726852D01*
X3782119Y-12717328D01*
X3772595Y-12698281D01*
X3763071Y-12660186D01*
X3763071Y-12612567D01*
X3772595Y-12574471D01*
X3782119Y-12555424D01*
X3791643Y-12545900D01*
X3810690Y-12536376D01*
X4115452Y-12736376D02*
X4115452Y-12536376D01*
X4201167Y-12736376D02*
X4201167Y-12631614D01*
X4191643Y-12612567D01*
X4172595Y-12603043D01*
X4144024Y-12603043D01*
X4124976Y-12612567D01*
X4115452Y-12622090D01*
X4324976Y-12736376D02*
X4305929Y-12726852D01*
X4296405Y-12717328D01*
X4286881Y-12698281D01*
X4286881Y-12641138D01*
X4296405Y-12622090D01*
X4305929Y-12612567D01*
X4324976Y-12603043D01*
X4353548Y-12603043D01*
X4372595Y-12612567D01*
X4382119Y-12622090D01*
X4391643Y-12641138D01*
X4391643Y-12698281D01*
X4382119Y-12717328D01*
X4372595Y-12726852D01*
X4353548Y-12736376D01*
X4324976Y-12736376D01*
X4505929Y-12736376D02*
X4486881Y-12726852D01*
X4477357Y-12707805D01*
X4477357Y-12536376D01*
X4658310Y-12726852D02*
X4639262Y-12736376D01*
X4601167Y-12736376D01*
X4582119Y-12726852D01*
X4572595Y-12707805D01*
X4572595Y-12631614D01*
X4582119Y-12612567D01*
X4601167Y-12603043D01*
X4639262Y-12603043D01*
X4658310Y-12612567D01*
X4667833Y-12631614D01*
X4667833Y-12650662D01*
X4572595Y-12669709D01*
X4744024Y-12726852D02*
X4763071Y-12736376D01*
X4801167Y-12736376D01*
X4820214Y-12726852D01*
X4829738Y-12707805D01*
X4829738Y-12698281D01*
X4820214Y-12679233D01*
X4801167Y-12669709D01*
X4772595Y-12669709D01*
X4753548Y-12660186D01*
X4744024Y-12641138D01*
X4744024Y-12631614D01*
X4753548Y-12612567D01*
X4772595Y-12603043D01*
X4801167Y-12603043D01*
X4820214Y-12612567D01*
X5067833Y-12660186D02*
X5220214Y-12660186D01*
X5144024Y-12736376D02*
X5144024Y-12583995D01*
X5553548Y-12536376D02*
X5515452Y-12536376D01*
X5496405Y-12545900D01*
X5486881Y-12555424D01*
X5467833Y-12583995D01*
X5458310Y-12622090D01*
X5458310Y-12698281D01*
X5467833Y-12717328D01*
X5477357Y-12726852D01*
X5496405Y-12736376D01*
X5534500Y-12736376D01*
X5553548Y-12726852D01*
X5563071Y-12717328D01*
X5572595Y-12698281D01*
X5572595Y-12650662D01*
X5563071Y-12631614D01*
X5553548Y-12622090D01*
X5534500Y-12612567D01*
X5496405Y-12612567D01*
X5477357Y-12622090D01*
X5467833Y-12631614D01*
X5458310Y-12650662D01*
X5801167Y-12726852D02*
X5820214Y-12736376D01*
X5858309Y-12736376D01*
X5877357Y-12726852D01*
X5886881Y-12707805D01*
X5886881Y-12698281D01*
X5877357Y-12679233D01*
X5858309Y-12669709D01*
X5829738Y-12669709D01*
X5810690Y-12660186D01*
X5801167Y-12641138D01*
X5801167Y-12631614D01*
X5810690Y-12612567D01*
X5829738Y-12603043D01*
X5858309Y-12603043D01*
X5877357Y-12612567D01*
X6001167Y-12736376D02*
X5982119Y-12726852D01*
X5972595Y-12707805D01*
X5972595Y-12536376D01*
X6105928Y-12736376D02*
X6086881Y-12726852D01*
X6077357Y-12717328D01*
X6067833Y-12698281D01*
X6067833Y-12641138D01*
X6077357Y-12622090D01*
X6086881Y-12612567D01*
X6105928Y-12603043D01*
X6134500Y-12603043D01*
X6153548Y-12612567D01*
X6163071Y-12622090D01*
X6172595Y-12641138D01*
X6172595Y-12698281D01*
X6163071Y-12717328D01*
X6153548Y-12726852D01*
X6134500Y-12736376D01*
X6105928Y-12736376D01*
X6229738Y-12603043D02*
X6305928Y-12603043D01*
X6258309Y-12536376D02*
X6258309Y-12707805D01*
X6267833Y-12726852D01*
X6286881Y-12736376D01*
X6305928Y-12736376D01*
X6363071Y-12726852D02*
X6382119Y-12736376D01*
X6420214Y-12736376D01*
X6439262Y-12726852D01*
X6448786Y-12707805D01*
X6448786Y-12698281D01*
X6439262Y-12679233D01*
X6420214Y-12669709D01*
X6391643Y-12669709D01*
X6372595Y-12660186D01*
X6363071Y-12641138D01*
X6363071Y-12631614D01*
X6372595Y-12612567D01*
X6391643Y-12603043D01*
X6420214Y-12603043D01*
X6439262Y-12612567D01*
X6515452Y-12812567D02*
X6524976Y-12803043D01*
X6544024Y-12774471D01*
X6553548Y-12755424D01*
X6563071Y-12726852D01*
X6572595Y-12679233D01*
X6572595Y-12641138D01*
X6563071Y-12593519D01*
X6553548Y-12564948D01*
X6544024Y-12545900D01*
X6524976Y-12517328D01*
X6515452Y-12507805D01*
D17*
X24500Y-12859900D02*
X124500Y-12959900D01*
X124500Y-12859900D02*
X24500Y-12959900D01*
X124500Y-12909900D02*
G75*
G03*
X124500Y-12909900I-50000J0D01*
G01*
D11*
X486881Y-13000376D02*
X372595Y-13000376D01*
X429738Y-13000376D02*
X429738Y-12800376D01*
X410690Y-12828948D01*
X391643Y-12847995D01*
X372595Y-12857519D01*
X572595Y-12981328D02*
X582119Y-12990852D01*
X572595Y-13000376D01*
X563071Y-12990852D01*
X572595Y-12981328D01*
X572595Y-13000376D01*
X705928Y-12800376D02*
X724976Y-12800376D01*
X744024Y-12809900D01*
X753548Y-12819424D01*
X763071Y-12838471D01*
X772595Y-12876567D01*
X772595Y-12924186D01*
X763071Y-12962281D01*
X753548Y-12981328D01*
X744024Y-12990852D01*
X724976Y-13000376D01*
X705928Y-13000376D01*
X686881Y-12990852D01*
X677357Y-12981328D01*
X667833Y-12962281D01*
X658310Y-12924186D01*
X658310Y-12876567D01*
X667833Y-12838471D01*
X677357Y-12819424D01*
X686881Y-12809900D01*
X705928Y-12800376D01*
X896405Y-12800376D02*
X915452Y-12800376D01*
X934500Y-12809900D01*
X944024Y-12819424D01*
X953548Y-12838471D01*
X963071Y-12876567D01*
X963071Y-12924186D01*
X953548Y-12962281D01*
X944024Y-12981328D01*
X934500Y-12990852D01*
X915452Y-13000376D01*
X896405Y-13000376D01*
X877357Y-12990852D01*
X867833Y-12981328D01*
X858309Y-12962281D01*
X848786Y-12924186D01*
X848786Y-12876567D01*
X858309Y-12838471D01*
X867833Y-12819424D01*
X877357Y-12809900D01*
X896405Y-12800376D01*
X1086881Y-12800376D02*
X1105929Y-12800376D01*
X1124976Y-12809900D01*
X1134500Y-12819424D01*
X1144024Y-12838471D01*
X1153548Y-12876567D01*
X1153548Y-12924186D01*
X1144024Y-12962281D01*
X1134500Y-12981328D01*
X1124976Y-12990852D01*
X1105929Y-13000376D01*
X1086881Y-13000376D01*
X1067833Y-12990852D01*
X1058310Y-12981328D01*
X1048786Y-12962281D01*
X1039262Y-12924186D01*
X1039262Y-12876567D01*
X1048786Y-12838471D01*
X1058310Y-12819424D01*
X1067833Y-12809900D01*
X1086881Y-12800376D01*
X1239262Y-13000376D02*
X1239262Y-12867043D01*
X1239262Y-12886090D02*
X1248786Y-12876567D01*
X1267833Y-12867043D01*
X1296405Y-12867043D01*
X1315452Y-12876567D01*
X1324976Y-12895614D01*
X1324976Y-13000376D01*
X1324976Y-12895614D02*
X1334500Y-12876567D01*
X1353548Y-12867043D01*
X1382119Y-12867043D01*
X1401167Y-12876567D01*
X1410690Y-12895614D01*
X1410690Y-13000376D01*
X1505928Y-13000376D02*
X1505928Y-12867043D01*
X1505928Y-12886090D02*
X1515452Y-12876567D01*
X1534500Y-12867043D01*
X1563071Y-12867043D01*
X1582119Y-12876567D01*
X1591643Y-12895614D01*
X1591643Y-13000376D01*
X1591643Y-12895614D02*
X1601167Y-12876567D01*
X1620214Y-12867043D01*
X1648786Y-12867043D01*
X1667833Y-12876567D01*
X1677357Y-12895614D01*
X1677357Y-13000376D01*
X2067833Y-12790852D02*
X1896405Y-13047995D01*
X2324976Y-12800376D02*
X2344024Y-12800376D01*
X2363071Y-12809900D01*
X2372595Y-12819424D01*
X2382119Y-12838471D01*
X2391643Y-12876567D01*
X2391643Y-12924186D01*
X2382119Y-12962281D01*
X2372595Y-12981328D01*
X2363071Y-12990852D01*
X2344024Y-13000376D01*
X2324976Y-13000376D01*
X2305929Y-12990852D01*
X2296405Y-12981328D01*
X2286881Y-12962281D01*
X2277357Y-12924186D01*
X2277357Y-12876567D01*
X2286881Y-12838471D01*
X2296405Y-12819424D01*
X2305929Y-12809900D01*
X2324976Y-12800376D01*
X2477357Y-12981328D02*
X2486881Y-12990852D01*
X2477357Y-13000376D01*
X2467833Y-12990852D01*
X2477357Y-12981328D01*
X2477357Y-13000376D01*
X2610690Y-12800376D02*
X2629738Y-12800376D01*
X2648786Y-12809900D01*
X2658310Y-12819424D01*
X2667833Y-12838471D01*
X2677357Y-12876567D01*
X2677357Y-12924186D01*
X2667833Y-12962281D01*
X2658310Y-12981328D01*
X2648786Y-12990852D01*
X2629738Y-13000376D01*
X2610690Y-13000376D01*
X2591643Y-12990852D01*
X2582119Y-12981328D01*
X2572595Y-12962281D01*
X2563071Y-12924186D01*
X2563071Y-12876567D01*
X2572595Y-12838471D01*
X2582119Y-12819424D01*
X2591643Y-12809900D01*
X2610690Y-12800376D01*
X2744024Y-12800376D02*
X2867833Y-12800376D01*
X2801167Y-12876567D01*
X2829738Y-12876567D01*
X2848786Y-12886090D01*
X2858309Y-12895614D01*
X2867833Y-12914662D01*
X2867833Y-12962281D01*
X2858309Y-12981328D01*
X2848786Y-12990852D01*
X2829738Y-13000376D01*
X2772595Y-13000376D01*
X2753548Y-12990852D01*
X2744024Y-12981328D01*
X2963071Y-13000376D02*
X3001167Y-13000376D01*
X3020214Y-12990852D01*
X3029738Y-12981328D01*
X3048786Y-12952757D01*
X3058309Y-12914662D01*
X3058309Y-12838471D01*
X3048786Y-12819424D01*
X3039262Y-12809900D01*
X3020214Y-12800376D01*
X2982119Y-12800376D01*
X2963071Y-12809900D01*
X2953548Y-12819424D01*
X2944024Y-12838471D01*
X2944024Y-12886090D01*
X2953548Y-12905138D01*
X2963071Y-12914662D01*
X2982119Y-12924186D01*
X3020214Y-12924186D01*
X3039262Y-12914662D01*
X3048786Y-12905138D01*
X3058309Y-12886090D01*
X3229738Y-12867043D02*
X3229738Y-13000376D01*
X3182119Y-12790852D02*
X3134500Y-12933709D01*
X3258309Y-12933709D01*
X3324976Y-12800376D02*
X3324976Y-12838471D01*
X3401167Y-12800376D02*
X3401167Y-12838471D01*
X3696405Y-13076567D02*
X3686881Y-13067043D01*
X3667833Y-13038471D01*
X3658309Y-13019424D01*
X3648786Y-12990852D01*
X3639262Y-12943233D01*
X3639262Y-12905138D01*
X3648786Y-12857519D01*
X3658309Y-12828948D01*
X3667833Y-12809900D01*
X3686881Y-12781328D01*
X3696405Y-12771805D01*
X3858309Y-12867043D02*
X3858309Y-13000376D01*
X3810690Y-12790852D02*
X3763071Y-12933709D01*
X3886881Y-12933709D01*
X3991643Y-12886090D02*
X3972595Y-12876567D01*
X3963071Y-12867043D01*
X3953548Y-12847995D01*
X3953548Y-12838471D01*
X3963071Y-12819424D01*
X3972595Y-12809900D01*
X3991643Y-12800376D01*
X4029738Y-12800376D01*
X4048786Y-12809900D01*
X4058309Y-12819424D01*
X4067833Y-12838471D01*
X4067833Y-12847995D01*
X4058309Y-12867043D01*
X4048786Y-12876567D01*
X4029738Y-12886090D01*
X3991643Y-12886090D01*
X3972595Y-12895614D01*
X3963071Y-12905138D01*
X3953548Y-12924186D01*
X3953548Y-12962281D01*
X3963071Y-12981328D01*
X3972595Y-12990852D01*
X3991643Y-13000376D01*
X4029738Y-13000376D01*
X4048786Y-12990852D01*
X4058309Y-12981328D01*
X4067833Y-12962281D01*
X4067833Y-12924186D01*
X4058309Y-12905138D01*
X4048786Y-12895614D01*
X4029738Y-12886090D01*
X4305929Y-13000376D02*
X4305929Y-12800376D01*
X4391643Y-13000376D02*
X4391643Y-12895614D01*
X4382119Y-12876567D01*
X4363071Y-12867043D01*
X4334500Y-12867043D01*
X4315452Y-12876567D01*
X4305929Y-12886090D01*
X4515452Y-13000376D02*
X4496405Y-12990852D01*
X4486881Y-12981328D01*
X4477357Y-12962281D01*
X4477357Y-12905138D01*
X4486881Y-12886090D01*
X4496405Y-12876567D01*
X4515452Y-12867043D01*
X4544024Y-12867043D01*
X4563071Y-12876567D01*
X4572595Y-12886090D01*
X4582119Y-12905138D01*
X4582119Y-12962281D01*
X4572595Y-12981328D01*
X4563071Y-12990852D01*
X4544024Y-13000376D01*
X4515452Y-13000376D01*
X4696405Y-13000376D02*
X4677357Y-12990852D01*
X4667833Y-12971805D01*
X4667833Y-12800376D01*
X4848786Y-12990852D02*
X4829738Y-13000376D01*
X4791643Y-13000376D01*
X4772595Y-12990852D01*
X4763071Y-12971805D01*
X4763071Y-12895614D01*
X4772595Y-12876567D01*
X4791643Y-12867043D01*
X4829738Y-12867043D01*
X4848786Y-12876567D01*
X4858310Y-12895614D01*
X4858310Y-12914662D01*
X4763071Y-12933709D01*
X4934500Y-12990852D02*
X4953548Y-13000376D01*
X4991643Y-13000376D01*
X5010690Y-12990852D01*
X5020214Y-12971805D01*
X5020214Y-12962281D01*
X5010690Y-12943233D01*
X4991643Y-12933709D01*
X4963071Y-12933709D01*
X4944024Y-12924186D01*
X4934500Y-12905138D01*
X4934500Y-12895614D01*
X4944024Y-12876567D01*
X4963071Y-12867043D01*
X4991643Y-12867043D01*
X5010690Y-12876567D01*
X5086881Y-13076567D02*
X5096405Y-13067043D01*
X5115452Y-13038471D01*
X5124976Y-13019424D01*
X5134500Y-12990852D01*
X5144024Y-12943233D01*
X5144024Y-12905138D01*
X5134500Y-12857519D01*
X5124976Y-12828948D01*
X5115452Y-12809900D01*
X5096405Y-12781328D01*
X5086881Y-12771805D01*
D18*
X2500Y-13112900D02*
X124500Y-13234900D01*
X124500Y-13112900D02*
X2500Y-13234900D01*
X63500Y-13112900D02*
X63500Y-13234900D01*
X2500Y-13173900D02*
X124500Y-13173900D01*
D11*
X486881Y-13264376D02*
X372595Y-13264376D01*
X429738Y-13264376D02*
X429738Y-13064376D01*
X410690Y-13092948D01*
X391643Y-13111995D01*
X372595Y-13121519D01*
X572595Y-13245328D02*
X582119Y-13254852D01*
X572595Y-13264376D01*
X563071Y-13254852D01*
X572595Y-13245328D01*
X572595Y-13264376D01*
X658310Y-13083424D02*
X667833Y-13073900D01*
X686881Y-13064376D01*
X734500Y-13064376D01*
X753548Y-13073900D01*
X763071Y-13083424D01*
X772595Y-13102471D01*
X772595Y-13121519D01*
X763071Y-13150090D01*
X648786Y-13264376D01*
X772595Y-13264376D01*
X848786Y-13083424D02*
X858309Y-13073900D01*
X877357Y-13064376D01*
X924976Y-13064376D01*
X944024Y-13073900D01*
X953548Y-13083424D01*
X963071Y-13102471D01*
X963071Y-13121519D01*
X953548Y-13150090D01*
X839262Y-13264376D01*
X963071Y-13264376D01*
X1086881Y-13064376D02*
X1105929Y-13064376D01*
X1124976Y-13073900D01*
X1134500Y-13083424D01*
X1144024Y-13102471D01*
X1153548Y-13140567D01*
X1153548Y-13188186D01*
X1144024Y-13226281D01*
X1134500Y-13245328D01*
X1124976Y-13254852D01*
X1105929Y-13264376D01*
X1086881Y-13264376D01*
X1067833Y-13254852D01*
X1058310Y-13245328D01*
X1048786Y-13226281D01*
X1039262Y-13188186D01*
X1039262Y-13140567D01*
X1048786Y-13102471D01*
X1058310Y-13083424D01*
X1067833Y-13073900D01*
X1086881Y-13064376D01*
X1239262Y-13264376D02*
X1239262Y-13131043D01*
X1239262Y-13150090D02*
X1248786Y-13140567D01*
X1267833Y-13131043D01*
X1296405Y-13131043D01*
X1315452Y-13140567D01*
X1324976Y-13159614D01*
X1324976Y-13264376D01*
X1324976Y-13159614D02*
X1334500Y-13140567D01*
X1353548Y-13131043D01*
X1382119Y-13131043D01*
X1401167Y-13140567D01*
X1410690Y-13159614D01*
X1410690Y-13264376D01*
X1505928Y-13264376D02*
X1505928Y-13131043D01*
X1505928Y-13150090D02*
X1515452Y-13140567D01*
X1534500Y-13131043D01*
X1563071Y-13131043D01*
X1582119Y-13140567D01*
X1591643Y-13159614D01*
X1591643Y-13264376D01*
X1591643Y-13159614D02*
X1601167Y-13140567D01*
X1620214Y-13131043D01*
X1648786Y-13131043D01*
X1667833Y-13140567D01*
X1677357Y-13159614D01*
X1677357Y-13264376D01*
X2067833Y-13054852D02*
X1896405Y-13311995D01*
X2324976Y-13064376D02*
X2344024Y-13064376D01*
X2363071Y-13073900D01*
X2372595Y-13083424D01*
X2382119Y-13102471D01*
X2391643Y-13140567D01*
X2391643Y-13188186D01*
X2382119Y-13226281D01*
X2372595Y-13245328D01*
X2363071Y-13254852D01*
X2344024Y-13264376D01*
X2324976Y-13264376D01*
X2305929Y-13254852D01*
X2296405Y-13245328D01*
X2286881Y-13226281D01*
X2277357Y-13188186D01*
X2277357Y-13140567D01*
X2286881Y-13102471D01*
X2296405Y-13083424D01*
X2305929Y-13073900D01*
X2324976Y-13064376D01*
X2477357Y-13245328D02*
X2486881Y-13254852D01*
X2477357Y-13264376D01*
X2467833Y-13254852D01*
X2477357Y-13245328D01*
X2477357Y-13264376D01*
X2610690Y-13064376D02*
X2629738Y-13064376D01*
X2648786Y-13073900D01*
X2658310Y-13083424D01*
X2667833Y-13102471D01*
X2677357Y-13140567D01*
X2677357Y-13188186D01*
X2667833Y-13226281D01*
X2658310Y-13245328D01*
X2648786Y-13254852D01*
X2629738Y-13264376D01*
X2610690Y-13264376D01*
X2591643Y-13254852D01*
X2582119Y-13245328D01*
X2572595Y-13226281D01*
X2563071Y-13188186D01*
X2563071Y-13140567D01*
X2572595Y-13102471D01*
X2582119Y-13083424D01*
X2591643Y-13073900D01*
X2610690Y-13064376D01*
X2848786Y-13131043D02*
X2848786Y-13264376D01*
X2801167Y-13054852D02*
X2753548Y-13197709D01*
X2877357Y-13197709D01*
X2982119Y-13150090D02*
X2963071Y-13140567D01*
X2953548Y-13131043D01*
X2944024Y-13111995D01*
X2944024Y-13102471D01*
X2953548Y-13083424D01*
X2963071Y-13073900D01*
X2982119Y-13064376D01*
X3020214Y-13064376D01*
X3039262Y-13073900D01*
X3048786Y-13083424D01*
X3058309Y-13102471D01*
X3058309Y-13111995D01*
X3048786Y-13131043D01*
X3039262Y-13140567D01*
X3020214Y-13150090D01*
X2982119Y-13150090D01*
X2963071Y-13159614D01*
X2953548Y-13169138D01*
X2944024Y-13188186D01*
X2944024Y-13226281D01*
X2953548Y-13245328D01*
X2963071Y-13254852D01*
X2982119Y-13264376D01*
X3020214Y-13264376D01*
X3039262Y-13254852D01*
X3048786Y-13245328D01*
X3058309Y-13226281D01*
X3058309Y-13188186D01*
X3048786Y-13169138D01*
X3039262Y-13159614D01*
X3020214Y-13150090D01*
X3182119Y-13064376D02*
X3201167Y-13064376D01*
X3220214Y-13073900D01*
X3229738Y-13083424D01*
X3239262Y-13102471D01*
X3248786Y-13140567D01*
X3248786Y-13188186D01*
X3239262Y-13226281D01*
X3229738Y-13245328D01*
X3220214Y-13254852D01*
X3201167Y-13264376D01*
X3182119Y-13264376D01*
X3163071Y-13254852D01*
X3153548Y-13245328D01*
X3144024Y-13226281D01*
X3134500Y-13188186D01*
X3134500Y-13140567D01*
X3144024Y-13102471D01*
X3153548Y-13083424D01*
X3163071Y-13073900D01*
X3182119Y-13064376D01*
X3324976Y-13064376D02*
X3324976Y-13102471D01*
X3401167Y-13064376D02*
X3401167Y-13102471D01*
X3696405Y-13340567D02*
X3686881Y-13331043D01*
X3667833Y-13302471D01*
X3658309Y-13283424D01*
X3648786Y-13254852D01*
X3639262Y-13207233D01*
X3639262Y-13169138D01*
X3648786Y-13121519D01*
X3658309Y-13092948D01*
X3667833Y-13073900D01*
X3686881Y-13045328D01*
X3696405Y-13035805D01*
X3867833Y-13064376D02*
X3772595Y-13064376D01*
X3763071Y-13159614D01*
X3772595Y-13150090D01*
X3791643Y-13140567D01*
X3839262Y-13140567D01*
X3858309Y-13150090D01*
X3867833Y-13159614D01*
X3877357Y-13178662D01*
X3877357Y-13226281D01*
X3867833Y-13245328D01*
X3858309Y-13254852D01*
X3839262Y-13264376D01*
X3791643Y-13264376D01*
X3772595Y-13254852D01*
X3763071Y-13245328D01*
X4115452Y-13264376D02*
X4115452Y-13064376D01*
X4201167Y-13264376D02*
X4201167Y-13159614D01*
X4191643Y-13140567D01*
X4172595Y-13131043D01*
X4144024Y-13131043D01*
X4124976Y-13140567D01*
X4115452Y-13150090D01*
X4324976Y-13264376D02*
X4305929Y-13254852D01*
X4296405Y-13245328D01*
X4286881Y-13226281D01*
X4286881Y-13169138D01*
X4296405Y-13150090D01*
X4305929Y-13140567D01*
X4324976Y-13131043D01*
X4353548Y-13131043D01*
X4372595Y-13140567D01*
X4382119Y-13150090D01*
X4391643Y-13169138D01*
X4391643Y-13226281D01*
X4382119Y-13245328D01*
X4372595Y-13254852D01*
X4353548Y-13264376D01*
X4324976Y-13264376D01*
X4505929Y-13264376D02*
X4486881Y-13254852D01*
X4477357Y-13235805D01*
X4477357Y-13064376D01*
X4658310Y-13254852D02*
X4639262Y-13264376D01*
X4601167Y-13264376D01*
X4582119Y-13254852D01*
X4572595Y-13235805D01*
X4572595Y-13159614D01*
X4582119Y-13140567D01*
X4601167Y-13131043D01*
X4639262Y-13131043D01*
X4658310Y-13140567D01*
X4667833Y-13159614D01*
X4667833Y-13178662D01*
X4572595Y-13197709D01*
X4744024Y-13254852D02*
X4763071Y-13264376D01*
X4801167Y-13264376D01*
X4820214Y-13254852D01*
X4829738Y-13235805D01*
X4829738Y-13226281D01*
X4820214Y-13207233D01*
X4801167Y-13197709D01*
X4772595Y-13197709D01*
X4753548Y-13188186D01*
X4744024Y-13169138D01*
X4744024Y-13159614D01*
X4753548Y-13140567D01*
X4772595Y-13131043D01*
X4801167Y-13131043D01*
X4820214Y-13140567D01*
X4896405Y-13340567D02*
X4905929Y-13331043D01*
X4924976Y-13302471D01*
X4934500Y-13283424D01*
X4944024Y-13254852D01*
X4953548Y-13207233D01*
X4953548Y-13169138D01*
X4944024Y-13121519D01*
X4934500Y-13092948D01*
X4924976Y-13073900D01*
X4905929Y-13045328D01*
X4896405Y-13035805D01*
D19*
X-17500Y-13366900D02*
X124500Y-13508900D01*
X124500Y-13366900D02*
X-17500Y-13508900D01*
X103705Y-13488105D02*
X103705Y-13387695D01*
X3295Y-13387695D01*
X3295Y-13488105D01*
X103705Y-13488105D01*
D11*
X486881Y-13528376D02*
X372595Y-13528376D01*
X429738Y-13528376D02*
X429738Y-13328376D01*
X410690Y-13356948D01*
X391643Y-13375995D01*
X372595Y-13385519D01*
X572595Y-13509328D02*
X582119Y-13518852D01*
X572595Y-13528376D01*
X563071Y-13518852D01*
X572595Y-13509328D01*
X572595Y-13528376D01*
X753548Y-13395043D02*
X753548Y-13528376D01*
X705928Y-13318852D02*
X658310Y-13461709D01*
X782119Y-13461709D01*
X848786Y-13347424D02*
X858309Y-13337900D01*
X877357Y-13328376D01*
X924976Y-13328376D01*
X944024Y-13337900D01*
X953548Y-13347424D01*
X963071Y-13366471D01*
X963071Y-13385519D01*
X953548Y-13414090D01*
X839262Y-13528376D01*
X963071Y-13528376D01*
X1086881Y-13328376D02*
X1105929Y-13328376D01*
X1124976Y-13337900D01*
X1134500Y-13347424D01*
X1144024Y-13366471D01*
X1153548Y-13404567D01*
X1153548Y-13452186D01*
X1144024Y-13490281D01*
X1134500Y-13509328D01*
X1124976Y-13518852D01*
X1105929Y-13528376D01*
X1086881Y-13528376D01*
X1067833Y-13518852D01*
X1058310Y-13509328D01*
X1048786Y-13490281D01*
X1039262Y-13452186D01*
X1039262Y-13404567D01*
X1048786Y-13366471D01*
X1058310Y-13347424D01*
X1067833Y-13337900D01*
X1086881Y-13328376D01*
X1239262Y-13528376D02*
X1239262Y-13395043D01*
X1239262Y-13414090D02*
X1248786Y-13404567D01*
X1267833Y-13395043D01*
X1296405Y-13395043D01*
X1315452Y-13404567D01*
X1324976Y-13423614D01*
X1324976Y-13528376D01*
X1324976Y-13423614D02*
X1334500Y-13404567D01*
X1353548Y-13395043D01*
X1382119Y-13395043D01*
X1401167Y-13404567D01*
X1410690Y-13423614D01*
X1410690Y-13528376D01*
X1505928Y-13528376D02*
X1505928Y-13395043D01*
X1505928Y-13414090D02*
X1515452Y-13404567D01*
X1534500Y-13395043D01*
X1563071Y-13395043D01*
X1582119Y-13404567D01*
X1591643Y-13423614D01*
X1591643Y-13528376D01*
X1591643Y-13423614D02*
X1601167Y-13404567D01*
X1620214Y-13395043D01*
X1648786Y-13395043D01*
X1667833Y-13404567D01*
X1677357Y-13423614D01*
X1677357Y-13528376D01*
X2067833Y-13318852D02*
X1896405Y-13575995D01*
X2324976Y-13328376D02*
X2344024Y-13328376D01*
X2363071Y-13337900D01*
X2372595Y-13347424D01*
X2382119Y-13366471D01*
X2391643Y-13404567D01*
X2391643Y-13452186D01*
X2382119Y-13490281D01*
X2372595Y-13509328D01*
X2363071Y-13518852D01*
X2344024Y-13528376D01*
X2324976Y-13528376D01*
X2305929Y-13518852D01*
X2296405Y-13509328D01*
X2286881Y-13490281D01*
X2277357Y-13452186D01*
X2277357Y-13404567D01*
X2286881Y-13366471D01*
X2296405Y-13347424D01*
X2305929Y-13337900D01*
X2324976Y-13328376D01*
X2477357Y-13509328D02*
X2486881Y-13518852D01*
X2477357Y-13528376D01*
X2467833Y-13518852D01*
X2477357Y-13509328D01*
X2477357Y-13528376D01*
X2610690Y-13328376D02*
X2629738Y-13328376D01*
X2648786Y-13337900D01*
X2658310Y-13347424D01*
X2667833Y-13366471D01*
X2677357Y-13404567D01*
X2677357Y-13452186D01*
X2667833Y-13490281D01*
X2658310Y-13509328D01*
X2648786Y-13518852D01*
X2629738Y-13528376D01*
X2610690Y-13528376D01*
X2591643Y-13518852D01*
X2582119Y-13509328D01*
X2572595Y-13490281D01*
X2563071Y-13452186D01*
X2563071Y-13404567D01*
X2572595Y-13366471D01*
X2582119Y-13347424D01*
X2591643Y-13337900D01*
X2610690Y-13328376D01*
X2858309Y-13328376D02*
X2763071Y-13328376D01*
X2753548Y-13423614D01*
X2763071Y-13414090D01*
X2782119Y-13404567D01*
X2829738Y-13404567D01*
X2848786Y-13414090D01*
X2858309Y-13423614D01*
X2867833Y-13442662D01*
X2867833Y-13490281D01*
X2858309Y-13509328D01*
X2848786Y-13518852D01*
X2829738Y-13528376D01*
X2782119Y-13528376D01*
X2763071Y-13518852D01*
X2753548Y-13509328D01*
X3048786Y-13328376D02*
X2953548Y-13328376D01*
X2944024Y-13423614D01*
X2953548Y-13414090D01*
X2972595Y-13404567D01*
X3020214Y-13404567D01*
X3039262Y-13414090D01*
X3048786Y-13423614D01*
X3058309Y-13442662D01*
X3058309Y-13490281D01*
X3048786Y-13509328D01*
X3039262Y-13518852D01*
X3020214Y-13528376D01*
X2972595Y-13528376D01*
X2953548Y-13518852D01*
X2944024Y-13509328D01*
X3153548Y-13528376D02*
X3191643Y-13528376D01*
X3210690Y-13518852D01*
X3220214Y-13509328D01*
X3239262Y-13480757D01*
X3248786Y-13442662D01*
X3248786Y-13366471D01*
X3239262Y-13347424D01*
X3229738Y-13337900D01*
X3210690Y-13328376D01*
X3172595Y-13328376D01*
X3153548Y-13337900D01*
X3144024Y-13347424D01*
X3134500Y-13366471D01*
X3134500Y-13414090D01*
X3144024Y-13433138D01*
X3153548Y-13442662D01*
X3172595Y-13452186D01*
X3210690Y-13452186D01*
X3229738Y-13442662D01*
X3239262Y-13433138D01*
X3248786Y-13414090D01*
X3324976Y-13328376D02*
X3324976Y-13366471D01*
X3401167Y-13328376D02*
X3401167Y-13366471D01*
X3696405Y-13604567D02*
X3686881Y-13595043D01*
X3667833Y-13566471D01*
X3658309Y-13547424D01*
X3648786Y-13518852D01*
X3639262Y-13471233D01*
X3639262Y-13433138D01*
X3648786Y-13385519D01*
X3658309Y-13356948D01*
X3667833Y-13337900D01*
X3686881Y-13309328D01*
X3696405Y-13299805D01*
X3867833Y-13328376D02*
X3772595Y-13328376D01*
X3763071Y-13423614D01*
X3772595Y-13414090D01*
X3791643Y-13404567D01*
X3839262Y-13404567D01*
X3858309Y-13414090D01*
X3867833Y-13423614D01*
X3877357Y-13442662D01*
X3877357Y-13490281D01*
X3867833Y-13509328D01*
X3858309Y-13518852D01*
X3839262Y-13528376D01*
X3791643Y-13528376D01*
X3772595Y-13518852D01*
X3763071Y-13509328D01*
X4115452Y-13528376D02*
X4115452Y-13328376D01*
X4201167Y-13528376D02*
X4201167Y-13423614D01*
X4191643Y-13404567D01*
X4172595Y-13395043D01*
X4144024Y-13395043D01*
X4124976Y-13404567D01*
X4115452Y-13414090D01*
X4324976Y-13528376D02*
X4305929Y-13518852D01*
X4296405Y-13509328D01*
X4286881Y-13490281D01*
X4286881Y-13433138D01*
X4296405Y-13414090D01*
X4305929Y-13404567D01*
X4324976Y-13395043D01*
X4353548Y-13395043D01*
X4372595Y-13404567D01*
X4382119Y-13414090D01*
X4391643Y-13433138D01*
X4391643Y-13490281D01*
X4382119Y-13509328D01*
X4372595Y-13518852D01*
X4353548Y-13528376D01*
X4324976Y-13528376D01*
X4505929Y-13528376D02*
X4486881Y-13518852D01*
X4477357Y-13499805D01*
X4477357Y-13328376D01*
X4658310Y-13518852D02*
X4639262Y-13528376D01*
X4601167Y-13528376D01*
X4582119Y-13518852D01*
X4572595Y-13499805D01*
X4572595Y-13423614D01*
X4582119Y-13404567D01*
X4601167Y-13395043D01*
X4639262Y-13395043D01*
X4658310Y-13404567D01*
X4667833Y-13423614D01*
X4667833Y-13442662D01*
X4572595Y-13461709D01*
X4744024Y-13518852D02*
X4763071Y-13528376D01*
X4801167Y-13528376D01*
X4820214Y-13518852D01*
X4829738Y-13499805D01*
X4829738Y-13490281D01*
X4820214Y-13471233D01*
X4801167Y-13461709D01*
X4772595Y-13461709D01*
X4753548Y-13452186D01*
X4744024Y-13433138D01*
X4744024Y-13423614D01*
X4753548Y-13404567D01*
X4772595Y-13395043D01*
X4801167Y-13395043D01*
X4820214Y-13404567D01*
X4896405Y-13604567D02*
X4905929Y-13595043D01*
X4924976Y-13566471D01*
X4934500Y-13547424D01*
X4944024Y-13518852D01*
X4953548Y-13471233D01*
X4953548Y-13433138D01*
X4944024Y-13385519D01*
X4934500Y-13356948D01*
X4924976Y-13337900D01*
X4905929Y-13309328D01*
X4896405Y-13299805D01*
D20*
X-18500Y-13630400D02*
X124500Y-13773400D01*
X124500Y-13630400D02*
X-18500Y-13773400D01*
X53000Y-13773400D02*
X124500Y-13701900D01*
X53000Y-13630400D01*
X-18500Y-13701900D01*
X53000Y-13773400D01*
D11*
X486881Y-13792376D02*
X372595Y-13792376D01*
X429738Y-13792376D02*
X429738Y-13592376D01*
X410690Y-13620948D01*
X391643Y-13639995D01*
X372595Y-13649519D01*
X572595Y-13773328D02*
X582119Y-13782852D01*
X572595Y-13792376D01*
X563071Y-13782852D01*
X572595Y-13773328D01*
X572595Y-13792376D01*
X753548Y-13659043D02*
X753548Y-13792376D01*
X705928Y-13582852D02*
X658310Y-13725709D01*
X782119Y-13725709D01*
X839262Y-13592376D02*
X963071Y-13592376D01*
X896405Y-13668567D01*
X924976Y-13668567D01*
X944024Y-13678090D01*
X953548Y-13687614D01*
X963071Y-13706662D01*
X963071Y-13754281D01*
X953548Y-13773328D01*
X944024Y-13782852D01*
X924976Y-13792376D01*
X867833Y-13792376D01*
X848786Y-13782852D01*
X839262Y-13773328D01*
X1086881Y-13592376D02*
X1105929Y-13592376D01*
X1124976Y-13601900D01*
X1134500Y-13611424D01*
X1144024Y-13630471D01*
X1153548Y-13668567D01*
X1153548Y-13716186D01*
X1144024Y-13754281D01*
X1134500Y-13773328D01*
X1124976Y-13782852D01*
X1105929Y-13792376D01*
X1086881Y-13792376D01*
X1067833Y-13782852D01*
X1058310Y-13773328D01*
X1048786Y-13754281D01*
X1039262Y-13716186D01*
X1039262Y-13668567D01*
X1048786Y-13630471D01*
X1058310Y-13611424D01*
X1067833Y-13601900D01*
X1086881Y-13592376D01*
X1239262Y-13792376D02*
X1239262Y-13659043D01*
X1239262Y-13678090D02*
X1248786Y-13668567D01*
X1267833Y-13659043D01*
X1296405Y-13659043D01*
X1315452Y-13668567D01*
X1324976Y-13687614D01*
X1324976Y-13792376D01*
X1324976Y-13687614D02*
X1334500Y-13668567D01*
X1353548Y-13659043D01*
X1382119Y-13659043D01*
X1401167Y-13668567D01*
X1410690Y-13687614D01*
X1410690Y-13792376D01*
X1505928Y-13792376D02*
X1505928Y-13659043D01*
X1505928Y-13678090D02*
X1515452Y-13668567D01*
X1534500Y-13659043D01*
X1563071Y-13659043D01*
X1582119Y-13668567D01*
X1591643Y-13687614D01*
X1591643Y-13792376D01*
X1591643Y-13687614D02*
X1601167Y-13668567D01*
X1620214Y-13659043D01*
X1648786Y-13659043D01*
X1667833Y-13668567D01*
X1677357Y-13687614D01*
X1677357Y-13792376D01*
X2067833Y-13582852D02*
X1896405Y-13839995D01*
X2324976Y-13592376D02*
X2344024Y-13592376D01*
X2363071Y-13601900D01*
X2372595Y-13611424D01*
X2382119Y-13630471D01*
X2391643Y-13668567D01*
X2391643Y-13716186D01*
X2382119Y-13754281D01*
X2372595Y-13773328D01*
X2363071Y-13782852D01*
X2344024Y-13792376D01*
X2324976Y-13792376D01*
X2305929Y-13782852D01*
X2296405Y-13773328D01*
X2286881Y-13754281D01*
X2277357Y-13716186D01*
X2277357Y-13668567D01*
X2286881Y-13630471D01*
X2296405Y-13611424D01*
X2305929Y-13601900D01*
X2324976Y-13592376D01*
X2477357Y-13773328D02*
X2486881Y-13782852D01*
X2477357Y-13792376D01*
X2467833Y-13782852D01*
X2477357Y-13773328D01*
X2477357Y-13792376D01*
X2610690Y-13592376D02*
X2629738Y-13592376D01*
X2648786Y-13601900D01*
X2658310Y-13611424D01*
X2667833Y-13630471D01*
X2677357Y-13668567D01*
X2677357Y-13716186D01*
X2667833Y-13754281D01*
X2658310Y-13773328D01*
X2648786Y-13782852D01*
X2629738Y-13792376D01*
X2610690Y-13792376D01*
X2591643Y-13782852D01*
X2582119Y-13773328D01*
X2572595Y-13754281D01*
X2563071Y-13716186D01*
X2563071Y-13668567D01*
X2572595Y-13630471D01*
X2582119Y-13611424D01*
X2591643Y-13601900D01*
X2610690Y-13592376D01*
X2858309Y-13592376D02*
X2763071Y-13592376D01*
X2753548Y-13687614D01*
X2763071Y-13678090D01*
X2782119Y-13668567D01*
X2829738Y-13668567D01*
X2848786Y-13678090D01*
X2858309Y-13687614D01*
X2867833Y-13706662D01*
X2867833Y-13754281D01*
X2858309Y-13773328D01*
X2848786Y-13782852D01*
X2829738Y-13792376D01*
X2782119Y-13792376D01*
X2763071Y-13782852D01*
X2753548Y-13773328D01*
X3039262Y-13592376D02*
X3001167Y-13592376D01*
X2982119Y-13601900D01*
X2972595Y-13611424D01*
X2953548Y-13639995D01*
X2944024Y-13678090D01*
X2944024Y-13754281D01*
X2953548Y-13773328D01*
X2963071Y-13782852D01*
X2982119Y-13792376D01*
X3020214Y-13792376D01*
X3039262Y-13782852D01*
X3048786Y-13773328D01*
X3058309Y-13754281D01*
X3058309Y-13706662D01*
X3048786Y-13687614D01*
X3039262Y-13678090D01*
X3020214Y-13668567D01*
X2982119Y-13668567D01*
X2963071Y-13678090D01*
X2953548Y-13687614D01*
X2944024Y-13706662D01*
X3124976Y-13592376D02*
X3248786Y-13592376D01*
X3182119Y-13668567D01*
X3210690Y-13668567D01*
X3229738Y-13678090D01*
X3239262Y-13687614D01*
X3248786Y-13706662D01*
X3248786Y-13754281D01*
X3239262Y-13773328D01*
X3229738Y-13782852D01*
X3210690Y-13792376D01*
X3153548Y-13792376D01*
X3134500Y-13782852D01*
X3124976Y-13773328D01*
X3324976Y-13592376D02*
X3324976Y-13630471D01*
X3401167Y-13592376D02*
X3401167Y-13630471D01*
X3696405Y-13868567D02*
X3686881Y-13859043D01*
X3667833Y-13830471D01*
X3658309Y-13811424D01*
X3648786Y-13782852D01*
X3639262Y-13735233D01*
X3639262Y-13697138D01*
X3648786Y-13649519D01*
X3658309Y-13620948D01*
X3667833Y-13601900D01*
X3686881Y-13573328D01*
X3696405Y-13563805D01*
X3867833Y-13592376D02*
X3772595Y-13592376D01*
X3763071Y-13687614D01*
X3772595Y-13678090D01*
X3791643Y-13668567D01*
X3839262Y-13668567D01*
X3858309Y-13678090D01*
X3867833Y-13687614D01*
X3877357Y-13706662D01*
X3877357Y-13754281D01*
X3867833Y-13773328D01*
X3858309Y-13782852D01*
X3839262Y-13792376D01*
X3791643Y-13792376D01*
X3772595Y-13782852D01*
X3763071Y-13773328D01*
X4115452Y-13792376D02*
X4115452Y-13592376D01*
X4201167Y-13792376D02*
X4201167Y-13687614D01*
X4191643Y-13668567D01*
X4172595Y-13659043D01*
X4144024Y-13659043D01*
X4124976Y-13668567D01*
X4115452Y-13678090D01*
X4324976Y-13792376D02*
X4305929Y-13782852D01*
X4296405Y-13773328D01*
X4286881Y-13754281D01*
X4286881Y-13697138D01*
X4296405Y-13678090D01*
X4305929Y-13668567D01*
X4324976Y-13659043D01*
X4353548Y-13659043D01*
X4372595Y-13668567D01*
X4382119Y-13678090D01*
X4391643Y-13697138D01*
X4391643Y-13754281D01*
X4382119Y-13773328D01*
X4372595Y-13782852D01*
X4353548Y-13792376D01*
X4324976Y-13792376D01*
X4505929Y-13792376D02*
X4486881Y-13782852D01*
X4477357Y-13763805D01*
X4477357Y-13592376D01*
X4658310Y-13782852D02*
X4639262Y-13792376D01*
X4601167Y-13792376D01*
X4582119Y-13782852D01*
X4572595Y-13763805D01*
X4572595Y-13687614D01*
X4582119Y-13668567D01*
X4601167Y-13659043D01*
X4639262Y-13659043D01*
X4658310Y-13668567D01*
X4667833Y-13687614D01*
X4667833Y-13706662D01*
X4572595Y-13725709D01*
X4744024Y-13782852D02*
X4763071Y-13792376D01*
X4801167Y-13792376D01*
X4820214Y-13782852D01*
X4829738Y-13763805D01*
X4829738Y-13754281D01*
X4820214Y-13735233D01*
X4801167Y-13725709D01*
X4772595Y-13725709D01*
X4753548Y-13716186D01*
X4744024Y-13697138D01*
X4744024Y-13687614D01*
X4753548Y-13668567D01*
X4772595Y-13659043D01*
X4801167Y-13659043D01*
X4820214Y-13668567D01*
X4896405Y-13868567D02*
X4905929Y-13859043D01*
X4924976Y-13830471D01*
X4934500Y-13811424D01*
X4944024Y-13782852D01*
X4953548Y-13735233D01*
X4953548Y-13697138D01*
X4944024Y-13649519D01*
X4934500Y-13620948D01*
X4924976Y-13601900D01*
X4905929Y-13573328D01*
X4896405Y-13563805D01*
D21*
X34500Y-13875900D02*
X34500Y-14055900D01*
X-55500Y-13965900D02*
X124500Y-13965900D01*
X124500Y-13965900D02*
G75*
G03*
X124500Y-13965900I-90000J0D01*
G01*
D11*
X486881Y-14056376D02*
X372595Y-14056376D01*
X429738Y-14056376D02*
X429738Y-13856376D01*
X410690Y-13884948D01*
X391643Y-13903995D01*
X372595Y-13913519D01*
X572595Y-14037328D02*
X582119Y-14046852D01*
X572595Y-14056376D01*
X563071Y-14046852D01*
X572595Y-14037328D01*
X572595Y-14056376D01*
X696405Y-13942090D02*
X677357Y-13932567D01*
X667833Y-13923043D01*
X658310Y-13903995D01*
X658310Y-13894471D01*
X667833Y-13875424D01*
X677357Y-13865900D01*
X696405Y-13856376D01*
X734500Y-13856376D01*
X753548Y-13865900D01*
X763071Y-13875424D01*
X772595Y-13894471D01*
X772595Y-13903995D01*
X763071Y-13923043D01*
X753548Y-13932567D01*
X734500Y-13942090D01*
X696405Y-13942090D01*
X677357Y-13951614D01*
X667833Y-13961138D01*
X658310Y-13980186D01*
X658310Y-14018281D01*
X667833Y-14037328D01*
X677357Y-14046852D01*
X696405Y-14056376D01*
X734500Y-14056376D01*
X753548Y-14046852D01*
X763071Y-14037328D01*
X772595Y-14018281D01*
X772595Y-13980186D01*
X763071Y-13961138D01*
X753548Y-13951614D01*
X734500Y-13942090D01*
X896405Y-13856376D02*
X915452Y-13856376D01*
X934500Y-13865900D01*
X944024Y-13875424D01*
X953548Y-13894471D01*
X963071Y-13932567D01*
X963071Y-13980186D01*
X953548Y-14018281D01*
X944024Y-14037328D01*
X934500Y-14046852D01*
X915452Y-14056376D01*
X896405Y-14056376D01*
X877357Y-14046852D01*
X867833Y-14037328D01*
X858309Y-14018281D01*
X848786Y-13980186D01*
X848786Y-13932567D01*
X858309Y-13894471D01*
X867833Y-13875424D01*
X877357Y-13865900D01*
X896405Y-13856376D01*
X1086881Y-13856376D02*
X1105929Y-13856376D01*
X1124976Y-13865900D01*
X1134500Y-13875424D01*
X1144024Y-13894471D01*
X1153548Y-13932567D01*
X1153548Y-13980186D01*
X1144024Y-14018281D01*
X1134500Y-14037328D01*
X1124976Y-14046852D01*
X1105929Y-14056376D01*
X1086881Y-14056376D01*
X1067833Y-14046852D01*
X1058310Y-14037328D01*
X1048786Y-14018281D01*
X1039262Y-13980186D01*
X1039262Y-13932567D01*
X1048786Y-13894471D01*
X1058310Y-13875424D01*
X1067833Y-13865900D01*
X1086881Y-13856376D01*
X1239262Y-14056376D02*
X1239262Y-13923043D01*
X1239262Y-13942090D02*
X1248786Y-13932567D01*
X1267833Y-13923043D01*
X1296405Y-13923043D01*
X1315452Y-13932567D01*
X1324976Y-13951614D01*
X1324976Y-14056376D01*
X1324976Y-13951614D02*
X1334500Y-13932567D01*
X1353548Y-13923043D01*
X1382119Y-13923043D01*
X1401167Y-13932567D01*
X1410690Y-13951614D01*
X1410690Y-14056376D01*
X1505928Y-14056376D02*
X1505928Y-13923043D01*
X1505928Y-13942090D02*
X1515452Y-13932567D01*
X1534500Y-13923043D01*
X1563071Y-13923043D01*
X1582119Y-13932567D01*
X1591643Y-13951614D01*
X1591643Y-14056376D01*
X1591643Y-13951614D02*
X1601167Y-13932567D01*
X1620214Y-13923043D01*
X1648786Y-13923043D01*
X1667833Y-13932567D01*
X1677357Y-13951614D01*
X1677357Y-14056376D01*
X2067833Y-13846852D02*
X1896405Y-14103995D01*
X2324976Y-13856376D02*
X2344024Y-13856376D01*
X2363071Y-13865900D01*
X2372595Y-13875424D01*
X2382119Y-13894471D01*
X2391643Y-13932567D01*
X2391643Y-13980186D01*
X2382119Y-14018281D01*
X2372595Y-14037328D01*
X2363071Y-14046852D01*
X2344024Y-14056376D01*
X2324976Y-14056376D01*
X2305929Y-14046852D01*
X2296405Y-14037328D01*
X2286881Y-14018281D01*
X2277357Y-13980186D01*
X2277357Y-13932567D01*
X2286881Y-13894471D01*
X2296405Y-13875424D01*
X2305929Y-13865900D01*
X2324976Y-13856376D01*
X2477357Y-14037328D02*
X2486881Y-14046852D01*
X2477357Y-14056376D01*
X2467833Y-14046852D01*
X2477357Y-14037328D01*
X2477357Y-14056376D01*
X2610690Y-13856376D02*
X2629738Y-13856376D01*
X2648786Y-13865900D01*
X2658310Y-13875424D01*
X2667833Y-13894471D01*
X2677357Y-13932567D01*
X2677357Y-13980186D01*
X2667833Y-14018281D01*
X2658310Y-14037328D01*
X2648786Y-14046852D01*
X2629738Y-14056376D01*
X2610690Y-14056376D01*
X2591643Y-14046852D01*
X2582119Y-14037328D01*
X2572595Y-14018281D01*
X2563071Y-13980186D01*
X2563071Y-13932567D01*
X2572595Y-13894471D01*
X2582119Y-13875424D01*
X2591643Y-13865900D01*
X2610690Y-13856376D01*
X2744024Y-13856376D02*
X2877357Y-13856376D01*
X2791643Y-14056376D01*
X2991643Y-13856376D02*
X3010690Y-13856376D01*
X3029738Y-13865900D01*
X3039262Y-13875424D01*
X3048786Y-13894471D01*
X3058309Y-13932567D01*
X3058309Y-13980186D01*
X3048786Y-14018281D01*
X3039262Y-14037328D01*
X3029738Y-14046852D01*
X3010690Y-14056376D01*
X2991643Y-14056376D01*
X2972595Y-14046852D01*
X2963071Y-14037328D01*
X2953548Y-14018281D01*
X2944024Y-13980186D01*
X2944024Y-13932567D01*
X2953548Y-13894471D01*
X2963071Y-13875424D01*
X2972595Y-13865900D01*
X2991643Y-13856376D01*
X3153548Y-14056376D02*
X3191643Y-14056376D01*
X3210690Y-14046852D01*
X3220214Y-14037328D01*
X3239262Y-14008757D01*
X3248786Y-13970662D01*
X3248786Y-13894471D01*
X3239262Y-13875424D01*
X3229738Y-13865900D01*
X3210690Y-13856376D01*
X3172595Y-13856376D01*
X3153548Y-13865900D01*
X3144024Y-13875424D01*
X3134500Y-13894471D01*
X3134500Y-13942090D01*
X3144024Y-13961138D01*
X3153548Y-13970662D01*
X3172595Y-13980186D01*
X3210690Y-13980186D01*
X3229738Y-13970662D01*
X3239262Y-13961138D01*
X3248786Y-13942090D01*
X3324976Y-13856376D02*
X3324976Y-13894471D01*
X3401167Y-13856376D02*
X3401167Y-13894471D01*
X3696405Y-14132567D02*
X3686881Y-14123043D01*
X3667833Y-14094471D01*
X3658309Y-14075424D01*
X3648786Y-14046852D01*
X3639262Y-13999233D01*
X3639262Y-13961138D01*
X3648786Y-13913519D01*
X3658309Y-13884948D01*
X3667833Y-13865900D01*
X3686881Y-13837328D01*
X3696405Y-13827805D01*
X3810690Y-13856376D02*
X3829738Y-13856376D01*
X3848786Y-13865900D01*
X3858309Y-13875424D01*
X3867833Y-13894471D01*
X3877357Y-13932567D01*
X3877357Y-13980186D01*
X3867833Y-14018281D01*
X3858309Y-14037328D01*
X3848786Y-14046852D01*
X3829738Y-14056376D01*
X3810690Y-14056376D01*
X3791643Y-14046852D01*
X3782119Y-14037328D01*
X3772595Y-14018281D01*
X3763071Y-13980186D01*
X3763071Y-13932567D01*
X3772595Y-13894471D01*
X3782119Y-13875424D01*
X3791643Y-13865900D01*
X3810690Y-13856376D01*
X4115452Y-14056376D02*
X4115452Y-13856376D01*
X4201167Y-14056376D02*
X4201167Y-13951614D01*
X4191643Y-13932567D01*
X4172595Y-13923043D01*
X4144024Y-13923043D01*
X4124976Y-13932567D01*
X4115452Y-13942090D01*
X4324976Y-14056376D02*
X4305929Y-14046852D01*
X4296405Y-14037328D01*
X4286881Y-14018281D01*
X4286881Y-13961138D01*
X4296405Y-13942090D01*
X4305929Y-13932567D01*
X4324976Y-13923043D01*
X4353548Y-13923043D01*
X4372595Y-13932567D01*
X4382119Y-13942090D01*
X4391643Y-13961138D01*
X4391643Y-14018281D01*
X4382119Y-14037328D01*
X4372595Y-14046852D01*
X4353548Y-14056376D01*
X4324976Y-14056376D01*
X4505929Y-14056376D02*
X4486881Y-14046852D01*
X4477357Y-14027805D01*
X4477357Y-13856376D01*
X4658310Y-14046852D02*
X4639262Y-14056376D01*
X4601167Y-14056376D01*
X4582119Y-14046852D01*
X4572595Y-14027805D01*
X4572595Y-13951614D01*
X4582119Y-13932567D01*
X4601167Y-13923043D01*
X4639262Y-13923043D01*
X4658310Y-13932567D01*
X4667833Y-13951614D01*
X4667833Y-13970662D01*
X4572595Y-13989709D01*
X4744024Y-14046852D02*
X4763071Y-14056376D01*
X4801167Y-14056376D01*
X4820214Y-14046852D01*
X4829738Y-14027805D01*
X4829738Y-14018281D01*
X4820214Y-13999233D01*
X4801167Y-13989709D01*
X4772595Y-13989709D01*
X4753548Y-13980186D01*
X4744024Y-13961138D01*
X4744024Y-13951614D01*
X4753548Y-13932567D01*
X4772595Y-13923043D01*
X4801167Y-13923043D01*
X4820214Y-13932567D01*
X5067833Y-13980186D02*
X5220214Y-13980186D01*
X5144024Y-14056376D02*
X5144024Y-13903995D01*
X5572595Y-14056376D02*
X5458310Y-14056376D01*
X5515452Y-14056376D02*
X5515452Y-13856376D01*
X5496405Y-13884948D01*
X5477357Y-13903995D01*
X5458310Y-13913519D01*
X5744024Y-13856376D02*
X5705928Y-13856376D01*
X5686881Y-13865900D01*
X5677357Y-13875424D01*
X5658309Y-13903995D01*
X5648786Y-13942090D01*
X5648786Y-14018281D01*
X5658309Y-14037328D01*
X5667833Y-14046852D01*
X5686881Y-14056376D01*
X5724976Y-14056376D01*
X5744024Y-14046852D01*
X5753548Y-14037328D01*
X5763071Y-14018281D01*
X5763071Y-13970662D01*
X5753548Y-13951614D01*
X5744024Y-13942090D01*
X5724976Y-13932567D01*
X5686881Y-13932567D01*
X5667833Y-13942090D01*
X5658309Y-13951614D01*
X5648786Y-13970662D01*
X5991643Y-14046852D02*
X6010690Y-14056376D01*
X6048786Y-14056376D01*
X6067833Y-14046852D01*
X6077357Y-14027805D01*
X6077357Y-14018281D01*
X6067833Y-13999233D01*
X6048786Y-13989709D01*
X6020214Y-13989709D01*
X6001167Y-13980186D01*
X5991643Y-13961138D01*
X5991643Y-13951614D01*
X6001167Y-13932567D01*
X6020214Y-13923043D01*
X6048786Y-13923043D01*
X6067833Y-13932567D01*
X6191643Y-14056376D02*
X6172595Y-14046852D01*
X6163071Y-14027805D01*
X6163071Y-13856376D01*
X6296405Y-14056376D02*
X6277357Y-14046852D01*
X6267833Y-14037328D01*
X6258309Y-14018281D01*
X6258309Y-13961138D01*
X6267833Y-13942090D01*
X6277357Y-13932567D01*
X6296405Y-13923043D01*
X6324976Y-13923043D01*
X6344024Y-13932567D01*
X6353548Y-13942090D01*
X6363071Y-13961138D01*
X6363071Y-14018281D01*
X6353548Y-14037328D01*
X6344024Y-14046852D01*
X6324976Y-14056376D01*
X6296405Y-14056376D01*
X6420214Y-13923043D02*
X6496405Y-13923043D01*
X6448786Y-13856376D02*
X6448786Y-14027805D01*
X6458309Y-14046852D01*
X6477357Y-14056376D01*
X6496405Y-14056376D01*
X6553548Y-14046852D02*
X6572595Y-14056376D01*
X6610690Y-14056376D01*
X6629738Y-14046852D01*
X6639262Y-14027805D01*
X6639262Y-14018281D01*
X6629738Y-13999233D01*
X6610690Y-13989709D01*
X6582119Y-13989709D01*
X6563071Y-13980186D01*
X6553548Y-13961138D01*
X6553548Y-13951614D01*
X6563071Y-13932567D01*
X6582119Y-13923043D01*
X6610690Y-13923043D01*
X6629738Y-13932567D01*
X6705928Y-14132567D02*
X6715452Y-14123043D01*
X6734500Y-14094471D01*
X6744024Y-14075424D01*
X6753548Y-14046852D01*
X6763071Y-13999233D01*
X6763071Y-13961138D01*
X6753548Y-13913519D01*
X6744024Y-13884948D01*
X6734500Y-13865900D01*
X6715452Y-13837328D01*
X6705928Y-13827805D01*
M02*
