M48
; DRILL file {KiCad 6.0.9-8da3e8f707~118~ubuntu22.10.1} date Mi 30 Nov 2022 23:30:04 CET
; FORMAT={-:-/ absolute / metric / decimal}
; #@! TF.CreationDate,2022-11-30T23:30:04+01:00
; #@! TF.GenerationSoftware,Kicad,Pcbnew,6.0.9-8da3e8f707~118~ubuntu22.10.1
; #@! TF.FileFunction,Plated,1,2,PTH
FMAT,2
METRIC
; #@! TA.AperFunction,Plated,PTH,ViaDrill
T1C0.400
; #@! TA.AperFunction,Plated,PTH,ComponentDrill
T2C0.710
; #@! TA.AperFunction,Plated,PTH,ComponentDrill
T3C0.800
; #@! TA.AperFunction,Plated,PTH,ComponentDrill
T4C0.900
; #@! TA.AperFunction,Plated,PTH,ComponentDrill
T5C0.950
; #@! TA.AperFunction,Plated,PTH,ComponentDrill
T6C1.000
; #@! TA.AperFunction,Plated,PTH,ComponentDrill
T7C1.220
; #@! TA.AperFunction,Plated,PTH,ComponentDrill
T8C1.420
; #@! TA.AperFunction,Plated,PTH,ComponentDrill
T9C1.430
; #@! TA.AperFunction,Plated,PTH,ComponentDrill
T10C1.800
%
G90
G05
T1
X2.286Y-93.726
X2.54Y-64.008
X3.0Y-108.5
X3.81Y-65.786
X4.318Y-30.988
X4.572Y-78.486
X6.35Y-98.552
X6.604Y-1.778
X9.144Y-66.294
X9.906Y-98.298
X13.0Y-66.0
X13.0Y-83.0
X13.462Y-95.25
X14.478Y-106.68
X15.494Y-92.456
X15.494Y-103.378
X16.002Y-80.518
X17.78Y-81.28
X18.847Y-12.598
X18.923Y-69.723
X19.507Y-1.727
X20.066Y-81.28
X21.0Y-97.0
X22.098Y-106.934
X22.86Y-91.948
X24.13Y-83.82
X25.0Y-43.5
X25.146Y-87.63
X25.5Y-49.5
X25.908Y-65.532
X25.959Y-5.537
X26.162Y-88.9
X26.5Y-94.5
X26.671Y-61.467
X26.924Y-81.28
X26.924Y-84.328
X27.0Y-105.5
X27.178Y-93.472
X27.5Y-64.5
X27.686Y-72.898
X30.0Y-19.5
X30.988Y-11.176
X31.242Y-84.328
X32.004Y-29.718
X32.258Y-57.658
X32.41Y-1.727
X33.284Y-64.515
X33.284Y-76.962
X34.544Y-86.614
X34.554Y-53.339
X34.554Y-61.467
X34.554Y-82.803
X34.554Y-84.581
X35.814Y-66.802
X35.814Y-81.28
X36.576Y-73.406
X36.982Y-15.037
X37.846Y-35.56
X38.608Y-89.662
X39.878Y-39.624
X40.386Y-87.376
X40.5Y-107.0
X41.5Y-52.0
X42.164Y-36.576
X42.418Y-57.404
X42.418Y-65.786
X42.926Y-39.37
X43.18Y-68.58
X43.942Y-34.29
X44.196Y-77.978
X44.704Y-88.138
X44.704Y-89.662
X44.958Y-52.324
X44.958Y-67.056
X45.0Y-54.5
X45.568Y-30.836
X45.743Y-69.111
X46.482Y-69.85
X46.99Y-35.306
X46.99Y-37.084
X47.092Y-2.489
X47.244Y-60.198
X47.371Y-18.034
X47.498Y-20.066
X48.0Y-96.5
X48.006Y-52.324
X48.006Y-54.61
X48.158Y-6.655
X48.158Y-10.211
X48.26Y-67.818
X48.26Y-69.85
X48.26Y-81.534
X48.27Y-46.481
X48.276Y-33.792
X48.387Y-25.019
X48.5Y-60.0
X48.557Y-64.305
X49.286Y-28.701
X49.286Y-37.083
X49.911Y-20.828
X50.546Y-27.686
X51.5Y-18.0
X51.5Y-38.5
X51.562Y-35.814
X51.562Y-52.324
X51.562Y-59.69
X51.816Y-54.356
X52.0Y-19.0
X52.5Y-101.0
X52.578Y-88.138
X52.578Y-92.456
X52.832Y-16.256
X53.0Y-39.0
X53.0Y-41.5
X53.0Y-45.0
X53.086Y-31.75
X53.34Y-71.374
X53.5Y-48.0
X53.5Y-96.5
X53.848Y-65.786
X54.0Y-35.5
X54.356Y-89.154
X54.61Y-67.818
X54.61Y-69.85
X54.61Y-73.66
X54.61Y-85.598
X54.812Y-71.374
X54.915Y-3.708
X55.372Y-93.98
X55.382Y-51.815
X56.492Y-69.192
X56.642Y-19.304
X56.896Y-65.786
X57.0Y-35.5
X58.0Y-41.5
X58.0Y-45.0
X58.0Y-48.0
X58.166Y-70.104
X58.928Y-96.113
X58.928Y-99.568
X59.436Y-58.674
X60.0Y-32.0
X60.198Y-55.372
X60.35Y-16.002
X60.706Y-11.176
X61.0Y-28.5
X61.0Y-97.0
X61.57Y-1.575
X61.732Y-51.815
X62.484Y-63.5
X62.5Y-30.5
X62.738Y-106.934
X62.992Y-91.186
X62.992Y-94.488
X63.0Y-67.0
X63.0Y-71.0
X63.703Y-12.649
X64.008Y-5.029
X65.0Y-65.0
X65.278Y-89.154
X66.04Y-76.708
X66.04Y-81.534
X66.548Y-80.518
X67.31Y-82.804
X67.32Y-108.203
X67.326Y-91.434
X67.5Y-35.0
X67.5Y-40.5
X67.818Y-51.816
X69.342Y-47.244
X69.5Y-62.0
X69.5Y-64.0
X70.866Y-60.452
X71.0Y-52.0
X71.628Y-92.964
X71.628Y-105.156
X71.628Y-108.458
X72.0Y-54.5
X72.644Y-64.262
X73.0Y-61.5
X73.227Y-96.012
X73.416Y-53.339
X75.184Y-75.946
X75.946Y-70.612
X76.2Y-99.06
X76.2Y-102.108
X76.708Y-89.916
X77.978Y-68.072
X78.486Y-2.54
X78.486Y-30.734
X78.486Y-46.228
X78.74Y-84.074
X78.74Y-108.458
T3
X4.836Y-100.583
X4.836Y-103.631
X4.836Y-106.679
X6.614Y-90.931
X6.614Y-93.471
X6.614Y-96.011
X7.122Y-38.099
X7.122Y-41.147
X7.376Y-61.467
X7.376Y-64.515
X10.932Y-90.971
X10.932Y-95.971
X12.456Y-100.583
X12.456Y-103.631
X12.456Y-106.679
X14.742Y-38.099
X14.742Y-41.147
X14.996Y-61.467
X14.996Y-64.515
X17.018Y-91.434
X17.018Y-93.974
X17.018Y-96.514
X17.018Y-99.054
X17.018Y-101.594
X17.018Y-104.134
X17.018Y-106.674
X18.378Y-85.343
X18.378Y-88.343
X22.616Y-62.991
X23.114Y-22.987
X23.378Y-76.961
X23.378Y-79.501
X23.378Y-82.041
X23.378Y-85.343
X23.378Y-88.343
X23.408Y-56.769
X24.638Y-91.434
X24.638Y-93.974
X24.638Y-96.514
X24.638Y-99.054
X24.638Y-101.594
X24.638Y-104.134
X24.638Y-106.674
X27.95Y-30.479
X27.95Y-38.099
X27.95Y-41.909
X27.95Y-49.529
X28.114Y-22.987
X28.408Y-56.769
X28.712Y-95.075
X28.712Y-100.075
X30.236Y-62.991
X30.427Y-91.184
X30.49Y-88.137
X30.49Y-103.631
X30.49Y-106.679
X32.014Y-33.059
X32.014Y-35.559
X32.014Y-39.623
X32.014Y-42.123
X32.268Y-94.995
X32.268Y-97.535
X32.268Y-100.075
X37.094Y-38.099
X37.094Y-41.147
X37.094Y-61.467
X37.094Y-64.515
X37.348Y-94.995
X37.348Y-97.535
X37.348Y-100.075
X38.047Y-91.184
X38.11Y-88.137
X38.11Y-103.631
X38.11Y-106.679
X43.19Y-85.851
X43.19Y-88.899
X43.19Y-91.947
X43.19Y-94.995
X43.19Y-97.789
X43.19Y-100.583
X43.19Y-103.631
X43.19Y-106.679
X44.714Y-38.099
X44.714Y-41.147
X44.714Y-61.467
X44.714Y-64.515
X45.5Y-8.38
X45.5Y-16.0
X50.81Y-85.851
X50.81Y-88.899
X50.81Y-91.947
X50.81Y-94.995
X50.81Y-97.789
X50.81Y-100.583
X50.81Y-103.631
X50.81Y-106.679
X51.826Y-40.147
X51.826Y-43.179
X51.826Y-46.481
X51.826Y-49.529
X51.826Y-61.467
X51.826Y-64.515
X53.136Y-34.083
X53.136Y-37.115
X54.366Y-101.639
X54.366Y-106.639
X57.15Y-91.434
X57.15Y-93.974
X57.15Y-96.514
X57.15Y-99.054
X57.15Y-101.594
X57.15Y-104.134
X57.15Y-106.674
X58.136Y-34.083
X58.136Y-37.115
X58.47Y-85.343
X58.47Y-88.343
X59.446Y-40.147
X59.446Y-43.179
X59.446Y-46.481
X59.446Y-49.529
X59.446Y-61.467
X59.446Y-64.515
X63.47Y-85.343
X63.47Y-88.343
X63.51Y-32.257
X63.51Y-34.797
X63.51Y-37.337
X63.51Y-39.369
X63.51Y-41.909
X63.51Y-44.449
X64.77Y-91.434
X64.77Y-93.974
X64.77Y-96.514
X64.77Y-99.054
X64.77Y-101.594
X64.77Y-104.134
X64.77Y-106.674
X67.32Y-62.991
X70.114Y-88.391
X70.114Y-91.439
X70.114Y-94.487
X70.114Y-97.535
X70.114Y-100.583
X70.114Y-103.631
X70.114Y-106.679
X71.374Y-85.09
X73.914Y-82.55
X74.94Y-34.035
X74.94Y-41.655
X74.94Y-62.991
X76.454Y-85.09
X77.734Y-88.391
X77.734Y-91.439
X77.734Y-94.487
X77.734Y-97.535
X77.734Y-100.583
X77.734Y-103.631
X77.734Y-106.679
X77.988Y-34.035
X77.988Y-41.655
T4
X39.725Y-6.5
X42.265Y-6.5
X69.855Y-39.37
X72.395Y-39.37
T6
X8.382Y-56.083
X8.557Y-31.208
X8.557Y-81.108
X10.882Y-56.083
X11.057Y-31.208
X11.057Y-81.108
X13.382Y-56.083
X13.557Y-31.208
X13.557Y-81.108
X20.384Y-34.509
X20.384Y-37.049
X20.384Y-39.589
X20.384Y-42.129
X20.384Y-44.669
X22.22Y-52.451
X22.25Y-27.483
X22.924Y-34.509
X22.924Y-37.049
X22.924Y-39.589
X22.924Y-42.129
X22.924Y-44.669
X23.368Y-71.511
X23.368Y-74.051
X23.551Y-13.544
X24.76Y-52.451
X24.79Y-27.483
X26.051Y-13.544
X28.551Y-13.544
X38.532Y-55.983
X38.545Y-31.208
X41.032Y-55.983
X41.045Y-31.208
X43.532Y-55.983
X43.545Y-31.208
X54.858Y-21.082
X54.858Y-23.622
X54.858Y-26.162
X54.858Y-28.702
X57.398Y-21.082
X57.398Y-23.622
X57.398Y-26.162
X57.398Y-28.702
X68.532Y-31.208
X68.557Y-56.033
X71.032Y-31.208
X71.057Y-56.033
X73.532Y-31.208
X73.557Y-56.033
T7
X30.992Y-67.531
X40.992Y-67.531
X50.992Y-67.531
X60.992Y-67.531
X70.992Y-67.531
T8
X30.992Y-70.631
X40.992Y-70.631
X50.992Y-70.631
X60.992Y-70.631
X70.992Y-70.631
T9
X30.992Y-78.931
X40.992Y-78.931
X50.992Y-78.931
X60.992Y-78.931
X70.992Y-78.931
T2
G00X52.629Y-4.088
M15
G01X52.379Y-4.088
M16
G05
G00X52.629Y-9.168
M15
G01X52.379Y-9.168
M16
G05
G00X57.714Y-4.088
M15
G01X57.464Y-4.088
M16
G05
G00X57.714Y-9.168
M15
G01X57.464Y-9.168
M16
G05
T5
G00X53.259Y-1.904
M15
G01X51.959Y-1.904
M16
G05
G00X53.259Y-6.604
M15
G01X51.959Y-6.604
M16
G05
G00X53.259Y-11.304
M15
G01X51.959Y-11.304
M16
G05
G00X58.089Y-1.904
M15
G01X56.789Y-1.904
M16
G05
G00X58.089Y-6.604
M15
G01X56.789Y-6.604
M16
G05
G00X58.089Y-11.304
M15
G01X56.789Y-11.304
M16
G05
T10
G00X6.482Y-49.233
M15
G01X6.482Y-48.933
M16
G05
G00X6.657Y-24.358
M15
G01X6.657Y-24.058
M16
G05
G00X6.657Y-74.258
M15
G01X6.657Y-73.958
M16
G05
G00X15.282Y-49.233
M15
G01X15.282Y-48.933
M16
G05
G00X15.457Y-24.358
M15
G01X15.457Y-24.058
M16
G05
G00X15.457Y-74.258
M15
G01X15.457Y-73.958
M16
G05
G00X21.651Y-6.694
M15
G01X21.651Y-6.394
M16
G05
G00X30.451Y-6.694
M15
G01X30.451Y-6.394
M16
G05
G00X36.632Y-49.133
M15
G01X36.632Y-48.833
M16
G05
G00X36.645Y-24.358
M15
G01X36.645Y-24.058
M16
G05
G00X45.432Y-49.133
M15
G01X45.432Y-48.833
M16
G05
G00X45.445Y-24.358
M15
G01X45.445Y-24.058
M16
G05
G00X66.632Y-24.358
M15
G01X66.632Y-24.058
M16
G05
G00X66.657Y-49.183
M15
G01X66.657Y-48.883
M16
G05
G00X75.432Y-24.358
M15
G01X75.432Y-24.058
M16
G05
G00X75.457Y-49.183
M15
G01X75.457Y-48.883
M16
G05
T0
M30
