%TF.GenerationSoftware,KiCad,Pcbnew,6.99.0-unknown-0ee7f8e2bd~162~ubuntu22.10.1*%
%TF.CreationDate,2022-11-30T23:28:28+01:00*%
%TF.ProjectId,frontpanel,66726f6e-7470-4616-9e65-6c2e6b696361,rev?*%
%TF.SameCoordinates,Original*%
%TF.FileFunction,Drillmap*%
%TF.FilePolarity,Positive*%
%FSLAX45Y45*%
G04 Gerber Fmt 4.5, Leading zero omitted, Abs format (unit mm)*
G04 Created by KiCad (PCBNEW 6.99.0-unknown-0ee7f8e2bd~162~ubuntu22.10.1) date 2022-11-30 23:28:28*
%MOMM*%
%LPD*%
G01*
G04 APERTURE LIST*
%ADD10C,0.100000*%
%ADD11C,0.200000*%
G04 APERTURE END LIST*
D10*
X6934200Y-3683000D02*
X15024200Y-3683000D01*
X15024200Y-3683000D02*
X15024200Y-16535400D01*
X15024200Y-16535400D02*
X6934200Y-16535400D01*
X6934200Y-16535400D02*
X6934200Y-3683000D01*
X9847056Y-5367000D02*
G75*
G03*
X9847056Y-5367000I-315000J0D01*
G01*
X8331000Y-9625600D02*
G75*
G03*
X8331000Y-9625600I-315000J0D01*
G01*
X12769624Y-5367000D02*
G75*
G03*
X12769624Y-5367000I-340000J0D01*
G01*
X10337000Y-12096600D02*
G75*
G03*
X10337000Y-12096600I-310000J0D01*
G01*
X8347000Y-7136600D02*
G75*
G03*
X8347000Y-7136600I-315000J0D01*
G01*
X11343000Y-9616600D02*
G75*
G03*
X11343000Y-9616600I-315000J0D01*
G01*
X14345000Y-7138600D02*
G75*
G03*
X14345000Y-7138600I-315000J0D01*
G01*
X14336600Y-12096600D02*
G75*
G03*
X14336600Y-12096600I-310000J0D01*
G01*
X13337000Y-12096600D02*
G75*
G03*
X13337000Y-12096600I-310000J0D01*
G01*
X11346000Y-7138600D02*
G75*
G03*
X11346000Y-7138600I-315000J0D01*
G01*
X11337000Y-12096600D02*
G75*
G03*
X11337000Y-12096600I-310000J0D01*
G01*
X12337000Y-12096600D02*
G75*
G03*
X12337000Y-12096600I-310000J0D01*
G01*
X14186600Y-8634600D02*
G75*
G03*
X14186600Y-8634600I-151000J0D01*
G01*
X14342000Y-9616600D02*
G75*
G03*
X14342000Y-9616600I-315000J0D01*
G01*
X8342000Y-12126600D02*
G75*
G03*
X8342000Y-12126600I-310000J0D01*
G01*
X11175600Y-5341600D02*
G75*
G03*
X11175600Y-5341600I-151000J0D01*
G01*
D11*
X7176819Y-16833876D02*
X7176819Y-16633876D01*
X7176819Y-16633876D02*
X7224438Y-16633876D01*
X7224438Y-16633876D02*
X7253009Y-16643400D01*
X7253009Y-16643400D02*
X7272057Y-16662448D01*
X7272057Y-16662448D02*
X7281581Y-16681495D01*
X7281581Y-16681495D02*
X7291105Y-16719590D01*
X7291105Y-16719590D02*
X7291105Y-16748162D01*
X7291105Y-16748162D02*
X7281581Y-16786257D01*
X7281581Y-16786257D02*
X7272057Y-16805305D01*
X7272057Y-16805305D02*
X7253009Y-16824352D01*
X7253009Y-16824352D02*
X7224438Y-16833876D01*
X7224438Y-16833876D02*
X7176819Y-16833876D01*
X7376819Y-16833876D02*
X7376819Y-16700543D01*
X7376819Y-16738638D02*
X7386343Y-16719590D01*
X7386343Y-16719590D02*
X7395867Y-16710067D01*
X7395867Y-16710067D02*
X7414914Y-16700543D01*
X7414914Y-16700543D02*
X7433962Y-16700543D01*
X7500628Y-16833876D02*
X7500628Y-16700543D01*
X7500628Y-16633876D02*
X7491105Y-16643400D01*
X7491105Y-16643400D02*
X7500628Y-16652924D01*
X7500628Y-16652924D02*
X7510152Y-16643400D01*
X7510152Y-16643400D02*
X7500628Y-16633876D01*
X7500628Y-16633876D02*
X7500628Y-16652924D01*
X7624438Y-16833876D02*
X7605390Y-16824352D01*
X7605390Y-16824352D02*
X7595867Y-16805305D01*
X7595867Y-16805305D02*
X7595867Y-16633876D01*
X7729200Y-16833876D02*
X7710152Y-16824352D01*
X7710152Y-16824352D02*
X7700628Y-16805305D01*
X7700628Y-16805305D02*
X7700628Y-16633876D01*
X7925390Y-16833876D02*
X7925390Y-16633876D01*
X7925390Y-16633876D02*
X7992057Y-16776733D01*
X7992057Y-16776733D02*
X8058724Y-16633876D01*
X8058724Y-16633876D02*
X8058724Y-16833876D01*
X8239676Y-16833876D02*
X8239676Y-16729114D01*
X8239676Y-16729114D02*
X8230152Y-16710067D01*
X8230152Y-16710067D02*
X8211105Y-16700543D01*
X8211105Y-16700543D02*
X8173009Y-16700543D01*
X8173009Y-16700543D02*
X8153962Y-16710067D01*
X8239676Y-16824352D02*
X8220628Y-16833876D01*
X8220628Y-16833876D02*
X8173009Y-16833876D01*
X8173009Y-16833876D02*
X8153962Y-16824352D01*
X8153962Y-16824352D02*
X8144438Y-16805305D01*
X8144438Y-16805305D02*
X8144438Y-16786257D01*
X8144438Y-16786257D02*
X8153962Y-16767209D01*
X8153962Y-16767209D02*
X8173009Y-16757686D01*
X8173009Y-16757686D02*
X8220628Y-16757686D01*
X8220628Y-16757686D02*
X8239676Y-16748162D01*
X8334914Y-16700543D02*
X8334914Y-16900543D01*
X8334914Y-16710067D02*
X8353962Y-16700543D01*
X8353962Y-16700543D02*
X8392057Y-16700543D01*
X8392057Y-16700543D02*
X8411105Y-16710067D01*
X8411105Y-16710067D02*
X8420629Y-16719590D01*
X8420629Y-16719590D02*
X8430152Y-16738638D01*
X8430152Y-16738638D02*
X8430152Y-16795781D01*
X8430152Y-16795781D02*
X8420629Y-16814829D01*
X8420629Y-16814829D02*
X8411105Y-16824352D01*
X8411105Y-16824352D02*
X8392057Y-16833876D01*
X8392057Y-16833876D02*
X8353962Y-16833876D01*
X8353962Y-16833876D02*
X8334914Y-16824352D01*
X8515867Y-16814829D02*
X8525390Y-16824352D01*
X8525390Y-16824352D02*
X8515867Y-16833876D01*
X8515867Y-16833876D02*
X8506343Y-16824352D01*
X8506343Y-16824352D02*
X8515867Y-16814829D01*
X8515867Y-16814829D02*
X8515867Y-16833876D01*
X8515867Y-16710067D02*
X8525390Y-16719590D01*
X8525390Y-16719590D02*
X8515867Y-16729114D01*
X8515867Y-16729114D02*
X8506343Y-16719590D01*
X8506343Y-16719590D02*
X8515867Y-16710067D01*
X8515867Y-16710067D02*
X8515867Y-16729114D01*
M02*
