%TF.GenerationSoftware,KiCad,Pcbnew,6.99.0-unknown-0ee7f8e2bd~162~ubuntu22.10.1*%
%TF.CreationDate,2022-11-30T23:28:57+01:00*%
%TF.ProjectId,frontpanel,66726f6e-7470-4616-9e65-6c2e6b696361,rev?*%
%TF.SameCoordinates,Original*%
%TF.FileFunction,Profile,NP*%
%FSLAX46Y46*%
G04 Gerber Fmt 4.6, Leading zero omitted, Abs format (unit mm)*
G04 Created by KiCad (PCBNEW 6.99.0-unknown-0ee7f8e2bd~162~ubuntu22.10.1) date 2022-11-30 23:28:57*
%MOMM*%
%LPD*%
G01*
G04 APERTURE LIST*
%TA.AperFunction,Profile*%
%ADD10C,0.100000*%
%TD*%
G04 APERTURE END LIST*
D10*
X69342000Y-36830000D02*
X150242000Y-36830000D01*
X150242000Y-36830000D02*
X150242000Y-165354000D01*
X150242000Y-165354000D02*
X69342000Y-165354000D01*
X69342000Y-165354000D02*
X69342000Y-36830000D01*
X98470558Y-53669999D02*
G75*
G03*
X98470558Y-53669999I-3150000J0D01*
G01*
X83310000Y-96256000D02*
G75*
G03*
X83310000Y-96256000I-3150000J0D01*
G01*
X127696241Y-53669999D02*
G75*
G03*
X127696241Y-53669999I-3400000J0D01*
G01*
X103370000Y-120966000D02*
G75*
G03*
X103370000Y-120966000I-3100000J0D01*
G01*
X83470000Y-71366000D02*
G75*
G03*
X83470000Y-71366000I-3150000J0D01*
G01*
X113430000Y-96166000D02*
G75*
G03*
X113430000Y-96166000I-3150000J0D01*
G01*
X143450000Y-71386000D02*
G75*
G03*
X143450000Y-71386000I-3150000J0D01*
G01*
X143366000Y-120966000D02*
G75*
G03*
X143366000Y-120966000I-3100000J0D01*
G01*
X133370000Y-120966000D02*
G75*
G03*
X133370000Y-120966000I-3100000J0D01*
G01*
X113460000Y-71386000D02*
G75*
G03*
X113460000Y-71386000I-3150000J0D01*
G01*
X113370000Y-120966000D02*
G75*
G03*
X113370000Y-120966000I-3100000J0D01*
G01*
X123370000Y-120966000D02*
G75*
G03*
X123370000Y-120966000I-3100000J0D01*
G01*
X141866000Y-86346000D02*
G75*
G03*
X141866000Y-86346000I-1510000J0D01*
G01*
X143420000Y-96166000D02*
G75*
G03*
X143420000Y-96166000I-3150000J0D01*
G01*
X83420000Y-121266000D02*
G75*
G03*
X83420000Y-121266000I-3100000J0D01*
G01*
X111756000Y-53416000D02*
G75*
G03*
X111756000Y-53416000I-1510000J0D01*
G01*
%TO.C,H2*%
X141942000Y-38230000D02*
X144242000Y-38230000D01*
X141942000Y-41430000D02*
X144242000Y-41430000D01*
X141942000Y-160730000D02*
X144242000Y-160730000D01*
X141942000Y-163930000D02*
X144242000Y-163930000D01*
X141942000Y-38230000D02*
G75*
G03*
X141942000Y-41430000I0J-1600000D01*
G01*
X141942000Y-160730000D02*
G75*
G03*
X141942000Y-163930000I0J-1600000D01*
G01*
X144242000Y-41430000D02*
G75*
G03*
X144242000Y-38230000I0J1600000D01*
G01*
X144242000Y-163930000D02*
G75*
G03*
X144242000Y-160730000I0J1600000D01*
G01*
%TO.C,H1*%
X75942000Y-38230000D02*
X78242000Y-38230000D01*
X75942000Y-41430000D02*
X78242000Y-41430000D01*
X75942000Y-160730000D02*
X78242000Y-160730000D01*
X75942000Y-163930000D02*
X78242000Y-163930000D01*
X75942000Y-38230000D02*
G75*
G03*
X75942000Y-41430000I0J-1600000D01*
G01*
X75942000Y-160730000D02*
G75*
G03*
X75942000Y-163930000I0J-1600000D01*
G01*
X78242000Y-41430000D02*
G75*
G03*
X78242000Y-38230000I0J1600000D01*
G01*
X78242000Y-163930000D02*
G75*
G03*
X78242000Y-160730000I0J1600000D01*
G01*
%TD*%
M02*
