%TF.GenerationSoftware,KiCad,Pcbnew,6.99.0-unknown-0ee7f8e2bd~162~ubuntu22.10.1*%
%TF.CreationDate,2022-11-30T23:28:57+01:00*%
%TF.ProjectId,frontpanel,66726f6e-7470-4616-9e65-6c2e6b696361,rev?*%
%TF.SameCoordinates,Original*%
%TF.FileFunction,Soldermask,Top*%
%TF.FilePolarity,Negative*%
%FSLAX46Y46*%
G04 Gerber Fmt 4.6, Leading zero omitted, Abs format (unit mm)*
G04 Created by KiCad (PCBNEW 6.99.0-unknown-0ee7f8e2bd~162~ubuntu22.10.1) date 2022-11-30 23:28:57*
%MOMM*%
%LPD*%
G01*
G04 APERTURE LIST*
%ADD10C,0.500000*%
%ADD11C,5.175000*%
%ADD12C,0.300000*%
G04 APERTURE END LIST*
D10*
X111254460Y-135363927D02*
X127254460Y-135363927D01*
X127254460Y-135363927D02*
X127254460Y-150801427D01*
X127254460Y-150801427D02*
X111254460Y-150801427D01*
X111254460Y-150801427D02*
X111254460Y-135363927D01*
G36*
X111254460Y-135363927D02*
G01*
X127254460Y-135363927D01*
X127254460Y-150801427D01*
X111254460Y-150801427D01*
X111254460Y-135363927D01*
G37*
D11*
X142853500Y-120966000D02*
G75*
G03*
X142853500Y-120966000I-2587500J0D01*
G01*
D10*
X130171128Y-135363927D02*
X146171128Y-135363927D01*
X146171128Y-135363927D02*
X146171128Y-150801427D01*
X146171128Y-150801427D02*
X130171128Y-150801427D01*
X130171128Y-150801427D02*
X130171128Y-135363927D01*
G36*
X130171128Y-135363927D02*
G01*
X146171128Y-135363927D01*
X146171128Y-150801427D01*
X130171128Y-150801427D01*
X130171128Y-135363927D01*
G37*
X73421128Y-135363927D02*
X89421128Y-135363927D01*
X89421128Y-135363927D02*
X89421128Y-150801427D01*
X89421128Y-150801427D02*
X73421128Y-150801427D01*
X73421128Y-150801427D02*
X73421128Y-135363927D01*
G36*
X73421128Y-135363927D02*
G01*
X89421128Y-135363927D01*
X89421128Y-150801427D01*
X73421128Y-150801427D01*
X73421128Y-135363927D01*
G37*
X92337794Y-135363927D02*
X108337794Y-135363927D01*
X108337794Y-135363927D02*
X108337794Y-150801427D01*
X108337794Y-150801427D02*
X92337794Y-150801427D01*
X92337794Y-150801427D02*
X92337794Y-135363927D01*
G36*
X92337794Y-135363927D02*
G01*
X108337794Y-135363927D01*
X108337794Y-150801427D01*
X92337794Y-150801427D01*
X92337794Y-135363927D01*
G37*
D12*
G36*
X106897983Y-38303087D02*
G01*
X106561660Y-38303087D01*
X105919057Y-41075000D01*
X106255380Y-41075000D01*
X106897983Y-38303087D01*
G37*
G36*
X107643900Y-41105041D02*
G01*
X107679734Y-41104598D01*
X107712537Y-41103141D01*
X107743192Y-41100482D01*
X107772586Y-41096432D01*
X107801602Y-41090802D01*
X107831124Y-41083403D01*
X107862037Y-41074046D01*
X107895226Y-41062543D01*
X107979490Y-40793632D01*
X107948324Y-40800085D01*
X107915322Y-40804760D01*
X107885875Y-40807466D01*
X107854194Y-40809232D01*
X107819843Y-40810194D01*
X107790147Y-40810474D01*
X107782386Y-40810484D01*
X107742927Y-40809391D01*
X107706451Y-40806067D01*
X107672990Y-40800443D01*
X107642572Y-40792453D01*
X107602719Y-40775881D01*
X107569884Y-40753605D01*
X107544168Y-40725395D01*
X107525674Y-40691023D01*
X107514501Y-40650260D01*
X107511171Y-40619423D01*
X107511170Y-40585576D01*
X107514528Y-40548653D01*
X107521277Y-40508585D01*
X107525931Y-40487351D01*
X108101123Y-38009263D01*
X107765533Y-38009263D01*
X107194005Y-40474895D01*
X107186462Y-40509581D01*
X107180317Y-40543554D01*
X107175571Y-40576790D01*
X107172224Y-40609262D01*
X107170273Y-40640945D01*
X107169720Y-40671814D01*
X107170563Y-40701843D01*
X107176436Y-40759279D01*
X107187888Y-40813050D01*
X107204915Y-40862951D01*
X107227513Y-40908780D01*
X107255677Y-40950331D01*
X107289403Y-40987400D01*
X107328687Y-41019785D01*
X107373524Y-41047281D01*
X107423911Y-41069683D01*
X107479842Y-41086789D01*
X107509886Y-41093292D01*
X107541314Y-41098394D01*
X107574126Y-41102070D01*
X107608322Y-41104294D01*
X107643900Y-41105041D01*
G37*
G36*
X109268360Y-41121894D02*
G01*
X109311340Y-41121145D01*
X109353563Y-41118910D01*
X109394990Y-41115205D01*
X109435581Y-41110046D01*
X109475295Y-41103449D01*
X109514092Y-41095431D01*
X109551934Y-41086007D01*
X109588780Y-41075194D01*
X109624589Y-41063009D01*
X109659324Y-41049467D01*
X109692943Y-41034584D01*
X109725406Y-41018378D01*
X109756675Y-41000863D01*
X109786708Y-40982057D01*
X109815467Y-40961976D01*
X109842910Y-40940635D01*
X109869000Y-40918052D01*
X109893695Y-40894242D01*
X109916955Y-40869221D01*
X109938742Y-40843006D01*
X109959014Y-40815614D01*
X109977733Y-40787059D01*
X109994859Y-40757359D01*
X110010350Y-40726530D01*
X110024169Y-40694587D01*
X110036274Y-40661548D01*
X110046626Y-40627429D01*
X110055186Y-40592244D01*
X110061912Y-40556012D01*
X110066766Y-40518748D01*
X110069708Y-40480468D01*
X110070697Y-40441189D01*
X110068644Y-40397645D01*
X110062552Y-40355274D01*
X110052517Y-40314170D01*
X110038641Y-40274425D01*
X110021020Y-40236131D01*
X109999754Y-40199380D01*
X109974943Y-40164266D01*
X109946683Y-40130879D01*
X109915075Y-40099312D01*
X109880217Y-40069659D01*
X109842207Y-40042010D01*
X109801145Y-40016459D01*
X109757129Y-39993097D01*
X109710258Y-39972017D01*
X109660631Y-39953311D01*
X109608346Y-39937072D01*
X109197285Y-39819836D01*
X109167028Y-39810604D01*
X109137882Y-39800455D01*
X109109965Y-39789332D01*
X109070645Y-39770694D01*
X109034739Y-39749537D01*
X109002640Y-39725665D01*
X108974738Y-39698883D01*
X108951424Y-39668995D01*
X108933091Y-39635806D01*
X108920128Y-39599120D01*
X108912927Y-39558742D01*
X108911521Y-39529675D01*
X108913242Y-39495806D01*
X108918417Y-39463500D01*
X108927069Y-39432843D01*
X108939216Y-39403920D01*
X108954879Y-39376818D01*
X108974079Y-39351622D01*
X108996836Y-39328418D01*
X109023170Y-39307292D01*
X109053103Y-39288330D01*
X109086653Y-39271617D01*
X109123842Y-39257240D01*
X109164690Y-39245285D01*
X109209217Y-39235837D01*
X109257445Y-39228982D01*
X109309392Y-39224806D01*
X109365080Y-39223394D01*
X109416890Y-39225098D01*
X109466767Y-39230151D01*
X109514650Y-39238469D01*
X109560478Y-39249967D01*
X109604189Y-39264561D01*
X109645722Y-39282166D01*
X109685016Y-39302696D01*
X109722010Y-39326068D01*
X109756643Y-39352196D01*
X109788853Y-39380996D01*
X109818580Y-39412382D01*
X109845761Y-39446270D01*
X109870337Y-39482575D01*
X109892245Y-39521213D01*
X109911425Y-39562098D01*
X109927815Y-39605146D01*
X110234829Y-39458600D01*
X110222051Y-39427116D01*
X110208185Y-39396552D01*
X110193252Y-39366912D01*
X110177272Y-39338202D01*
X110160265Y-39310428D01*
X110142250Y-39283595D01*
X110123249Y-39257708D01*
X110103281Y-39232771D01*
X110082366Y-39208791D01*
X110060525Y-39185773D01*
X110037777Y-39163721D01*
X110014143Y-39142641D01*
X109989642Y-39122539D01*
X109964296Y-39103419D01*
X109938124Y-39085287D01*
X109911146Y-39068148D01*
X109883382Y-39052007D01*
X109854853Y-39036869D01*
X109825578Y-39022740D01*
X109795578Y-39009625D01*
X109764873Y-38997529D01*
X109733482Y-38986458D01*
X109701427Y-38976416D01*
X109668727Y-38967409D01*
X109635402Y-38959442D01*
X109601473Y-38952520D01*
X109566959Y-38946649D01*
X109531881Y-38941834D01*
X109496259Y-38938079D01*
X109460113Y-38935391D01*
X109423463Y-38933774D01*
X109386329Y-38933234D01*
X109340383Y-38934039D01*
X109295571Y-38936430D01*
X109251913Y-38940368D01*
X109209431Y-38945816D01*
X109168146Y-38952737D01*
X109128080Y-38961093D01*
X109089254Y-38970847D01*
X109051690Y-38981960D01*
X109015407Y-38994396D01*
X108980429Y-39008117D01*
X108946777Y-39023085D01*
X108914470Y-39039262D01*
X108883532Y-39056612D01*
X108853983Y-39075096D01*
X108825845Y-39094677D01*
X108799139Y-39115317D01*
X108773886Y-39136979D01*
X108750107Y-39159626D01*
X108727825Y-39183219D01*
X108707060Y-39207721D01*
X108687833Y-39233095D01*
X108670166Y-39259302D01*
X108654081Y-39286307D01*
X108639598Y-39314070D01*
X108626740Y-39342554D01*
X108615526Y-39371722D01*
X108605979Y-39401536D01*
X108598121Y-39431959D01*
X108591971Y-39462953D01*
X108587552Y-39494480D01*
X108584885Y-39526503D01*
X108583991Y-39558984D01*
X108586010Y-39605639D01*
X108592071Y-39651030D01*
X108602181Y-39695077D01*
X108616346Y-39737701D01*
X108634572Y-39778822D01*
X108656866Y-39818361D01*
X108683235Y-39856239D01*
X108713684Y-39892376D01*
X108748221Y-39926692D01*
X108786851Y-39959108D01*
X108829582Y-39989546D01*
X108876419Y-40017924D01*
X108927369Y-40044165D01*
X108954388Y-40056458D01*
X108982438Y-40068188D01*
X109011520Y-40079343D01*
X109041633Y-40089914D01*
X109072780Y-40099890D01*
X109104961Y-40109263D01*
X109478653Y-40214043D01*
X109510554Y-40223875D01*
X109540319Y-40234443D01*
X109567959Y-40245796D01*
X109605458Y-40264407D01*
X109638236Y-40285064D01*
X109666328Y-40307933D01*
X109689772Y-40333180D01*
X109708603Y-40360973D01*
X109722857Y-40391478D01*
X109732572Y-40424862D01*
X109737782Y-40461291D01*
X109738771Y-40487351D01*
X109736906Y-40522323D01*
X109731334Y-40556236D01*
X109722093Y-40588926D01*
X109709222Y-40620227D01*
X109692757Y-40649974D01*
X109672736Y-40678001D01*
X109649196Y-40704143D01*
X109622176Y-40728236D01*
X109591712Y-40750113D01*
X109557843Y-40769609D01*
X109520606Y-40786560D01*
X109480038Y-40800799D01*
X109436177Y-40812161D01*
X109389061Y-40820482D01*
X109338727Y-40825596D01*
X109285212Y-40827337D01*
X109252883Y-40826882D01*
X109221291Y-40825518D01*
X109190435Y-40823245D01*
X109160312Y-40820064D01*
X109130922Y-40815977D01*
X109074334Y-40805084D01*
X109020658Y-40790573D01*
X108969883Y-40772450D01*
X108921997Y-40750721D01*
X108876988Y-40725394D01*
X108834844Y-40696475D01*
X108795554Y-40663969D01*
X108759105Y-40627884D01*
X108725486Y-40588225D01*
X108694685Y-40545000D01*
X108666691Y-40498215D01*
X108641491Y-40447876D01*
X108619073Y-40393990D01*
X108608904Y-40365718D01*
X108289434Y-40504204D01*
X108303431Y-40539241D01*
X108318621Y-40573448D01*
X108334993Y-40606806D01*
X108352535Y-40639298D01*
X108371233Y-40670904D01*
X108391077Y-40701606D01*
X108412052Y-40731385D01*
X108434148Y-40760224D01*
X108457352Y-40788103D01*
X108481650Y-40815004D01*
X108507032Y-40840908D01*
X108533484Y-40865797D01*
X108560995Y-40889652D01*
X108589552Y-40912456D01*
X108619142Y-40934188D01*
X108649754Y-40954832D01*
X108681374Y-40974368D01*
X108713991Y-40992778D01*
X108747592Y-41010043D01*
X108782166Y-41026144D01*
X108817698Y-41041064D01*
X108854178Y-41054784D01*
X108891593Y-41067285D01*
X108929931Y-41078549D01*
X108969178Y-41088557D01*
X109009324Y-41097290D01*
X109050355Y-41104731D01*
X109092259Y-41110860D01*
X109135024Y-41115660D01*
X109178637Y-41119111D01*
X109223086Y-41121195D01*
X109268360Y-41121894D01*
G37*
G36*
X111716975Y-38938632D02*
G01*
X111763187Y-38941611D01*
X111808128Y-38946524D01*
X111851783Y-38953330D01*
X111894135Y-38961987D01*
X111935167Y-38972455D01*
X111974863Y-38984690D01*
X112013207Y-38998653D01*
X112050180Y-39014301D01*
X112085767Y-39031592D01*
X112119952Y-39050485D01*
X112152717Y-39070938D01*
X112184046Y-39092911D01*
X112213922Y-39116360D01*
X112242329Y-39141245D01*
X112269249Y-39167524D01*
X112294667Y-39195155D01*
X112318566Y-39224098D01*
X112340929Y-39254309D01*
X112361739Y-39285748D01*
X112380980Y-39318373D01*
X112398635Y-39352143D01*
X112414688Y-39387015D01*
X112429122Y-39422949D01*
X112441919Y-39459902D01*
X112453065Y-39497833D01*
X112462541Y-39536701D01*
X112470332Y-39576464D01*
X112476420Y-39617080D01*
X112480790Y-39658508D01*
X112483424Y-39700705D01*
X112484305Y-39743632D01*
X112484065Y-39765020D01*
X112482814Y-39797445D01*
X112480504Y-39830265D01*
X112477151Y-39863462D01*
X112472770Y-39897018D01*
X112467374Y-39930914D01*
X112460978Y-39965132D01*
X112453597Y-39999654D01*
X112445245Y-40034463D01*
X112435937Y-40069540D01*
X112425687Y-40104867D01*
X110892819Y-40104867D01*
X110892819Y-40180338D01*
X110893528Y-40215448D01*
X110895643Y-40249870D01*
X110899144Y-40283574D01*
X110904010Y-40316534D01*
X110910222Y-40348721D01*
X110917761Y-40380107D01*
X110926606Y-40410664D01*
X110936737Y-40440365D01*
X110948134Y-40469181D01*
X110960779Y-40497086D01*
X110974650Y-40524050D01*
X110989728Y-40550045D01*
X111005993Y-40575045D01*
X111023426Y-40599021D01*
X111042005Y-40621945D01*
X111061713Y-40643789D01*
X111082528Y-40664525D01*
X111104431Y-40684126D01*
X111127402Y-40702563D01*
X111151420Y-40719809D01*
X111176468Y-40735836D01*
X111202523Y-40750615D01*
X111229567Y-40764120D01*
X111257580Y-40776321D01*
X111286542Y-40787191D01*
X111316433Y-40796703D01*
X111347232Y-40804828D01*
X111378921Y-40811538D01*
X111411480Y-40816805D01*
X111444888Y-40820602D01*
X111479125Y-40822901D01*
X111514173Y-40823674D01*
X111566486Y-40821437D01*
X111616314Y-40816429D01*
X111663729Y-40808730D01*
X111708804Y-40798417D01*
X111751612Y-40785572D01*
X111792226Y-40770273D01*
X111830719Y-40752600D01*
X111867165Y-40732632D01*
X111901635Y-40710449D01*
X111934204Y-40686130D01*
X111964943Y-40659754D01*
X111993927Y-40631401D01*
X112021227Y-40601151D01*
X112046918Y-40569082D01*
X112071071Y-40535274D01*
X112093761Y-40499808D01*
X112358276Y-40676395D01*
X112340620Y-40701307D01*
X112322278Y-40725615D01*
X112303255Y-40749305D01*
X112283555Y-40772367D01*
X112263183Y-40794787D01*
X112242143Y-40816554D01*
X112220442Y-40837655D01*
X112198083Y-40858078D01*
X112175072Y-40877810D01*
X112151412Y-40896841D01*
X112127110Y-40915157D01*
X112102170Y-40932746D01*
X112076597Y-40949596D01*
X112050395Y-40965695D01*
X112023569Y-40981030D01*
X111996125Y-40995590D01*
X111968067Y-41009362D01*
X111939399Y-41022334D01*
X111910128Y-41034494D01*
X111880256Y-41045829D01*
X111849791Y-41056328D01*
X111818735Y-41065978D01*
X111787095Y-41074766D01*
X111754874Y-41082682D01*
X111722078Y-41089712D01*
X111688712Y-41095844D01*
X111654779Y-41101066D01*
X111620287Y-41105366D01*
X111585238Y-41108732D01*
X111549638Y-41111151D01*
X111513491Y-41112612D01*
X111476803Y-41113101D01*
X111422773Y-41111904D01*
X111370189Y-41108347D01*
X111319070Y-41102483D01*
X111269434Y-41094365D01*
X111221298Y-41084048D01*
X111174679Y-41071583D01*
X111129595Y-41057024D01*
X111086065Y-41040424D01*
X111044104Y-41021836D01*
X111003731Y-41001314D01*
X110964964Y-40978910D01*
X110927819Y-40954677D01*
X110892316Y-40928670D01*
X110858470Y-40900940D01*
X110826300Y-40871541D01*
X110795824Y-40840526D01*
X110767058Y-40807949D01*
X110740021Y-40773862D01*
X110714730Y-40738318D01*
X110691203Y-40701371D01*
X110669456Y-40663074D01*
X110649509Y-40623479D01*
X110631378Y-40582641D01*
X110615080Y-40540611D01*
X110600635Y-40497444D01*
X110588058Y-40453193D01*
X110577368Y-40407910D01*
X110568582Y-40361648D01*
X110561718Y-40314462D01*
X110556794Y-40266403D01*
X110553826Y-40217525D01*
X110552833Y-40167882D01*
X110553998Y-40106719D01*
X110557485Y-40046115D01*
X110563278Y-39986160D01*
X110571363Y-39926946D01*
X110581726Y-39868562D01*
X110594351Y-39811099D01*
X110594366Y-39811043D01*
X110938981Y-39811043D01*
X112153112Y-39811043D01*
X112155230Y-39791660D01*
X112156582Y-39761147D01*
X112156776Y-39731175D01*
X112156224Y-39703104D01*
X112151840Y-39648813D01*
X112143156Y-39597113D01*
X112130259Y-39548150D01*
X112113235Y-39502071D01*
X112092172Y-39459024D01*
X112067156Y-39419156D01*
X112038275Y-39382614D01*
X112005615Y-39349544D01*
X111969263Y-39320094D01*
X111929306Y-39294411D01*
X111885832Y-39272642D01*
X111838926Y-39254934D01*
X111788677Y-39241434D01*
X111735171Y-39232288D01*
X111678494Y-39227645D01*
X111648995Y-39227058D01*
X111611686Y-39227816D01*
X111575454Y-39230066D01*
X111540287Y-39233772D01*
X111506177Y-39238898D01*
X111473113Y-39245406D01*
X111441084Y-39253261D01*
X111410082Y-39262426D01*
X111380095Y-39272865D01*
X111351114Y-39284542D01*
X111323128Y-39297420D01*
X111296128Y-39311462D01*
X111270104Y-39326633D01*
X111245045Y-39342897D01*
X111220941Y-39360216D01*
X111197783Y-39378554D01*
X111175560Y-39397875D01*
X111154263Y-39418144D01*
X111133880Y-39439322D01*
X111114403Y-39461374D01*
X111095820Y-39484264D01*
X111078123Y-39507956D01*
X111061300Y-39532412D01*
X111045343Y-39557596D01*
X111030240Y-39583473D01*
X111015982Y-39610006D01*
X111002558Y-39637158D01*
X110989959Y-39664893D01*
X110978175Y-39693175D01*
X110967195Y-39721967D01*
X110957009Y-39751234D01*
X110947608Y-39780938D01*
X110938981Y-39811043D01*
X110594366Y-39811043D01*
X110609226Y-39754649D01*
X110626335Y-39699302D01*
X110645663Y-39645148D01*
X110667196Y-39592278D01*
X110690921Y-39540784D01*
X110716821Y-39490755D01*
X110744883Y-39442282D01*
X110775092Y-39395456D01*
X110807434Y-39350368D01*
X110841894Y-39307109D01*
X110878458Y-39265768D01*
X110917111Y-39226438D01*
X110957839Y-39189208D01*
X111000627Y-39154169D01*
X111045461Y-39121412D01*
X111092326Y-39091027D01*
X111141208Y-39063106D01*
X111192093Y-39037739D01*
X111244965Y-39015017D01*
X111299810Y-38995030D01*
X111356614Y-38977869D01*
X111415363Y-38963625D01*
X111476041Y-38952388D01*
X111538635Y-38944250D01*
X111603130Y-38939300D01*
X111669511Y-38937630D01*
X111716975Y-38938632D01*
G37*
%TO.C,G\u002A\u002A\u002A*%
G36*
X108512957Y-161875964D02*
G01*
X108331414Y-161875964D01*
X108331414Y-160495873D01*
X108512957Y-160495873D01*
X108512957Y-161875964D01*
G37*
G36*
X109896311Y-157852840D02*
G01*
X110087476Y-158563446D01*
X109698991Y-158562183D01*
X109796125Y-158207107D01*
X109892131Y-157851737D01*
X109896311Y-157852840D01*
G37*
G36*
X111124223Y-155881808D02*
G01*
X111609720Y-155881808D01*
X111609720Y-155282421D01*
X111791310Y-155282421D01*
X111791309Y-156662559D01*
X111609719Y-156662559D01*
X111609719Y-156051338D01*
X111124223Y-156051338D01*
X111124223Y-156662559D01*
X110942680Y-156662559D01*
X110942680Y-155282421D01*
X111124223Y-155282421D01*
X111124223Y-155881808D01*
G37*
G36*
X107013098Y-162018334D02*
G01*
X106831695Y-162018334D01*
X106831695Y-158446047D01*
X109801103Y-156733371D01*
X109982459Y-156733371D01*
X112814859Y-158366989D01*
X112814859Y-155102083D01*
X109982505Y-153468465D01*
X109982459Y-156733371D01*
X109801103Y-156733371D01*
X109801103Y-153154563D01*
X112996354Y-154997449D01*
X112996354Y-162002913D01*
X112814906Y-162002913D01*
X112814906Y-158685690D01*
X109996075Y-160311528D01*
X109996075Y-163707995D01*
X109814672Y-163707995D01*
X109814672Y-160327182D01*
X107577272Y-159036676D01*
X109384855Y-159036676D01*
X109572335Y-159036606D01*
X109613356Y-158881766D01*
X109655234Y-158727153D01*
X110130831Y-158727259D01*
X110172886Y-158881816D01*
X110213805Y-159036676D01*
X110403275Y-159036676D01*
X110016407Y-157656538D01*
X109769718Y-157656538D01*
X109384855Y-159036676D01*
X107577272Y-159036676D01*
X107013098Y-158711267D01*
X107013098Y-162018334D01*
G37*
G36*
X111465763Y-160411736D02*
G01*
X111489428Y-160412183D01*
X111512552Y-160413523D01*
X111535137Y-160415757D01*
X111557181Y-160418884D01*
X111578686Y-160422905D01*
X111599651Y-160427820D01*
X111620076Y-160433627D01*
X111639961Y-160440329D01*
X111659306Y-160447924D01*
X111678111Y-160456412D01*
X111696376Y-160465794D01*
X111714102Y-160476070D01*
X111731287Y-160487239D01*
X111747932Y-160499301D01*
X111764038Y-160512258D01*
X111779603Y-160526107D01*
X111794421Y-160540691D01*
X111808283Y-160555860D01*
X111821188Y-160571614D01*
X111833138Y-160587955D01*
X111844132Y-160604880D01*
X111854170Y-160622392D01*
X111863252Y-160640489D01*
X111871377Y-160659172D01*
X111878547Y-160678440D01*
X111884761Y-160698294D01*
X111890019Y-160718733D01*
X111894321Y-160739758D01*
X111897667Y-160761369D01*
X111900057Y-160783565D01*
X111901491Y-160806347D01*
X111901968Y-160829714D01*
X111901675Y-160847546D01*
X111900796Y-160865055D01*
X111899331Y-160882239D01*
X111897279Y-160899100D01*
X111894641Y-160915636D01*
X111891417Y-160931849D01*
X111887607Y-160947738D01*
X111883210Y-160963303D01*
X111878227Y-160978543D01*
X111872659Y-160993460D01*
X111866503Y-161008053D01*
X111859762Y-161022322D01*
X111852435Y-161036267D01*
X111844521Y-161049888D01*
X111836021Y-161063186D01*
X111826936Y-161076159D01*
X111817362Y-161088487D01*
X111807387Y-161100338D01*
X111797012Y-161111712D01*
X111786236Y-161122609D01*
X111775060Y-161133029D01*
X111763483Y-161142972D01*
X111751504Y-161152437D01*
X111739126Y-161161425D01*
X111726346Y-161169936D01*
X111713166Y-161177970D01*
X111699585Y-161185527D01*
X111685603Y-161192606D01*
X111671220Y-161199209D01*
X111656437Y-161205334D01*
X111641253Y-161210982D01*
X111625668Y-161216153D01*
X111824978Y-161575967D01*
X111945384Y-161791874D01*
X111732226Y-161791874D01*
X111440115Y-161239819D01*
X111234883Y-161239819D01*
X111234883Y-161791874D01*
X111053340Y-161791874D01*
X111053340Y-161078116D01*
X111234883Y-161078116D01*
X111465811Y-161078116D01*
X111479007Y-161077854D01*
X111491956Y-161077069D01*
X111504659Y-161075761D01*
X111517115Y-161073929D01*
X111529325Y-161071574D01*
X111541288Y-161068695D01*
X111553004Y-161065293D01*
X111564474Y-161061368D01*
X111575697Y-161056919D01*
X111586673Y-161051947D01*
X111597403Y-161046452D01*
X111607886Y-161040433D01*
X111618123Y-161033891D01*
X111628112Y-161026825D01*
X111637856Y-161019236D01*
X111647352Y-161011124D01*
X111656195Y-161002559D01*
X111664468Y-160993625D01*
X111672170Y-160984321D01*
X111679302Y-160974647D01*
X111685863Y-160964603D01*
X111691853Y-160954189D01*
X111697273Y-160943406D01*
X111702123Y-160932253D01*
X111706402Y-160920730D01*
X111710110Y-160908837D01*
X111713248Y-160896574D01*
X111715816Y-160883942D01*
X111717812Y-160870940D01*
X111719239Y-160857568D01*
X111720095Y-160843826D01*
X111720380Y-160829714D01*
X111720095Y-160815371D01*
X111719239Y-160801413D01*
X111717812Y-160787838D01*
X111715816Y-160774649D01*
X111713248Y-160761843D01*
X111710110Y-160749422D01*
X111706402Y-160737385D01*
X111702123Y-160725732D01*
X111697273Y-160714464D01*
X111691853Y-160703580D01*
X111685863Y-160693081D01*
X111679302Y-160682966D01*
X111672170Y-160673235D01*
X111664468Y-160663889D01*
X111656195Y-160654926D01*
X111647352Y-160646349D01*
X111637856Y-160638473D01*
X111628112Y-160631106D01*
X111618123Y-160624247D01*
X111607886Y-160617895D01*
X111597403Y-160612052D01*
X111586673Y-160606717D01*
X111575697Y-160601890D01*
X111564474Y-160597572D01*
X111553004Y-160593761D01*
X111541288Y-160590458D01*
X111529325Y-160587664D01*
X111517115Y-160585377D01*
X111504659Y-160583599D01*
X111491956Y-160582329D01*
X111479007Y-160581567D01*
X111465811Y-160581312D01*
X111234883Y-160581312D01*
X111234883Y-161078116D01*
X111053340Y-161078116D01*
X111053340Y-160411736D01*
X111465763Y-160411736D01*
G37*
G36*
X108335128Y-155213360D02*
G01*
X108357531Y-155214700D01*
X108379409Y-155216934D01*
X108400764Y-155220061D01*
X108421595Y-155224082D01*
X108441902Y-155228997D01*
X108461685Y-155234805D01*
X108480944Y-155241506D01*
X108499679Y-155249101D01*
X108517891Y-155257589D01*
X108535578Y-155266971D01*
X108552742Y-155277247D01*
X108569381Y-155288416D01*
X108585497Y-155300478D01*
X108601088Y-155313435D01*
X108616156Y-155327284D01*
X108630731Y-155341845D01*
X108644366Y-155356945D01*
X108657060Y-155372585D01*
X108668814Y-155388764D01*
X108679627Y-155405484D01*
X108689501Y-155422743D01*
X108698434Y-155440542D01*
X108706426Y-155458881D01*
X108713479Y-155477759D01*
X108719591Y-155497177D01*
X108724762Y-155517135D01*
X108728994Y-155537633D01*
X108732285Y-155558670D01*
X108734636Y-155580247D01*
X108736046Y-155602364D01*
X108736516Y-155625021D01*
X108554973Y-155625021D01*
X108554696Y-155611154D01*
X108553863Y-155597657D01*
X108552475Y-155584530D01*
X108550532Y-155571772D01*
X108548033Y-155559384D01*
X108544979Y-155547366D01*
X108541370Y-155535718D01*
X108537206Y-155524440D01*
X108532487Y-155513531D01*
X108527212Y-155502992D01*
X108521382Y-155492823D01*
X108514997Y-155483024D01*
X108508057Y-155473595D01*
X108500561Y-155464535D01*
X108492510Y-155455845D01*
X108483904Y-155447525D01*
X108475140Y-155439650D01*
X108466114Y-155432282D01*
X108456825Y-155425423D01*
X108447274Y-155419072D01*
X108437460Y-155413229D01*
X108427385Y-155407894D01*
X108417047Y-155403067D01*
X108406447Y-155398748D01*
X108395584Y-155394938D01*
X108384459Y-155391635D01*
X108373072Y-155388841D01*
X108361422Y-155386554D01*
X108349511Y-155384776D01*
X108337336Y-155383506D01*
X108324900Y-155382744D01*
X108312201Y-155382490D01*
X108299265Y-155382744D01*
X108286607Y-155383506D01*
X108274226Y-155384776D01*
X108262123Y-155386554D01*
X108250298Y-155388841D01*
X108238750Y-155391635D01*
X108227479Y-155394938D01*
X108216487Y-155398748D01*
X108205772Y-155403067D01*
X108195334Y-155407894D01*
X108185175Y-155413229D01*
X108175292Y-155419072D01*
X108165688Y-155425423D01*
X108156361Y-155432282D01*
X108147311Y-155439650D01*
X108138539Y-155447525D01*
X108130176Y-155455845D01*
X108122353Y-155464534D01*
X108115069Y-155473593D01*
X108108324Y-155483021D01*
X108102119Y-155492819D01*
X108096454Y-155502986D01*
X108091328Y-155513523D01*
X108086742Y-155524429D01*
X108082695Y-155535704D01*
X108079188Y-155547349D01*
X108076220Y-155559363D01*
X108073792Y-155571746D01*
X108071904Y-155584499D01*
X108070555Y-155597622D01*
X108069745Y-155611113D01*
X108069476Y-155624975D01*
X108069476Y-156218353D01*
X108069745Y-156232220D01*
X108070555Y-156245717D01*
X108071904Y-156258844D01*
X108073792Y-156271601D01*
X108076220Y-156283989D01*
X108079188Y-156296007D01*
X108082695Y-156307655D01*
X108086742Y-156318934D01*
X108091328Y-156329842D01*
X108096454Y-156340381D01*
X108102119Y-156350550D01*
X108108324Y-156360349D01*
X108115069Y-156369779D01*
X108122353Y-156378839D01*
X108130176Y-156387528D01*
X108138539Y-156395849D01*
X108147311Y-156403724D01*
X108156361Y-156411091D01*
X108165688Y-156417951D01*
X108175292Y-156424302D01*
X108185175Y-156430145D01*
X108195334Y-156435480D01*
X108205772Y-156440307D01*
X108216487Y-156444625D01*
X108227479Y-156448436D01*
X108238750Y-156451739D01*
X108250298Y-156454533D01*
X108262123Y-156456820D01*
X108274226Y-156458598D01*
X108286607Y-156459868D01*
X108299265Y-156460630D01*
X108312201Y-156460884D01*
X108324900Y-156460630D01*
X108337336Y-156459868D01*
X108349511Y-156458598D01*
X108361422Y-156456820D01*
X108373072Y-156454533D01*
X108384459Y-156451739D01*
X108395584Y-156448436D01*
X108406447Y-156444625D01*
X108417047Y-156440307D01*
X108427385Y-156435480D01*
X108437460Y-156430145D01*
X108447274Y-156424302D01*
X108456825Y-156417951D01*
X108466114Y-156411091D01*
X108475140Y-156403724D01*
X108483904Y-156395849D01*
X108492510Y-156387529D01*
X108500561Y-156378839D01*
X108508057Y-156369781D01*
X108514997Y-156360352D01*
X108521382Y-156350555D01*
X108527212Y-156340388D01*
X108532487Y-156329851D01*
X108537206Y-156318945D01*
X108541370Y-156307670D01*
X108544979Y-156296025D01*
X108548033Y-156284011D01*
X108550532Y-156271627D01*
X108552475Y-156258874D01*
X108553863Y-156245752D01*
X108554696Y-156232260D01*
X108554973Y-156218399D01*
X108736516Y-156218399D01*
X108736046Y-156241050D01*
X108734636Y-156263162D01*
X108732285Y-156284734D01*
X108728994Y-156305767D01*
X108724762Y-156326260D01*
X108719591Y-156346214D01*
X108713479Y-156365629D01*
X108706426Y-156384505D01*
X108698434Y-156402841D01*
X108689501Y-156420637D01*
X108679627Y-156437894D01*
X108668814Y-156454612D01*
X108657060Y-156470791D01*
X108644366Y-156486430D01*
X108630731Y-156501529D01*
X108616156Y-156516090D01*
X108601094Y-156529939D01*
X108585507Y-156542895D01*
X108569397Y-156554958D01*
X108552762Y-156566127D01*
X108535602Y-156576402D01*
X108517919Y-156585784D01*
X108499711Y-156594273D01*
X108480979Y-156601868D01*
X108461722Y-156608569D01*
X108441942Y-156614377D01*
X108421637Y-156619291D01*
X108400808Y-156623312D01*
X108379454Y-156626440D01*
X108357577Y-156628673D01*
X108335175Y-156630014D01*
X108312249Y-156630460D01*
X108289080Y-156630014D01*
X108266451Y-156628673D01*
X108244362Y-156626440D01*
X108222812Y-156623312D01*
X108201803Y-156619291D01*
X108181334Y-156614377D01*
X108161404Y-156608569D01*
X108142014Y-156601868D01*
X108123165Y-156594273D01*
X108104855Y-156585784D01*
X108087085Y-156576402D01*
X108069855Y-156566127D01*
X108053165Y-156554958D01*
X108037015Y-156542895D01*
X108021405Y-156529939D01*
X108006335Y-156516090D01*
X107991992Y-156501529D01*
X107978574Y-156486430D01*
X107966081Y-156470791D01*
X107954514Y-156454612D01*
X107943872Y-156437894D01*
X107934156Y-156420637D01*
X107925365Y-156402841D01*
X107917499Y-156384505D01*
X107910559Y-156365629D01*
X107904544Y-156346214D01*
X107899455Y-156326260D01*
X107895290Y-156305767D01*
X107892052Y-156284734D01*
X107889738Y-156263162D01*
X107888350Y-156241050D01*
X107887887Y-156218399D01*
X107887887Y-155624928D01*
X107888350Y-155602277D01*
X107889737Y-155580165D01*
X107892050Y-155558593D01*
X107895288Y-155537560D01*
X107899450Y-155517066D01*
X107904538Y-155497112D01*
X107910550Y-155477697D01*
X107917488Y-155458822D01*
X107925350Y-155440486D01*
X107934138Y-155422690D01*
X107943851Y-155405432D01*
X107954488Y-155388715D01*
X107966051Y-155372536D01*
X107978539Y-155356897D01*
X107991951Y-155341798D01*
X108006289Y-155327237D01*
X108021365Y-155313393D01*
X108036979Y-155300443D01*
X108053133Y-155288385D01*
X108069827Y-155277220D01*
X108087059Y-155266949D01*
X108104831Y-155257571D01*
X108123141Y-155249086D01*
X108141991Y-155241494D01*
X108161380Y-155234795D01*
X108181309Y-155228990D01*
X108201776Y-155224078D01*
X108222783Y-155220058D01*
X108244329Y-155216932D01*
X108266414Y-155214699D01*
X108289038Y-155213360D01*
X108312202Y-155212913D01*
X108335128Y-155213360D01*
G37*
%TD*%
M02*
